<svg width="24" height="24" viewBox="0 0 24 24" fill="none" xmlns="http://www.w3.org/2000/svg">
<g id="pepicons-pencil:internet">
<g id="Group">
<path id="Vector" fill-rule="evenodd" clip-rule="evenodd" d="M1.7998 12.8008C1.7998 14.2453 2.08433 15.6757 2.63713 17.0103C3.18993 18.3449 4.00019 19.5575 5.02163 20.579C6.04307 21.6004 7.25571 22.4107 8.59029 22.9635C9.92487 23.5163 11.3553 23.8008 12.7998 23.8008C14.2443 23.8008 15.6747 23.5163 17.0093 22.9635C18.3439 22.4107 19.5565 21.6004 20.578 20.579C21.5994 19.5575 22.4097 18.3449 22.9625 17.0103C23.5153 15.6757 23.7998 14.2453 23.7998 12.8008C23.7998 9.8834 22.6409 7.08551 20.578 5.02261C18.5151 2.95971 15.7172 1.80078 12.7998 1.80078C9.88242 1.80078 7.08453 2.95971 5.02163 5.02261C2.95873 7.08551 1.7998 9.8834 1.7998 12.8008ZM22.5057 12.8008C22.5057 15.3749 21.4831 17.8437 19.6629 19.6639C17.8427 21.4841 15.374 22.5067 12.7998 22.5067C10.2256 22.5067 7.75692 21.4841 5.93671 19.6639C4.1165 17.8437 3.09392 15.3749 3.09392 12.8008C3.09392 10.2266 4.1165 7.75789 5.93671 5.93769C7.75692 4.11748 10.2256 3.0949 12.7998 3.0949C15.374 3.0949 17.8427 4.11748 19.6629 5.93769C21.4831 7.75789 22.5057 10.2266 22.5057 12.8008Z" fill="#9ACA3C"/>
<path id="Vector_2" fill-rule="evenodd" clip-rule="evenodd" d="M8.27051 12.8022C8.27051 18.4911 10.1366 23.1551 12.7999 23.1551C15.4632 23.1551 17.3293 18.4911 17.3293 12.8022C17.3293 7.11322 15.4632 2.44922 12.7999 2.44922C10.1366 2.44922 8.27051 7.11322 8.27051 12.8022ZM16.0352 12.8022C16.0352 17.835 14.424 21.861 12.7999 21.861C11.1758 21.861 9.56463 17.835 9.56463 12.8022C9.56463 7.76934 11.1758 3.74334 12.7999 3.74334C14.424 3.74334 16.0352 7.76934 16.0352 12.8022Z" fill="#9ACA3C"/>
<path id="Vector_3" d="M4.69207 6.73367L5.55913 5.77344C5.6976 5.89767 5.84513 6.01932 6.00301 6.13708C7.70866 7.41567 10.4004 8.19473 13.3342 8.19473C15.8357 8.19473 18.1703 7.6292 19.876 6.65473C20.2689 6.43238 20.6402 6.17372 20.985 5.88214L21.8262 6.86567C21.4405 7.19567 21.0031 7.49979 20.5191 7.77673C18.6077 8.87026 16.0518 9.48885 13.3342 9.48885C10.1377 9.48885 7.1716 8.63085 5.22654 7.17238C5.04172 7.034 4.86338 6.88847 4.69207 6.73367ZM4.69207 18.8828L5.55913 19.8405C5.6976 19.7163 5.84513 19.5946 6.00301 19.4781C7.70866 18.1996 10.4004 17.4205 13.3342 17.4205C15.8357 17.4205 18.1703 17.9847 19.876 18.9605C20.2914 19.1986 20.6628 19.4574 20.985 19.7318L21.8262 18.7483C21.4199 18.4044 20.9823 18.0994 20.5191 17.8372C18.6077 16.745 16.0518 16.1264 13.3342 16.1264C10.1377 16.1264 7.1716 16.9844 5.22654 18.4416C5.0376 18.5839 4.85901 18.7314 4.69207 18.8828ZM2.44678 13.4476V12.1534H23.1527V13.4476H2.44678Z" fill="#9ACA3C"/>
</g>
</g>
</svg>
