<svg width="22" height="22" viewBox="0 0 22 22" fill="none" xmlns="http://www.w3.org/2000/svg">
<g id="uil:facebook" clip-path="url(#clip0_3176_5414)">
<path id="Vector" d="M22.6235 1.83203H3.0435C2.72258 1.83203 2.41482 1.95951 2.1879 2.18643C1.96098 2.41335 1.8335 2.72112 1.8335 3.04203V22.622C1.8335 22.9429 1.96098 23.2507 2.1879 23.4776C2.41482 23.7046 2.72258 23.832 3.0435 23.832H13.5815V15.307H10.7215V12.007H13.5815V9.53203C13.5223 8.95096 13.5909 8.36397 13.7825 7.81222C13.9741 7.26047 14.2841 6.75733 14.6908 6.33808C15.0975 5.91884 15.5909 5.59364 16.1366 5.38529C16.6823 5.17695 17.2669 5.09051 17.8495 5.13203C18.7057 5.12676 19.5614 5.17084 20.4125 5.26403V8.23403H18.6635C17.2775 8.23403 17.0135 8.89403 17.0135 9.85103V11.974H20.3135L19.8845 15.274H17.0135V23.832H22.6235C22.7824 23.832 22.9397 23.8007 23.0865 23.7399C23.2333 23.6791 23.3667 23.59 23.4791 23.4776C23.5915 23.3653 23.6806 23.2319 23.7414 23.0851C23.8022 22.9383 23.8335 22.7809 23.8335 22.622V3.04203C23.8335 2.88313 23.8022 2.72579 23.7414 2.57898C23.6806 2.43218 23.5915 2.29879 23.4791 2.18643C23.3667 2.07407 23.2333 1.98495 23.0865 1.92414C22.9397 1.86333 22.7824 1.83203 22.6235 1.83203Z" fill="#9ACA3C"/>
</g>
<defs>
<clipPath id="clip0_3176_5414">
<rect width="22" height="22" fill="white"/>
</clipPath>
</defs>
</svg>
