<svg width="84" height="46" viewBox="0 0 84 46" fill="none" xmlns="http://www.w3.org/2000/svg">
<path id="Arrow 2" d="M64.8476 33.6402L64.429 32.732L64.8476 33.6402ZM81.4644 25.2036C81.9825 25.3948 82.2475 25.9698 82.0563 26.4879L78.9402 34.9313C78.749 35.4494 78.174 35.7144 77.6559 35.5232C77.1377 35.332 76.8727 34.757 77.0639 34.2388L79.8337 26.7336L72.3285 23.9638C71.8104 23.7726 71.5454 23.1976 71.7366 22.6794C71.9278 22.1613 72.5029 21.8963 73.021 22.0875L81.4644 25.2036ZM3.66618 0.475795C3.77471 1.13618 3.89725 1.78979 4.03341 2.43643L2.07633 2.84852C1.93403 2.17273 1.80601 1.48987 1.69265 0.800147L3.66618 0.475795ZM5.02812 6.28807C5.4215 7.56761 5.86999 8.81571 6.37017 10.0306L4.52078 10.792C3.99724 9.52037 3.52794 8.21432 3.11643 6.8758L5.02812 6.28807ZM8.05355 13.6334C8.67356 14.8136 9.34481 15.9568 10.0636 17.0611L8.38743 18.1522C7.63491 16.9961 6.93213 15.7992 6.283 14.5636L8.05355 13.6334ZM12.3865 20.2899C13.2129 21.3325 14.0846 22.3326 14.998 23.2882L13.5522 24.6701C12.5964 23.6702 11.6841 22.6235 10.8191 21.5322L12.3865 20.2899ZM17.8753 26.0336C18.8775 26.9056 19.918 27.73 20.9928 28.5047L19.8233 30.1271C18.6993 29.3169 17.6109 28.4546 16.5625 27.5425L17.8753 26.0336ZM24.3224 30.6814C25.4648 31.3561 26.6374 31.9786 27.8363 32.5468L26.9798 34.3541C25.7261 33.7599 24.4999 33.109 23.3053 32.4035L24.3224 30.6814ZM31.5049 34.0851C32.7487 34.5412 34.0146 34.9412 35.2983 35.2827L34.7841 37.2155C33.4412 36.8582 32.1172 36.4399 30.8163 35.9628L31.5049 34.0851ZM39.1845 36.1277C40.4877 36.3488 41.8046 36.5106 43.1311 36.6108L42.9804 38.6052C41.5919 38.5002 40.2137 38.3309 38.85 38.0996L39.1845 36.1277ZM47.1071 36.7258C48.4245 36.7025 49.7475 36.6179 51.0724 36.4702L51.294 38.4579C49.9069 38.6125 48.5217 38.701 47.1425 38.7255L47.1071 36.7258ZM54.9998 35.8459C56.2863 35.5795 57.5714 35.2516 58.8517 34.8605L59.436 36.7733C58.0967 37.1824 56.752 37.5255 55.4054 37.8043L54.9998 35.8459ZM62.5993 33.5264C63.2112 33.2769 63.8212 33.0121 64.429 32.732L65.2661 34.5484C64.6313 34.841 63.994 35.1175 63.3545 35.3783L62.5993 33.5264ZM64.429 32.732L66.4628 31.7947L67.2999 33.6111L65.2661 34.5484L64.429 32.732ZM70.5305 29.9201L74.5981 28.0455L75.4352 29.8618L71.3676 31.7365L70.5305 29.9201ZM78.6658 26.1708L80.6996 25.2335L81.5367 27.0499L79.5029 27.9872L78.6658 26.1708ZM64.8476 33.6402L64.0105 31.8238L64.8476 33.6402ZM81.8106 24.2654C82.8468 24.6478 83.3769 25.7979 82.9944 26.8342L76.7623 43.7209C76.3799 44.7571 75.2298 45.2872 74.1936 44.9047C73.1573 44.5223 72.6273 43.3722 73.0097 42.336L78.5494 27.3256L63.539 21.7859C62.5027 21.4035 61.9727 20.2534 62.3551 19.2172C62.7375 18.1809 63.8876 17.6509 64.9239 18.0333L81.8106 24.2654ZM4.65294 0.313623C4.75906 0.959336 4.87886 1.59832 5.01195 2.23039L1.09778 3.05457C0.952417 2.3642 0.821655 1.66671 0.705889 0.962319L4.65294 0.313623ZM5.98397 5.99421C6.36828 7.24425 6.80637 8.46338 7.29487 9.6499L3.59608 11.1727C3.06086 9.8727 2.58116 8.53768 2.16058 7.16967L5.98397 5.99421ZM8.93882 13.1684C9.54428 14.3209 10.1998 15.4372 10.9017 16.5155L7.54934 18.6977C6.77995 17.5157 6.06142 16.292 5.39773 15.0287L8.93882 13.1684ZM13.1702 19.6688C13.9773 20.687 14.8287 21.6639 15.7209 22.5973L12.8293 25.3611C11.8523 24.339 10.9197 23.269 10.0354 22.1534L13.1702 19.6688ZM18.5317 25.2792C19.5108 26.131 20.5274 26.9365 21.5775 27.6934L19.2386 30.9384C18.0899 30.1104 16.9777 29.2292 15.9062 28.2969L18.5317 25.2792ZM24.8309 29.8203C25.9472 30.4796 27.0931 31.0879 28.2646 31.6431L26.5516 35.2577C25.2705 34.6506 24.0174 33.9854 22.7968 33.2645L24.8309 29.8203ZM31.8492 33.1462C33.0645 33.5919 34.3013 33.9827 35.5555 34.3164L34.527 38.1819C33.1545 37.8167 31.8014 37.3892 30.472 36.9016L31.8492 33.1462ZM39.3517 35.1418C40.6248 35.3578 41.911 35.5157 43.2065 35.6137L42.905 39.6023C41.4855 39.495 40.0767 39.322 38.6827 39.0855L39.3517 35.1418ZM47.0894 35.726C48.3758 35.7032 49.6678 35.6206 50.9616 35.4764L51.4048 39.4517C49.9865 39.6099 48.5704 39.7003 47.1602 39.7253L47.0894 35.726ZM54.797 34.8666C56.0535 34.6065 57.3088 34.2862 58.5595 33.9042L59.7281 37.7297C58.3594 38.1478 56.9848 38.4985 55.6081 38.7835L54.797 34.8666ZM62.2217 32.6004C62.8198 32.3565 63.4162 32.0977 64.0105 31.8238L65.6847 35.4566C65.0364 35.7554 64.3854 36.0379 63.7321 36.3043L62.2217 32.6004ZM64.0105 31.8238L66.0443 30.8865L67.7185 34.5193L65.6847 35.4566L64.0105 31.8238ZM70.1119 29.0119L74.1796 27.1373L75.8538 30.77L71.7861 32.6447L70.1119 29.0119ZM78.2472 25.2626L80.281 24.3253L81.9552 27.9581L79.9214 28.8954L78.2472 25.2626Z" fill="#C7CFD7"/>
</svg>
