<svg width="1512" height="95" viewBox="0 0 1512 95" fill="none" xmlns="http://www.w3.org/2000/svg">
<path d="M-452.021 58.4659C-531.165 47.9256 -586.317 76.8565 -604 92.6395V0H1566V94.2861C1563.71 100.874 1537.32 59.7008 1503.63 59.7008C1462.77 61.7595 1470.65 79.4638 1434.81 81.1108C1391.08 74.1114 1331.58 38.7026 1298.6 59.7008C1273.94 78.1463 1163.59 99.3641 1105.05 74.5231L1086.41 67.1119C1054.15 54.2858 974.573 62.1712 938.012 74.5231C889.264 84.8163 857.453 52.5078 810.875 44.5C758.525 35.5 733.426 74.5231 706.892 64C648.778 40.9521 648.089 16.5 602.511 67.9354C590.185 81.8462 532.633 90 514.335 67.9354C486 33.7669 433.278 67.9354 394.229 67.9354C334.156 67.9354 346.899 40.5 287.378 40.5C247.605 40.5 239.655 68.458 189.133 62C146.106 56.5 146.106 52.7115 114.553 55C82.9993 57.2885 82.0555 66.7002 58.3984 74.5231C34.5159 82.4205 26.1387 83.1694 -6.83777 84.8163C-23.565 83.8556 -41.3318 87.4197 -74.9415 72.8762C-127.274 50.231 -156.666 58.0539 -189.643 65.0533C-208.998 69.1616 -233.946 81.9344 -307.928 85.2281C-381.91 88.5217 -415.46 63.335 -452.021 58.4659Z" fill="#9ADC2F" fill-opacity="0.2"/>
</svg>
