<?xml version="1.0" encoding="UTF-8"?>
<svg id="Chaussure" xmlns="http://www.w3.org/2000/svg" viewBox="0 0 2116.81 1693.45">
  <defs>
    <style>
      .cls-1 {
        letter-spacing: -.07em;
      }

      .cls-2, .cls-3, .cls-4, .cls-5, .cls-6, .cls-7, .cls-8, .cls-9, .cls-10, .cls-11, .cls-12 {
        stroke-miterlimit: 10;
      }

      .cls-2, .cls-6, .cls-7, .cls-9, .cls-11, .cls-12 {
        fill: none;
      }

      .cls-2, .cls-6, .cls-9, .cls-11, .cls-12 {
        stroke-width: 5px;
      }

      .cls-2, .cls-6, .cls-11, .cls-12 {
        stroke: #88af3d;
      }

      .cls-3 {
        stroke-width: .75px;
      }

      .cls-3, .cls-4, .cls-5, .cls-7, .cls-8, .cls-9, .cls-10 {
        stroke: #465a61;
      }

      .cls-3, .cls-13, .cls-14 {
        fill: #465a61;
      }

      .cls-4 {
        fill: #a7d7d3;
      }

      .cls-4, .cls-5, .cls-7, .cls-8 {
        stroke-width: 2px;
      }

      .cls-4, .cls-5, .cls-8, .cls-10 {
        stroke-linecap: round;
      }

      .cls-5, .cls-10 {
        fill: #779cab;
      }

      .cls-15 {
        letter-spacing: -.02em;
      }

      .cls-16 {
        fill: #fff;
      }

      .cls-16, .cls-17, .cls-13 {
        stroke-width: 0px;
      }

      .cls-6 {
        stroke-dasharray: 0 0 4 4;
      }

      .cls-8 {
        fill: #e57c2e;
      }

      .cls-10 {
        stroke-width: .25px;
      }

      .cls-17 {
        fill: #f5f2f4;
      }

      .cls-11 {
        stroke-dasharray: 0 0 4.02 4.02;
      }

      .cls-14 {
        font-family: HelveticaNeueLTStd-BdCn, 'Helvetica Neue LT Std';
        font-size: 42.25px;
      }

      .cls-12 {
        stroke-dasharray: 0 4;
      }
    </style>
  </defs>
  <rect class="cls-16" x=".8" y="0" width="2116.81" height="1693.45"/>
  <g>
    <path class="cls-17" d="M776.35,1140.26h-166.05s-157.07-15.71-158.2-37.02c-1.12-21.32,0-132.39,0-132.39,0,0,7.85-14.21,16.08-14.21s-15.58-29.92-16.58-74.05c-1-44.13,11.34-120.8,29.3-159.32s19.45-47.87,19.45-47.87c0,0,20.94-7.85,27.3-2.24,6.36,5.61,79.66,33.28,154.46,43.76,74.8,10.47,148.1,12.72,194.85-11.59,46.75-24.31,64.33-37.4,64.33-37.4.48.2,38.15-32.54,38.15-32.54,0,0,30.67-27.67,40.02-29.54s31.79,6.36,31.79,6.36l15.71,11.59,48.24,36.65,43.01,35.53,34.78,29.17,31.04,35.15,30.29,37.02s4.86-2.99,7.11-1.5,22.44,17.2,22.44,17.2l50.86,27.67,58.34,22.44,6.73.75,25.43,5.61,75.17,7.85,57.97.37h50.49l42.26,4.86,37.02,8.98s22.07,5.98,28.05,8.6c5.98,2.62,20.85,11.92,28.84,17.53s14.16,10.52,17.11,17.11c2.95,6.59,4.21,20.9,4.21,23s1.68,1.82,1.68,1.82c0,0,7.08.73,11.22,4.35,1.68,1.47,4.21,1.96,6.17,13.32,1.96,11.36,5.75,31.98,5.75,31.98,0,0-1.54,9.82-11.36,13.6-9.82,3.79-61.57,23.42-61.57,23.42l-68.3,23.42-61.57,18.09-58.06,13.04-48.66,9.68-62.13,8.41-69.7,6.03-71.52,3.65-83.45-2.8-75.45-4.91-53.99-9.54-25.24-11.78s-105.46-21.32-117.81-22.44c-12.34-1.12-69.98-8.27-69.98-8.27l-60.16-2.95s-3.93,19.63-4.07,25.95c-.06,2.61-5.98,46.25-7.29,47.4-2.24,1.96-4.49.98-4.49.98Z"/>
    <path class="cls-9" d="M469.31,956.66l3.31,4.14c2.71,3.39,6.4,5.87,10.56,7.1l56.57,16.71c6.14,1.81,12.4,3.14,18.75,3.96l116.88,15.21,81.53,5.98,96.49,9.35,92,9.72,112.94,23.19,87.51,10.1,112.94,4.86,93.5-1.87,83.77-7.48,77.79-10.1,68.81-13.84,76.29-20.2,66.2-22.81,32.89-13.76c6-2.51,9.27-14.76,9.27-16.96"/>
    <path class="cls-9" d="M1056.24,615.09c7.9-4.55,11.26-5.48,12.57-3.61,1.31,1.87,11.22,2.52-31.04,40.43"/>
    <circle class="cls-9" cx="1039.24" cy="651.91" r="2.34"/>
    <path class="cls-9" d="M1101.25,649.03c.86-2.11,4.35-3.01,6.5-2.57,2.62.53,19.77,1.75-21.99,35.8"/>
    <circle class="cls-9" cx="1084.61" cy="682.74" r="2.34"/>
    <path class="cls-9" d="M1148.62,687.16c1.23-2.74,6.51-4.18,8.13-3.57s16.46,2.29-29.3,31.13"/>
    <circle class="cls-9" cx="1127.45" cy="714.72" r="2.34"/>
    <path class="cls-9" d="M1191.53,725.66c1.62-1.99,5.56-3.55,7.19-2.99,6,2.08,4.74,15.71-19.23,28.79"/>
    <circle class="cls-9" cx="1179.49" cy="751.46" r="2.34"/>
    <path class="cls-9" d="M1231.03,767.24c1.62-1.99,6.12-2.45,8.55-.47,1.87,1.53,5.86,5.29-14.14,21.11"/>
    <circle class="cls-9" cx="1225.44" cy="788.18" r="2.34"/>
  </g>
  <path class="cls-9" d="M498.21,685.67s21.01,16.23,44.17,27.25c23.39,11.12,84.19,33.01,111.12,36.94,26.93,3.93,58.34,4.49,90.88,0,32.54-4.49,70.12-7.29,89.76-14.59s66.76-31.41,81.34-40.39c14.59-8.98,26.93-26.93,26.93-26.93l47.36-40.56s24.82-11.43,34.17-8.44c9.35,2.99,14.96,2.99,23.19,10.85,8.23,7.85,146.98,95.37,146.98,95.37"/>
  <path class="cls-9" d="M776.36,1141.52h-166.05s-157.07-15.71-158.2-37.02c-1.12-21.32,0-132.39,0-132.39,0,0,7.85-14.21,16.08-14.21s-15.58-29.92-16.58-74.05c-1-44.13,11.34-120.8,29.3-159.32,17.95-38.52,19.45-47.87,19.45-47.87,0,0,20.94-7.85,27.3-2.24,6.36,5.61,79.66,33.28,154.46,43.76,74.8,10.47,148.1,12.72,194.85-11.59s64.33-37.4,64.33-37.4l38.15-32.54s30.67-27.67,40.02-29.54c9.35-1.87,31.79,6.36,31.79,6.36l15.71,11.59,48.24,36.65,43.01,35.53,34.78,29.17,31.04,35.15,30.29,37.02s4.86-2.99,7.11-1.5,22.44,17.2,22.44,17.2l50.86,27.67,58.34,22.44,6.73.75,25.43,5.61,75.17,7.85,57.97.37h50.49l42.26,4.86,37.02,8.98s22.07,5.98,28.05,8.6c5.98,2.62,20.85,11.92,28.84,17.53,7.99,5.61,14.16,10.52,17.11,17.11,2.95,6.59,4.21,20.9,4.21,23s1.68,1.82,1.68,1.82c0,0,7.08.73,11.22,4.35,1.68,1.47,4.21,1.96,6.17,13.32,1.96,11.36,5.75,31.98,5.75,31.98,0,0-1.54,9.82-11.36,13.6-9.82,3.79-61.57,23.42-61.57,23.42l-68.3,23.42-61.57,18.09-58.06,13.04-48.66,9.68-62.13,8.41-69.7,6.03-71.52,3.65-83.45-2.8-75.45-4.91-53.99-9.54-25.24-11.78s-105.46-21.32-117.81-22.44-69.98-8.27-69.98-8.27l-60.16-2.95s-11.3,71.6-11.36,73.35c-.05,1.43-4.49.98-4.49.98Z"/>
  <g id="Blocs_couleurs" data-name="Blocs couleurs">
    <path class="cls-3" d="M783.23,1142.83l70.57-69.03c1.35-1.32.61-3.77-1.2-3.95l-63.72-6.37c-1.14-.11-2.15.8-2.26,2.04l-6.84,75.4c-.19,2.06,2.04,3.3,3.46,1.92Z"/>
    <polyline class="cls-10" points="785.79 1121.94 838.26 1067.5 789.99 1064.34"/>
    <g>
      <path class="cls-2" d="M1420.84,869.79s.31.63.87,1.79"/>
      <path class="cls-6" d="M1423.41,875.2c5.47,11.91,18.02,41.38,21.07,67.06,3.79,31.98,2.69,74.05-10.14,110.12"/>
      <path class="cls-2" d="M1433.66,1054.27c-.23.63-.47,1.25-.7,1.87"/>
    </g>
    <path class="cls-12" d="M1199.87,881.88s-19.24-28.06-40.18-51.62c-20.94-23.56-48.62-50.49-74.42-70.31-25.81-19.82-91.63-78.16-101.72-84.89-10.1-6.73-27.32-18.94-27.32-18.94"/>
    <g>
      <path class="cls-2" d="M747.08,1007.67s.17-.67.53-1.92"/>
      <path class="cls-11" d="M748.76,1001.89c7.8-25.17,43.92-124.35,130.07-130.87,98.73-7.48,175.12,1.5,231.54,8.23,56.43,6.73,87.47,11.59,108.41,1.12,20.94-10.47,32.91-16.08,38.52-39.27,4.04-16.7,8.24-30.37,10.27-36.71"/>
      <path class="cls-2" d="M1268.2,802.47c.4-1.23.63-1.89.63-1.89"/>
    </g>
    <path class="cls-13" d="M451.61,1058.12l.66,46.36c.02,1.8,3.74,7.29,11.99,10.18l19.1,6.91c9.64,3.66,39.65,9.21,49.79,10.75l78.1,11.09,170.45-.36,6.9-46.45"/>
    <path class="cls-8" d="M1038.73,1103.27l34.32,10.71,14.62,2.58,38.11,6.02,23.27,1.51,51.47,3.17,24.25.82,32.52,1.09,25.58.47,15.76-.8,31.24-1.59,23.59-1.33,25.05-2.13,23.58-2.07,21.52-2.06,4.76-.64,15.09-2.04,40.8-6.96,19.87-3.95,29.22-5.89,17.1-3.84,39.67-9.03,28.61-7.14,32.11-9.48,9.25-3.17,57.01-19.55,32.91-12.46,23.03-8.77c5.07-2.08,8.8-1.78,12.31-5.98h0c1.62-1.95,4.29-1.79,5.17-4.16l1.13-3.05c.05-.05.57,1.66.58,1.73.26,1.16,1.67,9,.44,11.61-1.19,2.53-5,6.15-6.82,7.15-3.93,2.15-33.26,13.07-33.26,13.07l-32.58,12.29-57.78,19.77-8.04,2.8-33.14,9.72-28.24,8.27-40.81,9.16-17.3,3.88-28.47,5.7-20.24,3.93-46.28,6.31-12.44,1.78-3.04.33-22.02,1.92-24.54,2.06-23.94,2.06-23.37,1.26-30.99,1.59-16.27.84-26.6-.98-32.4-1.08-24.36-.79-51.47-3.32-23.75-1.59-40.58-7.15-12.95-2.29-32.3-20.29Z"/>
    <path class="cls-5" d="M451.77,1021.58v69.9s129.22,25.6,158.39,30.46,86.5,3.38,111.56,3.38h61.39l9.1-61.75-151.76-3.21-83.28-10.92c-8.91-1.17-17.73-2.99-26.37-5.44l-79.02-22.42Z"/>
    <path class="cls-4" d="M452.07,1013.43v-7.34c2.95.84,71.11,21.39,102.1,27.72,32.83,6.7,104.66,11.91,136.5,13.09,32.24,1.2,102.1,3.37,102.1,3.37l63.02,4.3,75.36,8.6,65.07,11.5,48.06,10.38,24.87,11.78,13.2,2.85,38.47,6.66,24.34,2.05,51.05,2.46,24.4,1.4,31.13.84h27.49l17.11.28,29.87-1.4,23.56-1.54,26.79-2.04,22.3-1.88,20.57-2.24,6.77-.7,13.46-1.82,40.81-5.47,22.72-3.93,26.79-4.91,19.07-3.93,37.88-9.09,28.18-7.46,33.38-9.77,9.68-3.69,56.38-19.91,31.13-12.06,28.19-11.64c2.88-1.18,4.8-2.47,6.97-4.05,1.38-1.01,2.39-2.44,2.88-4.07l1.96-6.52s4.31,14.53,2.93,17.47c-1.19,2.53-3.36,7.28-5.18,8.27-3.93,2.15-33.4,14.5-33.4,14.5l-32.91,12.46-57.01,19.55-10.18,2.23-33.22,9.76-28.34,8.33-40.97,9.2-17.09,3.84-29.41,5.85-19.25,3.83-46.04,6.24-9.68,1.26-6.41.92-20.93,1.81-25.95,3.51-24.41,2.06-22.99,1.17-30.25,1.54-18.25-.46-26.12-.88-30.36-.95-27.24-.3-51.33-3.15-23.37-2.57-40.11-7.08-12.81-2.26-25.24-11.78-45.93-7.9-66.58-13.8-77.52-9.69-61.04-4.69s-63.69.31-101.28-1.37c-37.59-1.68-71.02-2.61-135.53-13.4-64.89-10.86-100.5-27.15-100.5-27.15l.3-8.15"/>
  </g>
  <g id="Texte">
    <text class="cls-14" transform="translate(790.96 485.6)"><tspan x="0" y="0">Couture</tspan></text>
    <text class="cls-14" transform="translate(1506.74 727.46)"><tspan x="0" y="0">Semelle</tspan></text>
    <text class="cls-14" transform="translate(1885.26 958.56)"><tspan class="cls-15" x="0" y="0">P</tspan><tspan x="20.92" y="0">atin</tspan></text>
    <text class="cls-14" transform="translate(202.83 971.75)"><tspan class="cls-1" x="0" y="0">T</tspan><tspan x="17.16" y="0">alon</tspan></text>
    <text class="cls-14" transform="translate(184.11 1238.02)"><tspan x="0" y="0">Bonbout</tspan></text>
    <line class="cls-7" x1="329.82" y1="1214.9" x2="546.92" y2="1118.97"/>
    <line class="cls-7" x1="324.21" y1="956.66" x2="471.18" y2="1053"/>
    <line class="cls-7" x1="1788.4" y1="1026.16" x2="1870.26" y2="959.15"/>
    <line class="cls-7" x1="1540.83" y1="1089.3" x2="1569.05" y2="739.87"/>
    <line class="cls-7" x1="966.78" y1="872.49" x2="869.79" y2="518.51"/>
  </g>
</svg>