<svg width="91" height="90" viewBox="0 0 91 90" fill="none" xmlns="http://www.w3.org/2000/svg">
<path d="M45.2339 82.584C65.9115 82.584 82.6739 65.8215 82.6739 45.144C82.6739 24.4664 65.9115 7.70398 45.2339 7.70398C24.5564 7.70398 7.79395 24.4664 7.79395 45.144C7.79395 65.8215 24.5564 82.584 45.2339 82.584Z" fill="#E57C2E"/>
<path d="M57.5891 43.1496C56.8259 43.1496 56.0626 43.0632 55.2922 42.8976L54.4859 42.7176L54.8459 41.1048L55.6522 41.2848C58.5754 41.94 61.585 41.0688 63.6946 38.9592C65.6746 36.9792 66.5603 34.1784 66.1283 31.4496L62.4995 35.0784C62.2475 35.3304 61.8731 35.4312 61.5275 35.3304L56.9842 34.0632C56.653 33.9696 56.3866 33.7032 56.293 33.372L55.0259 28.8288C54.9323 28.4832 55.0259 28.1088 55.2779 27.8568L58.9067 24.228C56.1779 23.796 53.3771 24.6816 51.3971 26.6616C51.1163 26.9424 50.8498 27.2448 50.6122 27.5616L50.1155 28.2168L48.7979 27.216L49.2946 26.5608C49.5754 26.1864 49.8922 25.8264 50.2234 25.4952C52.8802 22.8384 56.7755 21.8304 60.3971 22.8744C60.7499 22.9752 61.0235 23.2632 61.1171 23.616C61.2107 23.976 61.1026 24.3576 60.8434 24.624L56.7107 28.7568L57.7763 32.5656L61.5922 33.6312L65.725 29.4984C65.9842 29.2392 66.373 29.1312 66.733 29.2248C67.0931 29.3184 67.3738 29.592 67.4746 29.9448C68.5114 33.5592 67.5106 37.4616 64.8538 40.1184C62.9098 42.0912 60.2963 43.1496 57.5891 43.1496Z" fill="white"/>
<path d="M27.6368 67.8024C26.3408 67.8024 25.0448 67.3056 24.0584 66.3192C23.1008 65.3616 22.5752 64.0944 22.5752 62.7408C22.5752 61.3872 23.1008 60.12 24.0584 59.1624L29.66 53.5608L30.8264 54.7272L25.2248 60.3288C24.584 60.9696 24.224 61.8264 24.224 62.7408C24.224 63.648 24.5768 64.5048 25.2248 65.1528C25.8656 65.7936 26.7224 66.1536 27.6368 66.1536C28.5512 66.1536 29.4008 65.8008 30.0488 65.1528L30.632 64.5696L31.7984 65.736L31.2152 66.3192C30.2288 67.3056 28.9328 67.8024 27.6368 67.8024Z" fill="white"/>
<path d="M48.9345 65.7936H35.8809C33.5265 65.7936 31.6113 63.8784 31.6113 61.524V33.6168C31.6113 31.2624 33.5265 29.3472 35.8809 29.3472H48.9345C51.2889 29.3472 53.2041 31.2624 53.2041 33.6168V61.5312C53.2041 63.8784 51.2889 65.7936 48.9345 65.7936ZM35.8809 30.996C34.4409 30.996 33.2673 32.1696 33.2673 33.6096V61.524C33.2673 62.964 34.4409 64.1376 35.8809 64.1376H48.9345C50.3745 64.1376 51.5481 62.964 51.5481 61.524V33.6168C51.5481 32.1768 50.3745 31.0032 48.9345 31.0032H35.8809V30.996Z" fill="white"/>
<path d="M52.3764 59.6952H32.7635C32.3099 59.6952 31.9355 59.328 31.9355 58.8672C31.9355 58.4136 32.3027 58.0392 32.7635 58.0392H52.3764C52.83 58.0392 53.2043 58.4064 53.2043 58.8672C53.2043 59.328 52.8372 59.6952 52.3764 59.6952Z" fill="white"/>
<path d="M52.3764 36.6551H32.7635C32.3099 36.6551 31.9355 36.2879 31.9355 35.8271C31.9355 35.3735 32.3027 34.9991 32.7635 34.9991H52.3764C52.83 34.9991 53.2043 35.3663 53.2043 35.8271C53.2043 36.2879 52.8372 36.6551 52.3764 36.6551Z" fill="white"/>
</svg>
