<svg width="126" height="125" viewBox="0 0 126 125" fill="none" xmlns="http://www.w3.org/2000/svg">
<g id="iconos-home-page-04 1">
<g id="Group">
<g id="Group_2">
<g id="Group_3">
<path id="Vector" d="M63 114.5C91.7188 114.5 115 91.2188 115 62.5C115 33.7812 91.7188 10.5 63 10.5C34.2812 10.5 11 33.7812 11 62.5C11 91.2188 34.2812 114.5 63 114.5Z" fill="#A2C617"/>
</g>
</g>
<g id="Group_4">
<path id="Vector_2" d="M87.5304 60.01H58.4004V61.52H87.5304V60.01Z" fill="white"/>
<g id="Group_5">
<path id="Vector_3" d="M62.8404 67.33H58.4004V68.84H62.8404V67.33Z" fill="white"/>
<path id="Vector_4" d="M71.1207 67.33H66.6807V68.84H71.1207V67.33Z" fill="white"/>
<path id="Vector_5" d="M79.3306 67.33H74.8906V68.84H79.3306V67.33Z" fill="white"/>
<path id="Vector_6" d="M87.5308 67.33H83.0908V68.84H87.5308V67.33Z" fill="white"/>
</g>
<g id="Group_6">
<path id="Vector_7" d="M62.8404 82.0299H58.4004V83.5399H62.8404V82.0299Z" fill="white"/>
<path id="Vector_8" d="M71.1207 82.0299H66.6807V83.5399H71.1207V82.0299Z" fill="white"/>
<path id="Vector_9" d="M79.3306 82.0299H74.8906V83.5399H79.3306V82.0299Z" fill="white"/>
</g>
<g id="Group_7">
<path id="Vector_10" d="M62.8404 74.86H58.4004V76.37H62.8404V74.86Z" fill="white"/>
<path id="Vector_11" d="M79.3306 74.86H74.8906V76.37H79.3306V74.86Z" fill="white"/>
<path id="Vector_12" d="M87.5308 74.86H83.0908V76.37H87.5308V74.86Z" fill="white"/>
</g>
<g id="Group_8">
<path id="Vector_13" d="M90.4002 51.37H87.9902V49.67C87.9902 49.17 87.5902 48.77 87.0902 48.77C86.5902 48.77 86.1902 49.17 86.1902 49.67V51.37H80.8902V49.67C80.8902 49.17 80.4902 48.77 79.9902 48.77C79.4902 48.77 79.0902 49.17 79.0902 49.67V51.37H73.7902V49.67C73.7902 49.17 73.3902 48.77 72.8902 48.77C72.3902 48.77 71.9902 49.17 71.9902 49.67V51.37H66.6902V49.67C66.6902 49.17 66.2902 48.77 65.7902 48.77C65.2902 48.77 64.8902 49.17 64.8902 49.67V51.37H59.5902V49.67C59.5902 49.17 59.1902 48.77 58.6902 48.77C58.1902 48.77 57.7902 49.17 57.7902 49.67V51.37H55.3802C53.0702 51.37 51.2002 53.25 51.2002 55.55V87.98C51.2002 90.29 53.0802 92.16 55.3802 92.16H90.4002C92.7102 92.16 94.5802 90.28 94.5802 87.98V55.55C94.5802 53.25 92.7102 51.37 90.4002 51.37ZM92.7802 87.98C92.7802 89.29 91.7102 90.36 90.4002 90.36H55.3702C54.0602 90.36 52.9902 89.29 52.9902 87.98V55.55C52.9902 54.24 54.0602 53.17 55.3702 53.17H57.7802V54.87C57.7802 55.37 58.1802 55.77 58.6802 55.77C59.1802 55.77 59.5802 55.37 59.5802 54.87V53.17H64.8802V54.87C64.8802 55.37 65.2802 55.77 65.7802 55.77C66.2802 55.77 66.6802 55.37 66.6802 54.87V53.17H71.9802V54.87C71.9802 55.37 72.3802 55.77 72.8802 55.77C73.3802 55.77 73.7802 55.37 73.7802 54.87V53.17H79.0802V54.87C79.0802 55.37 79.4802 55.77 79.9802 55.77C80.4802 55.77 80.8802 55.37 80.8802 54.87V53.17H86.1802V54.87C86.1802 55.37 86.5802 55.77 87.0802 55.77C87.5802 55.77 87.9802 55.37 87.9802 54.87V53.17H90.3902C91.7002 53.17 92.7702 54.24 92.7702 55.55V87.98H92.7802Z" fill="white"/>
<path id="Vector_14" d="M71.4204 72.86C71.0704 72.51 70.5004 72.51 70.1504 72.86L68.7604 74.25L67.3704 72.86C67.0204 72.51 66.4504 72.51 66.1004 72.86C65.7504 73.21 65.7504 73.78 66.1004 74.13L67.4904 75.52L66.1004 76.9C65.7504 77.25 65.7504 77.82 66.1004 78.17C66.2804 78.35 66.5104 78.43 66.7404 78.43C66.9704 78.43 67.2004 78.34 67.3804 78.17L68.7704 76.78L70.1604 78.17C70.3404 78.35 70.5704 78.43 70.8004 78.43C71.0304 78.43 71.2604 78.34 71.4404 78.17C71.7904 77.82 71.7904 77.25 71.4404 76.9L70.0504 75.51L71.4404 74.12C71.7704 73.78 71.7704 73.21 71.4204 72.86Z" fill="white"/>
</g>
<g id="Group_9">
<path id="Vector_15" d="M47.2699 52.33C47.2699 52.12 47.2699 51.6 47.2699 50.95H33.4999C33.1099 50.95 32.7999 50.64 32.7999 50.25V48.27C32.7999 47.88 33.1099 47.57 33.4999 47.57H50.9799C50.9799 47.14 50.9799 46.61 50.9799 46.19H33.4999C33.1099 46.19 32.7999 45.88 32.7999 45.49V36.24C32.7999 35.12 33.6999 34.22 34.8199 34.22H58.9099C60.0299 34.22 60.9299 35.12 60.9299 36.24V45.91C62.1699 45.91 60.5999 45.91 62.3099 45.91V36.24C62.3099 34.36 60.7899 32.84 58.9099 32.84H34.8199C32.9399 32.84 31.4199 34.36 31.4199 36.24V53.54C31.4199 55.42 32.9399 56.94 34.8199 56.94H47.2599C47.2599 56.33 47.2599 55.81 47.2599 55.56H34.8199C33.6999 55.56 32.7999 54.66 32.7999 53.54V53.04C32.7999 52.65 33.1099 52.34 33.4999 52.34H47.2699V52.33Z" fill="white"/>
<path id="Vector_16" d="M41.7 41.1H36.71V42.67H41.7V41.1Z" fill="white"/>
</g>
</g>
</g>
</g>
</svg>
