<svg width="126" height="125" viewBox="0 0 126 125" fill="none" xmlns="http://www.w3.org/2000/svg">
<g id="iconos-home-page-08 1">
<g id="Group">
<g id="Group_2">
<g id="Group_3">
<g id="Group_4">
<path id="Vector" d="M63.52 113.94C92.2388 113.94 115.52 90.6588 115.52 61.9399C115.52 33.2211 92.2388 9.93994 63.52 9.93994C34.8012 9.93994 11.52 33.2211 11.52 61.9399C11.52 90.6588 34.8012 113.94 63.52 113.94Z" fill="#789CAB"/>
</g>
</g>
</g>
<path id="Vector_2" d="M56.8398 76.28C56.7598 77.03 57.0998 80.38 57.7098 80.71C59.7598 81.83 61.9298 82.45 64.2798 82.44C67.9298 82.41 71.5798 82.46 75.2298 82.41C76.2798 82.4 77.3498 82.23 78.3798 81.99C79.4098 81.75 79.9998 80.98 80.2398 79.95C80.4898 78.85 80.0698 78.18 78.9598 77.96C78.3098 77.83 77.9398 77.37 77.9898 76.77C78.0398 76.2 78.4798 75.8 79.1098 75.77C79.1598 75.77 79.2198 75.77 79.2798 75.77C80.8498 75.73 81.8198 74.87 82.0398 73.33C82.2198 72.09 81.6498 71.4 80.4098 71.32C80.2298 71.31 80.0398 71.28 79.8798 71.22C79.4298 71.04 79.1598 70.54 79.2298 70.06C79.3098 69.57 79.6898 69.19 80.1898 69.14C80.4598 69.11 80.7398 69.14 81.0098 69.1C82.6698 68.87 83.5798 67.46 83.1398 65.85C82.9698 65.24 82.5498 64.95 81.9498 64.87C81.7498 64.84 81.5398 64.85 81.3498 64.81C80.7898 64.7 80.4098 64.2 80.4498 63.66C80.4898 63.1 80.9098 62.69 81.4898 62.64C81.7798 62.62 82.0798 62.61 82.3698 62.57C83.9398 62.32 84.8098 60.9 84.3298 59.37C84.0998 58.64 83.7098 58.34 82.9098 58.34C79.3698 58.33 75.8298 58.34 72.2898 58.34C72.1098 58.34 71.9198 58.35 71.7398 58.34C70.7198 58.29 70.2698 57.47 70.7598 56.56C71.5998 55.02 72.4798 53.49 73.2698 51.92C75.0598 48.33 74.1998 45.08 71.8498 42.1C71.4398 41.58 70.8498 41.19 70.2798 40.84C69.9098 40.61 69.4198 40.49 68.9798 40.47C67.6398 40.39 67.1198 40.97 67.3198 42.27C67.4298 42.96 67.5598 43.64 67.6598 44.33C68.0298 46.84 67.3698 49.09 65.6998 50.97C63.6698 53.24 61.5598 55.43 59.4698 57.64C58.7598 58.39 58.0198 59.1 57.2698 59.8C56.9898 60.06 56.8998 60.34 56.8998 60.71C56.9098 63.33 56.9098 65.96 56.9098 68.58C56.9098 68.73 56.9098 76.87 56.9098 77.02C56.8798 77.66 54.7598 77.68 54.7198 77.05C54.6898 76.57 54.7098 68.1 54.7098 67.62C54.7098 64.41 54.7098 61.2 54.7098 57.99C54.7098 57.81 54.6998 57.63 54.6898 57.43C50.6798 57.43 46.7098 57.43 42.6698 57.43C42.6698 58.43 42.7098 66.39 42.6498 67.36C42.6298 67.71 40.4898 68 40.4798 67.55C40.4698 66.12 40.4598 57.69 40.4798 56.26C40.4898 55.64 40.9398 55.23 41.5998 55.21C42.1698 55.19 42.7398 55.21 43.3098 55.21C47.2198 55.21 51.1298 55.21 55.0298 55.21C56.6798 55.21 56.7998 55.32 56.9398 57C57.0698 56.89 57.1898 56.82 57.2798 56.72C59.4298 54.46 61.5898 52.21 63.7298 49.94C65.4498 48.12 65.9098 45.97 65.3398 43.57C65.2498 43.18 65.1898 42.78 65.1398 42.38C64.8298 40.15 65.8098 38.78 68.0298 38.36C69.6998 38.04 71.1698 38.55 72.4298 39.6C75.1298 41.84 76.2998 44.82 76.4198 48.26C76.4698 49.6 76.2398 50.89 75.6498 52.1C75.0898 53.25 74.5098 54.4 73.9298 55.54C73.8398 55.72 73.7498 55.89 73.6098 56.15C74.1198 56.15 74.5498 56.15 74.9798 56.15C77.4898 56.15 80.0098 56.24 82.5198 56.12C85.8298 55.97 87.0698 58.73 86.5598 61.2C86.3198 62.37 85.7198 63.3 84.7198 64.02C85.4698 65.09 85.5598 66.28 85.3698 67.5C85.1798 68.73 84.5998 69.74 83.5398 70.5C84.3198 71.66 84.4698 72.91 84.1398 74.24C83.8198 75.54 83.1098 76.58 81.9898 77.3C82.9998 79.84 82.3698 82.23 80.3498 83.54C79.3398 84.2 78.1998 84.47 77.0198 84.57C76.2698 84.63 75.5198 84.66 74.7698 84.66C71.3398 84.67 67.9098 84.64 64.4798 84.67C61.9498 84.7 59.5698 84.14 57.3198 83C57.2098 82.94 57.0998 82.9 56.9098 82.81C56.9098 83.42 56.9198 83.96 56.9098 84.51C56.8998 85.29 56.4998 85.7 55.7198 85.7C51.0398 85.71 46.3598 85.71 41.6798 85.7C40.8698 85.7 40.4798 85.29 40.4798 84.46C40.4798 78.85 40.4798 72.23 40.4798 66.62C40.4798 65.85 42.6698 65.87 42.6698 66.63C42.6698 71.68 42.6698 77.72 42.6698 82.77C42.6698 82.99 42.6698 83.2 42.6698 83.48C46.7098 83.48 50.6698 83.48 54.7098 83.48C54.7098 83.27 54.7098 83.08 54.7098 82.89C54.7098 81.7 54.6998 77.5 54.7098 76.31" fill="white"/>
</g>
</g>
</svg>
