<svg width="126" height="125" viewBox="0 0 126 125" fill="none" xmlns="http://www.w3.org/2000/svg">
<g id="iconos-home-page_Mesa de trabajo 1 1">
<g id="Group">
<path id="Vector" d="M62.6299 114.7C91.3487 114.7 114.63 91.4188 114.63 62.7C114.63 33.9811 91.3487 10.7 62.6299 10.7C33.9111 10.7 10.6299 33.9811 10.6299 62.7C10.6299 91.4188 33.9111 114.7 62.6299 114.7Z" fill="#E57C2E"/>
<g id="Group_2">
<g id="Group_3">
<path id="Vector_2" d="M79.7901 59.9299C78.7301 59.9299 77.6701 59.8099 76.6001 59.5799L75.4801 59.3299L75.9801 57.0899L77.1001 57.3399C81.1601 58.2499 85.3401 57.0399 88.2701 54.1099C91.0201 51.3599 92.2501 47.4699 91.6501 43.6799L86.6101 48.7199C86.2601 49.0699 85.7401 49.2099 85.2601 49.0699L78.9501 47.3099C78.4901 47.1799 78.1201 46.8099 77.9901 46.3499L76.2301 40.0399C76.1001 39.5599 76.2301 39.0399 76.5801 38.6899L81.6201 33.6499C77.8301 33.0499 73.9401 34.2799 71.1901 37.0299C70.8001 37.4199 70.4301 37.8399 70.1001 38.2799L69.4101 39.1899L67.5801 37.7999L68.2701 36.8899C68.6601 36.3699 69.1001 35.8699 69.5601 35.4099C73.2501 31.7199 78.6601 30.3199 83.6901 31.7699C84.1801 31.9099 84.5601 32.3099 84.6901 32.7999C84.8201 33.2999 84.6701 33.8299 84.3101 34.1999L78.5701 39.9399L80.0501 45.2299L85.3501 46.7099L91.0901 40.9699C91.4501 40.6099 91.9901 40.4599 92.4901 40.5899C92.9901 40.7199 93.3801 41.0999 93.5201 41.5899C94.9601 46.6099 93.5701 52.0299 89.8801 55.7199C87.1801 58.4599 83.5501 59.9299 79.7901 59.9299Z" fill="white"/>
<path id="Vector_3" d="M38.1902 94.1699C36.3902 94.1699 34.5902 93.4799 33.2202 92.1099C31.8902 90.7799 31.1602 89.0199 31.1602 87.1399C31.1602 85.2599 31.8902 83.4999 33.2202 82.1699L41.0002 74.3899L42.6202 76.0099L34.8402 83.7899C33.9502 84.6799 33.4502 85.8699 33.4502 87.1399C33.4502 88.3999 33.9402 89.5899 34.8402 90.4899C35.7302 91.3799 36.9202 91.8799 38.1902 91.8799C39.4602 91.8799 40.6402 91.3899 41.5402 90.4899L42.3502 89.6799L43.9702 91.2999L43.1602 92.1099C41.7902 93.4799 39.9902 94.1699 38.1902 94.1699Z" fill="white"/>
</g>
<g id="Group_4">
<path id="Vector_4" d="M67.77 91.3799H49.64C46.37 91.3799 43.71 88.7199 43.71 85.4499V46.6899C43.71 43.4199 46.37 40.7599 49.64 40.7599H67.77C71.04 40.7599 73.7 43.4199 73.7 46.6899V85.4599C73.7 88.7199 71.04 91.3799 67.77 91.3799ZM49.64 43.0499C47.64 43.0499 46.01 44.6799 46.01 46.6799V85.4499C46.01 87.4499 47.64 89.0799 49.64 89.0799H67.77C69.77 89.0799 71.4 87.4499 71.4 85.4499V46.6899C71.4 44.6899 69.77 43.0599 67.77 43.0599H49.64V43.0499Z" fill="white"/>
<path id="Vector_5" d="M72.5502 82.9099H45.3102C44.6802 82.9099 44.1602 82.3999 44.1602 81.7599C44.1602 81.1299 44.6702 80.6099 45.3102 80.6099H72.5502C73.1802 80.6099 73.7002 81.1199 73.7002 81.7599C73.7002 82.3999 73.1902 82.9099 72.5502 82.9099Z" fill="white"/>
<path id="Vector_6" d="M72.5502 50.9099H45.3102C44.6802 50.9099 44.1602 50.3999 44.1602 49.7599C44.1602 49.1299 44.6702 48.6099 45.3102 48.6099H72.5502C73.1802 48.6099 73.7002 49.1199 73.7002 49.7599C73.7002 50.3999 73.1902 50.9099 72.5502 50.9099Z" fill="white"/>
</g>
</g>
</g>
</g>
</svg>
