<?xml version="1.0" encoding="UTF-8"?>
<svg width="474px" height="470px" viewBox="0 0 474 470" version="1.1" xmlns="http://www.w3.org/2000/svg" xmlns:xlink="http://www.w3.org/1999/xlink">
    <title>Illustration</title>
    <defs>
        <linearGradient x1="112.41637%" y1="129.516189%" x2="23.8503764%" y2="19.0073184%" id="linearGradient-1">
            <stop stop-color="#DAE3FE" offset="0%"></stop>
            <stop stop-color="#E9EFFD" offset="100%"></stop>
        </linearGradient>
        <linearGradient x1="58.8804378%" y1="66.1106334%" x2="36.5797508%" y2="25.2407387%" id="linearGradient-2">
            <stop stop-color="#748993" offset="0%"></stop>
            <stop stop-color="#748993" offset="100%"></stop>
        </linearGradient>
        <linearGradient x1="7.76314684%" y1="21.9223979%" x2="136.0638%" y2="109.426589%" id="linearGradient-3">
            <stop stop-color="#A9A9A9" offset="0%"></stop>
            <stop stop-color="#E6EEF2" offset="100%"></stop>
        </linearGradient>
        <linearGradient x1="49.3067484%" y1="50.2054108%" x2="42.2679865%" y2="52.2909012%" id="linearGradient-4">
            <stop stop-color="#557686" offset="0%"></stop>
            <stop stop-color="#030303" offset="100%"></stop>
        </linearGradient>
        <linearGradient x1="23.5281006%" y1="40.3212321%" x2="80.1009733%" y2="66.2418139%" id="linearGradient-5">
            <stop stop-color="#4F52FF" offset="0%"></stop>
            <stop stop-color="#4042E2" offset="100%"></stop>
        </linearGradient>
        <linearGradient x1="6318.49725%" y1="-7475.02238%" x2="6466.59204%" y2="-7475.02238%" id="linearGradient-6">
            <stop stop-color="#4F52FF" offset="0%"></stop>
            <stop stop-color="#4042E2" offset="100%"></stop>
        </linearGradient>
        <linearGradient x1="5634.86328%" y1="-8309.10087%" x2="5711.93003%" y2="-8309.10087%" id="linearGradient-7">
            <stop stop-color="#4F52FF" offset="0%"></stop>
            <stop stop-color="#4042E2" offset="100%"></stop>
        </linearGradient>
        <linearGradient x1="269.384949%" y1="-763.975593%" x2="357.639587%" y2="-763.975593%" id="linearGradient-8">
            <stop stop-color="#4F52FF" offset="0%"></stop>
            <stop stop-color="#4042E2" offset="100%"></stop>
        </linearGradient>
        <linearGradient x1="8020.19033%" y1="-5967.37995%" x2="8171.15018%" y2="-5967.37995%" id="linearGradient-9">
            <stop stop-color="#4F52FF" offset="0%"></stop>
            <stop stop-color="#4042E2" offset="100%"></stop>
        </linearGradient>
        <linearGradient x1="539.020381%" y1="-255.327981%" x2="191.371868%" y2="-407.938661%" id="linearGradient-10">
            <stop stop-color="#9ACA3C" offset="0%"></stop>
            <stop stop-color="#B5EC4B" offset="100%"></stop>
        </linearGradient>
        <linearGradient x1="7634.36525%" y1="-7038.06529%" x2="7712.7213%" y2="-7038.06529%" id="linearGradient-11">
            <stop stop-color="#4F52FF" offset="0%"></stop>
            <stop stop-color="#4042E2" offset="100%"></stop>
        </linearGradient>
        <linearGradient x1="362.478543%" y1="-1396.43851%" x2="437.050243%" y2="-1396.43851%" id="linearGradient-12">
            <stop stop-color="#4F52FF" offset="0%"></stop>
            <stop stop-color="#4042E2" offset="100%"></stop>
        </linearGradient>
        <linearGradient x1="521.460788%" y1="-926.944181%" x2="630.019936%" y2="-926.944181%" id="linearGradient-13">
            <stop stop-color="#4F52FF" offset="0%"></stop>
            <stop stop-color="#4042E2" offset="100%"></stop>
        </linearGradient>
        <linearGradient x1="12088.3657%" y1="-6548.63068%" x2="12263.6037%" y2="-6548.63068%" id="linearGradient-14">
            <stop stop-color="#4F52FF" offset="0%"></stop>
            <stop stop-color="#4042E2" offset="100%"></stop>
        </linearGradient>
        <linearGradient x1="863.309794%" y1="-265.883595%" x2="343.840376%" y2="-493.955216%" id="linearGradient-15">
            <stop stop-color="#9ACA3C" offset="0%"></stop>
            <stop stop-color="#B5EC4B" offset="100%"></stop>
        </linearGradient>
        <linearGradient x1="95.0951081%" y1="-68.7445745%" x2="83.6154105%" y2="-41.661229%" id="linearGradient-16">
            <stop stop-color="#F8FDFF" offset="0%"></stop>
            <stop stop-color="#566770" offset="100%"></stop>
        </linearGradient>
        <linearGradient x1="66.110072%" y1="-11.8782375%" x2="33.7846283%" y2="80.5440512%" id="linearGradient-17">
            <stop stop-color="#A8DC44" offset="0%"></stop>
            <stop stop-color="#EAFFC1" offset="100%"></stop>
        </linearGradient>
        <linearGradient x1="54.4746878%" y1="23.9890889%" x2="41.3934857%" y2="146.547908%" id="linearGradient-18">
            <stop stop-color="#FFFFFF" offset="0%"></stop>
            <stop stop-color="#778B50" offset="100%"></stop>
        </linearGradient>
        <linearGradient x1="54.4746878%" y1="28.0000678%" x2="41.3934857%" y2="131.659863%" id="linearGradient-19">
            <stop stop-color="#FFFFFF" offset="0%"></stop>
            <stop stop-color="#778B50" offset="100%"></stop>
        </linearGradient>
        <linearGradient x1="98.4194911%" y1="134.252493%" x2="15.1191278%" y2="0%" id="linearGradient-20">
            <stop stop-color="#557787" offset="0%"></stop>
            <stop stop-color="#B7CFDA" offset="100%"></stop>
        </linearGradient>
        <linearGradient x1="1190.77607%" y1="-2978.23846%" x2="1091.08889%" y2="-2712.14612%" id="linearGradient-21">
            <stop stop-color="#9ACA3C" offset="0%"></stop>
            <stop stop-color="#86B727" offset="100%"></stop>
        </linearGradient>
        <linearGradient x1="0%" y1="49.9875676%" x2="100.124713%" y2="49.9875676%" id="linearGradient-22">
            <stop stop-color="#A22B25" offset="0%"></stop>
            <stop stop-color="#C0423C" offset="100%"></stop>
        </linearGradient>
        <linearGradient x1="1190.77607%" y1="-1083.37006%" x2="1091.08889%" y2="-983.780453%" id="linearGradient-23">
            <stop stop-color="#9ACA3C" offset="0%"></stop>
            <stop stop-color="#86B727" offset="100%"></stop>
        </linearGradient>
        <linearGradient x1="-1932.6279%" y1="50.0318255%" x2="-1832.57559%" y2="50.0318255%" id="linearGradient-24">
            <stop stop-color="#A22B25" offset="0%"></stop>
            <stop stop-color="#C0423C" offset="100%"></stop>
        </linearGradient>
        <linearGradient x1="1190.77607%" y1="-2625.13434%" x2="1091.08889%" y2="-2390.06938%" id="linearGradient-25">
            <stop stop-color="#9ACA3C" offset="0%"></stop>
            <stop stop-color="#86B727" offset="100%"></stop>
        </linearGradient>
        <linearGradient x1="40.5011493%" y1="64.2180115%" x2="55.8248217%" y2="41.0789043%" id="linearGradient-26">
            <stop stop-color="#A22B25" offset="0%"></stop>
            <stop stop-color="#C0423C" offset="100%"></stop>
        </linearGradient>
        <linearGradient x1="58.467391%" y1="-1.64007553%" x2="44.020565%" y2="115.017308%" id="linearGradient-27">
            <stop stop-color="#9ACA3C" offset="0%"></stop>
            <stop stop-color="#B3E94A" offset="100%"></stop>
        </linearGradient>
        <linearGradient x1="-365.537534%" y1="-120.734581%" x2="-593.95005%" y2="134.596705%" id="linearGradient-28">
            <stop stop-color="#A22B25" offset="0%"></stop>
            <stop stop-color="#C0423C" offset="100%"></stop>
        </linearGradient>
        <linearGradient x1="-328.960063%" y1="25.8830212%" x2="-512.896686%" y2="87.7893382%" id="linearGradient-29">
            <stop stop-color="#A22B25" offset="0%"></stop>
            <stop stop-color="#C0423C" offset="100%"></stop>
        </linearGradient>
        <linearGradient x1="241.983972%" y1="-81.6353137%" x2="166.142168%" y2="-27.8638849%" id="linearGradient-30">
            <stop stop-color="#A22B25" offset="0%"></stop>
            <stop stop-color="#C0423C" offset="100%"></stop>
        </linearGradient>
        <linearGradient x1="51.1058035%" y1="16.0396904%" x2="46.8493541%" y2="178.358981%" id="linearGradient-31">
            <stop stop-color="#A22B25" offset="0%"></stop>
            <stop stop-color="#C0423C" offset="100%"></stop>
        </linearGradient>
        <linearGradient x1="52.1268194%" y1="-45.0438827%" x2="46.9453783%" y2="218.129246%" id="linearGradient-32">
            <stop stop-color="#9ACA3C" offset="0%"></stop>
            <stop stop-color="#759F21" offset="100%"></stop>
        </linearGradient>
        <linearGradient x1="1.51643238%" y1="391.983306%" x2="52.5342423%" y2="41.9539071%" id="linearGradient-33">
            <stop stop-color="#A22B25" offset="0%"></stop>
            <stop stop-color="#C0423C" offset="100%"></stop>
        </linearGradient>
    </defs>
    <g id="Page-1" stroke="none" stroke-width="1" fill="none" fill-rule="evenodd">
        <g id="solution" transform="translate(-440.000000, -425.000000)" fill-rule="nonzero">
            <g id="Illustration" transform="translate(440.000000, 425.000000)">
                <path d="M412.593454,402.414301 C403.079758,412.429598 394.079367,418.886873 386.968339,423.983138 C303.368196,483.962896 204.46254,466.478762 183.440448,462.208467 C152.398043,455.905016 92.3932053,443.717787 49.0114194,392.699964 C-16.6213803,315.516969 -6.4020989,193.915546 44.5087158,113.642689 C53.8200996,98.9591604 103.010423,17.4657417 202.989506,4.39736748 C263.494273,-3.51287798 334.026041,12.4397012 385.100711,55.226254 C492.312878,145.062967 484.680185,326.523764 412.593454,402.414301 Z" id="Path" fill="url(#linearGradient-1)"></path>
                <path d="M27.5077908,403.574671 C27.5224872,407.774593 30.9255028,411.17462 35.1254358,411.185628 L447.116969,411.185628 C451.316902,411.17462 454.719918,407.774593 454.734614,403.574671 L458.163892,166.819068 C458.163892,162.639061 453.231483,154.461295 444.192636,155.07492 L41.5492707,144.651654 C36.2944112,144.512897 31.2125117,146.534968 27.4894707,150.246001 C23.7664297,153.957035 21.7279527,159.032375 21.8497332,164.287656 L27.5077908,403.574671 Z" id="Path" fill="url(#linearGradient-2)"></path>
                <path d="M35.0284596,396.264674 C35.0403953,400.240591 38.2605475,403.460743 42.2364639,403.472679 L437.180256,403.472679 C441.156173,403.460743 444.376325,400.240591 444.38826,396.264674 L447.623586,181.333725 C447.242369,168.399111 435.902846,163.750943 429.029242,164.025151 L43.1376734,153.678798 C39.4437363,153.582065 35.8717611,155.004509 33.2555417,157.614092 C30.6393223,160.223675 29.2078115,163.792026 29.2913862,167.486197 L35.0284596,396.264674 Z" id="Path" fill="url(#linearGradient-3)"></path>
                <g id="Group" opacity="0.37" transform="translate(301.462113, 165.193881)" fill="#FFFFFF">
                    <path d="M138.657524,128.481715 L138.649164,128.481715 C138.335843,128.476219 138.086058,128.218208 138.090715,127.904874 L138.346531,110.474244 C138.360626,110.165381 138.612556,109.920774 138.9217,109.915795 C139.072324,109.917556 139.216052,109.979201 139.321146,110.087118 C139.426239,110.195035 139.484053,110.340346 139.481821,110.490964 L139.226005,127.921594 C139.221435,128.232287 138.968251,128.481715 138.657524,128.481715 Z" id="Path"></path>
                    <path d="M139.286197,85.773746 L139.277837,85.773746 C139.127061,85.771545 138.983337,85.7095303 138.878291,85.6013481 C138.773244,85.4931658 138.715483,85.3476803 138.717716,85.196905 L139.69751,18.4388474 C139.679118,14.3257204 138.425116,11.0419068 135.968943,8.68939879 C131.426112,4.34219139 124.243187,4.55620776 123.938883,4.56791178 L0.630345073,1.26236215 C0.328651133,1.24246669 0.095314522,0.989901536 0.0992709002,0.687578852 C0.103328967,0.385256169 0.343277822,0.138964317 0.645393099,0.127072216 L0.655425116,0.127072216 L123.927179,3.43429385 C124.221451,3.42091782 131.865848,3.18349342 136.754785,7.86844539 C139.441693,10.4433298 140.812736,14.0013518 140.8328,18.4438634 L139.853006,85.213625 C139.849343,85.52405 139.596644,85.773746 139.286197,85.773746 L139.286197,85.773746 Z" id="Path"></path>
                </g>
                <path d="M426.989399,384.34831 C426.574742,366.584952 426.728566,209.276236 427.748488,195.689541 C428.76841,182.102846 407.609214,179.556386 375.123871,178.026503 C342.638527,176.49662 68.5521167,170.445642 61.4862327,169.875489 C45.6239417,168.589719 39.4993952,175.26937 43.9302028,243.778015 C46.424831,282.387905 47.0986482,346.154749 48.0082177,375.451583 C48.2770138,384.170354 55.4134615,391.104087 64.1363572,391.121594 C130.095197,391.30217 382.891996,392.026147 399.720704,392.527748 C419.084169,393.097901 427.153255,391.392458 426.989399,384.34831 Z" id="Path" fill="#FFFFFF" opacity="0.37"></path>
                <rect id="Rectangle" fill="url(#linearGradient-4)" transform="translate(236.246478, 412.867663) rotate(180.000000) translate(-236.246478, -412.867663) " x="0.188936322" y="402.466133" width="472.115084" height="20.8030594" rx="7.51"></rect>
                <rect id="Rectangle" fill="#FFFFFF" opacity="0.37" x="59.361117" y="190.297332" width="321.546211" height="26.8406617" rx="9"></rect>
                <rect id="Rectangle" fill="#FFFFFF" opacity="0.37" x="59.361117" y="352.948097" width="348.923586" height="26.8406617" rx="11.5"></rect>
                <rect id="Rectangle" fill="#FFFFFF" opacity="0.37" x="219.866702" y="314.298079" width="188.418001" height="32.7445037"></rect>
                <rect id="Rectangle" fill="#FFFFFF" x="59.361117" y="228.408965" width="148.694557" height="6.97893988"></rect>
                <rect id="Rectangle" fill="#FFFFFF" x="59.361117" y="240.219993" width="148.694557" height="6.97893988"></rect>
                <rect id="Rectangle" fill="#FFFFFF" x="59.361117" y="252.029349" width="148.694557" height="6.97893988"></rect>
                <rect id="Rectangle" fill="#FFFFFF" opacity="0.53" x="59.361117" y="263.838705" width="148.694557" height="83.2038776"></rect>
                <path d="M404.098008,82.7173248 C402.912558,82.6922448 401.959516,81.8077552 401.93778,80.7109214 C401.717076,69.4784063 397.924973,13.6987193 344.802099,2.04151547 C285.658342,-10.9348986 258.59196,44.677588 258.59196,44.677588 C258.59196,44.677588 185.413412,18.7264319 171.380292,88.2466382 C125.495518,98.4308075 113.574137,153.83931 143.417716,180.915724 C148.161188,185.217787 154.516471,187.648879 161.159338,187.704055 L448.516435,190.097407 C456.950018,190.166916 464.428887,185.063963 466.824867,177.585094 C475.798506,149.572359 487.56439,84.5247599 404.098008,82.7173248 Z" id="Path" fill="#B7CFDA"></path>
                <path d="M397.530381,83.9094628 C396.346603,83.8827108 395.395233,83.0015653 395.370153,81.9030594 C395.136073,71.1286731 391.382426,19.405265 341.347741,8.56399858 C285.42259,-3.54966204 259.829242,48.3860904 259.829242,48.3860904 C259.829242,48.3860904 190.633404,24.1504091 177.362718,89.0709356 C134.392245,98.4893276 122.922305,149.334934 150.120776,174.873106 C154.889328,179.350729 161.383387,181.895518 168.178406,181.950694 L438.686731,184.176842 C447.138705,184.246354 454.629278,179.118321 457.008538,171.617716 C465.445464,145.014479 475.457417,85.6349698 397.530381,83.9094628 Z" id="Path" fill="#EAFFC1"></path>
                <g id="Group" opacity="0.3" transform="translate(348.278193, 30.263252)">
                    <path d="M0.449768766,24.9663465 C-0.13281598,24.3350438 -0.142212935,23.3649889 0.428032729,22.7225187 C1.68203486,21.3029883 3.01462113,19.9152259 4.39235148,18.6010317 C4.71323288,18.2925047 5.14389727,18.1246704 5.58892861,18.1347135 C6.03395994,18.1447565 6.45661474,18.3318476 6.76325151,18.6545358 L6.78498755,18.6796158 C7.40138574,19.3505212 7.36718465,20.3914239 6.70807542,21.0204198 C5.40056919,22.2694059 4.13319104,23.5869441 2.94272501,24.9362504 C2.64934083,25.2707245 2.23474788,25.4744751 1.79071281,25.5024038 C1.34667773,25.5303325 0.909822378,25.3801359 0.576840982,25.0850587 C0.531696905,25.0499466 0.489896834,25.0081466 0.449768766,24.9663465 Z M11.2759872,15.1583778 C11.2325151,15.1098897 11.190715,15.0580576 11.150587,15.0045535 C10.8888949,14.6446561 10.7814599,14.1952892 10.8520688,13.755945 C10.9226777,13.3166008 11.165505,12.923526 11.5267876,12.6637496 C13.0700462,11.5501957 14.673497,10.4901459 16.2970117,9.5170402 C17.0906927,9.0400929 18.1207404,9.29685625 18.5976877,10.0905372 C19.074635,10.8842181 18.8178716,11.9142658 18.0241907,12.3912131 C16.4809321,13.3175027 14.9560655,14.3240484 13.491391,15.3824262 C12.8033609,15.881851 11.8500928,15.785445 11.2759872,15.1583778 L11.2759872,15.1583778 Z M23.9932408,7.97879758 C23.6236243,7.57836216 23.4723425,7.02292498 23.5878424,6.4903607 C23.7033423,5.95779643 24.0711306,5.51493257 24.5734258,5.30359303 C26.3206688,4.56122376 28.1214159,3.88740662 29.9238349,3.29718961 C30.8043175,3.01000551 31.7508983,3.49096892 32.0380825,4.37145146 C32.3252666,5.251934 31.8443032,6.19851487 30.9638207,6.48569904 C29.2483458,7.04581999 27.5395589,7.68619708 25.87926,8.39011028 C25.2269343,8.66640277 24.471294,8.50160888 23.9932408,7.97879758 L23.9932408,7.97879758 Z M37.9979367,3.82219851 C37.7826359,3.58890459 37.6387321,3.29877593 37.58328,2.98619708 C37.5040795,2.54813051 37.6028437,2.09656614 37.8576886,1.73156048 C38.1125334,1.36655483 38.5024157,1.11824749 38.9409463,1.04165777 C40.8102455,0.707257204 42.7180007,0.454784774 44.6090359,0.284240484 C45.5324576,0.200670903 46.3487852,0.881505464 46.4323549,1.80492708 C46.5159246,2.7283487 45.8350901,3.54467644 44.9116684,3.62824618 C43.1159374,3.79544646 41.3034863,4.03287086 39.5261473,4.3488794 C38.9600851,4.44757511 38.3829993,4.24868889 37.9979367,3.82219851 L37.9979367,3.82219851 Z M52.5778015,2.89256492 C52.1128276,2.39329408 51.9978401,1.66159276 52.2872615,1.04376806 C52.576683,0.425943357 53.212453,0.0459361506 53.8936677,0.0836001423 C55.786375,0.173888296 57.7008182,0.347776592 59.5868374,0.598577019 C60.5047185,0.720930426 61.1496212,1.5642071 61.0272678,2.48208822 C60.9049144,3.39996933 60.0616378,4.04487201 59.1437567,3.92251868 C57.3513696,3.68342227 55.5305585,3.51956599 53.7314835,3.43262184 C53.290727,3.41188428 52.8760362,3.21776091 52.5778015,2.89256492 L52.5778015,2.89256492 Z M67.000498,5.21163287 C66.4841037,4.66295635 66.3984858,3.8366719 66.7914115,3.19377347 C67.1843373,2.55087504 67.9587244,2.25020722 68.6825329,2.45951619 C70.510032,2.96111704 72.3408751,3.56136606 74.1198862,4.22180719 C74.6813944,4.43087933 75.0887106,4.92363102 75.1884029,5.51444746 C75.2880952,6.10526389 75.0650178,6.70438598 74.6032019,7.08613021 C74.141386,7.46787444 73.5109923,7.57424478 72.9494842,7.36517254 C71.2590893,6.73649947 69.5202063,6.17303451 67.7829954,5.69316969 C67.4823133,5.60887878 67.2112454,5.44206772 67.000498,5.21163287 L67.000498,5.21163287 Z M111.52259,47.7390253 C111.360571,47.5632412 111.238509,47.3544799 111.164781,47.1270722 C110.60466,45.4149413 109.960939,43.7061544 109.25201,42.0441836 C108.888644,41.1923271 109.284643,40.2071942 110.136499,39.8438278 C110.988356,39.4804614 111.973489,39.8764608 112.336855,40.7283173 C113.082568,42.4789043 113.761402,44.2796514 114.351619,46.0787264 C114.610973,46.8318386 114.303058,47.6633465 113.61575,48.0659011 C112.928442,48.4684557 112.052586,48.3302794 111.52259,47.7356813 L111.52259,47.7390253 Z M80.5403771,10.6657062 C79.966054,10.0666744 79.9180165,9.13704385 80.4275371,8.48200585 C80.9370577,7.82696785 81.849925,7.64477605 82.5718605,8.05403771 C84.2438634,8.95691925 85.8941302,9.94172892 87.4791889,10.9850587 C88.2530163,11.4929406 88.4686076,12.5319713 87.9607257,13.3057986 C87.4528438,14.079626 86.4138131,14.2952174 85.6399858,13.7873355 C84.1351832,12.7975098 82.5668445,11.8611882 80.9801138,11.0051227 C80.8158877,10.9169039 80.667319,10.8022292 80.5403771,10.6657062 L80.5403771,10.6657062 Z M105.438171,34.4616507 C105.361557,34.3791985 105.293753,34.2889795 105.235859,34.1924582 C104.304554,32.6491996 103.294664,31.124333 102.226254,29.6630025 C101.874415,29.1782537 101.807913,28.5426237 102.051799,27.9955481 C102.295684,27.4484725 102.812905,27.0730652 103.408629,27.0107384 C104.004353,26.9484116 104.588076,27.2086343 104.939915,27.6933831 C106.055141,29.2316258 107.113518,30.8350765 108.098328,32.4585912 C108.456737,32.9364705 108.532976,33.5692583 108.298325,34.1185897 C108.063674,34.667921 107.553783,35.0503393 106.960723,35.1217914 C106.367662,35.1932434 105.781533,34.9428739 105.423123,34.4649947 L105.438171,34.4616507 Z M92.5236215,19.0073284 C92.0962182,18.589184 91.9243587,17.9747857 92.0727807,17.3955715 C92.2212027,16.8163572 92.6673574,16.3603234 93.2431827,16.1992534 C93.8190079,16.0381835 94.4370222,16.1965479 94.8644255,16.6146923 C96.2889719,17.8653504 97.6784063,19.1962647 98.9926005,20.567307 L99.0176805,20.5940591 C99.6511477,21.2690803 99.6174615,22.3298198 98.9424403,22.963287 C98.2674191,23.5967542 97.2066797,23.5630681 96.5732124,22.888047 C95.3242263,21.5855567 94.003344,20.3231946 92.6506937,19.1327286 C92.6072216,19.0926005 92.5637496,19.0508004 92.5236215,19.0073284 L92.5236215,19.0073284 Z" id="Shape" fill="url(#linearGradient-5)"></path>
                    <path d="M114.16937,59.2139808 C113.937686,58.9621128 113.788868,58.6452175 113.74301,58.3060832 C113.625969,57.4500178 113.488865,56.5822483 113.336713,55.7245109 C113.231878,55.1349273 113.449546,54.534201 113.907723,54.1486196 C114.3659,53.7630383 114.994978,53.6511809 115.55799,53.8551831 C116.121001,54.0591853 116.532412,54.5480543 116.637247,55.1376379 C116.804447,56.0371754 116.943223,56.9500889 117.065279,57.8529705 C117.17137,58.5816167 116.7883,59.2938966 116.121899,59.6070898 C115.455497,59.920283 114.662651,59.7606566 114.16937,59.2139808 L114.16937,59.2139808 Z" id="Path" fill="url(#linearGradient-6)"></path>
                </g>
                <g id="Group" opacity="0.3" transform="translate(332.226965, 101.323372)">
                    <path d="M116.814479,37.4846318 C116.255214,36.8793044 116.22044,35.9567382 116.732551,35.3110281 C117.269264,34.6321949 117.799289,33.9316258 118.310921,33.2277126 C118.662461,32.742665 119.246067,32.4820069 119.841901,32.5439256 C120.437734,32.6058444 120.955274,32.9809331 121.199567,33.5278994 C121.443861,34.0748657 121.377794,34.7106125 121.026254,35.1956599 C120.487869,35.9363572 119.92942,36.6753824 119.365955,37.3893276 C119.090962,37.7395139 118.687651,37.9655522 118.245419,38.0173395 C117.803186,38.0691269 117.358563,37.9423854 117.010103,37.6652081 C116.9395,37.6111367 116.874017,37.5506903 116.814479,37.4846318 L116.814479,37.4846318 Z" id="Path" fill="url(#linearGradient-7)"></path>
                    <path d="M17.5025258,41.2984703 C16.9808609,40.7299893 16.4664414,40.150919 15.9592672,39.5612593 C15.3553495,38.8585354 15.4354477,37.7992931 16.1381715,37.1953754 C16.8408954,36.5914576 17.9001377,36.6715558 18.5040555,37.3742796 C19.6744575,38.7369619 20.8950196,40.0494842 22.1506937,41.2850943 C22.5772009,41.705628 22.7469578,42.3217561 22.5960185,42.9013891 C22.4450792,43.4810221 21.9963751,43.9360999 21.4189285,44.0951992 C20.841482,44.2542984 20.2230209,44.0932481 19.7965137,43.6727143 C19.0190324,42.908609 18.2482391,42.1093917 17.5025258,41.2984703 Z M10.6623621,32.4686233 C10.6008079,32.397283 10.5449054,32.3212555 10.4951619,32.2412309 C9.47858413,30.6712202 8.5171825,29.0393454 7.639381,27.3924226 C7.20352607,26.5756562 7.51231582,25.5602059 8.32908224,25.1243509 C9.14584867,24.6884959 10.161299,24.9972856 10.597154,25.8140519 C11.4331555,27.3790466 12.344397,28.9273212 13.3108147,30.4204198 C13.8460132,31.1510266 13.702215,32.1749346 12.9864757,32.729859 C12.2707365,33.2847834 11.2432876,33.1689625 10.6690502,32.4686233 L10.6623621,32.4686233 Z M26.4945571,49.4177161 C25.866198,48.7878112 25.841195,47.7761474 26.4376701,47.1159711 C27.0341452,46.4557948 28.0431516,46.3783674 28.7333689,46.9398079 C30.1528993,47.9998577 31.6376379,49.0130914 33.1457844,49.949413 C33.6535312,50.266008 33.9538071,50.8294335 33.9335012,51.4274526 C33.9131952,52.0254717 33.5753923,52.567231 33.0473396,52.8486551 C32.5192869,53.1300792 31.8812081,53.1084129 31.3734614,52.7918179 C29.7850587,51.8036642 28.221736,50.7369264 26.7269655,49.6150125 C26.6439376,49.5567091 26.5661714,49.4912512 26.4945571,49.4193881 L26.4945571,49.4177161 Z M4.2301672,19.6109214 C4.08375909,19.4486889 3.97019649,19.2596071 3.89576663,19.0541444 C3.25037353,17.3002134 2.67186055,15.4977944 2.17694771,13.7037353 C1.93131765,12.8107866 2.45607305,11.8877861 3.34902175,11.642156 C4.24197044,11.3965258 5.16497097,11.9212811 5.41060121,12.8142298 C5.88043401,14.5246887 6.42885094,16.2368196 7.04247599,17.9021345 C7.3356387,18.6566221 7.04624521,19.5127564 6.35544134,19.9346402 C5.66463746,20.356524 4.77083572,20.2229839 4.23351121,19.6176094 L4.2301672,19.6109214 Z M38.8874422,56.6808965 C38.3228857,56.100497 38.2553264,55.1989825 38.727073,54.5409227 C39.1988196,53.8828629 40.0742921,53.6573843 40.8052295,54.0056919 C42.4220562,54.7263252 44.0923871,55.3884383 45.7710779,55.9736393 C46.6455582,56.2783684 47.1074328,57.2343066 46.8027037,58.1087869 C46.4979745,58.9832672 45.5420364,59.4451418 44.667556,59.1404127 C42.901921,58.5251156 41.142974,57.8278904 39.4392031,57.0688011 C39.2309793,56.9780786 39.0432863,56.8461247 38.8874422,56.6808965 L38.8874422,56.6808965 Z M52.5761295,61.0515119 C52.0773858,60.518798 51.9817415,59.7241623 52.3398347,59.0883174 C52.6979278,58.4524725 53.4270298,58.1223147 54.1411242,58.2726432 C55.8816791,58.6237638 57.6523301,58.9046603 59.4196371,59.1086446 C60.3393651,59.2157615 60.9981165,60.0481838 60.8909996,60.9679118 C60.7838827,61.8876397 59.9514605,62.5463912 59.0317325,62.4392743 C57.1791533,62.2235859 55.3098541,61.9276414 53.477339,61.5581288 C53.1310533,61.4904954 52.8153573,61.3141976 52.5761295,61.0548559 L52.5761295,61.0515119 Z M66.8918179,62.3356101 C66.4405041,61.8517543 66.3169771,61.14727 66.5767462,60.5387302 C66.8365152,59.9301905 67.4307091,59.5320816 68.0923159,59.5233013 C69.8696549,59.4881893 71.663714,59.3761651 73.426005,59.1889007 C74.0233541,59.1267764 74.6084704,59.3880531 74.9609462,59.8743104 C75.3134219,60.3605678 75.3797078,60.9979317 75.1348345,61.5463134 C74.8899611,62.094695 74.3711307,62.4707822 73.7737816,62.5329064 C71.9195304,62.7251868 70.0301672,62.843899 68.159196,62.882355 C67.6782359,62.8919758 67.2164346,62.693974 66.8918179,62.3389541 L66.8918179,62.3356101 Z M81.1439701,60.4646389 C80.7404204,60.0290954 80.5981287,59.4122043 80.7701324,58.843904 C80.9421361,58.2756038 81.4026304,57.8411539 81.9799715,57.7024902 C83.7054785,57.2794735 85.4309854,56.7778726 87.1113483,56.2110637 C87.6788299,56.0196132 88.3053422,56.1454536 88.7548839,56.5411819 C89.2044256,56.9369103 89.4087008,57.542406 89.2907608,58.1295847 C89.1728209,58.7167634 88.7505838,59.1964187 88.1831021,59.3878691 C86.4141231,59.9847741 84.594984,60.513127 82.7791889,60.9595518 C82.1852287,61.1073505 81.5579809,60.9187914 81.1439701,60.4679829 L81.1439701,60.4646389 Z M94.6437211,55.5104945 C94.2846106,55.1233475 94.1294919,54.5893105 94.225315,54.0700216 C94.3211382,53.5507326 94.6566401,53.1072287 95.1302739,52.873746 C96.7153326,52.0828887 98.2870153,51.2134472 99.8035219,50.2888296 C100.593971,49.8068036 101.625516,50.0568297 102.107542,50.8472786 C102.589568,51.6377275 102.339542,52.6692723 101.549093,53.1512985 C99.9523301,54.1244041 98.2970473,55.0406617 96.6283885,55.8749911 C95.9593159,56.2078609 95.1508535,56.0593817 94.6437211,55.5104945 L94.6437211,55.5104945 Z M106.717254,47.7156172 C106.693846,47.6905372 106.67211,47.6637851 106.650374,47.6370331 C106.368387,47.2925586 106.235415,46.849853 106.280923,46.4070118 C106.326431,45.9641706 106.546661,45.5577614 106.892814,45.2778371 C107.90772,44.4535397 108.909249,43.5891142 109.868979,42.7046247 C110.216756,42.3847148 110.560074,42.0620183 110.898933,41.736535 C111.219156,41.4273633 111.649441,41.2586393 112.094466,41.2677406 C112.539491,41.276842 112.962518,41.4630174 113.269833,41.7850231 C113.582603,42.1032978 113.753935,42.5341742 113.745125,42.9803205 C113.736316,43.4264669 113.548108,43.8502438 113.223017,44.1559232 C112.865208,44.4986837 112.505727,44.8381003 112.139559,45.1741729 C111.136357,46.1021345 110.076307,47.013376 109.007898,47.8811455 C108.322092,48.4428844 107.317069,48.3717259 106.717254,47.7189612 L106.717254,47.7156172 Z" id="Shape" fill="url(#linearGradient-8)"></path>
                    <path d="M0.784169335,5.61124155 C0.550332002,5.35732817 0.400813179,5.03726444 0.356136606,4.69498399 C0.237424404,3.79544646 0.135432231,2.8758449 0.0535040911,1.96293134 C-0.000257326407,1.36558226 0.268747017,0.784927568 0.759185789,0.439694273 C1.24962456,0.0944609785 1.88698845,0.0370982289 2.43118864,0.289214017 C2.97538883,0.541329805 3.34374837,1.06462175 3.39750978,1.66197083 C3.47442191,2.52974031 3.56471007,3.40252579 3.68342227,4.25859125 C3.78483209,4.98563923 3.40015145,5.6937981 2.73504276,6.00446376 C2.06993407,6.31512943 1.27997935,6.15563107 0.78751334,5.61124155 L0.784169335,5.61124155 Z" id="Path" fill="url(#linearGradient-9)"></path>
                </g>
                <path d="M348.858378,95.4362504 C348.811474,95.7669979 348.979254,96.091149 349.276379,96.2438278 L357.758449,100.606083 C358.150349,105.105038 359.273054,109.510016 361.082391,113.647705 L355.731982,121.534543 C355.543102,121.810717 355.551172,122.176536 355.752046,122.444112 L362.607257,131.603344 C362.8079,131.871206 363.156179,131.982602 363.475027,131.880896 L372.550658,128.968268 C376.011127,131.87161 379.922019,134.191037 384.129278,135.835183 L385.923337,145.198399 C385.986933,145.526397 386.251367,145.77808 386.582106,145.8254 L397.906581,147.455603 C398.237418,147.503033 398.561858,147.335104 398.714159,147.037602 L403.076414,138.555532 C407.575369,138.163632 411.980347,137.040927 416.118036,135.23159 L424.004874,140.581999 C424.281048,140.770878 424.646867,140.762809 424.914443,140.561935 L434.075347,133.706724 C434.342751,133.506508 434.453565,133.158617 434.351227,132.840626 L431.438598,123.763323 C434.341941,120.302854 436.661368,116.391962 438.305514,112.184703 L447.66873,110.392316 C447.996871,110.328423 448.248913,110.064315 448.297403,109.733547 L449.925934,98.4090715 C449.973597,98.0777556 449.805702,97.7527123 449.507933,97.5998221 L441.025863,93.2392387 C440.633963,88.7402843 439.511258,84.3353062 437.701921,80.1976165 L443.05233,72.3091071 C443.239691,72.0322748 443.230964,71.6671042 443.030594,71.3995375 L436.175382,62.2403059 C435.974611,61.9726234 435.626104,61.8618265 435.307613,61.9644255 L426.242014,64.8737104 C422.778341,61.9743782 418.865275,59.6589545 414.656706,58.0184988 L412.862647,48.6552828 C412.798754,48.3271414 412.534646,48.0750999 412.203878,48.0266097 L400.879402,46.398079 C400.548958,46.350357 400.224632,46.5175558 400.071825,46.8144077 L395.70957,55.2981501 C391.210615,55.69005 386.805637,56.8127547 382.667947,58.6220918 L374.78111,53.2716827 C374.504278,53.0843218 374.139107,53.0930483 373.87154,53.2934187 L364.710637,60.1486304 C364.442954,60.3494019 364.332157,60.6979088 364.434756,61.0163999 L367.347385,70.0920313 C364.446317,73.5491827 362.128073,77.456031 360.483814,81.658947 L351.120598,83.453006 C350.792456,83.5168993 350.540415,83.7810066 350.491925,84.1117752 L348.858378,95.4362504 Z" id="Path" fill="url(#linearGradient-10)"></path>
                <path d="M390.924297,104.705834 C386.733988,100.148904 386.900072,93.0933933 391.300157,88.7386766 C395.700241,84.3839599 402.757094,84.291008 407.270352,88.5283194 C411.78361,92.7656307 412.135472,99.8143189 408.066642,104.480038 C403.997813,109.145756 396.966785,109.756054 392.154891,105.861188 C391.717459,105.506146 391.306195,105.120027 390.924297,104.705834 L390.924297,104.705834 Z M405.900427,90.9703308 C405.60493,90.6493696 405.286404,90.3504017 404.947385,90.0758093 C401.275701,87.1116045 395.91718,87.5820835 392.818205,91.1407534 C389.71923,94.6994233 389.989692,100.071755 393.430403,103.301195 C396.871115,106.530634 402.249794,106.460566 405.605212,103.142593 C408.96063,99.8246198 409.091052,94.4470659 405.900427,90.9703308 L405.900427,90.9703308 Z" id="Shape" fill="#EAFFC1"></path>
                <path d="M378.855781,116.120598 C378.199664,115.407368 377.580224,114.661249 376.999858,113.88513 L376.999858,113.88513 C376.815937,113.639903 376.635918,113.391332 376.459801,113.139417 C375.592584,111.900497 374.825493,110.594429 374.165813,109.233618 C374.165813,109.215226 374.149093,109.196834 374.139061,109.178442 L374.063821,109.011242 C374.015333,108.909249 373.968517,108.807257 373.920028,108.703593 C373.765355,108.366544 373.9132,107.967925 374.250249,107.813252 C374.587298,107.658578 374.985917,107.806423 375.140591,108.143472 C378.535183,115.546027 385.094614,121.016979 392.986237,123.027792 C400.877859,125.038606 409.255536,123.373682 415.77862,118.498186 C416.524333,117.940851 417.235492,117.350634 417.912095,116.727535 C428.052628,107.361164 429.474067,91.8458911 421.204269,80.7928495 C412.299182,68.8965493 395.388545,66.4688011 383.497261,75.3672003 C382.764924,75.9178466 382.06324,76.5008182 381.392209,77.1161153 C378.485004,79.7844826 376.201523,83.0607063 374.704198,86.7117396 C374.565685,87.0547907 374.175299,87.2206014 373.832248,87.0820881 C373.489197,86.9435749 373.323386,86.5531899 373.4619,86.2101387 C375.404956,81.4806392 378.591894,77.3652368 382.684667,74.3004625 C395.169513,64.9573106 412.927855,67.5154749 422.269335,79.9953042 C430.951901,91.5983274 429.459644,107.886812 418.813305,117.719032 C418.098966,118.37626 417.351734,118.996814 416.574493,119.5783 C404.970028,128.262065 388.67914,126.768276 378.847421,116.118926 L378.855781,116.120598 Z" id="Path" fill="#EAFFC1"></path>
                <g id="Group" opacity="0.3" transform="translate(277.050872, 20.064034)">
                    <path d="M0.421344717,22.9515831 C0.109890786,22.6138789 0.0587955083,22.1111014 0.295944504,21.717645 C0.749057275,20.9635717 1.2322661,20.2128424 1.73052295,19.4888652 C1.93766337,19.1791527 2.2952922,19.004687 2.66688209,19.0320715 C3.03847198,19.059456 3.36666144,19.2844634 3.5261618,19.6211957 C3.68566216,19.9579279 3.65185172,20.3544043 3.43763785,20.6592672 C2.96278904,21.3514763 2.50298826,22.0654216 2.06993952,22.7843828 C1.77448123,23.2736819 1.13871864,23.4315007 0.648737104,23.1371754 C0.564166031,23.0869149 0.487531882,23.0243679 0.421344717,22.9515831 L0.421344717,22.9515831 Z" id="Path" fill="url(#linearGradient-11)"></path>
                    <path d="M5.13806475,16.5327641 C4.77942029,16.1414044 4.77436807,15.5423549 5.12636073,15.1450018 C6.13536478,14.0083732 7.20123603,12.9235284 8.31988616,11.8946282 C8.55396656,11.6794972 8.79139096,11.4654808 9.03215937,11.2525792 C9.46755613,10.8938544 10.1064982,10.9340624 10.4934899,11.3445393 C10.8724558,11.7735026 10.8320373,12.4284314 10.4032017,12.8075418 C10.1724653,13.0092968 9.94507293,13.2132812 9.72102455,13.4194948 C8.65447462,14.4007677 7.63826918,15.4353887 6.67630736,16.5193881 C6.48138606,16.7381257 6.20312391,16.8643316 5.91014956,16.8669185 C5.61717521,16.8694268 5.33676041,16.748079 5.13806475,16.5327641 L5.13806475,16.5327641 Z M13.2088225,9.42340804 C13.174935,9.38704776 13.1441728,9.34789577 13.1168623,9.30636784 C12.9610481,9.07995959 12.9018538,8.80080433 12.9523716,8.53064379 C13.0028894,8.26048324 13.1589564,8.0215801 13.3860548,7.86677339 C14.9033938,6.8273822 16.4830585,5.88204023 18.1161508,5.03607257 C18.6240328,4.77335911 19.2487237,4.97210741 19.5114372,5.47998933 C19.7741507,5.98787125 19.5754024,6.61256224 19.0675205,6.8752757 C17.5087364,7.68188701 16.0010828,8.58368721 14.5531128,9.5755603 C14.1291122,9.86452186 13.5575127,9.79982589 13.2088225,9.42340804 Z M22.7609747,4.48263963 C22.6697206,4.38589633 22.5981664,4.27231818 22.5503024,4.14823906 C22.4532755,3.88934084 22.4636916,3.60241024 22.5792351,3.35122865 C22.6947786,3.10004707 22.9058748,2.90542935 23.1655994,2.81063678 C24.8921527,2.1739875 26.6567595,1.64572229 28.4491284,1.22892209 C28.8093299,1.1449945 29.1869447,1.25960744 29.4397289,1.52958733 C29.692513,1.79956721 29.7820627,2.18389766 29.6746453,2.53780511 C29.5672279,2.89171255 29.2791628,3.16143001 28.9189612,3.24535752 C27.2104431,3.64317526 25.5280171,4.14572535 23.8812166,4.75016009 C23.4871593,4.89816978 23.0427076,4.79234793 22.7576307,4.48263963 L22.7609747,4.48263963 Z M33.2344006,2.04151547 C32.9692364,1.75361307 32.8891705,1.34075345 33.0274942,0.974602661 C33.1658178,0.608451869 33.4988643,0.351656914 33.8881537,0.310992529 C35.7206832,0.117717317 37.5633635,0.0373094488 39.4057631,0.0702241195 C39.9630981,0.100450503 40.3964472,0.566526995 40.3860878,1.12458494 C40.3757283,1.68264288 39.9253799,2.13231498 39.367307,2.14183565 C37.6131225,2.11040529 35.8586654,2.18690453 34.1138741,2.37090004 C33.7836169,2.41061172 33.4545884,2.28784918 33.2310566,2.04151547 L33.2344006,2.04151547 Z M43.9853789,2.2321238 C43.689767,1.90970185 43.6283519,1.43642065 43.8318811,1.04922796 C44.0354103,0.662035266 44.4600786,0.444265492 44.8932764,0.504944859 C46.7136951,0.763291216 48.5166715,1.13237373 50.2921736,1.61013874 C50.6505831,1.70631191 50.9304593,1.98638878 51.0263756,2.34486709 C51.1222919,2.70334541 51.0196764,3.08576377 50.7571832,3.34806887 C50.49469,3.61037396 50.1121982,3.7127154 49.7537887,3.61654216 C48.0594685,3.16180191 46.3391757,2.81003805 44.6023479,2.56318036 C44.3632791,2.52859856 44.1438366,2.41148372 43.9820349,2.2321238 L43.9853789,2.2321238 Z M54.3635005,5.02604055 C54.0341936,4.66965109 53.9966998,4.13232362 54.2733198,3.73365352 C54.5499398,3.33498342 55.0663975,3.18201909 55.5155105,3.36574173 C57.2187508,4.05776222 58.8772433,4.8551788 60.4813589,5.75336179 C60.9485428,6.04518507 61.1052959,6.65180205 60.8379749,7.13342539 C60.5706539,7.61504872 59.9729362,7.80290296 59.4781572,7.56079687 C57.9480894,6.70560272 56.3667145,5.94562698 54.7430452,5.285201 C54.5973426,5.22910438 54.4663813,5.14046245 54.3601565,5.02604055 L54.3635005,5.02604055 Z M63.7417645,10.2727855 C63.3772518,9.88083907 63.3717254,9.27562002 63.7290199,8.87708253 C64.0863144,8.47854505 64.6885414,8.4181856 65.1178228,8.73788687 C66.5996898,9.82806142 68.0129803,11.0085024 69.349662,12.2725009 C69.7427086,12.6701553 69.7495844,13.3078631 69.3652031,13.7138997 C68.9808218,14.1199362 68.3436941,14.1479875 67.9251156,13.7773035 C66.6515001,12.5711049 65.3040478,11.4453429 63.8905727,10.4065457 C63.8356031,10.367042 63.7846416,10.3222407 63.7384205,10.2727855 L63.7417645,10.2727855 Z M74.7218072,22.0202775 C74.6808073,21.9747201 74.6433564,21.9260899 74.609783,21.8748132 C73.7892729,20.588843 72.9007337,19.3475673 71.9479545,18.1562789 C71.8041622,17.9757026 71.66037,17.7984703 71.5149057,17.624582 C71.1506246,17.1833612 71.2119385,16.5305923 71.65201,16.1649235 C71.8626549,15.986923 72.136058,15.901158 72.410631,15.9269483 C72.685204,15.9527387 72.9378543,16.0879154 73.1116684,16.3020277 C73.2654927,16.4892921 73.417645,16.6765564 73.5681252,16.8671647 C74.5661509,18.1148254 75.4970998,19.4146935 76.357026,20.7612593 C76.6408055,21.213685 76.5344214,21.8076682 76.1112577,22.1334783 C75.6880939,22.4592885 75.0866519,22.410288 74.7218072,22.0202775 L74.7218072,22.0202775 Z" id="Shape" fill="url(#linearGradient-12)"></path>
                </g>
                <g id="Group" opacity="0.3" transform="translate(271.031661, 67.716115)">
                    <path d="M12.1337247,27.8622554 C11.8816433,27.5916563 11.7930735,27.2071286 11.9013786,26.8535202 C12.0096837,26.4999118 12.2984095,26.2309443 12.6587959,26.147935 C13.0191823,26.0649258 13.3964779,26.1804859 13.6485592,26.451085 C14.8333013,27.7054305 16.09236,28.8874381 17.4189256,29.990715 C17.8341521,30.3627549 17.8807598,30.9965764 17.5244209,31.4253529 C17.168082,31.8541294 16.5364325,31.9242786 16.0946994,31.5841338 C14.7041868,30.4269307 13.384282,29.1874262 12.1420847,27.8722874 L12.1337247,27.8622554 Z M8.73454287,23.7976165 C8.70946282,23.7691925 8.68605478,23.7407684 8.66264674,23.7106724 C7.58795201,22.2552746 6.60083943,20.7371982 5.70654571,19.1644966 C5.44128594,18.6686185 5.61977647,18.0516788 6.10882847,17.7740352 C6.59788047,17.4963916 7.21911285,17.6593142 7.50896478,18.1412309 C8.36173556,19.6452039 9.30363801,21.0968615 10.3296336,22.4884383 C10.6493145,22.9314065 10.5703838,23.5464393 10.1492076,23.8943291 C9.72803138,24.2422189 9.10916026,24.2035674 8.73454287,23.8059765 L8.73454287,23.7976165 Z M20.2713625,34.6188189 C19.9154225,34.2363076 19.9004162,33.6484815 20.2363756,33.2483072 C20.5723349,32.8481328 21.1538807,32.7611315 21.5922448,33.0454642 C23.0448413,33.976665 24.5523925,34.8192185 26.1066524,35.5685165 C26.6117627,35.82274 26.8199445,36.4348636 26.5745625,36.9443276 C26.3291806,37.4537917 25.720778,37.6726097 25.2071149,37.4361437 C23.5774824,36.6499298 21.9967944,35.7660623 20.4736748,34.7893632 C20.3982777,34.7413155 20.3291889,34.6840224 20.2680185,34.6188189 L20.2713625,34.6188189 Z M3.51120598,14.5932408 C3.42987198,14.503458 3.3642977,14.4005742 3.31725365,14.2889363 C2.6231309,12.6172556 2.03181186,10.9047197 1.54660263,9.16090359 C1.39331463,8.61008256 1.71557883,8.03928942 2.26639986,7.88600142 C2.81722089,7.73271343 3.38801403,8.05497762 3.54130203,8.60579865 C4.00524243,10.2679647 4.56917732,11.9005841 5.2300249,13.494735 C5.42527961,13.9591316 5.25779165,14.4966601 4.83330453,14.767952 C4.40881741,15.0392438 3.85065198,14.965484 3.51120598,14.5932408 L3.51120598,14.5932408 Z M29.7900747,39.2067947 C29.4703761,38.8584062 29.4269404,38.3378309 29.6844828,37.9412787 C29.9420252,37.5447264 30.4352724,37.3727019 30.8835646,37.5230879 C32.5174562,38.0785876 34.1836168,38.5342132 35.8728211,38.8874422 C36.4158666,39.0202304 36.7558044,39.5597017 36.6412264,40.1068791 C36.5266485,40.6540565 35.9988311,41.0118215 35.4481323,40.9155816 C33.6777494,40.5441692 31.931265,40.0667894 30.2181074,39.4860192 C30.0562005,39.4293185 29.9108647,39.3333855 29.7950907,39.2067947 L29.7900747,39.2067947 Z M40.1381003,41.3803984 C39.8493228,41.0657166 39.7831023,40.6061329 39.9712936,40.2227256 C40.1594848,39.8393183 40.5635628,39.6105754 40.9891498,39.6465315 C42.7087847,39.7940743 44.4357299,39.8381832 46.1606546,39.7786197 C46.7322525,39.7583045 47.212093,40.2052075 47.2324083,40.7768054 C47.2527235,41.3484034 46.8058207,41.8282439 46.2342227,41.8485592 C44.425673,41.9115099 42.6149747,41.865726 40.8119175,41.711455 C40.5549095,41.6866317 40.3164162,41.5667889 40.1431163,41.3753824 L40.1381003,41.3803984 Z M50.7101743,41.0075418 C50.5716333,40.8582107 50.4813186,40.6705892 50.4510139,40.4691569 C50.3617921,39.9041069 50.7471495,39.3735857 51.3120953,39.2837069 C53.0175455,39.0169323 54.70499,38.6456052 56.3648879,38.171825 C56.9147855,38.0148433 57.4878244,38.3333646 57.6448061,38.8832622 C57.8017877,39.4331598 57.4832665,40.0061987 56.9333689,40.1631804 C55.1923578,40.6596615 53.4229423,41.0505075 51.6347919,41.3335824 C51.2922068,41.3837269 50.9472034,41.2595257 50.7151903,41.0025258 L50.7101743,41.0075418 Z" id="Shape" fill="url(#linearGradient-13)"></path>
                    <path d="M0.668801138,4.3472074 C0.528540486,4.1948889 0.437617321,4.00371712 0.407968694,3.79879047 C0.27588047,2.92266097 0.17054429,2.03817147 0.0919601565,1.17040199 C0.0407103359,0.600650867 0.461038649,0.0972301163 1.03078977,0.0459802183 C1.60054088,-0.00526967965 2.10396169,0.415058565 2.15521167,0.984809676 C2.2304518,1.8208111 2.32241195,2.65681252 2.45617218,3.49281395 C2.52258289,3.94270364 2.2880205,4.38334741 1.87772254,4.57947674 C1.46742459,4.77560607 0.977204732,4.68142042 0.668801138,4.3472074 Z" id="Path" fill="url(#linearGradient-14)"></path>
                </g>
                <path d="M282.13376,63.6481323 C282.102005,63.8693 282.214166,64.0862349 282.412985,64.1881893 L288.08609,67.1075062 C288.347273,70.1189884 289.098409,73.0676214 290.309854,75.8370331 L286.728424,81.1138741 C286.60178,81.298583 286.607163,81.5435167 286.7418,81.7224831 L291.329776,87.8520455 C291.463845,88.0312484 291.696776,88.1057596 291.909961,88.0376379 L297.982675,86.0880825 C300.297941,88.0313209 302.915089,89.5833108 305.730736,90.6827464 L306.931234,96.952757 C306.973222,97.1721615 307.149846,97.3407266 307.370971,97.3724297 L314.948488,98.4625756 C315.170135,98.4945643 315.387674,98.382438 315.490217,98.1833511 L318.409534,92.4985414 C321.420377,92.236766 324.368365,91.4856503 327.137389,90.2747777 L332.415902,93.8562078 C332.600916,93.9818228 332.845194,93.9764541 333.024511,93.8428317 L339.154073,89.2548559 C339.333276,89.1207869 339.407787,88.8878553 339.339666,88.6746709 L337.39011,82.6019566 C339.332468,80.2860666 340.884369,77.6690701 341.984774,74.8538954 L348.253113,73.6533974 C348.473687,73.611841 348.6432,73.4342561 348.674457,73.2119886 L349.764603,65.6344717 C349.796359,65.413304 349.684198,65.1963691 349.485379,65.0944148 L343.808929,62.1750978 C343.547648,59.1668778 342.798259,56.2212771 341.590181,53.453931 L345.171612,48.17709 C345.297767,47.9920253 345.291711,47.7470849 345.156564,47.568481 L340.57026,41.4389185 C340.436191,41.2597157 340.203259,41.1852044 339.990075,41.2533262 L333.915688,43.2028815 C331.600423,41.2596431 328.983275,39.7076532 326.167627,38.6082177 L324.967129,32.338207 C324.925141,32.1188026 324.748517,31.9502375 324.527392,31.9185343 L316.949875,30.8283885 C316.728228,30.7963998 316.51069,30.9085261 316.408147,31.1076129 L313.490502,36.7924226 C310.479155,37.0544026 307.530649,37.8055063 304.760975,39.0161864 L299.482462,35.4347563 C299.297448,35.3091413 299.053169,35.31451 298.873853,35.4481323 L292.745962,40.0361081 C292.565884,40.169552 292.491173,40.4031098 292.56037,40.6162931 L294.508253,46.6890075 C292.56648,49.0053119 291.014639,51.6222083 289.913589,54.4370687 L283.645251,55.6375667 C283.425329,55.6797616 283.256623,55.857205 283.225578,56.0789755 L282.13376,63.6481323 Z" id="Path" fill="url(#linearGradient-15)"></path>
                <path d="M310.171576,69.936535 C307.311653,66.8237621 307.426495,62.0063214 310.431495,59.0333613 C313.436495,56.0604012 318.25489,55.9972036 321.336828,58.8903279 C324.418767,61.7834522 324.659918,66.5962238 321.882619,69.782934 C319.105319,72.9696443 314.304741,73.3884198 311.017609,70.7307364 C310.716991,70.4865499 310.434256,70.2211365 310.171576,69.936535 L310.171576,69.936535 Z M320.195233,60.7405194 C320.003521,60.5328116 319.79735,60.3389322 319.578264,60.1603344 C317.102876,58.1958122 313.507186,58.591054 311.51763,61.046367 C309.528075,63.5016801 309.886787,67.1011982 312.321772,69.1155816 L312.321772,69.1155816 C314.668904,70.9743719 318.04843,70.7264173 320.099131,68.5449596 C322.149832,66.363502 322.188686,62.9751144 320.188545,60.7472074 L320.195233,60.7405194 Z" id="Shape" fill="#EAFFC1"></path>
                <path d="M301.761402,77.8718605 C301.315534,77.3880944 300.893075,76.8792482 300.494023,76.3453219 C299.700103,75.2813909 299.0161,74.1397053 298.452508,72.9377801 L298.377268,72.7705799 C298.139025,72.2506935 298.367342,71.6361083 298.887229,71.3978655 C299.407115,71.1596227 300.0217,71.38794 300.259943,71.9078264 C300.778064,73.0356145 301.414784,74.1050353 302.159338,75.0980078 L302.159338,75.0980078 C302.199466,75.1531839 302.241266,75.206688 302.283067,75.2652081 C304.033321,77.5650236 306.332948,79.3886278 308.971078,80.5688011 C310.40998,81.2095101 311.92832,81.6543272 313.485486,81.8913554 L313.523942,81.8913554 L313.640982,81.9080754 C318.219535,82.5799529 322.876582,81.3920595 326.573924,78.6092138 C327.05347,78.2505946 327.514426,77.8677666 327.954998,77.4622199 C334.783747,71.1650174 335.477846,60.620319 329.533462,53.4823318 C323.589078,46.3443446 313.092874,45.1187241 305.663856,50.6951263 C305.191329,51.0502786 304.737603,51.4297791 304.304518,51.8320882 C302.424086,53.5598551 300.94728,55.6805879 299.979047,58.0435788 C299.922332,58.1846729 299.834284,58.3110276 299.721558,58.4130914 C299.364619,58.7424884 298.82664,58.7793621 298.428096,58.501747 C298.029551,58.2241319 297.877672,57.7067215 298.062931,57.2577375 C299.1462,54.6138516 300.79822,52.2408564 302.901708,50.3072216 C303.386588,49.8613542 303.89432,49.4394522 304.424902,49.0415155 C312.739068,42.8157953 324.473206,44.1952556 331.116865,52.1794113 C337.760524,60.163567 336.984279,71.9529839 329.351121,78.9971185 C328.860666,79.4429859 328.34569,79.8704613 327.80619,80.2795446 C319.788668,86.2638136 308.546007,85.2244972 301.761402,77.8718605 L301.761402,77.8718605 Z" id="Path" fill="#EAFFC1"></path>
                <path d="M75.8303451,192.89228 C76.5278109,182.276706 82.9190952,172.871172 92.5319815,168.313838 L216.982497,109.206866 C224.952681,105.421527 234.202709,105.421527 242.172892,109.206866 L366.62508,168.313838 C376.238038,172.870789 382.628949,182.276716 383.325044,192.89228 C394.998968,373.336499 279.299715,439.082995 241.372003,455.691 C233.853507,458.984851 225.30021,458.984851 217.781715,455.691 C179.855674,439.082995 64.1580932,373.336499 75.8303451,192.89228 Z" id="Path" fill="url(#linearGradient-16)"></path>
                <path d="M267.222839,133.760229 C267.012814,133.760537 266.8054,133.713683 266.615902,133.623123 L237.210388,119.656884 C236.749754,119.440931 236.439906,118.994986 236.398202,118.487955 C236.356498,117.980925 236.589315,117.490345 237.008472,117.202028 C237.427629,116.913711 237.969027,116.871748 238.427606,117.092031 L267.83312,131.058271 C268.433079,131.343014 268.755439,132.005661 268.609126,132.653444 C268.462814,133.301227 267.886939,133.760994 267.222839,133.760229 L267.222839,133.760229 Z" id="Path" fill="#EAFFC1"></path>
                <path d="M373.809676,231.159409 L373.759516,231.159409 C372.976414,231.132164 372.36311,230.476228 372.388474,229.693063 C372.779723,218.062611 372.574066,205.932231 371.779865,193.637994 C371.35143,187.213842 367.479743,181.524663 361.660904,178.768872 L277.942049,139.006973 C277.481415,138.79102 277.171567,138.345075 277.129863,137.838044 C277.088159,137.331014 277.320977,136.840434 277.740134,136.552117 C278.159291,136.2638 278.700689,136.221837 279.159267,136.44212 L362.878122,176.20402 C369.626395,179.401122 374.116015,185.99993 374.612238,193.450729 C375.413127,205.835254 375.615439,218.060939 375.225863,229.783351 C375.203269,230.549393 374.576051,231.159409 373.809676,231.159409 Z" id="Path" fill="#EAFFC1"></path>
                <path d="M105.926396,199.934756 C106.065063,197.241915 107.670317,194.842382 110.106403,193.686482 L226.447705,138.431804 C228.434256,137.488753 230.739525,137.488753 232.726076,138.431804 L349.067378,193.686482 C351.500215,194.844698 353.101954,197.243776 353.239025,199.934756 C356.680007,267.246247 341.132053,323.408822 306.994771,366.937745 C280.968374,400.125329 250.524546,417.910423 232.682604,426.206901 C230.721435,427.1195 228.457363,427.1195 226.496194,426.206901 C208.655923,417.910423 178.210423,400.123657 152.185699,366.937745 C118.033369,323.408822 102.493774,267.244575 105.926396,199.934756 Z" id="Path" fill="url(#linearGradient-17)"></path>
                <path d="M263.977481,272.253895 L275.572821,272.253895 L275.572821,226.054785 C275.572821,207.905194 261.986126,192.569584 243.971967,190.37926 L220.262967,187.498399 C210.051449,186.256833 199.797454,189.451029 192.097522,196.272147 C184.397591,203.093264 179.990093,212.887205 179.991106,223.173924 L179.991106,263.507649 L191.584774,263.507649 L191.584774,223.165564 C191.585659,216.197909 194.571837,209.564542 199.787474,204.944439 C205.003111,200.324336 211.948312,198.160313 218.865173,199.000107 L242.572501,201.880968 C254.784204,203.3778 263.964223,213.743331 263.974137,226.046425 L263.977481,272.253895 Z" id="Path" fill="url(#linearGradient-18)"></path>
                <path d="M279.000427,261.879118 L177.357702,256.247812 C175.381835,256.138972 173.448182,256.847624 172.010559,258.207453 C170.572935,259.567282 169.756777,261.458562 169.756777,263.437424 L169.756777,343.959409 C169.756777,345.869607 170.515714,347.701543 171.866585,349.0521 C173.217455,350.402657 175.049568,351.160726 176.959765,351.160726 L276.159694,351.160726 C280.042681,351.156467 283.223091,348.074428 283.349306,344.19349 L285.792102,269.30281 C285.917267,265.39544 282.903488,262.101206 279.000427,261.879118 L279.000427,261.879118 Z" id="Path" fill="url(#linearGradient-19)"></path>
                <path d="M211.210744,328.097118 L217.36037,310.410672 C218.112053,308.28654 217.593617,305.919881 216.022768,304.304518 C212.735271,300.981863 210.991057,296.433322 211.214088,291.764497 C211.607008,283.13529 218.6545,276.141302 227.285379,275.810245 C234.493786,275.526405 241.073886,279.890593 243.616451,286.641672 C246.159016,293.392751 244.092584,301.013362 238.487798,305.555176 C236.512817,307.123384 235.736484,309.763588 236.548275,312.151227 L242.094308,328.097118 C242.729177,329.922051 242.441411,331.94141 241.322046,333.516358 C240.202681,335.091306 238.390198,336.027428 236.457986,336.027428 L216.847065,336.027428 C214.914854,336.027428 213.102371,335.091306 211.983006,333.516358 C210.86364,331.94141 210.575874,329.922051 211.210744,328.097118 L211.210744,328.097118 Z" id="Path" fill="url(#linearGradient-20)"></path>
                <path d="M4.83877624,457.648915 C4.83877624,457.648915 3.01462113,460.526432 2.55482035,468.583814 C2.53322017,468.943872 2.66075178,469.296951 2.90745333,469.560099 C3.15415488,469.823248 3.49828052,469.97327 3.85898257,469.974987 L18.1378869,469.974987 C18.4099947,469.978365 18.6667512,469.849152 18.826117,469.628568 C18.9854827,469.407985 19.0275123,469.123638 18.9387762,468.866382 C18.1027748,466.390146 15.5713625,460.352544 9.9266809,456.90153 L4.83877624,457.648915 Z" id="Path" fill="url(#linearGradient-21)"></path>
                <path d="M4.21846318,452.189826 L5.02604055,458.961437 C5.09434996,459.54672 5.55462424,460.009068 6.13959445,460.080007 C7.13953696,460.205445 8.15180461,460.195885 9.14919957,460.051583 C10.153303,459.873077 10.8822979,458.996446 10.8747653,457.976628 L10.8747653,451.440768 L4.21846318,452.189826 Z" id="Path" fill="url(#linearGradient-22)"></path>
                <path d="M40.1681964,456.90153 C40.1681964,456.90153 37.4344717,461.150089 37.4929918,466.982035 C37.5240003,468.359099 38.6537055,469.456803 40.0310921,469.448289 L62.2085379,469.448289 C62.6716944,469.44791 63.0811933,469.147387 63.220408,468.705648 C63.3596227,468.263909 63.1964249,467.7829 62.8171469,467.517076 C58.6220918,464.571007 50.3741017,459.066773 44.4083956,456.90153 L40.1681964,456.90153 Z" id="Path" fill="url(#linearGradient-23)"></path>
                <path d="M37.8842405,449.588189 L39.6064034,457.948203 C39.6951067,458.399689 39.9604563,458.797049 40.34349,459.051986 C40.7265237,459.306923 41.1955135,459.398321 41.6462469,459.30587 C42.337685,459.146471 42.9969502,458.870552 43.5958022,458.489932 C44.2705314,458.058144 44.6178741,457.261765 44.4752757,456.473497 L42.6945927,446.34116 L37.8842405,449.588189 Z" id="Path" fill="url(#linearGradient-24)"></path>
                <path d="M7.38356457,333.307079 C7.38356457,333.307079 1.39445037,338.580576 0.265848453,344.934187 C-0.862753469,351.287798 3.45937389,454.549022 3.45937389,454.549022 C3.45937389,454.549022 9.45016009,455.552223 12.5366773,453.674564 C12.5366773,453.674564 16.1983636,386.659018 18.9822483,371.172928 C18.9822483,371.172928 33.5805052,440.591142 37.62508,453.134507 C37.62508,453.134507 43.3951619,453.836748 45.256101,452.739915 C45.256101,452.739915 41.4322305,362.752721 36.6268943,346.753326 L7.38356457,333.307079 Z" id="Path" fill="#B9E564"></path>
                <path d="M18.80836,369.143116 C18.875465,369.143116 18.9422988,369.134597 19.0073284,369.118036 C19.2109111,369.065336 19.3852021,368.933884 19.4918251,368.752625 C19.598448,368.571366 19.6286602,368.355162 19.5758093,368.151619 L17.031021,358.392138 C16.9824339,358.199566 16.8630251,358.032394 16.6966204,357.923977 L11.2024191,354.397723 C10.8330504,354.161327 10.3419812,354.269123 10.1055853,354.638492 C9.86918936,355.00786 9.97698501,355.49893 10.3463536,355.735326 L15.5813945,359.094379 L18.0475987,368.552899 C18.1389122,368.89879 18.4506275,369.140627 18.80836,369.143116 L18.80836,369.143116 Z" id="Path" fill="#9ACA3C"></path>
                <path d="M56.7176805,276.850231 C33.2828887,286.380647 29.7649947,294.020028 29.7649947,294.020028 L49.2237638,305.601992 C49.2237638,305.601992 71.098577,293.961508 80.7443614,273.730274 C76.1630736,272.041551 72.3174671,269.550267 69.6054785,267.480327 C66.378513,271.24735 62.1851298,274.626467 56.7176805,276.850231 Z" id="Path" fill="url(#linearGradient-25)"></path>
                <path d="M75.198328,225.984561 C75.0234806,225.674917 74.6601698,225.524214 74.3174869,225.619184 C73.974804,225.714154 73.7408931,226.030368 73.7503735,226.385841 L73.9861259,233.96503 C74.0314043,235.429269 74.5258049,236.844177 75.4023123,238.017965 L78.2146211,241.072714 C79.3984697,242.65548 79.8459946,244.670255 79.4435432,246.605372 C78.4787976,251.238492 75.9156172,260.105123 69.6054785,267.480327 C72.3174671,269.556955 76.1630736,272.041551 80.7443614,273.730274 C84.2839915,266.306581 86.1800427,257.727535 84.7404482,248.14863 C85.8408297,247.086642 86.0898504,245.417586 85.3473853,244.080647 L75.198328,225.984561 Z" id="Path" fill="url(#linearGradient-26)"></path>
                <path d="M74.7903593,284.730381 C65.9136962,275.166524 49.0064034,270.852757 39.2168268,269.070402 C34.9349471,268.285808 30.7069536,270.685195 29.1848097,274.763572 C24.7807542,286.606368 12.7991818,317.414692 10.4767698,322.709925 C8.57235859,327.057133 6.5826752,331.29566 5.31864105,333.947456 C4.95231203,334.707187 4.90314119,335.581411 5.18196691,336.377429 C5.46079263,337.173446 6.04472484,337.825909 6.80505158,338.191 C15.0396656,342.160334 29.8602988,346.653006 35.8678051,348.405265 C36.4914083,348.586443 37.1639274,348.463205 37.6827668,348.072677 C38.2016062,347.682149 38.5061125,347.069985 38.5045535,346.420598 C38.5046206,345.252969 38.8225182,344.107382 39.4241551,343.106688 L62.1767698,305.189007 C76.36037,320.914194 88.7800071,322.352117 98.3204554,318.911135 C96.7422588,314.069646 95.6834989,309.074025 95.162042,304.008573 C81.063714,301.594201 74.7903593,284.730381 74.7903593,284.730381 Z" id="Path" fill="url(#linearGradient-27)"></path>
                <path d="M118.456386,301.370153 L115.913269,297.977659 C107.678655,303.634045 100.79502,304.974991 95.158698,304.008573 C95.6801549,309.074025 96.7389148,314.069646 98.3171113,318.911135 C110.885557,314.376663 118.456386,301.370153 118.456386,301.370153 Z" id="Path" fill="url(#linearGradient-28)"></path>
                <path d="M116.663999,301.430345 L130.994735,301.988794 L144.188509,294.620277 C142.29413,293.433155 131.584952,295.859232 131.584952,295.859232 C131.584952,295.859232 120.382533,294.167165 117.35788,294.162149 C114.841515,294.162149 115.200996,297.778691 115.394948,299.010957 C115.433404,299.261757 115.466845,299.412238 115.466845,299.412238 L116.663999,301.430345 Z" id="Path" fill="url(#linearGradient-29)"></path>
                <path d="M52.6814657,251.50434 L45.1206688,269.954891 C45.1206688,269.954891 53.8150836,275.974102 60.7973675,275.395589 L64.5710779,258.805977 L52.6814657,251.50434 Z" id="Path" fill="url(#linearGradient-30)"></path>
                <path d="M65.4538954,238.929207 C65.6210957,239.174991 70.9246887,258.309392 70.9246887,258.309392 L59.934614,261.101636 L52.2199929,243.712807 C52.2199929,243.712807 62.5546425,234.817752 65.4538954,238.929207 Z" id="Path" fill="url(#linearGradient-31)"></path>
                <path d="M56.3581999,246.349555 L59.7022056,255.823123 C59.7429159,255.94149 59.7991392,256.053936 59.8694059,256.157524 C60.3241907,256.801245 62.0430096,258.906297 64.0928851,257.010245 C65.9488083,255.291427 67.6676272,253.74984 69.2560299,253.468943 C69.9667715,253.342496 70.657254,253.776762 70.8511206,254.472145 C71.3326574,256.211028 72.3442191,260.156955 72.7003557,263.704945 C72.7661124,264.425251 72.2727809,265.077231 71.5617218,265.209747 C69.4148702,265.616044 64.8636784,266.350053 61.0648879,266.082533 C60.5506927,266.047732 60.09661,265.734749 59.8811099,265.266596 C58.8344361,262.979296 55.6258627,256.03714 54.4337247,254.241409 C53.3134827,252.554358 50.5680541,252.602846 49.4177161,252.704838 C49.0419811,252.739957 48.6683352,252.619036 48.3844184,252.370438 C47.3812166,251.48762 45.4600854,249.23376 48.157026,246.535148 C48.4271235,246.265659 48.5761145,245.89798 48.5698089,245.516487 C48.5635032,245.134993 48.4024422,244.77244 48.1235859,244.512024 C46.9665599,243.42355 45.7276058,241.492387 47.6570971,239.096407 C49.6183565,236.661971 52.2066169,237.049875 53.7933476,237.628388 C54.4330073,237.856725 55.1443639,237.594016 55.4820704,237.004731 C55.6810388,236.670331 56.0271434,236.417858 56.6273924,236.469691 C57.0159593,236.495739 57.3974961,236.356724 57.6782289,236.086813 C57.9589617,235.816903 58.1128601,235.441122 58.1020989,235.051832 C58.0736748,233.491853 58.6321238,231.522234 61.3390964,230.679545 C66.1394166,229.184774 69.1339737,233.82291 69.4299182,237.283956 C69.7258627,240.745002 64.4289577,242.069228 61.3140164,241.83682 C58.9464603,241.657915 57.1875133,244.010423 56.4802561,245.142369 C56.2560114,245.504556 56.2109924,245.949812 56.3581999,246.349555 Z" id="Path" fill="url(#linearGradient-32)"></path>
                <path d="M55.6910708,257.690751 C55.6910708,257.690751 54.9169335,251.683244 52.4172892,251.388972 C49.917645,251.094699 47.4848808,253.141231 49.9694771,256.520349 C53.0610103,260.715404 55.6910708,257.690751 55.6910708,257.690751 Z" id="Path" fill="url(#linearGradient-33)"></path>
            </g>
        </g>
    </g>
</svg>