<?xml version="1.0" encoding="UTF-8"?>
<svg width="598px" height="390px" viewBox="0 0 598 390" version="1.1" xmlns="http://www.w3.org/2000/svg" xmlns:xlink="http://www.w3.org/1999/xlink">
    <title>Fichier 1</title>
    <g id="Page-1" stroke="none" stroke-width="1" fill="none" fill-rule="evenodd">
        <g id="Fichier-1" fill-rule="nonzero">
            <ellipse id="Oval" fill="#C8C1E1" cx="298.59944" cy="355.165826" rx="298.59944" ry="34.7904762"></ellipse>
            <g id="Group" opacity="0.5" transform="translate(202.829132, 49.159664)">
                <path d="M0.13837535,24.9694678 C0.746498599,11.612605 12.5703081,0.316806723 25.745098,0.316806723 C44.4112045,0.316806723 50.5361345,14.8316527 51.2717087,28.1812325 C52.0364146,42.0515406 39.9831933,51.5411765 26.8156863,51.5411765 C13.6481793,51.5411765 -0.619047619,41.5672269 0.13837535,24.9694678 Z" id="Path" fill="#D7E3F4"></path>
                <path d="M4.77030812,26.3677871 C4.77030812,15.7310924 15.2322129,4.39887955 25.7086835,4.05658263 C41.2067227,3.55406162 47.4918768,19.5109244 47.4918768,30.1512605 C47.4918768,40.7915966 36.6731092,47.1313725 26.1893557,47.1313725 C15.7056022,47.1313725 4.77030812,37.0081232 4.77030812,26.3677871 Z" id="Path" fill="#FFFFFF"></path>
                <path d="M23.4619048,26.0109244 C23.6039216,24.5543417 25.1260504,23.5893557 26.5607843,23.5893557 C27.9955182,23.5893557 29.5431373,25.3481793 29.5431373,26.8047619 C29.5431373,28.2613445 27.9991597,29.4593838 26.5607843,29.4593838 C25.122409,29.4593838 23.2033613,28.7019608 23.4619048,26.0109244 Z" id="Path" fill="#786AB5"></path>
                <path d="M26.5607843,27.340056 L27.0815126,27.340056 C27.2199238,27.340056 27.3525627,27.2845925 27.4497474,27.186039 C27.5469321,27.0874855 27.6005489,26.9540837 27.5985994,26.8156863 C27.5985994,26.5243697 28.2504202,25.5411765 27.9627451,25.5411765 L27.6714286,24.9257703 L27.0560224,10.5602241 L27.7005602,10.9607843 C27.7767292,11.0783757 27.8979355,11.1594372 28.0357029,11.1849242 C28.1734703,11.2104112 28.3156548,11.178077 28.4288515,11.0955182 C28.663807,10.9291005 28.722122,10.6051286 28.559944,10.3672269 L26.9467787,8.01120448 C26.8209188,7.82163343 26.5846661,7.73842492 26.3677871,7.80728291 C26.149673,7.87727159 26.002232,8.08074021 26.0036415,8.30980392 L25.1406162,26.7647059 C25.1551821,27.0669468 26.2767507,27.340056 26.5607843,27.340056 Z" id="Path" fill="#786AB5"></path>
                <path d="M24.7619048,11.0336134 C24.9178005,11.0334275 25.0651684,10.962423 25.162465,10.8406162 L27.1252101,9.41316527 C27.3072829,9.19103641 27.0669468,8.09495798 26.8448179,7.91288515 C26.7389635,7.82433632 26.6017318,7.78248655 26.4644789,7.79689811 C26.327226,7.81130966 26.2016799,7.8807511 26.1165266,7.98935574 L24.3577031,10.1742297 C24.1852918,10.3986531 24.2189076,10.7188037 24.4341737,10.902521 C24.524824,10.9830406 24.6407307,11.0294033 24.7619048,11.0336134 L24.7619048,11.0336134 Z" id="Path" fill="#786AB5"></path>
                <path d="M35.9229692,29.0369882 C36.061505,29.0372623 36.1937315,28.9790826 36.2871148,28.8767507 L37.8238095,27.2635854 C37.968235,27.1116477 38.0084202,26.8882281 37.9257703,26.6955182 C37.8475247,26.5026142 37.6605477,26.3760452 37.452381,26.37507 L37.452381,26.37507 L25.2571429,25.7268908 C24.9731092,25.7268908 24.8128338,26.6408964 24.8128338,26.9285714 L24.8128338,27.4565826 C24.8109357,27.5949801 24.8645525,27.7283819 24.9617372,27.8269354 C25.0589219,27.9254889 25.1915608,27.9809661 25.329972,27.9809524 C25.6140056,27.9809524 26.2585434,28.2431373 26.2585434,27.9518207 L25.8543417,27.4529412 L36.2434174,27.427451 L35.5551821,28.1557423 C35.3609711,28.3596639 35.3609711,28.680112 35.5551821,28.8840336 C35.6519652,28.9827794 35.784706,29.0379786 35.9229692,29.0369882 L35.9229692,29.0369882 Z" id="Path" fill="#786AB5"></path>
                <path d="M37.4596639,27.42381 C37.5790859,27.4239778 37.6948849,27.3828048 37.787395,27.3072829 C37.9997736,27.1216297 38.0316342,26.8030237 37.8602241,26.5789916 L36.4254902,24.7946779 C36.3386416,24.688336 36.2130655,24.6209006 36.076447,24.6072388 C35.9398285,24.5935769 35.8033855,24.6348104 35.6971989,24.7218487 C35.4830833,24.9066029 35.451079,25.2266453 35.6243697,25.4501401 L36.1887955,26.7829132 C36.5798398,27.0558025 37.0077601,27.2716018 37.4596639,27.42381 L37.4596639,27.42381 Z" id="Path" fill="#786AB5"></path>
            </g>
            <path d="M493.621289,364.065584 C494.621457,364.07047 495.561466,363.588399 496.141094,362.773296 C496.720722,361.958194 496.867464,360.912022 496.534454,359.968908 L438.140056,194.428291 C437.574931,192.825428 435.817429,191.984175 434.214566,192.5493 C432.611703,193.114425 431.770449,194.871927 432.335574,196.47479 L490.733613,362.011765 C491.165815,363.237523 492.321579,364.059529 493.621289,364.065584 L493.621289,364.065584 Z" id="Path" fill="#B2CDED"></path>
            <path d="M572.994118,364.065584 C573.994286,364.07047 574.934295,363.588399 575.513923,362.773296 C576.093551,361.958194 576.240293,360.912022 575.907283,359.968908 L517.512885,194.428291 C517.171892,193.359896 516.276626,192.561635 515.176282,192.344866 C514.075938,192.128098 512.9448,192.527156 512.224062,193.38639 C511.503325,194.245624 511.307146,195.42894 511.712045,196.47479 L570.106443,362.011765 C570.538645,363.237523 571.694408,364.059529 572.994118,364.065584 L572.994118,364.065584 Z" id="Path" fill="#B2CDED"></path>
            <polygon id="Path" fill="#B2CDED" points="475.446779 309.480112 554.819608 309.465546 557.019048 315.703361 477.311204 314.756583"></polygon>
            <polygon id="Path" fill="#B2CDED" points="452.836975 251.205882 532.206162 251.191317 534.405602 257.429132 454.697759 256.482353"></polygon>
            <polygon id="Path" fill="#B2CDED" points="441.563025 212.103922 520.932213 212.092997 523.131653 218.330812 443.42381 217.380392"></polygon>
            <path d="M451.478711,353.876755 C452.872451,353.874394 454.090998,352.936591 454.45014,351.589916 L470.989636,289.20084 C471.375245,287.577712 470.397148,285.942956 468.784569,285.51537 C467.17199,285.087785 465.512411,286.023146 465.043137,287.62409 L448.503641,350.013165 C448.257996,350.936455 448.455704,351.921476 449.038606,352.678464 C449.621509,353.435452 450.523304,353.878306 451.478711,353.876755 L451.478711,353.876755 Z" id="Path" fill="#B2CDED"></path>
            <path d="M309.829692,0.00364145658 L453.456022,0.00364145658 C458.954427,0.00364145658 463.411765,4.46097911 463.411765,9.95938375 L463.411765,59.6543417 C463.411765,65.1527464 458.954427,69.610084 453.456022,69.610084 L289.834454,69.610084 C284.336049,69.610084 279.878711,65.1527464 279.878711,59.6543417 L279.878711,29.9546218 C279.878711,22.011128 283.034252,14.3929789 288.651151,8.77608051 C294.268049,3.15918212 301.886198,0.00364145658 309.829692,0.00364145658 L309.829692,0.00364145658 Z" id="Path" fill="#D7E3F4" transform="translate(371.645238, 34.806863) rotate(180.000000) translate(-371.645238, -34.806863) "></path>
            <path d="M448.762185,52.9030812 C449.323902,52.9109322 449.828492,53.2483368 450.050354,53.7644421 C450.272217,54.2805474 450.169871,54.8788604 449.789076,55.2918768 C444.076403,61.6097051 435.959057,65.2180021 427.441457,65.2257703 L315.572269,65.2257703 C313.491007,65.2103752 311.501111,64.368803 310.040363,62.8862024 C308.579616,61.4036019 307.767683,59.4014289 307.782975,57.3201681 L307.782975,54.3232493 C307.780285,53.9494913 307.925976,53.5898872 308.188214,53.3235515 C308.450452,53.0572159 308.807754,52.9059674 309.181513,52.9030812 L448.762185,52.9030812 Z" id="Path" fill="#648ACC"></path>
            <path d="M310.303081,45.332493 L453.645378,45.332493 C454.136092,45.332493 454.533894,44.9346911 454.533894,44.4439776 C454.533894,43.9532641 454.136092,43.5554622 453.645378,43.5554622 L310.303081,43.5554622 C309.812368,43.5554622 309.414566,43.9532641 309.414566,44.4439776 C309.414566,44.9346911 309.812368,45.332493 310.303081,45.332493 L310.303081,45.332493 Z" id="Path" fill="#648ACC"></path>
            <path d="M310.303081,38.6176471 L453.645378,38.6176471 C454.136092,38.6176471 454.533894,38.2198452 454.533894,37.7291317 C454.533894,37.2384181 454.136092,36.8406162 453.645378,36.8406162 L310.303081,36.8406162 C309.812368,36.8406162 309.414566,37.2384181 309.414566,37.7291317 C309.414566,38.2198452 309.812368,38.6176471 310.303081,38.6176471 L310.303081,38.6176471 Z" id="Path" fill="#648ACC"></path>
            <path d="M310.303058,6.39439776 C310.319135,4.91763807 311.526815,3.73215618 313.003619,3.74349868 C314.480422,3.75484117 315.669751,4.95873314 315.663148,6.4355652 C315.656489,7.91239726 314.456398,9.10556078 312.979552,9.10364377 C311.493581,9.09162129 310.297016,7.88040469 310.303058,6.39439776 L310.303058,6.39439776 Z" id="Path" fill="#FFBA41"></path>
            <path d="M320.699416,6.39439776 C320.715547,4.915751 321.926203,3.72954205 323.404871,3.74359924 C324.883538,3.75765643 326.071424,4.96666751 326.059417,6.44535323 C326.047409,7.92403895 324.840045,9.11359949 323.361345,9.10364146 C321.881079,9.08367573 320.693312,7.87478511 320.699416,6.39439776 L320.699416,6.39439776 Z" id="Path" fill="#FF443C"></path>
            <path d="M555.187395,173.180392 L555.187395,173.180392 C555.984488,173.126046 556.67659,173.723919 556.738655,174.520448 L557.736415,186.966947 C557.805911,187.765771 557.216705,188.47054 556.418207,188.543697 L556.418207,188.543697 C555.621115,188.598043 554.929012,188.00017 554.866947,187.203641 L553.865546,174.757143 C553.796118,173.95702 554.387435,173.251675 555.187395,173.180392 Z" id="Path" fill="#FDAD9B"></path>
            <path d="M551.509524,173.486275 L551.509524,173.486275 C552.307989,173.429835 553.002381,174.028282 553.064426,174.826331 L554.178711,188.743978 C554.248208,189.542802 553.659002,190.247571 552.860504,190.320728 L552.860504,190.320728 C552.070077,190.371149 551.384223,189.780732 551.316527,188.991597 L550.202241,175.07395 C550.126141,174.274935 550.710756,173.564928 551.509524,173.486275 L551.509524,173.486275 Z" id="Path" fill="#FDAD9B"></path>
            <path d="M549.940056,166.323529 L550.366106,166.614846 C551.162319,167.169572 551.373597,168.256607 550.843137,169.069188 L545.639496,176.938375 C545.384348,177.32489 544.985132,177.593222 544.530886,177.683524 C544.076641,177.773826 543.605148,177.678586 543.221569,177.419048 L542.795518,177.131373 C541.998823,176.576634 541.788903,175.488282 542.322129,174.677031 L547.522129,166.807843 C547.776041,166.41994 548.175046,166.150206 548.629633,166.059151 C549.08422,165.968097 549.556331,166.063346 549.940056,166.323529 Z" id="Path" fill="#FDAD9B"></path>
            <path d="M547.831653,173.792157 L547.831653,173.792157 C548.628805,173.735653 549.322625,174.33198 549.386555,175.128571 L550.282353,186.285994 C550.351781,187.086118 549.760464,187.791462 548.960504,187.862745 L548.960504,187.862745 C548.163411,187.917091 547.471309,187.319218 547.409244,186.522689 L546.513445,175.365266 C546.446067,174.567801 547.0347,173.865345 547.831653,173.792157 Z" id="Path" fill="#FDAD9B"></path>
            <path d="M557.113725,165.886555 C557.113725,165.886555 561.847619,172.728852 560.1507,178.413165 C559.564426,180.379552 548.716527,180.962185 547.562185,178.992157 C546.407843,177.022129 546.520728,169.418768 546.520728,169.418768 L557.113725,165.886555 Z" id="Path" fill="#FDAD9B"></path>
            <path d="M558.836134,172.870868 L558.836134,172.870868 C559.631916,172.816454 560.323448,173.412211 560.387395,174.207283 L561.279552,185.339216 C561.347006,186.135386 560.760476,186.837273 559.964986,186.912325 L559.964986,186.912325 C559.169205,186.966739 558.477673,186.370982 558.413725,185.57591 L557.507003,174.443978 C557.439826,173.642608 558.034797,172.938423 558.836134,172.870868 L558.836134,172.870868 Z" id="Path" fill="#FDAD9B"></path>
            <path d="M544.685434,171.010084 C539.110364,155.715966 529.930252,134.162185 517.836975,118.420168 C515.033053,114.778711 513.911485,113.42409 511.981513,111.541457 C510.430252,110.026611 511.293277,105.529412 513.802241,102.801961 C516.169188,100.252941 520.673669,99.3280112 521.605882,100.016246 C523.193557,101.185154 525.247339,103.705042 528.415406,107.721569 C539.492717,121.664706 549.040616,140.978992 557.714566,166.880672 L544.685434,171.010084 Z" id="Path" fill="#FDAD9B"></path>
            <g id="Group" opacity="0.5" transform="translate(535.294118, 128.543417)" fill="#E08B65">
                <path d="M2.46526611,6.06302521 C1.57834126,5.67369609 0.87815276,4.95391276 0.513445378,4.05658263 C-0.214845938,2.43613445 0.116526611,0.688235294 1.24173669,0.163865546 C1.69982355,-0.0325050021 2.21838373,-0.0325050021 2.67647059,0.163865546 C3.56365812,0.554026861 4.26472889,1.27337508 4.63193277,2.17030812 C5.36022409,3.79439776 5.02521008,5.53865546 3.90364146,6.06302521 C3.67522254,6.16738088 3.42645159,6.21962278 3.17535014,6.21596639 C2.93129212,6.20885646 2.69061101,6.15701745 2.46526611,6.06302521 L2.46526611,6.06302521 Z M1.50756303,0.710084034 C0.684593838,1.09243697 0.480672269,2.50896359 1.06330532,3.80896359 C1.36167184,4.55999389 1.94005398,5.16579369 2.67647059,5.49859944 C2.98559912,5.63184609 3.33596951,5.63184609 3.64509804,5.49859944 C4.46806723,5.1162465 4.67563025,3.69971989 4.0929972,2.39971989 C3.79117123,1.64969333 3.21219977,1.04464207 2.47619048,0.710084034 C2.31351527,0.647044431 2.14083799,0.613742383 1.96638655,0.611764706 C1.80676675,0.616604466 1.65014889,0.656380431 1.50756303,0.728291317 L1.50756303,0.710084034 Z" id="Shape"></path>
            </g>
            <path d="M491.352661,90.8980392 L489.684874,83.5422969 L489.20056,81.4011204 L486.345658,68.8235294 L484.954622,81.0260504 L484.120728,88.3526611 L483.858543,90.6686275 C483.676471,92.2453782 483.261345,94.4703081 482.008683,95.7666667 C481.49888,96.287395 477.704482,97.4635854 480.989076,99.2442577 C485.078431,101.461905 493.195238,99.1859944 496.47619,95.6501401 C496.454342,95.6210084 491.891597,93.2759104 491.352661,90.8980392 Z" id="Path" fill="#FDAD9B"></path>
            <path d="M476.003922,71.2159664 C477.460504,64.0677871 483.388796,59.2683473 489.233333,60.5028011 C495.077871,61.7372549 498.62465,68.5140056 497.160784,75.6803922 C495.696919,82.8467787 489.77591,87.6280112 483.94958,86.3971989 C478.123249,85.1663866 474.540056,78.3677871 476.003922,71.2159664 Z" id="Path" fill="#FDAD9B"></path>
            <path d="M480.854342,68.397479 C474.663866,68.1644258 471.95098,64.3336134 472.114846,60.9871148 C472.336975,56.697479 475.271989,53.1033613 478.2507,54.9277311 C481.229412,56.7521008 480.187955,52.7428571 483.192157,52.5607843 C488.810924,52.1966387 489.557423,56.2969188 494.094678,56.8358543 C500.077591,57.5641457 506.177031,68.2154062 500.605602,75.2434174 C500.616527,75.2434174 485.730252,68.5795518 480.854342,68.397479 Z" id="Path" fill="#000000"></path>
            <path d="M475.683473,63.6635854 C475.683473,63.6635854 481.793838,70.5823529 480.661345,74.1473389 C479.528852,77.7123249 479.641737,79.132493 483.345098,81.3537815 C487.048459,83.57507 483.42521,86.4518207 488.530532,87.0672269 C493.635854,87.6826331 500.365266,82.0092437 501.104482,71.9078431 C501.345116,68.5337302 500.464376,65.1746302 498.59916,62.3526611 L475.683473,63.6635854 Z" id="Path" fill="#000000"></path>
            <path d="M477.351261,73.7358543 C478.17423,72.7162465 479.568908,72.4977591 480.464706,73.2478992 C481.360504,73.9980392 481.418768,75.4327731 480.595798,76.445098 C479.772829,77.457423 478.37451,77.6795518 477.478711,76.9330532 C476.582913,76.1865546 476.52465,74.7518207 477.351261,73.7358543 Z" id="Path" fill="#FDAD9B"></path>
            <path d="M499.316527,73.8086835 C499.334571,73.8121279 499.353104,73.8121279 499.371148,73.8086835 C499.411414,73.7939576 499.444099,73.7637082 499.461892,73.7247005 C499.479685,73.6856927 499.481102,73.6411811 499.465826,73.6011204 C499.07144,72.6692826 498.339,71.9212319 497.415686,71.5072829 C497.334236,71.4720883 497.239676,71.509586 497.204482,71.5910364 C497.169287,71.6724868 497.206785,71.7670463 497.288235,71.8022409 C498.128076,72.1871385 498.796907,72.8676356 499.167227,73.7140056 C499.192714,73.7733279 499.252,73.8109238 499.316527,73.8086835 Z" id="Path" fill="#66192D"></path>
            <path d="M497.244538,71.0266106 L497.277311,71.0266106 C497.295518,71.0266106 499.170868,70.6151261 499.240056,69.0310924 C499.242124,68.9419563 499.172547,68.8675241 499.083473,68.8635854 C498.995742,68.8634987 498.923507,68.9325238 498.919608,69.0201681 C498.861345,70.3565826 497.226331,70.7098039 497.211765,70.7134454 C497.13196,70.7307456 497.077934,70.8052948 497.086337,70.8865192 C497.094739,70.9677437 497.162882,71.0296546 497.244538,71.0302521 L497.244538,71.0266106 Z" id="Path" fill="#66192D"></path>
            <path d="M479.288515,54.7456583 C479.461283,54.7440675 479.630676,54.6976412 479.780112,54.6109244 C480.65042,54.1156863 480.952661,52.3787115 480.963585,52.3058824 C480.973343,52.2492903 480.952167,52.1917916 480.908036,52.1550455 C480.863904,52.1182994 480.803521,52.1078885 480.749632,52.1277346 C480.695744,52.1475806 480.656536,52.1946684 480.646779,52.2512605 C480.646779,52.2512605 480.359104,53.9117647 479.623529,54.3305322 C479.432152,54.4414788 479.19911,54.4536728 478.997199,54.3633053 C478.584689,54.1839616 478.204532,53.9379053 477.871989,53.635014 C477.216527,53.0960784 476.539216,52.542577 475.071709,52.9067227 C474.986521,52.9282249 474.934539,53.0143197 474.955182,53.0997199 C474.96471,53.1413233 474.990443,53.1774057 475.026675,53.1999649 C475.062906,53.222524 475.106641,53.2296952 475.148179,53.219888 C476.459104,52.8957983 477.019888,53.3546218 477.668067,53.889916 C478.025421,54.2162103 478.435409,54.4796864 478.880672,54.6691877 C479.011097,54.7183513 479.14914,54.7442344 479.288515,54.7456583 Z" id="Path" fill="#66192D"></path>
            <path d="M494.007283,56.2787115 C494.131092,56.2787115 494.254902,56.2787115 494.371429,56.2787115 C494.428671,56.2735076 494.478789,56.2381605 494.502904,56.1859851 C494.527018,56.1338096 494.521466,56.0727325 494.488338,56.025761 C494.45521,55.9787894 494.399539,55.9530594 494.342297,55.9582633 C491.964426,56.1658263 490.085434,54.1084034 490.067227,54.0901961 C490.032523,54.0379816 489.970553,54.0108053 489.908635,54.0206473 C489.846718,54.0304892 489.796228,54.075541 489.779425,54.1359426 C489.762622,54.1963441 489.782592,54.260997 489.830532,54.3014006 C489.917927,54.3742297 491.654902,56.2787115 494.007283,56.2787115 Z" id="Path" fill="#66192D"></path>
            <path d="M478.851541,77.5011204 C479.386835,77.5011204 480.217087,77.2680672 480.927171,76.0445378 C480.940831,76.0204699 480.940613,75.9909427 480.9266,75.9670787 C480.912587,75.9432147 480.886907,75.9286395 480.859233,75.9288413 C480.83156,75.9290473 480.806097,75.9439993 480.792437,75.9680672 C479.7,77.7887955 478.410924,77.2753501 478.356303,77.2498599 C478.316097,77.2347338 478.271116,77.2540111 478.254342,77.2935574 C478.245964,77.3118347 478.245515,77.3327623 478.253101,77.3513823 C478.260687,77.3700022 478.275633,77.3846577 478.294398,77.3918768 C478.471492,77.4633339 478.660575,77.500409 478.851541,77.5011204 L478.851541,77.5011204 Z" id="Path" fill="#66192D"></path>
            <path d="M416.648179,93.3633053 C415.410084,90.329972 425.023529,85.1081232 425.023529,85.1081232 C426.07591,84.8787115 434.17451,103.679552 451.740896,105.354622 C457.996919,105.948179 469.711485,99.4226891 470.865826,98.2028011 C471.022409,98.0389356 481.305882,107.707003 481.305882,107.707003 C479.212045,109.917367 474.587395,117.761064 466.335854,120.757983 C449.27563,126.963025 421.545938,113.737255 416.648179,93.3633053 Z" id="Path" fill="#FDAD9B"></path>
            <path d="M492.761905,297.142857 C492.761905,297.142857 492.64902,301.763866 489.568347,303.067507 C486.487675,304.371148 477.551541,305.543697 480.898039,308.529692 C482.809804,310.233894 491.822409,309.134174 494.371429,309.134174 C496.920448,309.134174 499.305602,310.259384 501.19916,308.529692 C503.282073,306.628852 501.19916,297.157423 501.19916,297.157423 C501.19916,297.157423 499.014286,298.319048 497.02605,298.24986 C494.182073,298.177031 492.761905,297.142857 492.761905,297.142857 Z" id="Path" fill="#22252D"></path>
            <path d="M466.186555,157.722409 C466.186555,157.722409 465.57479,178.569748 472.129412,218.567507 C476.863305,247.440616 482.4493,276.539496 485.191317,290.486275 C486.170868,295.47507 490.289356,299.12381 495.205322,299.32409 L497.838095,299.433333 C503.136415,299.648179 507.436975,295.027171 507.05098,289.535854 L500.401681,195.182073 L498.763025,164.12409 L466.186555,157.722409 Z" id="Path" fill="#000000"></path>
            <path d="M521.933613,297.142857 C521.933613,297.142857 521.817087,301.763866 518.736415,303.067507 C515.655742,304.371148 506.719608,305.543697 510.069748,308.529692 C511.981513,310.233894 520.994118,309.134174 523.543137,309.134174 C526.092157,309.134174 528.477311,310.259384 530.370868,308.529692 C532.45014,306.628852 530.370868,297.157423 530.370868,297.157423 C530.370868,297.157423 528.185994,298.319048 526.197759,298.24986 C523.353782,298.177031 521.933613,297.142857 521.933613,297.142857 Z" id="Path" fill="#22252D"></path>
            <path d="M495.358263,157.722409 C495.358263,157.722409 494.742857,178.569748 501.30112,218.567507 C506.035014,247.440616 511.621008,276.539496 514.363025,290.486275 C515.342577,295.47507 519.461064,299.12381 524.377031,299.32409 L527.009804,299.433333 C532.308123,299.648179 536.608683,295.027171 536.222689,289.535854 L529.573389,195.182073 L527.934734,164.12409 L495.358263,157.722409 Z" id="Path" fill="#000000"></path>
            <path d="M515.754062,103.191597 C515.754062,103.191597 510.69972,90.5957983 486.735294,93.8803922 C452.17423,98.6142857 460.516807,123.081232 463.411765,154.623529 C463.411765,154.623529 495.001401,153.345378 528.193277,155.766947 C528.193277,155.766947 526.015686,122.068908 515.754062,103.191597 Z" id="Path" fill="#9ACA3C"></path>
            <path d="M529.103641,102.641737 C529.103641,102.641737 524.992437,116.377311 514.173669,120.415686 C503.897479,124.253782 467.810644,130.89944 460.258263,125.382633 C450.14958,117.994118 455.52437,102.641737 455.52437,102.641737 C455.52437,102.641737 462.315686,100.70084 478.396359,95.6355742 C479.907563,95.1585434 481.487955,94.7397759 483.130252,94.3938375 C485.880887,93.8407647 488.669957,93.4998918 491.472829,93.3742297 C517.039496,92.0086835 529.103641,102.641737 529.103641,102.641737 Z" id="Path" fill="#9ACA3C"></path>
            <path d="M502.666667,227.496554 L502.69944,227.496554 C502.808269,227.476036 502.881002,227.372592 502.863305,227.263305 C500.882353,216.207843 502.794118,207.308123 504.745938,201.773109 C506.857983,195.797479 509.479832,192.4 509.479832,192.367227 C509.513457,192.32601 509.528949,192.272929 509.522774,192.220096 C509.516599,192.167263 509.489283,192.119186 509.447059,192.086835 C509.359295,192.01844 509.232907,192.033024 509.163025,192.119608 C509.057423,192.257983 498.639216,205.989916 502.455462,227.317927 C502.468641,227.423338 502.560536,227.500973 502.666667,227.496554 L502.666667,227.496554 Z" id="Path" fill="#66192D"></path>
            <path d="M528.193277,155.766947 C528.193277,155.766947 510.120728,141.75098 509.334174,123.634734 C508.547619,105.518487 499.607843,107.663305 493.621289,108.151261 C487.634734,108.639216 479.419608,108.151261 478.483754,113.158263 C477.547899,118.165266 481.302241,131.034174 473.553221,142.715966 C465.804202,154.397759 463.411765,154.634454 463.411765,154.634454 L468.444258,192.268908 L529.056303,185.382913 L528.193277,155.766947 Z" id="Path" fill="#000000"></path>
            <path d="M500.794958,109.411204 L501.421289,93.3341737 C501.421289,93.3341737 498.245938,92.3509804 496.232213,93.2540616 L496.596359,110.368908 L500.794958,109.411204 Z" id="Path" fill="#000000"></path>
            <path d="M485.770308,110.368908 L476.914286,96.3201681 C476.914286,96.3201681 471.488515,95.7302521 470.876751,98.2028011 L481.316807,114.021289 L485.770308,110.368908 Z" id="Path" fill="#000000"></path>
            <path d="M424.448179,69.3879552 L424.448179,69.3879552 C424.623519,69.4765553 424.827217,69.4905613 425.013034,69.4267939 C425.198851,69.3630265 425.351025,69.2268947 425.435014,69.0492997 L435.408964,48.5952381 C435.586731,48.2257821 435.438248,47.781948 435.07395,47.5938375 L435.07395,47.5938375 C434.898609,47.5052374 434.694912,47.4912314 434.509095,47.5549988 C434.323278,47.6187662 434.171104,47.754898 434.087115,47.932493 L424.116807,68.3865546 C423.938492,68.7550557 424.085251,69.1985563 424.448179,69.3879552 L424.448179,69.3879552 Z" id="Path" fill="#FFFFFF"></path>
            <path d="M414.554342,89.6817927 L414.554342,89.6817927 C415.514389,90.1611526 416.626628,90.2352666 417.641789,89.8875244 C418.656949,89.5397822 419.490137,88.7992643 419.954622,87.8319328 L429.134734,69.0019608 C430.1188,66.9828954 429.310241,64.5475168 427.314006,63.5179272 L427.314006,63.5179272 C426.353509,63.0388145 425.240909,62.9652333 424.225682,63.3136828 C423.210455,63.6621322 422.377549,64.4034562 421.913725,65.3714286 L412.733613,84.2014006 C411.749867,86.2194093 412.558586,88.6536518 414.554342,89.6817927 L414.554342,89.6817927 Z" id="Path" fill="#FF8548"></path>
            <path d="M416.003641,86.8268908 L415.67591,87.0635854 C415.407409,87.2557654 415.07295,87.332003 414.747687,87.2751676 C414.422424,87.2183322 414.133638,87.0331906 413.946218,86.7613445 L409.576471,80.5089636 C409.179936,79.9400737 409.311,79.1585453 409.871429,78.7501401 L410.195518,78.5170868 C410.463897,78.3255269 410.797759,78.2492972 411.122684,78.3053895 C411.447609,78.3614818 411.736589,78.5452336 411.92521,78.8156863 L416.294958,85.0717087 C416.68984,85.6389747 416.560606,86.4176075 416.003641,86.8268908 Z" id="Path" fill="#FDAD9B"></path>
            <path d="M418.989636,84.6784314 L418.705602,84.8823529 C418.431495,85.0779799 418.090481,85.155735 417.758665,85.0982658 C417.426849,85.0407966 417.131847,84.8528864 416.939496,84.5764706 L411.251541,76.4341737 C410.847807,75.8537933 410.980274,75.0573786 411.55014,74.6389356 L411.837815,74.435014 C412.111342,74.2395724 412.451788,74.1619095 412.783013,74.2193947 C413.114237,74.27688 413.408605,74.4647172 413.60028,74.7408964 L419.291877,82.8831933 C419.696877,83.4640505 419.562502,84.2622049 418.989636,84.6784314 L418.989636,84.6784314 Z" id="Path" fill="#FDAD9B"></path>
            <path d="M423.8,90.1260504 L423.286555,90.0969188 C422.320613,90.0306749 421.588089,89.1990726 421.644258,88.232493 L422.161345,78.7647059 C422.206597,77.8027904 423.019888,77.0578162 423.982073,77.0969188 L424.495518,77.1260504 C425.46146,77.1922943 426.193984,78.0238966 426.137815,78.9904762 L425.620728,88.4582633 C425.575476,89.4201788 424.762185,90.165153 423.8,90.1260504 Z" id="Path" fill="#FDAD9B"></path>
            <path d="M421.859104,82.6137255 L421.859104,82.6137255 C421.545418,82.8355823 421.155699,82.9219877 420.77764,82.8534988 C420.399582,82.7850099 420.064941,82.5673799 419.84902,82.2495798 L413.469188,73.1168067 C413.011951,72.4565946 413.163739,71.5523241 413.811485,71.077591 L413.811485,71.077591 C414.122927,70.8539368 414.511093,70.7646141 414.888966,70.8296467 C415.26684,70.8946793 415.602812,71.1086272 415.821569,71.4235294 L422.201401,80.5563025 C422.670829,81.2199331 422.518116,82.1378354 421.859104,82.6137255 L421.859104,82.6137255 Z" id="Path" fill="#FDAD9B"></path>
            <path d="M417.84986,94.2154062 C417.84986,94.2154062 410.341176,90.7851541 408.939216,85.0170868 C408.454902,83.0215686 415.857983,74.7263305 417.835294,75.8296919 C419.812605,76.9330532 425.183754,85.6943978 425.183754,85.6943978 L417.84986,94.2154062 Z" id="Path" fill="#FDAD9B"></path>
            <path d="M413.064986,88.9571429 L412.64986,89.2557423 C412.393651,89.4384329 412.07492,89.5108418 411.764926,89.456781 C411.454932,89.4027202 411.179526,89.2266981 411.00028,88.9680672 L407.478992,83.9355742 C407.102587,83.393603 407.227001,82.6503525 407.759384,82.2605042 L408.17451,81.9619048 C408.430271,81.7788511 408.748693,81.7058573 409.058651,81.7592276 C409.368609,81.8125979 409.64428,81.9878858 409.82409,82.2459384 L413.341737,87.2820728 C413.718916,87.8231102 413.596148,88.5661791 413.064986,88.9571429 L413.064986,88.9571429 Z" id="Path" fill="#FDAD9B"></path>
            <path d="M93.6182073,331.561905 C93.6182073,331.561905 93.7456583,336.536134 97.1103641,337.938095 C100.47507,339.340056 110.219608,340.607283 106.578151,343.808123 C104.487955,345.628852 94.6305322,344.456303 91.8484594,344.456303 C89.0663866,344.456303 86.4554622,345.668908 84.3871148,343.808123 C82.1112045,341.757983 84.3871148,331.561905 84.3871148,331.561905 C84.3871148,331.561905 86.7868347,332.810924 88.9462185,332.756303 C92.0669468,332.67619 93.6182073,331.561905 93.6182073,331.561905 Z" id="Path" fill="#22252D"></path>
            <path d="M35.6098039,331.707563 C35.6098039,331.707563 34.2078431,336.481513 36.9826331,338.848459 C39.757423,341.215406 48.6607843,345.403081 44.2145658,347.329412 C41.6655462,348.421849 32.6383754,344.296078 29.9910364,343.447619 C27.3436975,342.59916 24.4815126,342.952381 23.0722689,340.534454 C21.5319328,337.887115 26.8120448,328.881793 26.8120448,328.881793 C26.8120448,328.881793 28.7165266,330.804482 30.7921569,331.430812 C33.7890756,332.293838 35.6098039,331.707563 35.6098039,331.707563 Z" id="Path" fill="#22252D"></path>
            <path d="M95.0092437,227.317927 C93.8148459,226.855462 93.3705882,225.089356 94.0151261,223.388796 L94.0151261,223.388796 C94.3323438,222.444348 95.005028,221.660638 95.8904762,221.203922 C96.3457608,220.982044 96.8719126,220.955737 97.3470588,221.131092 C98.5414566,221.593557 98.9857143,223.359664 98.3411765,225.060224 C98.0241539,226.003647 97.353054,226.787032 96.4694678,227.245098 C96.2044801,227.367424 95.9164989,227.431971 95.6246499,227.434461 C95.4139716,227.435091 95.2051049,227.395542 95.0092437,227.317927 L95.0092437,227.317927 Z M96.1344538,221.764706 C95.4047927,222.151456 94.8509821,222.802998 94.5868347,223.585434 L94.5868347,223.585434 C94.0733894,224.947339 94.3647059,226.385714 95.2313725,226.72437 C95.5567272,226.835525 95.9128664,226.813267 96.2218487,226.662465 C96.9519837,226.276305 97.5059791,225.624546 97.7694678,224.841737 C98.2865546,223.479832 97.9915966,222.041457 97.12493,221.706443 C96.9988876,221.655275 96.8640419,221.629295 96.7280112,221.629959 C96.5228782,221.632583 96.3206104,221.678496 96.1344538,221.764706 Z" id="Shape" fill="#E08B65"></path>
            <path d="M187.170868,200.378431 L190.448179,190.287955 C189.628852,189.719888 163.057143,176.679832 142.967227,147.114846 C142.967227,147.114846 142.180672,145.494398 135.469468,148.935574 C128.594398,152.47507 129.111485,155.173389 129.111485,155.173389 C145.268627,186.347899 186.690196,200.0507 187.170868,200.378431 Z" id="Path" fill="#EAA678"></path>
            <path d="M118.594958,209.747899 C117.731933,219.263025 115.110084,240.955182 112.615686,255.954342 C107.816246,284.794678 102.15014,313.853501 99.3753501,327.785714 C98.4353454,332.722176 94.2350596,336.371456 89.2156863,336.612605 L86.5464986,336.718207 C81.1789916,336.936695 76.8165266,332.322969 77.2061625,326.835294 L83.4621849,239.473109 L83.957423,232.579832 L85.1554622,210.184874 C89.2848739,211.506723 76.0845938,205.352661 78.9030812,208.17479 L72.8473389,202.854622 C72.8473389,202.854622 108.759384,198.688796 118.594958,209.747899 Z" id="Path" fill="#000000"></path>
            <path d="M96.2546218,210.297759 L83.4621849,239.473109 L44.9064426,327.410644 C42.8569671,332.210546 37.9541291,335.149016 32.754902,334.693557 L30.5117647,334.482353 C25.2207283,333.979832 21.7285714,328.656022 23.2834734,323.437815 C23.2834734,323.437815 54.0246499,203.113165 55.4448179,198.816246 C55.4448179,198.816246 72.2683473,201.689356 84.037535,205.458263 C88.1669468,206.772829 93.4361345,207.479272 96.2546218,210.297759 Z" id="Path" fill="#000000"></path>
            <path d="M78.5061625,129.792437 C78.5061625,129.792437 87.2820728,116.934454 106.935014,121.333333 C128.572549,126.176471 130.040056,137.916527 127.465546,160.468067 C125.837815,174.753501 120.961905,201.470868 117.32409,221.691877 C117.32409,221.691877 98.2829132,198.594118 61.9739496,177.182353 C61.9885154,177.182353 70.280112,141.710924 78.5061625,129.792437 Z" id="Path" fill="#FF8548"></path>
            <path d="M62.6330532,174.513165 C62.6330532,174.513165 66.2745098,179.177871 76.2120448,174.513165 C87.9994398,168.996359 111.603361,157.117927 121.238655,157.84986 C130.87395,158.581793 143.837535,145.356022 143.837535,145.356022 C143.837535,145.356022 131.456583,130.790196 115.346779,123.977031 C113.835574,123.336134 112.247899,122.746218 110.580112,122.221849 C107.779832,121.344258 104.89944,120.838095 102.062745,120.32465 C67.2722689,114.017647 62.6330532,174.513165 62.6330532,174.513165 Z" id="Path" fill="#9ACA3C"></path>
            <path d="M105.514846,123.212325 C105.045098,121.140336 106.658263,121.573669 107.77619,120.066106 L111.235574,115.408683 L112.240616,114.054062 L118.161625,106.082913 L115.394118,115.110084 L113.733613,120.532213 L113.209244,122.247339 C112.845098,123.412605 113.107283,123.685714 113.606162,124.982073 C113.810084,125.506443 114.520168,127.592997 112.553782,127.782353 C110.791317,127.946218 106.112045,125.852381 105.514846,123.212325 Z" id="Path" fill="#FDAD9B"></path>
            <path d="M109.971989,112.663025 C109.971989,112.663025 102.390476,106.407003 106.086555,100.409524 C109.782633,94.4120448 111.854622,109.207283 111.854622,109.207283 L110.951541,112.721289 L109.971989,112.663025 Z" id="Path" fill="#000000"></path>
            <path d="M111.261064,115.255742 C111.261064,115.306723 111.242857,115.357703 111.235574,115.408683 C110.784034,118.420168 113.711765,120.539496 113.711765,120.539496 L113.733613,120.539496 L115.394118,115.121008 C114.483754,114.542017 113.158263,113.857423 112.240616,114.064986 C111.763585,114.163305 111.395798,114.516527 111.261064,115.255742 Z" id="Path" fill="#66192D"></path>
            <path d="M126.038095,110.518207 C127.265266,105.121569 124.632493,99.9215686 120.157143,98.9056022 C115.681793,97.8896359 111.053501,101.436415 109.829972,106.833053 C108.606443,112.229692 111.235574,117.429692 115.710924,118.4493 C120.186275,119.468908 124.810924,115.918487 126.038095,110.518207 Z" id="Path" fill="#FDAD9B"></path>
            <path d="M111.27563,105.966387 C111.27563,105.966387 113.653501,107.422969 115.452381,105.922689 C117.251261,104.422409 118.50028,103.009524 122.891877,104.830252 C127.283473,106.65098 131.868067,105.365546 132.556303,102.922129 C133.244538,100.478711 131.09972,98.7963585 128.437815,99.1022409 C125.77591,99.4081232 128.907563,97.7330532 126.87563,95.362465 C124.843697,92.9918768 120.321008,95.9014006 117.89944,94.8235294 C115.477871,93.7456583 107.095238,93.2577031 106.10112,100.413165 L111.27563,105.966387 Z" id="Path" fill="#000000"></path>
            <path d="M109.607843,107.49944 C110.211735,108.133515 111.209039,108.176227 111.864932,107.596105 C112.520825,107.015982 112.60025,106.020929 112.044685,105.344109 C111.48912,104.667289 110.497668,104.55126 109.80084,105.081513 C109.08368,105.69786 108.997533,106.777135 109.607843,107.49944 Z" id="Path" fill="#FDAD9B"></path>
            <path d="M127.636695,102.32493 C127.838194,102.327246 128.038709,102.296492 128.230252,102.233894 C129.104202,101.94986 129.322689,101.505602 129.242577,101.141457 C129.144258,100.744538 128.590756,100.413165 127.833333,100.540616 C127.148863,100.699255 126.431886,100.639401 125.783193,100.369468 L125.728571,100.471429 C126.40031,100.750822 127.142591,100.813209 127.851541,100.64986 C128.547059,100.529692 129.045938,100.821008 129.133333,101.166947 C129.206162,101.454622 128.994958,101.855182 128.197479,102.117367 C126.544258,102.659944 123.496359,100.296639 123.463585,100.296639 L123.394398,100.384034 C123.510924,100.504202 125.907003,102.32493 127.636695,102.32493 Z" id="Path" fill="#FFFFFF"></path>
            <path d="M119.632773,96.9537815 C121.482633,96.9537815 123.205042,96.0033613 123.321569,95.8613445 L123.230532,95.7921569 L123.277871,95.82493 L123.230532,95.7921569 C123.139496,95.905042 120.597759,97.3689076 118.321849,96.6661064 C117.625816,96.437337 116.942654,96.1711225 116.27535,95.8686275 C114.993557,95.3078431 113.882913,94.8235294 112.692157,95.1403361 L112.721289,95.2495798 C113.871989,94.9436975 114.964426,95.4170868 116.231653,95.9778711 C116.901352,96.285612 117.58831,96.5543157 118.289076,96.7826331 C118.726051,96.9057948 119.178876,96.9634716 119.632773,96.9537815 Z" id="Path" fill="#FFFFFF"></path>
            <path d="M108.129412,99.7759104 C108.038375,99.7467787 107.940056,99.6557423 107.994678,99.3607843 L107.994678,99.342577 C108.031092,99.2843137 108.890476,97.8859944 109.484034,98.1882353 C109.556863,98.2282913 109.666106,98.3302521 109.560504,98.5851541 C109.371148,99.0512605 108.566387,99.7831933 108.187675,99.7831933 C108.167988,99.7839338 108.148311,99.7814742 108.129412,99.7759104 Z M108.107563,99.4117647 C108.085714,99.5246499 108.078431,99.6593838 108.162185,99.6848739 C108.417087,99.7577031 109.272829,99.0257703 109.462185,98.5596639 C109.545938,98.3630252 109.462185,98.3229692 109.440336,98.3084034 C109.398667,98.2869276 109.35248,98.2756928 109.305602,98.2756303 C108.879552,98.2683473 108.318768,99.047619 108.107563,99.4117647 Z" id="Shape" fill="#FFFFFF"></path>
            <path d="M119.545378,108.82493 C119.596487,108.81251 119.639286,108.777736 119.661905,108.730252 C119.681618,108.690303 119.684217,108.644051 119.669103,108.602145 C119.65399,108.560239 119.622467,108.526293 119.581793,108.508123 C118.849566,108.110173 117.940621,108.260164 117.37507,108.872269 C117.311256,108.939673 117.311256,109.045201 117.37507,109.112605 C117.444916,109.16996 117.54556,109.16996 117.615406,109.112605 C118.172402,108.813891 118.812104,108.706421 119.436134,108.806723 C119.469332,108.825286 119.507954,108.831723 119.545378,108.82493 Z" id="Path" fill="#060633"></path>
            <path d="M118.107003,110.598319 C118.07423,110.99888 118.281793,111.326611 118.569468,111.370308 C118.857143,111.414006 119.126611,111.089916 119.159384,110.689356 C119.192157,110.288796 118.988235,109.942857 118.70056,109.917367 C118.412885,109.891877 118.143417,110.197759 118.107003,110.598319 Z" id="Path" fill="#060633"></path>
            <path d="M125.561064,110.518207 C125.605435,110.523308 125.649349,110.505468 125.677591,110.470868 C125.731622,110.403168 125.738839,110.309341 125.695798,110.234174 C125.536029,109.947992 125.264731,109.740885 124.946556,109.662204 C124.628381,109.583523 124.291824,109.640315 124.017087,109.819048 C123.943135,109.866524 123.907917,109.956037 123.929692,110.041176 C123.938772,110.076005 123.962155,110.10537 123.994066,110.122018 C124.025976,110.138667 124.063438,110.141048 124.097199,110.128571 C124.589619,110.039038 125.096862,110.163531 125.491877,110.470868 C125.508941,110.493998 125.533324,110.510681 125.561064,110.518207 L125.561064,110.518207 Z" id="Path" fill="#060633"></path>
            <path d="M123.521849,111.603361 C123.47519,111.884874 123.648773,112.156134 123.923936,112.231708 C124.199099,112.307283 124.486884,112.16274 124.590561,111.896888 C124.694239,111.631035 124.58029,111.329824 124.326611,111.19916 C123.99344,111.097137 123.638947,111.275185 123.521849,111.603361 L123.521849,111.603361 Z" id="Path" fill="#060633"></path>
            <path d="M118.656863,116.162465 C119.118846,116.166319 119.578906,116.102524 120.022409,115.973109 C120.083672,115.953912 120.117867,115.888779 120.09888,115.827451 C120.078079,115.765697 120.011849,115.731774 119.94958,115.75098 C119.836695,115.787395 117.145658,116.643137 115.634454,114.381793 C115.596485,114.329706 115.524183,114.316852 115.470588,114.352661 C115.444384,114.36905 115.426046,114.395467 115.419852,114.425747 C115.413658,114.456027 115.420151,114.487523 115.437815,114.512885 C116.15107,115.584998 117.370032,116.209647 118.656863,116.162465 Z" id="Path" fill="#020202"></path>
            <path d="M115.219328,114.946219 C115.272486,114.946245 115.318923,114.910293 115.332213,114.858824 C115.441072,114.546545 115.663331,114.286592 115.954902,114.130532 L115.987675,114.105042 C116.038959,114.06482 116.047925,113.990639 116.007703,113.939356 C115.967481,113.888072 115.8933,113.879105 115.842017,113.919328 C115.501885,114.109975 115.242947,114.418112 115.113725,114.785994 C115.105984,114.815934 115.11046,114.847723 115.126169,114.874361 C115.141878,114.900998 115.167532,114.920298 115.197479,114.928011 L115.219328,114.946219 Z" id="Path" fill="#020202"></path>
            <path d="M123.226891,116.654062 C121.712045,115.364986 121.548179,112.135014 122.862745,109.454902 L122.862745,109.454902 C123.671148,107.812605 124.891036,106.676471 126.140056,106.421569 C126.843317,106.259469 127.581637,106.445065 128.12465,106.920448 C129.639496,108.209524 129.803361,111.439496 128.488796,114.115966 C127.676751,115.761905 126.456863,116.898039 125.211485,117.152941 C125.042666,117.188732 124.870609,117.207036 124.698039,117.207563 C124.156828,117.207197 123.634121,117.010534 123.226891,116.654062 L123.226891,116.654062 Z M126.198319,106.763866 C125.073109,106.996919 123.944258,108.060224 123.179552,109.611485 C121.930532,112.160504 122.0507,115.193838 123.452661,116.388235 C123.916989,116.789073 124.543966,116.945818 125.142297,116.810644 C126.267507,116.577591 127.396359,115.510644 128.161064,113.963025 C129.410084,111.414006 129.289916,108.380672 127.887955,107.186275 C127.542237,106.883607 127.098423,106.716691 126.638936,106.716527 C126.49088,106.71805 126.34332,106.733904 126.198319,106.763866 L126.198319,106.763866 Z" id="Shape" fill="#FFFFFF"></path>
            <g id="Group" opacity="0.3" transform="translate(113.613445, 103.053221)" fill="#FFFFFF">
                <path d="M0.542577031,3.22268908 C-0.491596639,5.86638655 0.0655462185,8.95434174 1.78431373,10.1196078 C3.50308123,11.2848739 5.73529412,10.0868347 6.76582633,7.44313725 C7.79635854,4.79943978 7.24285714,1.71512605 5.52408964,0.549859944 C3.80532213,-0.615406162 1.5767507,0.582633053 0.542577031,3.22268908 Z" id="Path"></path>
            </g>
            <g id="Group" opacity="0.3" transform="translate(121.988796, 106.330532)" fill="#FFFFFF">
                <path d="M0.771988796,3.34285714 C-0.265826331,5.99747899 0.120168067,9.10364146 1.63137255,10.2616246 C3.14257703,11.4196078 5.21092437,10.2397759 6.24509804,7.58515406 C7.27927171,4.93053221 6.89691877,1.82436975 5.38571429,0.648179272 C3.8745098,-0.528011204 1.82072829,0.684593838 0.771988796,3.34285714 Z" id="Path"></path>
            </g>
            <path d="M115.456022,113.2493 C113.558824,111.985714 112.92521,108.661064 114.043137,105.838936 L114.043137,105.838936 C114.694958,104.196639 115.801961,103.02409 117.080112,102.623529 C117.932035,102.344586 118.865334,102.479262 119.603641,102.987675 C121.50084,104.251261 122.134454,107.57591 121.016527,110.398039 C120.364706,112.040336 119.257703,113.209244 117.979552,113.609804 C117.683931,113.703999 117.375802,113.753103 117.065546,113.755462 C116.490647,113.750516 115.930274,113.57429 115.456022,113.2493 L115.456022,113.2493 Z M117.185714,102.958543 C116.02409,103.322689 114.971709,104.444258 114.370868,105.966387 C113.307563,108.642857 113.882913,111.792717 115.652661,112.957983 C116.303654,113.40328 117.125219,113.519108 117.87395,113.271148 C119.035574,112.907003 120.087955,111.785434 120.692437,110.263305 C121.752101,107.586835 121.176751,104.436975 119.410644,103.271709 C118.991566,102.986958 118.497135,102.833558 117.990476,102.83106 C117.717925,102.829776 117.446698,102.869049 117.185714,102.947619 L117.185714,102.958543 Z" id="Shape" fill="#FFFFFF"></path>
            <path d="M123.022969,110.751261 C123.103818,110.752246 123.181983,110.722283 123.241457,110.667507 C123.371841,110.546252 123.383097,110.343635 123.266947,110.208683 C122.52533,109.50291 121.515386,109.151221 120.495798,109.243697 C120.409471,109.2465 120.32793,109.284033 120.269659,109.347788 C120.211388,109.411543 120.181321,109.496122 120.186275,109.582353 C120.189106,109.66898 120.226519,109.750864 120.290155,109.80971 C120.353791,109.868556 120.438346,109.89946 120.52493,109.895518 C121.348852,109.818629 122.167066,110.092248 122.778992,110.6493 C122.84185,110.716821 122.930758,110.753976 123.022969,110.751261 L123.022969,110.751261 Z" id="Path" fill="#FFFFFF"></path>
            <path d="M106.031933,100.471429 L106.166667,100.347619 C105.143417,99.2551821 105.977311,97.9843137 105.988235,97.9697479 L105.835294,97.8677871 C105.835294,97.8677871 104.910364,99.2697479 106.031933,100.471429 Z" id="Path" fill="#66192D"></path>
            <path d="M104.440616,101.982633 C104.440616,101.982633 105.507563,101.188796 106.301401,101.298039 L106.323249,101.115966 C105.460224,100.99944 104.37507,101.80056 104.331373,101.844258 L104.440616,101.982633 Z" id="Path" fill="#66192D"></path>
            <path d="M73.1932773,150.716246 C74.8756303,152.358543 79.9336134,150.028011 84.4817927,145.505322 C89.029972,140.982633 91.3568627,135.982913 89.6745098,134.336975 C87.9921569,132.691036 82.9341737,135.02521 78.3859944,139.547899 C73.8378151,144.070588 71.5218487,149.070308 73.1932773,150.716246 Z" id="Path" fill="#A5D547"></path>
            <path d="M191.27479,195.72465 L191.27479,195.72465 C191.797224,195.16374 192.674968,195.13117 193.237535,195.651821 L200.596919,202.464986 C201.157829,202.987421 201.190398,203.865164 200.669748,204.427731 L200.669748,204.427731 C200.147442,204.987742 199.271296,205.021878 198.707003,204.504202 L191.347619,197.680112 C190.793419,197.157547 190.760996,196.286991 191.27479,195.72465 L191.27479,195.72465 Z" id="Path" fill="#EAA678"></path>
            <path d="M188.856863,198.335574 L188.856863,198.335574 C189.379297,197.774664 190.257041,197.742095 190.819608,198.262745 L200.360224,207.107843 C200.921134,207.630278 200.953703,208.508022 200.433053,209.070588 L200.433053,209.070588 C199.910619,209.631498 199.032875,209.664068 198.470308,209.143417 L188.929692,200.298319 C188.368782,199.775885 188.336212,198.898141 188.856863,198.335574 Z" id="Path" fill="#EAA678"></path>
            <path d="M183.139776,194.337255 L183.627731,194.264426 C184.545163,194.12726 185.401067,194.756984 185.543137,195.673669 L186.897759,204.573389 C187.034925,205.490822 186.405201,206.346725 185.488515,206.488796 L185.00056,206.561625 C184.083128,206.69879 183.227224,206.069067 183.085154,205.152381 L181.730532,196.252661 C181.595451,195.335746 182.224205,194.481161 183.139776,194.337255 L183.139776,194.337255 Z" id="Path" fill="#EAA678"></path>
            <path d="M186.442577,200.942857 L186.442577,200.942857 C186.964883,200.382846 187.841029,200.34871 188.405322,200.866387 L196.205322,208.098319 C196.766661,208.622023 196.799212,209.500913 196.278151,210.064706 L196.278151,210.064706 C195.754822,210.623656 194.87872,210.656165 194.315406,210.137535 L186.515406,202.905602 C185.954496,202.383168 185.921927,201.505424 186.442577,200.942857 L186.442577,200.942857 Z" id="Path" fill="#EAA678"></path>
            <path d="M187.957423,189.355742 C187.957423,189.355742 195.717367,191.063585 198.153501,196.1507 C199.001961,197.909524 193.638095,207.07507 191.544258,206.452381 C189.45042,205.829692 182.688235,198.728852 182.688235,198.728852 L187.957423,189.355742 Z" id="Path" fill="#EAA678"></path>
            <path d="M193.634454,193.161064 L193.7,193.091877 C194.202444,192.551336 195.047364,192.518777 195.589916,193.019048 L201.536415,198.528571 C202.076325,199.03331 202.107238,199.879334 201.605602,200.422129 L201.540056,200.491317 C201.037612,201.031857 200.192692,201.064416 199.65014,200.564146 L193.703641,195.05098 C193.16416,194.54751 193.13323,193.702634 193.634454,193.161064 Z" id="Path" fill="#EAA678"></path>
            <path d="M143.247619,190.87423 L148.636975,190.659384 C148.554521,186.188814 148.998185,181.724061 149.958824,177.357143 C151.852381,169.273109 155.373669,164.896078 160.428011,164.346218 C164.710364,163.880112 167.816527,165.354902 169.92493,168.854342 C171.004767,170.723221 171.717904,172.781061 172.02605,174.917367 L177.389916,174.352941 C177.357143,174.028852 176.505042,166.389076 171.006443,161.946499 C167.984034,159.495798 164.229692,158.508964 159.859944,158.985994 C142.268067,160.897759 143.196639,189.6507 143.247619,190.87423 Z" id="Path" fill="#FF443C"></path>
            <path d="M177.703081,173.821289 C177.841457,174.411204 176.610644,175.197759 174.953782,175.580112 C173.296919,175.962465 171.847619,175.794958 171.709244,175.215966 C171.570868,174.636975 172.801681,173.839496 174.458543,173.457143 C176.115406,173.07479 177.568347,173.231373 177.703081,173.821289 Z" id="Path" fill="#66192D"></path>
            <path d="M135.433053,197.439776 L138.663025,210.184874 C139.111487,211.961343 140.687734,213.222042 142.519328,213.269188 L218.960784,215.264706 C220.772439,215.314674 222.401624,214.16832 222.966387,212.446218 L228.319328,195.964986 C228.717713,194.739573 228.515782,193.398098 227.774304,192.344268 C227.032825,191.290437 225.838378,190.6473 224.55042,190.608403 L142.810644,188.215966 C140.491166,188.152465 138.276096,189.180137 136.826761,190.992163 C135.377426,192.80419 134.861513,195.19092 135.433053,197.439776 L135.433053,197.439776 Z" id="Path" fill="#EBFFDA"></path>
            <path d="M226.240056,347.325771 L139.103641,347.325771 C134.946468,347.325771 131.537743,344.030185 131.398319,339.87535 L127.472829,221.036415 C127.401872,218.913491 128.210006,216.855359 129.706454,215.347883 C131.202901,213.840406 133.255044,213.017182 135.378431,213.072549 L228.763585,215.515966 C232.999967,215.627245 236.352163,219.13721 236.268627,223.37423 L233.94902,339.784314 C233.857911,343.9763 230.433032,347.325771 226.240056,347.325771 L226.240056,347.325771 Z" id="Path" fill="#D7E3F4"></path>
            <path d="M136.918768,331.6493 L133.521289,229.20056 C133.457427,227.27837 134.189439,225.414991 135.544549,224.050231 C136.899659,222.685471 138.757798,221.940256 140.680392,221.990476 L221.182073,224.091597 C225.004385,224.218281 228.018901,227.386764 227.955182,231.210644 L225.952381,331.558263 C225.857919,335.351161 222.765737,338.382047 218.971709,338.400568 L143.881232,338.400568 C140.115412,338.406122 137.029175,335.413505 136.918768,331.6493 L136.918768,331.6493 Z M136.008403,224.52493 C134.780242,225.755176 134.120431,227.441656 134.187675,229.178711 L137.585154,331.627451 C137.685806,335.032991 140.481507,337.738248 143.888515,337.726926 L218.982633,337.726926 C222.413765,337.710104 225.208874,334.966637 225.289636,331.536415 L227.288796,231.188796 C227.350052,227.725682 224.611589,224.858904 221.1493,224.761625 L140.647619,222.656848 L140.476471,222.656848 C138.796476,222.653225 137.185868,223.326609 136.008403,224.52493 Z" id="Shape" fill="#66192D"></path>
            <polygon id="Rectangle" fill="#66192D" transform="translate(183.215892, 280.642748) rotate(-1.380000) translate(-183.215892, -280.642748) " points="182.879057 223.723141 183.552726 223.723141 183.552726 337.562356 182.879057 337.562356"></polygon>
            <path d="M116.766947,226.363866 C116.766947,226.363866 129.209804,169.233053 129.271709,163.166387 C129.333613,157.09972 131.558543,148.411204 116.785154,145.687395 C102.011765,142.963585 97.0666667,141.594398 94.3683473,148.454902 C91.670028,155.315406 85.5742297,170.321849 73.7941176,170.24902 C62.0140056,170.17619 59.592437,178.220168 59.592437,178.220168 L49.2507003,222.32549 L116.766947,226.363866 Z" id="Path" fill="#000000"></path>
            <path d="M83.7535014,239.585994 L87.4568627,230.693557 C89.8019608,225.111204 91.3532213,222.416527 96.3857143,220.042297 L96.1344538,219.470588 C90.9271709,221.928571 89.2448179,224.841737 86.8887955,230.453221 L83.1708683,239.342017 L83.7535014,239.585994 Z" id="Path" fill="#020202"></path>
            <path d="M139.963025,183.609524 L136.037535,197.592717 C105.889916,182.094678 82.8176471,157.077871 77.8070028,150.734454 C77.0694719,149.803275 76.8254956,148.573905 77.1515406,147.431653 C77.896108,144.825361 79.2347993,142.427184 81.062465,140.42549 C82.7244349,138.563635 84.5527343,136.857222 86.5246499,135.327451 C87.4616364,134.623439 88.7871978,134.784113 89.5288515,135.691597 C94.9436975,142.337255 113.926611,170.223529 139.963025,183.609524 Z" id="Path" fill="#FDAD9B"></path>
            <path d="M144.522129,203.506443 L157.707843,183.594958 C160.702205,183.678302 163.461492,181.979839 164.735854,179.268908 C167.070028,174.567787 163.257423,175.459944 161.345658,177.022129 C159.433894,178.584314 157.059664,177.60112 156.895798,175.638375 C156.731933,173.67563 158.279552,170.307283 155.683193,170.248574 C153.086835,170.190756 150.308403,175.860504 153.188796,180.49972 L140.323529,199.915966 C140.323529,199.915966 129.39916,198.40112 129.253501,208.065546 C129.253501,208.065546 131.32549,211.00056 132.738375,208.429692 C134.151261,205.858824 136.510924,202.734454 139.657143,205.207003 C142.803361,207.679552 142.82521,208.670028 141.75098,210.592717 C140.676751,212.515406 137.920168,214.015686 139.617087,215.282913 C141.314006,216.55014 143.142017,216.29888 144.802521,213.494958 C146.463025,210.691036 146.936415,205.378151 144.522129,203.506443 Z" id="Path" fill="#648ACC"></path>
            <path d="M141.080952,194.668627 L140.873389,194.959944 C140.646942,195.273666 140.554617,195.664592 140.616784,196.046476 C140.678951,196.42836 140.890502,196.769818 141.204762,196.995518 L148.571429,202.279272 C148.885597,202.505346 149.276827,202.597082 149.658744,202.534227 C150.040662,202.471371 150.381857,202.259093 150.607003,201.944258 L150.814566,201.652941 C151.04064,201.338773 151.132376,200.947543 151.069521,200.565625 C151.006665,200.183708 150.794387,199.842513 150.479552,199.617367 L143.109244,194.333613 C142.456239,193.867729 141.54946,194.017502 141.080952,194.668627 Z" id="Path" fill="#FDAD9B"></path>
            <path d="M143.542577,191.242017 L143.302241,191.577031 C142.84236,192.218734 142.989005,193.111642 143.629972,193.572549 L152.096359,199.65014 C152.738062,200.110021 153.63097,199.963376 154.091877,199.322409 L154.335854,198.987395 C154.783002,198.340778 154.636345,197.456 154.004482,196.988235 L145.541737,190.910644 C144.89512,190.463496 144.010342,190.610154 143.542577,191.242017 L143.542577,191.242017 Z" id="Path" fill="#FDAD9B"></path>
            <path d="M137.47591,185.841737 L137.494118,186.235014 C137.522359,186.786079 137.768482,187.30332 138.178283,187.672824 C138.588084,188.042328 139.127953,188.233789 139.678992,188.205042 L151.521008,187.618768 C152.667664,187.557993 153.548855,186.580702 153.491036,185.433894 L153.472829,185.044258 C153.412055,183.897602 152.434763,183.016411 151.287955,183.07423 L139.44958,183.660504 C138.898188,183.686874 138.380014,183.931802 138.009637,184.34113 C137.639261,184.750457 137.447195,185.290462 137.47591,185.841737 L137.47591,185.841737 Z" id="Path" fill="#FDAD9B"></path>
            <path d="M145.971429,187.855462 L145.763866,188.146779 C145.537418,188.460501 145.445093,188.851427 145.507261,189.233311 C145.569428,189.615195 145.780978,189.956653 146.095238,190.182353 L153.552941,195.546218 C153.86711,195.772293 154.25834,195.864029 154.640257,195.801173 C155.022174,195.738318 155.36337,195.526039 155.588515,195.211204 L155.79972,194.919888 C156.025795,194.605719 156.117531,194.214489 156.054675,193.832572 C155.991819,193.450655 155.779541,193.10946 155.464706,192.884314 L148.007003,187.535014 C147.694621,187.30744 147.304601,187.213345 146.922816,187.273447 C146.54103,187.333549 146.198783,187.542921 145.971429,187.855462 Z" id="Path" fill="#FDAD9B"></path>
            <path d="M132.851261,192.483754 C132.851261,192.483754 136.642017,201.041176 143.091036,202.679832 C145.323249,203.244258 154.663585,194.898039 153.440056,192.629412 C152.216527,190.360784 142.439216,184.210364 142.439216,184.210364 L132.851261,192.483754 Z" id="Path" fill="#FDAD9B"></path>
            <path d="M138.706723,197.960504 L138.37535,198.422969 C137.941674,199.029727 138.080032,199.872899 138.684874,200.309244 L144.034174,204.147339 C144.640931,204.581015 145.484104,204.442657 145.920448,203.837815 L146.248179,203.378992 C146.681855,202.772234 146.543497,201.929061 145.938655,201.492717 L140.592997,197.65098 C139.985753,197.219398 139.144197,197.357491 138.706723,197.960504 L138.706723,197.960504 Z" id="Path" fill="#FDAD9B"></path>
            <path d="M118.635014,124.39944 C118.635014,124.39944 124.25014,143.105602 123.991597,150.690756 L119.392437,149.84958 C119.392437,149.84958 115.976751,127.771429 115.346779,123.977031 C115.346779,123.977031 118.179832,122.833613 118.635014,124.39944 Z" id="Path" fill="#000000"></path>
            <path d="M104.098319,145.887675 C104.182073,145.381513 106.589076,129.697759 103.235294,120.685154 C103.235294,120.685154 101.738655,119.119328 100.052661,119.862185 C100.052661,119.862185 103.930812,138.386275 100.47507,145.887675 L104.098319,145.887675 Z" id="Path" fill="#000000"></path>
            <path d="M120.168067,151.240616 C120.168067,151.240616 118.733333,149.929692 119.261345,148.89916 C119.789356,147.868627 120.67423,147.617367 121.515406,147.952381 C122.356583,148.287395 122.454902,149.682073 122.17451,150.355742 C121.894118,151.029412 120.659664,151.812325 120.168067,151.240616 Z" id="Path" fill="#FFFFFF"></path>
            <path d="M100.810084,146.728852 C100.810084,146.728852 101.501961,145.297759 102.532493,145.017367 C103.563025,144.736975 104.407843,145.629132 104.294958,146.728852 C104.182073,147.828571 103.522969,148.287395 102.532493,148.22549 C101.542017,148.163585 100.587955,147.595518 100.810084,146.728852 Z" id="Path" fill="#FFFFFF"></path>
            <path d="M427.780112,193.288515 L425.398599,214.277871 C425.176238,216.360278 423.425302,217.943488 421.331092,217.955742 L356.982913,217.955742 C354.801735,217.939435 353.010824,216.226737 352.897199,214.048459 L351.615406,192.268908 C351.53409,191.119735 351.936528,189.988839 352.725517,189.149371 C353.514506,188.309903 354.618306,187.838194 355.770308,187.848024 L423.778151,188.660224 C424.942425,188.689859 426.040269,189.208912 426.802032,190.089895 C427.563794,190.970878 427.918894,192.132162 427.780112,193.288515 L427.780112,193.288515 Z" id="Path" fill="#EBFFDA"></path>
            <path d="M403.17479,185.080672 L406.681513,184.082913 L404.838936,177.622969 C403.97359,174.586296 401.208751,172.484484 398.051261,172.463025 L380.794398,172.463025 C377.241777,172.486319 374.252503,175.130318 373.795518,178.653501 L373.045378,184.337815 L376.657703,184.811204 L377.407843,179.130532 C377.619195,177.415316 379.066323,176.120681 380.794398,176.10084 L398.051261,176.10084 C399.58088,176.11984 400.91516,177.144271 401.328571,178.617087 L403.17479,185.080672 Z" id="Path" fill="#D8FC92"></path>
            <path d="M432.517736,187.028852 L432.517736,189.577871 C432.532063,191.753634 430.796618,193.537736 428.621289,193.583473 L352.361905,194.563133 C351.297172,194.570854 350.273776,194.151351 349.520876,193.398451 C348.767976,192.645551 348.348473,191.622156 348.356195,190.557423 L348.356195,187.862745 C348.34395,185.683606 350.084812,183.898938 352.263585,183.857143 L428.519328,183.02683 C429.582166,183.021029 430.603118,183.440898 431.354327,184.192792 C432.105537,184.944685 432.524476,185.966019 432.517736,187.028852 Z" id="Path" fill="#566770"></path>
            <path d="M302.018768,225.289636 C325.076471,239.014286 352.594958,237.535854 371.62521,233.87619 L368.686555,219.17563 C345.85098,223.563585 329.784874,219.277591 315.102521,210.927731 C309.563866,207.77423 292.510924,219.627171 302.018768,225.289636 Z" id="Path" fill="#FDAD9B"></path>
            <path d="M447.819048,351.236695 C437.135014,356.906443 367.907283,353.363305 342.311485,351.837535 C336.912729,351.476095 332.725397,346.979417 332.74902,341.568627 C332.657983,317.502241 332.588796,254.9493 332.562915,229.411765 C332.512683,223.252746 337.386238,218.178752 343.542297,217.981232 C366.614566,217.413165 419.492157,216.277031 437.856022,215.974406 C441.457906,215.936202 444.416001,218.81136 444.479832,222.412885 C445.204482,249.439776 457.669188,346.014846 447.819048,351.236695 Z" id="Path" fill="#D7E3F4"></path>
            <path d="M397.647059,230.001681 C398.153221,227.853221 400.196078,225.996078 402.380952,225.996078 C404.565826,225.996078 406.936415,226.622409 406.936415,230.617087 C406.936415,232.827451 404.558543,233.992717 402.380952,233.992717 C400.203361,233.992717 396.918768,232.991317 397.647059,230.001681 Z" id="Path" fill="#C8C1E1"></path>
            <path d="M382.491317,230.001681 C382.997479,227.853221 385.040336,225.996078 387.22521,225.996078 C389.410084,225.996078 391.780672,226.622409 391.780672,230.617087 C391.780672,232.827451 389.402801,233.992717 387.22521,233.992717 C385.047619,233.992717 381.784874,232.991317 382.491317,230.001681 Z" id="Path" fill="#C8C1E1"></path>
            <path d="M367.692437,230.001681 C368.198599,227.853221 370.263305,225.996078 372.426331,225.996078 C374.589356,225.996078 376.981793,226.622409 376.981793,230.617087 C376.981793,232.827451 374.60028,233.992717 372.426331,233.992717 C370.252381,233.992717 366.989636,232.991317 367.692437,230.001681 Z" id="Path" fill="#C8C1E1"></path>
            <path d="M354.073389,230.001681 C354.579552,227.853221 356.622409,225.996078 358.807283,225.996078 C360.992157,225.996078 363.362745,226.622409 363.362745,230.617087 C363.362745,232.827451 360.984874,233.992717 358.807283,233.992717 C356.629692,233.992717 353.366947,232.991317 354.073389,230.001681 Z" id="Path" fill="#C8C1E1"></path>
            <path d="M417.773389,222.744258 L433.431653,223.359664 C434.853464,223.424908 435.994652,224.556651 436.071709,225.977871 L436.57423,234.294958 C436.629787,235.094263 436.336664,235.878491 435.770456,236.445398 C435.204248,237.012304 434.420381,237.306393 433.621008,237.251821 L417.467507,236.017367 C416.018786,235.900918 414.906175,234.684994 414.918386,233.231653 L414.918386,225.537255 C414.913231,224.784088 415.214372,224.061143 415.752759,223.53443 C416.291146,223.007717 417.020519,222.722494 417.773389,222.744258 Z" id="Path" fill="#5674AA"></path>
            <path d="M345.526891,291.0507 C345.526891,267.191877 364.710084,245.354062 388.084594,247.855742 C417.070588,250.954622 430.642297,267.191877 430.642297,291.0507 C430.642297,314.909524 411.590196,334.245658 388.084594,334.245658 C364.578992,334.245658 345.526891,314.905882 345.526891,291.0507 Z" id="Path" fill="#5674AA"></path>
            <path d="M342.471709,291.0507 C343.32381,265.538655 357.321569,246.577591 388.084594,244.756863 C424.273389,242.612045 433.697479,265.513165 433.697479,291.0507 C433.697479,323.64902 413.236134,337.340896 388.084594,337.340896 C362.933053,337.340896 341.35014,324.763305 342.471709,291.0507 Z M351.528011,288.610924 C351.528011,310.718207 362.49972,327.465266 388.084594,331.143137 C409.652941,334.245658 425.744538,317.138095 425.744538,295.027171 C425.744538,272.916246 413.509244,248.780672 388.084594,250.965546 C366.301401,250.954622 351.528011,266.5 351.528011,288.610924 L351.528011,288.610924 Z" id="Shape" fill="#C8C1E1"></path>
            <path d="M356.258263,277.628291 L362.496078,277.628291 L362.496078,306.078992 L354.371989,306.078992 C351.172295,306.078992 348.578431,303.485128 348.578431,300.285434 L348.578431,285.311765 C348.578431,281.069721 352.01622,277.630302 356.258263,277.628291 Z" id="Path" fill="#C8C1E1" transform="translate(355.537255, 291.853641) rotate(180.000000) translate(-355.537255, -291.853641) "></path>
            <path d="M326.503922,349.557983 C326.503922,349.557983 326.638655,355.042017 330.280112,356.567787 C333.921569,358.093557 344.481793,359.480952 340.541737,363.016807 C338.276751,365.034174 327.603641,363.745098 324.592157,363.745098 C321.580672,363.745098 318.765826,365.077871 316.508123,363.016807 C314.046499,360.762745 316.508123,349.543417 316.508123,349.543417 C316.508123,349.543417 319.111765,350.916246 321.44958,350.854342 C324.817927,350.781513 326.503922,349.557983 326.503922,349.557983 Z" id="Path" fill="#22252D"></path>
            <path d="M208.105602,344.794958 C208.105602,344.794958 202.716246,344.918768 201.186835,348.611204 C199.657423,352.303641 198.273669,363.02409 194.803361,359.007563 C192.822409,356.706162 194.136975,345.876471 194.147899,342.817647 C194.158824,339.758824 192.851541,336.885714 194.87619,334.617087 C197.10112,332.122689 208.138375,334.657143 208.138375,334.657143 C208.138375,334.657143 206.776471,337.289916 206.831092,339.664146 C206.903922,343.087115 208.105602,344.794958 208.105602,344.794958 Z" id="Path" fill="#22252D"></path>
            <path d="M319.286555,353.665546 C316.168172,352.939751 313.477615,350.979978 311.830338,348.234515 C310.18306,345.489052 309.719992,342.192785 310.547059,339.09972 C311.238936,336.481513 311.967227,333.582913 312.666387,330.553221 C313.682353,326.154342 314.305042,322.440056 314.935014,319.377591 C317.848179,305.17591 271.040896,302.528571 271.040896,294.943417 L273.506162,279.168627 L271.044538,294.943417 L275.967787,263.393838 C276.510364,263.481232 328.404762,277.642857 338.771989,288.479832 C345.647059,295.671709 350.02409,308.271148 341.95098,332.246499 C340.22493,337.377311 338.568067,342.216807 337.184314,346.222409 C335.147562,352.267579 328.884883,355.808583 322.654902,354.437535 L319.286555,353.665546 Z" id="Path" fill="#000000"></path>
            <path d="M209.773389,352.416527 C206.157423,351.010924 203.084034,348.618487 203.67395,344.736695 L204.682633,338.069188 C205.203433,334.509894 208.032797,331.734139 211.601401,331.281513 C224.018768,329.79944 252.615126,334.136415 255.936134,330.309244 C258.263025,327.629132 249.829412,308.256583 248.50028,283.498319 C248.216246,278.25098 247.717367,273.546218 247.582633,269.296639 C247.12381,255.116807 285.672269,255.717647 288.814846,273.717367 C293.632493,301.301401 294.921569,345.781793 285.060504,358.078992 C274.929972,370.70028 230.289356,360.398599 209.773389,352.416527 Z" id="Path" fill="#000000"></path>
            <path d="M258.765546,203.291597 C258.765546,203.291597 264.391597,192.461905 288.658263,197.421569 C295.941176,198.910924 299.20028,203.011204 302.823529,205.596639 C308.427731,209.602241 308.82465,212.79944 306.592437,218.917087 C301.54902,232.754622 295.092717,252.931933 309.210644,273.822969 C309.210644,273.822969 250.441176,290.07479 249.126611,269.063585 C249.130252,269.063585 240.67479,232.907563 258.765546,203.291597 Z" id="Path" fill="#9ACA3C"></path>
            <path d="M246.756022,212.890476 L264.409804,210.840336 C264.409804,210.840336 293.661625,225.366106 303.136695,225.952381 C312.611765,226.538655 320.211485,211.626891 320.211485,211.626891 C320.211485,211.626891 311.541176,202.330252 292.281513,198.189916 C289.455742,197.581793 286.648179,196.919048 283.829692,196.576751 C245.252101,191.831933 246.756022,212.890476 246.756022,212.890476 Z" id="Path" fill="#9ACA3C"></path>
            <path d="M285.938095,193.72549 L288.985994,188.114006 L289.87451,186.478992 L295.092717,176.876471 L293.428571,187.170868 L292.430812,193.361345 L292.114006,195.316807 C291.884193,196.63039 292.132208,197.982847 292.813165,199.129412 C293.108123,199.67563 294.335294,202.705322 291.247339,203.382633 C287.398319,204.22381 282.267507,199.890476 280.39944,196.230812 C280.417647,196.201681 284.710924,196.361905 285.938095,193.72549 Z" id="Path" fill="#FDAD9B"></path>
            <path d="M246.756022,212.890476 C246.887115,213.385714 247.484314,213.731653 248.47479,213.931933 C250.823529,214.419888 255.287955,214.055742 260.229412,212.839496 C264.027451,211.910924 267.333894,210.654622 269.485994,209.463866 C271.306723,208.447899 272.286275,207.457423 272.082353,206.685434 C271.878431,205.913445 270.403641,205.465546 268.160504,205.432773 C265.691597,205.392717 262.286835,205.82605 258.612605,206.72549 C253.554622,207.959944 249.377871,209.740616 247.622689,211.277311 C246.94902,211.867227 246.635854,212.420728 246.756022,212.890476 Z" id="Path" fill="#A5D547"></path>
            <path d="M303.934174,174.695238 C303.945902,176.619305 303.559069,178.524955 302.798039,180.292157 C301.527171,183.27451 299.961345,174.964706 299.961345,174.964706 L303.934174,174.695238 Z" id="Path" fill="#66192D"></path>
            <ellipse id="Oval" fill="#FDAD9B" transform="translate(293.843889, 180.598668) rotate(-86.130000) translate(-293.843889, -180.598668) " cx="293.843889" cy="180.598668" rx="11.2266106" ry="9.17647059"></ellipse>
            <path d="M285.10056,176.716246 L289.543137,177.171429 C290.524197,177.276887 291.499212,176.925022 292.186835,176.217367 C293.363025,174.990196 294.586555,174.487675 298.610364,175.489076 C303.708403,176.763585 307.732213,174.363866 308.842857,171.752941 C309.97535,169.087395 307.728571,166.654902 304.877311,167.434174 C302.02605,168.213445 303.784874,165.198319 301.385154,164.335294 C296.880672,162.718487 295.27479,166.156022 291.502241,165.2493 C286.557143,164.054902 276.859944,166.02493 279.281513,175.809524 L285.10056,176.716246 Z" id="Path" fill="#000000"></path>
            <path d="M294.40084,180.230252 C294.456439,180.208775 294.499296,180.16324 294.517367,180.106443 C294.545633,180.006991 294.4889,179.903251 294.389916,179.873389 C293.523783,179.555418 292.552704,179.87509 292.044818,180.645378 C291.98162,180.727447 291.994477,180.84477 292.07395,180.911204 C292.157911,180.9645 292.267876,180.950754 292.336134,180.878431 C292.895246,180.451898 293.581138,180.224976 294.284314,180.233894 C294.322505,180.245484 294.363447,180.244205 294.40084,180.230252 L294.40084,180.230252 Z" id="Path" fill="#060633"></path>
            <path d="M293.137255,182.436975 C293.166387,182.884874 293.45042,183.230812 293.770868,183.212605 C294.091317,183.194398 294.328011,182.812045 294.302521,182.360504 C294.277031,181.908964 293.989356,181.563025 293.668908,181.584874 C293.348459,181.606723 293.104482,181.985434 293.137255,182.436975 Z" id="Path" fill="#060633"></path>
            <path d="M301.25042,181.089636 C301.30018,181.090537 301.346385,181.063935 301.370588,181.020448 C301.418676,180.93578 301.410007,180.830302 301.348739,180.754622 C301.129402,180.465219 300.798458,180.281412 300.436854,180.248161 C300.07525,180.214911 299.716335,180.335282 299.447899,180.579832 C299.375891,180.645244 299.353881,180.749427 299.393277,180.838375 C299.407049,180.876338 299.437122,180.906122 299.475216,180.919525 C299.51331,180.932928 299.555407,180.928538 299.589916,180.907563 C300.111797,180.728657 300.685154,180.780299 301.166667,181.04958 C301.188091,181.073613 301.218264,181.088043 301.25042,181.089636 L301.25042,181.089636 Z" id="Path" fill="#060633"></path>
            <path d="M299.207563,182.637255 C299.061905,183.063305 299.207563,183.496639 299.49888,183.598599 C299.790196,183.70056 300.168908,183.445658 300.310924,183.019608 C300.452941,182.593557 300.310924,182.160224 300.015966,182.054622 C299.721008,181.94902 299.34958,182.211204 299.207563,182.637255 Z" id="Path" fill="#060633"></path>
            <path d="M279.29972,175.802241 C279.29972,175.802241 280.963866,183.012325 285.12605,184.385154 C285.12605,184.385154 282.70084,178.64986 290.588235,177.102241 C290.562745,177.116807 284.113725,174.655182 279.29972,175.802241 Z" id="Path" fill="#000000"></path>
            <path d="M284.547059,180.689076 C285.340896,181.468347 286.538936,181.519328 287.223529,180.801961 C287.908123,180.084594 287.82437,178.871989 287.030532,178.092717 C286.236695,177.313445 285.042297,177.262465 284.357703,177.979832 C283.677222,178.78534 283.761143,179.986058 284.547059,180.689076 L284.547059,180.689076 Z" id="Path" fill="#FDAD9B"></path>
            <path d="M290.562745,177.116807 C290.562745,177.116807 288.858543,182.513445 289.754342,183.787955 C290.65014,185.062465 297.867507,187.043417 301.552661,186.420728 L301.552661,186.420728 C300.889916,189.978431 297.791036,192.592997 294.22605,192.458263 C293.030049,192.417373 291.849998,192.171016 290.737535,191.729972 L290.737535,191.729972 C288.436134,190.805042 286.316807,189.315686 285.788796,186.861345 C285.628571,186.114846 287.358263,182.091036 287.358263,182.091036 C287.358263,182.091036 288.184874,179.687675 287.030532,178.107283 C287.030532,178.092717 288.967787,176.942017 290.562745,177.116807 Z" id="Path" fill="#000000"></path>
            <path d="M299.345938,188.033894 C297.332222,188.105577 295.320228,187.849774 293.388515,187.276471 C293.388515,187.276471 293.253782,190.247899 296.469188,190.320728 C298.337255,190.364426 299.345938,188.033894 299.345938,188.033894 Z" id="Path" fill="#FFFFFF"></path>
            <path d="M304.487675,166.89888 L304.531373,166.651261 C303.336975,166.440056 303.438936,165.456863 303.438936,165.413165 L303.191317,165.384034 C303.134749,166.159094 303.713182,166.835016 304.487675,166.89888 L304.487675,166.89888 Z" id="Path" fill="#66192D"></path>
            <path d="M300.361905,174.334734 C301.399006,174.228888 302.424157,174.027759 303.42437,173.733894 C305.510924,173.10028 306.792717,172.128011 307.138655,170.929972 C307.382633,170.088796 307.346218,169.473389 307.036695,169.083754 C306.552381,168.453782 305.489076,168.482913 304.54958,168.508403 L304.145378,168.508403 L304.145378,168.635854 L304.553221,168.635854 C305.463585,168.614006 306.490476,168.584874 306.938375,169.163866 C307.222409,169.528011 307.247899,170.096078 307.018487,170.897199 C306.210084,173.708403 300.412885,174.207283 300.354622,174.210924 L300.361905,174.334734 Z" id="Path" fill="#FFFFFF"></path>
            <path d="M292.955182,166.520168 C293.784404,166.523214 294.610154,166.412951 295.409524,166.192437 C296.228974,165.984381 297.001348,165.622292 297.685434,165.12549 L297.608964,165.030812 C296.93097,165.509473 296.172388,165.862245 295.369468,166.072269 C293.325631,166.597496 291.168687,166.470168 289.20084,165.708123 L289.157143,165.82465 C290.373507,166.274024 291.658509,166.509341 292.955182,166.520168 Z" id="Path" fill="#FFFFFF"></path>
            <path d="M292.179552,305.383473 L292.179552,305.383473 C292.305435,305.381521 292.407012,305.279945 292.408964,305.154062 L292.044818,291.866387 C292.408964,289.197199 295.034454,287.638655 295.059944,287.620448 C295.11479,287.589282 295.154658,287.537213 295.170442,287.476137 C295.186226,287.415061 295.176576,287.350195 295.143697,287.296359 C295.077456,287.185909 294.935062,287.148692 294.823249,287.212605 C294.706723,287.281793 291.979272,288.905882 291.57507,291.822689 C291.573074,291.835966 291.573074,291.849468 291.57507,291.862745 L291.942857,305.154062 C291.946793,305.281932 292.051621,305.383473 292.179552,305.383473 L292.179552,305.383473 Z" id="Path" fill="#66192D"></path>
            <path d="M304.509524,220.766947 C304.509524,220.766947 285.59944,214.059384 280.392157,218.917087 C275.184874,223.77479 269.704482,238.945098 259.413725,240.765826 C249.122969,242.586555 245.284828,244.37451 245.284828,244.37451 C245.284828,244.37451 245.204762,285.453782 251.741176,307.051261 L293.253782,284.073669 L314.403361,275.7493 C314.403361,275.7493 306.111765,269.362185 305.485434,262.097479 C304.859104,254.832773 311.537535,222.82437 304.509524,220.766947 Z" id="Path" fill="#000000"></path>
            <path d="M326.831653,248.380112 C326.831653,248.380112 332.607003,243.715406 336.867507,244.461905 C341.128011,245.208403 346.007563,249.428852 343.272829,249.534454 C340.538095,249.640056 337.002241,248.806162 337.002241,248.806162 C337.002241,248.806162 344.467227,250.969188 343.192717,252.52409 C341.918207,254.078992 335.465546,252.127171 335.465546,252.127171 C335.465546,252.127171 344.146779,255.404482 342.493557,256.496919 C340.840336,257.589356 334.260224,255.040336 334.260224,255.040336 C334.260224,255.040336 342.216807,258.430532 340.268627,259.635854 C338.320448,260.841176 333.714006,256.791877 332.454062,258.343137 C331.194118,259.894398 325.695518,265.62605 321.019888,262.618207 L326.831653,248.380112 Z" id="Path" fill="#FDAD9B"></path>
            <path d="M336.933053,248.944538 L337.067787,248.64958 C336.984034,248.609524 334.944818,247.684594 333.728571,248.434734 L333.89972,248.711485 C334.966667,248.048739 336.914846,248.933613 336.933053,248.944538 Z" id="Path" fill="#DD8964"></path>
            <path d="M335.410924,252.265546 L335.552941,251.977871 C335.469188,251.937815 333.510084,251.005602 331.620168,251.704762 L331.733053,252.003361 C333.495518,251.355182 335.378151,252.258263 335.410924,252.265546 Z" id="Path" fill="#DD8964"></path>
            <path d="M334.212885,255.167787 L334.347619,254.876471 C334.245658,254.82549 331.835014,253.729412 330.607843,254.639776 L330.80084,254.898319 C331.87507,254.10084 334.187395,255.156863 334.212885,255.167787 Z" id="Path" fill="#DD8964"></path>
            <path d="M247.619048,211.288235 C247.815686,211.983754 248.092437,212.87591 248.471148,213.931933 C250.142577,218.578431 253.787675,226.411204 261.270868,234.622689 C279.423529,254.541457 306.180952,261.205322 325.440616,263.313725 L326.82437,248.383754 C303.715686,245.863866 289.564986,237.036975 277.894118,224.714286 C273.495238,220.067787 270.82605,213.54958 269.482353,209.463866 C268.732213,207.195238 268.389916,205.673109 268.389916,205.647619 C268.319453,205.571129 268.244034,205.499359 268.164146,205.432773 C265.695238,205.392717 262.290476,205.82605 258.616246,206.72549 C253.554622,207.970868 249.377871,209.747899 247.619048,211.288235 Z" id="Path" fill="#FDAD9B"></path>
            <g id="Group" opacity="0.5" transform="translate(276.386555, 237.787115)" fill="#E08B65">
                <path d="M2.10840336,6.08487395 C0.338655462,4.47535014 -0.222128852,2.23585434 0.833893557,0.986834734 C1.24788426,0.512415644 1.83966838,0.230362634 2.46890756,0.207563025 C3.56134454,0.134733894 4.86134454,0.662745098 5.91372549,1.62044818 C7.68347339,3.22633053 8.2442577,5.46946779 7.18823529,6.71848739 C6.77494863,7.19333903 6.18242878,7.47442305 5.55322129,7.49411765 L5.34565826,7.49411765 C4.13225315,7.42879242 2.98299882,6.92849836 2.10840336,6.08487395 L2.10840336,6.08487395 Z M2.52352941,0.986834734 C2.10649709,0.996797668 1.71172922,1.177075 1.43109244,1.48571429 C0.677310924,2.38151261 1.22717087,4.22044818 2.63277311,5.49131653 C3.52857143,6.3070028 4.59915966,6.75490196 5.49131653,6.69663866 C5.90874164,6.68839112 6.30415586,6.50781863 6.5837535,6.1977591 C7.34117647,5.30196078 6.78767507,3.46666667 5.38207283,2.19215686 C4.65745013,1.47701555 3.69963361,1.04657979 2.6837535,0.979551821 L2.52352941,0.986834734 Z" id="Shape"></path>
            </g>
            <path d="M297.645378,199.551821 C297.645378,199.551821 304.564146,211.932773 303.937815,223.392437 L299.757423,223.177591 C299.757423,223.177591 298.533894,206.015406 294.022129,198.590476 C295.314901,198.250312 296.691291,198.615505 297.645378,199.551821 Z" id="Path" fill="#000000"></path>
            <path d="M284.922129,218.917087 C285.064146,218.290756 282.595238,200.866387 277.311485,195.870308 C277.311485,195.870308 274.846218,194.908964 273.670028,195.870308 C273.670028,195.870308 280.548739,211.37563 280.39944,220.07507 L284.922129,218.917087 Z" id="Path" fill="#000000"></path>
            <path d="M303.136695,221.688235 C303.142755,220.806755 302.434125,220.086723 301.552661,220.078711 C300.67507,220.078711 300.168908,220.807003 299.964986,221.688235 C299.691877,222.87535 300.693277,223.297759 301.552661,223.297759 C302.434125,223.289748 303.142755,222.569715 303.136695,221.688235 L303.136695,221.688235 Z" id="Path" fill="#FFFFFF"></path>
            <path d="M284.929412,219.543417 C284.932319,219.119439 284.766677,218.711673 284.468929,218.409826 C284.17118,218.10798 283.765715,217.936781 283.341737,217.933894 C282.467787,217.933894 281.957983,218.662185 281.757703,219.543417 C281.480952,220.730532 282.485994,221.1493 283.341737,221.1493 C283.765382,221.147375 284.170856,220.976984 284.468708,220.675716 C284.766561,220.374447 284.932318,219.967057 284.929412,219.543417 L284.929412,219.543417 Z" id="Path" fill="#FFFFFF"></path>
            <path d="M469.580392,342.012885 L467.19888,363.002241 C466.97494,365.083844 465.22494,366.666207 463.131373,366.680112 L398.786835,366.680112 C396.604921,366.665617 394.812968,364.951922 394.70112,362.772829 L393.419328,340.97507 C393.343561,339.832113 393.745949,338.709037 394.530321,337.874261 C395.314693,337.039485 396.410566,336.56802 397.556022,336.572517 L465.563866,337.380952 C466.731421,337.406444 467.833806,337.924259 468.598893,338.806572 C469.363981,339.688885 469.720481,340.853484 469.580392,342.012885 L469.580392,342.012885 Z" id="Path" fill="#EBFFDA"></path>
            <path d="M444.985994,333.805042 L448.492717,332.803641 L446.646499,326.347339 C445.785865,323.304327 443.017493,321.196505 439.855182,321.176471 L422.598319,321.176471 C419.046126,321.2027 416.057463,323.844784 415.595798,327.366947 L414.867507,333.047619 L418.479832,333.52465 L419.229972,327.840336 C419.44283,326.125908 420.889068,324.832069 422.616527,324.810644 L439.873389,324.810644 C441.402592,324.830846 442.736235,325.854787 443.1507,327.326891 L444.985994,333.805042 Z" id="Path" fill="#D8FC92"></path>
            <path d="M474.321676,335.742297 L474.321676,338.291317 C474.335952,340.468468 472.598328,342.253143 470.421569,342.296919 L394.165826,343.276578 C393.101094,343.2843 392.077698,342.864797 391.324798,342.111897 C390.571898,341.358997 390.152395,340.335601 390.160111,339.270868 L390.160111,336.57619 C390.143919,334.395458 391.887043,332.608471 394.067507,332.570588 L470.330532,331.736668 C471.392747,331.732775 472.412376,332.154004 473.162111,332.906475 C473.911846,333.658946 474.329358,334.680103 474.321676,335.742297 L474.321676,335.742297 Z" id="Path" fill="#566770"></path>
        </g>
    </g>
</svg>