<?xml version="1.0" encoding="UTF-8"?>
<svg width="63px" height="72px" viewBox="0 0 63 72" version="1.1" xmlns="http://www.w3.org/2000/svg" xmlns:xlink="http://www.w3.org/1999/xlink">
    <title>star</title>
    <g id="UI-Desktop" stroke="none" stroke-width="1" fill="none" fill-rule="evenodd">
        <g id="Tunnel-:-Etape-3/3---cas-forfait" transform="translate(-1157.000000, -474.000000)" fill-rule="nonzero">
            <g id="Group-2" transform="translate(0.000000, 177.000000)">
                <g id="Group-14-Copy-2" transform="translate(966.000000, 265.000000)">
                    <g id="star" transform="translate(191.000000, 32.000000)">
                        <path d="M28.9136747,72 C28.9136747,61.2155027 10.8139036,43.1649504 -8.0038965e-15,43.1649504 C10.8139036,43.1649504 28.9136747,25.1143981 28.9136747,14.3299008 C28.9136747,25.1143981 47.0134459,43.1649504 57.8273494,43.1649504 C47.0134459,43.1649504 28.9136747,61.2155027 28.9136747,72 Z" id="Path" fill="#FFD83B"></path>
                        <path d="M28.9136747,54.5223741 C28.9136747,50.2759783 21.783257,43.1649504 17.5252825,43.1649504 C21.783257,43.1649504 28.9136747,36.0539225 28.9136747,31.8075267 C28.9136747,36.0539225 36.0440924,43.1649504 40.3020669,43.1649504 C36.0418395,43.1649504 28.9136747,50.2737315 28.9136747,54.5223741 Z" id="Path" fill="#F3C432"></path>
                        <g id="Group" transform="translate(1.320197, 0.000000)" fill="#FFD83B">
                            <path d="M47.7523959,31.8075267 C47.7523959,26.6129938 39.0336862,17.9179929 33.8249893,17.9179929 C39.0336862,17.9179929 47.7523959,9.22299195 47.7523959,4.02845909 C47.7523959,9.22299195 56.4711057,17.9179929 61.6798026,17.9179929 C56.4711057,17.9179929 47.7523959,26.6129938 47.7523959,31.8075267 Z" id="Path"></path>
                            <path d="M7.17322271,70.9642389 C7.17322271,68.2883355 2.68319983,63.8105224 -2.00097413e-15,63.8105224 C2.68319983,63.8105224 7.17322271,59.3327092 7.17322271,56.6568058 C7.17322271,59.3327092 11.6632456,63.8105224 14.3464454,63.8105224 C11.6632456,63.8127691 7.17322271,68.2905823 7.17322271,70.9642389 Z" id="Path"></path>
                            <path d="M16.425869,19.8569556 C16.425869,16.1430444 10.194357,9.92847781 6.47031898,9.92847781 C10.194357,9.92847781 16.425869,3.71391125 16.425869,0 C16.425869,3.71391125 22.6573809,9.92847781 26.381419,9.92847781 C22.6573809,9.92847781 16.425869,16.1430444 16.425869,19.8569556 Z" id="Path"></path>
                        </g>
                    </g>
                </g>
            </g>
        </g>
    </g>
</svg>