<?xml version="1.0" encoding="UTF-8"?>
<svg width="659px" height="424px" viewBox="0 0 659 424" version="1.1" xmlns="http://www.w3.org/2000/svg" xmlns:xlink="http://www.w3.org/1999/xlink">
    <title>Group 317</title>
    <defs>
        <polygon id="path-1" points="0 0.0001 627.826 0.0001 627.826 0.9999 0 0.9999"></polygon>
    </defs>
    <g id="UI-Desktop" stroke="none" stroke-width="1" fill="none" fill-rule="evenodd">
        <g id="maintenance-page" transform="translate(-391.000000, -221.000000)">
            <g id="Group-317" transform="translate(391.000000, 223.000000)">
                <path d="M64.3022,360.6714 C63.4952,360.4744 62.6892,360.2664 61.8822,360.0454" id="Stroke-1" stroke="#A9C6EA"></path>
                <path d="M58.5268,359.0639 C43.4728,354.3579 28.9048,345.7249 18.8288,333.7549 C-16.6602,291.5929 24.9268,237.5529 66.3048,220.5379 C86.4828,212.2389 104.6688,202.3239 110.5998,179.3159 C116.2738,157.3059 100.7368,134.3019 96.7278,113.3009 C88.6548,71.0179 126.6768,38.3119 166.7918,38.3068991 C203.7668,38.3029 220.4108,52.3969 257.0988,76.9769 C284.8318,95.5559 336.9078,106.4499 376.9148,102.5229 C424.5618,97.8459 442.5268,76.9759 480.5028,59.9869 C506.6388,48.2949 543.0718,45.7939 567.5228,63.1239 C593.6388,81.6359 583.7148,117.8859 586.6878,144.9539 C587.4348,151.7609 589.2068,158.4139 592.6008,164.4009 C613.9978,202.1599 657.8278,204.1019 657.8278,260.0139 C657.8278,300.3539 593.4628,316.3369 558.7068,321.5889" id="Stroke-3" stroke="#A9C6EA" stroke-dasharray="4.995,3.497"></path>
                <path d="M556.9755,321.8452 C556.1315,321.9682 555.3065,322.0842 554.5035,322.1942" id="Stroke-5" stroke="#A9C6EA"></path>
                <line x1="54.3042" y1="149.9297" x2="68.5672" y2="149.9297" id="Stroke-7" stroke="#A9C6EA"></line>
                <line x1="68.5668" y1="157.8633" x2="82.8298" y2="157.8633" id="Stroke-9" stroke="#A9C6EA"></line>
                <line x1="489.5576" y1="87.6225" x2="503.8206" y2="87.6225" id="Stroke-11" stroke="#A9C6EA"></line>
                <line x1="480.5048" y1="95.5561" x2="494.7678" y2="95.5561" id="Stroke-13" stroke="#A9C6EA"></line>
                <line x1="502.2402" y1="91.7715" x2="521.6232" y2="91.7715" id="Stroke-15" stroke="#A9C6EA"></line>
                <line x1="626.6269" y1="256.6919" x2="636.8899" y2="256.6919" id="Stroke-17" stroke="#A9C6EA"></line>
                <line x1="617.3212" y1="248.8491" x2="631.5842" y2="248.8491" id="Stroke-19" stroke="#A9C6EA"></line>
                <line x1="155.0385" y1="49.1181" x2="169.3015" y2="49.1181" id="Stroke-21" stroke="#A9C6EA"></line>
                <line x1="131.8046" y1="220.9966" x2="155.2566" y2="220.9966" id="Stroke-23" stroke="#A9C6EA"></line>
                <line x1="160.2124" y1="220.9966" x2="172.3864" y2="220.9966" id="Stroke-25" stroke="#A9C6EA"></line>
                <path d="M434.206,191.0869 C434.206,193.6289 432.144,195.6909 429.602,195.6909 C427.06,195.6909 424.999,193.6289 424.999,191.0869 C424.999,188.5449 427.06,186.4829 429.602,186.4829 C432.144,186.4829 434.206,188.5449 434.206,191.0869 Z" id="Stroke-27" stroke="#A9C6EA"></path>
                <path d="M615.1318,159.2314 C615.1318,161.7734 613.0698,163.8354 610.5278,163.8354 C607.9858,163.8354 605.9248,161.7734 605.9248,159.2314 C605.9248,156.6894 607.9858,154.6274 610.5278,154.6274 C613.0698,154.6274 615.1318,156.6894 615.1318,159.2314 Z" id="Stroke-29" stroke="#A9C6EA"></path>
                <path d="M444.2294,59.9863 C444.2294,62.5283 442.1674,64.5903 439.6254,64.5903 C437.0834,64.5903 435.0224,62.5283 435.0224,59.9863 C435.0224,57.4443 437.0834,55.3833 439.6254,55.3833 C442.1674,55.3833 444.2294,57.4443 444.2294,59.9863 Z" id="Stroke-31" stroke="#A9C6EA"></path>
                <path d="M534.1767,66.8799 C534.1767,68.1449 533.1517,69.1709 531.8867,69.1709 C530.6217,69.1709 529.5967,68.1449 529.5967,66.8799 C529.5967,65.6149 530.6217,64.5899 531.8867,64.5899 C533.1517,64.5899 534.1767,65.6149 534.1767,66.8799 Z" id="Stroke-33" stroke="#A9C6EA"></path>
                <path d="M394.1572,238.9526 C394.1572,240.2176 393.1322,241.2426 391.8672,241.2426 C390.6022,241.2426 389.5772,240.2176 389.5772,238.9526 C389.5772,237.6876 390.6022,236.6626 391.8672,236.6626 C393.1322,236.6626 394.1572,237.6876 394.1572,238.9526 Z" id="Stroke-35" stroke="#A9C6EA"></path>
                <path d="M128.0444,74.6855 C128.0444,75.9505 127.0194,76.9755 125.7544,76.9755 C124.4894,76.9755 123.4644,75.9505 123.4644,74.6855 C123.4644,73.4205 124.4894,72.3945 125.7544,72.3945 C127.0194,72.3945 128.0444,73.4205 128.0444,74.6855 Z" id="Stroke-37" stroke="#A9C6EA"></path>
                <path d="M24.5361,217.7934 C24.5361,219.0584 23.5111,220.0834 22.2461,220.0834 C20.9811,220.0834 19.9561,219.0584 19.9561,217.7934 C19.9561,216.5284 20.9811,215.5024 22.2461,215.5024 C23.5111,215.5024 24.5361,216.5284 24.5361,217.7934 Z" id="Stroke-39" stroke="#A9C6EA"></path>
                <path d="M137.3442,170.8769 C137.3442,172.1419 136.3192,173.1679 135.0542,173.1679 C133.7892,173.1679 132.7632,172.1419 132.7632,170.8769 C132.7632,169.6119 133.7892,168.5869 135.0542,168.5869 C136.3192,168.5869 137.3442,169.6119 137.3442,170.8769 Z" id="Stroke-41" stroke="#A9C6EA"></path>
                <line x1="66.6762" y1="99.8135" x2="66.6762" y2="105.2335" id="Stroke-43" stroke="#A9C6EA"></line>
                <line x1="69.3862" y1="102.5234" x2="63.9662" y2="102.5234" id="Stroke-45" stroke="#A9C6EA"></line>
                <line x1="383.7548" y1="27.5078" x2="383.7548" y2="32.9278" id="Stroke-47" stroke="#A9C6EA"></line>
                <line x1="386.4648" y1="30.2177" x2="381.0448" y2="30.2177" id="Stroke-49" stroke="#A9C6EA"></line>
                <line x1="554.3388" y1="111.3286" x2="554.3388" y2="116.7486" id="Stroke-51" stroke="#A9C6EA"></line>
                <line x1="557.0488" y1="114.0385" x2="551.6288" y2="114.0385" id="Stroke-53" stroke="#A9C6EA"></line>
                <line x1="642.954" y1="183.7739" x2="642.954" y2="189.1929" id="Stroke-55" stroke="#A9C6EA"></line>
                <line x1="645.664" y1="186.4839" x2="640.244" y2="186.4839" id="Stroke-57" stroke="#A9C6EA"></line>
                <line x1="617.3212" y1="278.9116" x2="617.3212" y2="284.3316" id="Stroke-59" stroke="#A9C6EA"></line>
                <line x1="620.0312" y1="281.6216" x2="614.6112" y2="281.6216" id="Stroke-61" stroke="#A9C6EA"></line>
                <path d="M417.7714,212.5727 C408.7614,209.9547 403.5804,200.5287 406.1984,191.5177 C408.8164,182.5077 418.2434,177.3267 427.2524,179.9447 C436.2624,182.5627 441.4444,191.9897 438.8264,200.9997 C436.2084,210.0097 426.7824,215.1907 417.7714,212.5727 L417.7714,212.5727 Z M416.0844,218.3817 C403.8654,214.8317 396.8384,202.0487 400.3894,189.8297 C403.9394,177.6117 416.7224,170.5857 428.9414,174.1357 C441.1594,177.6857 448.1854,190.4687 444.6344,202.6877 C441.0844,214.9057 428.3014,221.9317 416.0844,218.3817 L416.0844,218.3817 Z M462.1824,218.8457 C463.9144,215.7997 465.3304,212.5107 466.3514,208.9977 C467.3724,205.4847 467.9384,201.9497 468.1094,198.4487 L458.4774,197.1147 C458.5564,193.8657 458.1864,190.6647 457.4174,187.5847 L466.5394,184.1777 C464.6334,177.2637 461.1234,170.8757 456.3054,165.5627 L448.5424,171.4377 C446.3534,169.1377 443.8494,167.1107 441.0634,165.4357 L445.0994,156.5887 C442.0524,154.8567 438.7644,153.4407 435.2504,152.4197 C431.7384,151.3987 428.2034,150.8327 424.7024,150.6617 L423.3684,160.2937 C420.1194,160.2147 416.9174,160.5847 413.8374,161.3527 L410.4314,152.2327 C403.5174,154.1367 397.1294,157.6487 391.8164,162.4647 L397.6914,170.2287 C395.3914,172.4177 393.3644,174.9217 391.6894,177.7077 L382.8414,173.6717 C381.1104,176.7187 379.6944,180.0067 378.6724,183.5197 C377.6524,187.0327 377.0854,190.5687 376.9154,194.0687 L386.5464,195.4027 C386.4674,198.6517 386.8374,201.8527 387.6074,204.9327 L378.4864,208.3397 C380.3904,215.2537 383.9014,221.6417 388.7184,226.9547 L396.4824,221.0797 C398.6704,223.3797 401.1744,225.4077 403.9604,227.0817 L399.9244,235.9287 C402.9714,237.6607 406.2604,239.0777 409.7734,240.0977 C413.2864,241.1187 416.8214,241.6847 420.3224,241.8557 L421.6564,232.2227 C424.9054,232.3027 428.1064,231.9327 431.1864,231.1647 L434.5924,240.2847 C441.5064,238.3817 447.8944,234.8697 453.2084,230.0517 L447.3334,222.2887 C449.6324,220.0997 451.6614,217.5957 453.3344,214.8097 L462.1824,218.8457 Z" id="Fill-63" fill="#E4ECF9"></path>
                <path d="M452.498,136.0097 C447.481,137.6787 442.061,134.9657 440.393,129.9487 C438.724,124.9327 441.437,119.5127 446.453,117.8437 C451.47,116.1747 456.89,118.8877 458.559,123.9047 C460.227,128.9207 457.515,134.3407 452.498,136.0097 L452.498,136.0097 Z M471.932,124.9817 C471.781,123.2577 471.435,121.5237 470.864,119.8097 C470.294,118.0957 469.533,116.5007 468.62,115.0297 L464.332,117.1887 C463.453,115.8457 462.405,114.6497 461.228,113.6127 L463.98,109.6707 C461.268,107.3957 458.049,105.7837 454.602,104.9747 L453.094,109.5397 C451.56,109.2187 449.973,109.0967 448.371,109.1977 L447.53,104.4707 C445.807,104.6217 444.073,104.9677 442.359,105.5387 C440.645,106.1087 439.05,106.8697 437.579,107.7817 L439.738,112.0707 C438.395,112.9497 437.198,113.9977 436.162,115.1737 L432.22,112.4227 C429.944,115.1347 428.333,118.3537 427.524,121.8017 L432.089,123.3087 C431.769,124.8427 431.646,126.4297 431.747,128.0307 L427.019,128.8717 C427.171,130.5957 427.517,132.3297 428.087,134.0437 C428.657,135.7577 429.419,137.3527 430.331,138.8237 L434.62,136.6647 C435.499,138.0077 436.547,139.2037 437.723,140.2407 L434.972,144.1827 C437.685,146.4587 440.902,148.0697 444.351,148.8787 L445.857,144.3137 C447.393,144.6347 448.978,144.7567 450.58,144.6557 L451.421,149.3827 C453.144,149.2317 454.879,148.8857 456.593,148.3157 C458.307,147.7447 459.902,146.9837 461.373,146.0717 L459.214,141.7827 C460.557,140.9037 461.753,139.8557 462.79,138.6797 L466.731,141.4307 C469.008,138.7177 470.619,135.4997 471.427,132.0517 L466.862,130.5447 C467.184,129.0097 467.306,127.4247 467.204,125.8217 L471.932,124.9817 Z" id="Fill-65" fill="#E4ECF9"></path>
                <path d="M205.999,109.4575 C198.322,112.0125 190.027,107.8585 187.472,100.1815 C184.917,92.5035 189.07,84.2085 196.748,81.6545 C204.426,79.1005 212.72,83.2525 215.275,90.9305 C217.83,98.6085 213.677,106.9025 205.999,109.4575 L205.999,109.4575 Z M235.743,92.5795 C235.512,89.9405 234.981,87.2875 234.108,84.6645 C233.236,82.0405 232.071,79.5985 230.674,77.3485 L224.111,80.6525 C222.766,78.5975 221.162,76.7655 219.361,75.1795 L223.572,69.1455 C219.42,65.6635 214.495,63.1965 209.218,61.9595 L206.911,68.9455 C204.562,68.4545 202.135,68.2685 199.683,68.4225 L198.396,61.1865 C195.758,61.4175 193.104,61.9485 190.481,62.8205 C187.858,63.6935 185.416,64.8585 183.166,66.2545 L186.47,72.8185 C184.415,74.1645 182.583,75.7685 180.997,77.5685 L174.963,73.3565 C171.48,77.5085 169.014,82.4355 167.777,87.7115 L174.763,90.0185 C174.272,92.3675 174.085,94.7945 174.24,97.2465 L167.005,98.5335 C167.235,101.1715 167.766,103.8255 168.639,106.4485 C169.511,109.0715 170.676,111.5135 172.073,113.7645 L178.636,110.4595 C179.981,112.5145 181.585,114.3465 183.386,115.9335 L179.175,121.9655 C183.327,125.4495 188.252,127.9155 193.529,129.1525 L195.836,122.1665 C198.185,122.6575 200.613,122.8445 203.064,122.6895 L204.351,129.9245 C206.989,129.6945 209.643,129.1645 212.266,128.2905 C214.889,127.4185 217.331,126.2535 219.582,124.8575 L216.277,118.2935 C218.332,116.9485 220.165,115.3445 221.75,113.5435 L227.784,117.7545 C231.267,113.6035 233.733,108.6775 234.97,103.4005 L227.984,101.0935 C228.475,98.7455 228.662,96.3175 228.507,93.8655 L235.743,92.5795 Z" id="Fill-67" fill="#E4ECF9"></path>
                <path d="M144.8276,143.6904 C139.7236,142.2074 136.7876,136.8674 138.2716,131.7634 C139.7546,126.6594 145.0946,123.7244 150.1986,125.2074 C155.3026,126.6904 158.2376,132.0304 156.7546,137.1344 C155.2716,142.2384 149.9316,145.1734 144.8276,143.6904 L144.8276,143.6904 Z M143.8716,146.9814 C136.9506,144.9694 132.9696,137.7284 134.9806,130.8074 C136.9926,123.8854 144.2336,119.9054 151.1546,121.9164 C158.0766,123.9274 162.0566,131.1694 160.0446,138.0904 C158.0346,145.0114 150.7926,148.9924 143.8716,146.9814 L143.8716,146.9814 Z M169.9856,147.2444 C170.9666,145.5184 171.7686,143.6554 172.3466,141.6654 C172.9256,139.6754 173.2456,137.6724 173.3426,135.6894 L167.8866,134.9334 C167.9316,133.0934 167.7216,131.2794 167.2856,129.5344 L172.4526,127.6054 C171.3736,123.6894 169.3856,120.0694 166.6566,117.0604 L162.2586,120.3884 C161.0186,119.0854 159.5996,117.9364 158.0216,116.9884 L160.3086,111.9764 C158.5816,110.9954 156.7196,110.1934 154.7296,109.6144 C152.7396,109.0364 150.7366,108.7154 148.7536,108.6184 L147.9976,114.0754 C146.1576,114.0304 144.3446,114.2404 142.5986,114.6754 L140.6696,109.5084 C136.7526,110.5874 133.1346,112.5764 130.1246,115.3054 L133.4526,119.7034 C132.1496,120.9434 131.0006,122.3614 130.0526,123.9404 L125.0406,121.6534 C124.0596,123.3794 123.2576,125.2424 122.6796,127.2324 C122.1006,129.2224 121.7796,131.2254 121.6826,133.2084 L127.1396,133.9634 C127.0946,135.8044 127.3046,137.6174 127.7396,139.3624 L122.5736,141.2924 C123.6516,145.2084 125.6406,148.8274 128.3696,151.8374 L132.7676,148.5094 C134.0076,149.8124 135.4256,150.9614 137.0036,151.9094 L134.7176,156.9204 C136.4436,157.9014 138.3066,158.7044 140.2966,159.2824 C142.2866,159.8604 144.2886,160.1814 146.2726,160.2784 L147.0276,154.8224 C148.8686,154.8674 150.6816,154.6574 152.4266,154.2214 L154.3566,159.3884 C158.2726,158.3104 161.8916,156.3204 164.9016,153.5924 L161.5736,149.1944 C162.8756,147.9544 164.0246,146.5364 164.9736,144.9584 L169.9856,147.2444 Z" id="Fill-69" fill="#E4ECF9"></path>
                <path d="M295.8139,421.4438 C298.8589,415.1598 314.7359,387.6588 331.4749,378.5728 C333.6019,377.4188 335.8459,376.3478 338.2559,376.1218 C340.6659,375.8948 343.2949,376.6588 344.7539,378.5908 C346.0839,380.3528 346.2309,382.7578 345.8479,384.9328 C342.8079,402.1358 323.2139,408.7238 313.6439,421.4438" id="Fill-71" fill="#D7E3F4"></path>
                <path d="M295.8139,421.3413 C295.8139,421.3413 311.5639,390.2493 326.9429,371.7273 C334.2239,362.9593 339.2239,346.7183 331.5689,341.8513 C320.4929,334.8113 309.6089,350.4943 304.6229,358.2813 C297.0819,370.0593 291.5339,383.0913 287.2559,396.3683 C286.6359,398.2913 280.9869,421.3413 280.8749,421.3413 L284.6939,421.3413 L295.8139,421.3413 Z" id="Fill-73" fill="#D7E3F4"></path>
                <path d="M325.934,350.7553 C311.41,369.1183 299.362,396.3043 291.357,421.3413" id="Stroke-75" stroke="#FFFFFF"></path>
                <path d="M262.7861,421.3413 C262.7861,421.3413 260.9571,373.5003 239.7891,351.3833 C234.0701,345.4073 224.6931,339.1963 216.9991,337.4953 C207.0271,335.2903 207.2981,347.0183 209.1031,354.6163 C211.4441,364.4633 219.4901,370.6033 225.2931,377.9373 C235.9721,391.4323 242.3451,400.3403 250.1411,421.3413" id="Fill-77" fill="#B2CDED"></path>
                <path d="M269.1489,421.3413 C274.8639,410.8843 272.8539,366.1763 269.9879,352.1723 C267.9969,342.4393 263.9099,332.9423 258.3209,325.1693 C253.2559,318.1263 238.1189,302.6023 229.2109,308.9103 C224.0589,312.5603 231.8619,325.7013 233.9209,329.6483 C240.5969,342.4433 245.8889,356.1213 250.0259,370.1923 C254.8109,386.4673 258.4299,403.5723 259.7239,420.6903 C259.7409,420.9063 259.7549,421.1243 259.7699,421.3413" id="Fill-79" fill="#D7E3F4"></path>
                <path d="M270.1943,421.3413 C268.3113,396.3073 269.5163,357.8883 280.8013,336.1863 C293.5993,311.5773 310.2803,300.2153 312.7013,309.8063 C319.7243,337.6233 291.5433,412.4393 283.6083,421.3413" id="Fill-81" fill="#B2CDED"></path>
                <path d="M214.2026,345.4839 C236.9796,361.3629 252.7016,391.4379 255.6276,421.3409" id="Stroke-83" stroke="#FFFFFF"></path>
                <path d="M237.5087,316.895 C248.7007,326.889 254.3907,342.522 257.8307,357.659 C262.5687,378.505 264.8477,399.871 265.5957,421.341" id="Stroke-85" stroke="#FFFFFF"></path>
                <path d="M305.5131,320.3344 C291.7361,351.9864 280.1171,386.1854 278.1731,421.3414" id="Stroke-87" stroke="#FFFFFF"></path>
                <path d="M338.0195,382.1255 C338.0195,382.1255 317.8845,395.5005 303.8315,421.3415" id="Stroke-89" stroke="#FFFFFF"></path>
                <path d="M544.0517,421.2612 C547.0417,381.7222 543.7097,342.9432 558.7727,305.4752 C563.0467,294.8402 572.7877,278.0662 586.2597,277.4922 C607.0677,276.6072 594.3267,318.4092 590.5577,334.0532 C588.1337,344.1122 584.5187,354.1182 580.7637,363.7392 C574.1067,380.7942 564.0937,404.6422 556.5277,421.2612" id="Fill-91" fill="#B2CDED"></path>
                <path d="M533.249,421.2612 C526.697,404.4992 520.288,387.6822 513.808,370.8932 C508.061,356.0022 501.373,341.4422 496.729,326.1452 C493.194,314.5012 484.06,287.8182 497.433,279.6152 C521.247,265.0102 540.278,321.5272 542.791,341.5992 C546.102,368.0552 545.387,394.6662 545.784,421.2612" id="Fill-93" fill="#D7E3F4"></path>
                <path d="M514.3251,421.2612 C514.3251,421.2612 500.4091,403.4842 494.1331,395.1462 C480.1111,376.5242 462.8251,356.2972 465.4051,335.3642 C465.9991,330.5452 467.7641,325.1832 472.6051,322.3322 C475.5651,320.5902 479.2411,320.1072 482.6021,320.4272 C493.9961,321.5122 504.2031,338.0582 509.3281,346.5392 C519.3661,363.1512 534.9101,421.2612 534.9101,421.2612" id="Fill-95" fill="#B2CDED"></path>
                <path d="M503.6796,291.3335 C520.6666,325.6875 537.2456,389.3045 537.6546,421.2615" id="Stroke-97" stroke="#FFFFFF"></path>
                <path d="M477.2724,330.7876 C492.2184,359.5006 522.6174,421.2616 522.6174,421.2616" id="Stroke-99" stroke="#FFFFFF"></path>
                <path d="M585.3954,286.5854 C573.1984,313.7844 556.4834,372.7414 549.7514,421.3414" id="Stroke-101" stroke="#FFFFFF"></path>
                <path d="M557.1152,421.2612 C557.1152,421.2612 564.0692,390.2752 568.8842,372.6852 C574.1192,353.5582 591.2452,324.2822 609.2472,315.9642 C613.3902,314.0502 618.3862,312.7352 622.3932,314.9192 C624.8442,316.2552 626.5122,318.7352 627.4172,321.3742 C630.4802,330.3232 615.4912,358.5792 610.3372,366.5092 C600.2422,382.0382 585.7852,406.7112 574.3232,421.2612" id="Fill-103" fill="#D7E3F4"></path>
                <path d="M619.0536,322.1938 C597.7706,340.6728 569.2986,399.5918 561.3386,421.2608" id="Stroke-105" stroke="#FFFFFF"></path>
                <path d="M95.2636,401.9829 C92.5376,387.5319 88.0676,358.8779 84.6766,341.2939 C83.0356,332.7839 78.2856,322.3899 75.2716,314.3179 C69.7716,299.5869 56.4816,273.9919 40.0016,275.3599 C19.5536,277.0579 36.0786,313.8189 41.2856,327.6969 C44.6346,336.6189 49.1436,345.3509 53.7516,353.7119 C61.9236,368.5339 74.0366,389.1739 83.0546,403.4869" id="Fill-107" fill="#B2CDED"></path>
                <path d="M107.0678,386.3882 C102.0778,373.3362 103.4258,356.7372 103.4428,342.9232 C103.4728,318.0632 112.1058,283.1132 128.2948,266.7982 C134.9678,260.0732 146.0098,252.5942 153.1828,262.8752 C159.9758,272.6112 152.1218,299.0722 149.6478,310.4412 C144.8018,332.7052 121.5948,373.9432 114.8908,395.5002" id="Fill-109" fill="#B2CDED"></path>
                <path d="M141.2934,274.2427 C129.7914,304.0787 114.3284,358.5167 110.3824,390.2497" id="Stroke-111" stroke="#FFFFFF"></path>
                <path d="M41.7309,283.5864 C56.3079,307.0334 77.6739,357.2584 88.9799,400.9714" id="Stroke-113" stroke="#FFFFFF"></path>
                <path d="M95.8461,370.3872 C101.9791,360.3502 109.2541,327.7692 110.9131,316.1232 C113.2461,299.7492 113.4981,282.4502 109.4441,266.3212 C106.7091,255.4382 94.1911,222.8832 78.4841,237.5652 C71.1081,244.4592 72.2841,282.0342 73.1631,292.0932 C74.8841,311.7902 85.0871,347.0632 88.5891,366.5232" id="Fill-115" fill="#D7E3F4"></path>
                <path d="M87.1826,245.9604 C97.9676,274.0514 95.2366,343.8564 91.8666,368.2684" id="Stroke-117" stroke="#FFFFFF"></path>
                <g id="Group-121" transform="translate(0.000000, 420.841200)">
                    <mask id="mask-2" fill="white">
                        <use xlink:href="#path-1"></use>
                    </mask>
                    <g id="Clip-120"></g>
                    <line x1="0" y1="0.5001" x2="627.826" y2="0.5001" id="Stroke-119" stroke="#000000" mask="url(#mask-2)"></line>
                </g>
                <path d="M253.3901,138.6655 C256.4581,135.6385 263.9061,125.4065 264.7521,125.6585 C265.5981,125.9105 263.0251,129.5435 263.7591,129.6215 C264.4921,129.6985 268.8281,124.3755 269.6071,124.8525 C270.6601,125.4995 265.9271,130.7125 265.9271,130.7125 C265.9271,130.7125 271.3961,125.2615 272.1481,126.0865 C272.6811,126.6715 268.6991,131.0245 267.3851,132.8785 C269.0641,131.0495 272.1361,128.4105 272.6771,129.0285 C273.2121,129.6425 270.5641,132.6625 268.6591,135.0855 C269.9891,133.6855 272.5481,131.2665 273.0741,131.8145 C273.5981,132.3615 267.1911,142.1175 261.3221,149.2365" id="Fill-122" fill="#F886BC"></path>
                <path d="M214.3227,176.0356 C240.4307,153.7286 257.9477,133.3326 257.9477,133.3326 L267.7537,139.8816 C267.7537,139.8816 251.2977,165.3946 229.7577,187.3496" id="Fill-124" fill="#FFCBBB"></path>
                <path d="M206.5249,183.4941 C211.9179,176.7211 220.8249,170.1701 220.8249,170.1701 L236.6389,182.9561 L222.7599,199.2381" id="Fill-126" fill="#8FBB38"></path>
                <path d="M233.7695,299.4819 L225.3975,409.7299 L235.3035,416.0369 C235.3035,416.0369 208.0805,417.4529 207.1945,416.5619 C206.3105,415.6699 208.3115,409.5639 208.3115,409.5639 L203.7665,299.2189 L233.7695,299.4819 Z" id="Fill-128" fill="#F886BC"></path>
                <path d="M211.5312,416.4848 L207.4772,412.4988 L208.0512,410.4048 L214.2812,416.4948 L217.2802,416.5058 L227.8462,411.2898 L239.3172,418.4698 C240.6422,419.2988 240.0512,421.3468 238.4872,421.340813 L223.0692,421.2858 L218.1482,417.8618 L216.7512,417.8568 L216.7392,421.2618 L206.6982,421.2248 L206.7152,416.4668 L211.5312,416.4848 Z" id="Fill-130" fill="#28364C"></path>
                <path d="M211.7822,298.894 L187.0892,409.73 L196.9942,416.037 C196.9942,416.037 169.7712,417.453 168.8862,416.562 C168.0012,415.669 170.0032,409.564 170.0032,409.564 L177.2202,298.894 L211.7822,298.894 Z" id="Fill-132" fill="#F886BC"></path>
                <path d="M173.2226,416.4848 L169.1696,412.4988 L169.7426,410.4048 L175.9726,416.4948 L178.9716,416.5058 L189.5376,411.2898 L201.0086,418.4698 C202.3346,419.2988 201.7426,421.3468 200.1786,421.340813 L184.7606,421.2858 L179.8396,417.8618 L178.4426,417.8568 L178.4306,421.2618 L168.3896,421.2248 L168.4066,416.4668 L173.2226,416.4848 Z" id="Fill-134" fill="#28364C"></path>
                <path d="M185.8212,241.7202 C172.2372,265.6262 172.2622,310.1042 172.2622,310.1042 L235.2342,310.1042 C235.2342,310.1042 234.3662,271.0382 227.3342,249.0282 L185.8212,241.7202 Z" id="Fill-136" fill="#000000"></path>
                <line x1="206.8632" y1="243.8686" x2="208.4322" y2="310.1036" id="Stroke-138" stroke="#444444" stroke-width="0.75"></line>
                <path d="M220.7973,246.6538 C220.7973,246.6538 217.6133,254.7208 206.8633,257.5118" id="Stroke-140" stroke="#444444" stroke-width="0.75"></path>
                <path d="M276.476,218.4741 C280.614,219.6791 293.178,221.2021 293.37,222.0631 C293.561,222.9251 289.135,222.4471 289.425,223.1251 C289.715,223.8031 296.476,224.9981 296.438,225.9111 C296.386,227.1461 289.528,225.5511 289.528,225.5511 C289.528,225.5511 296.953,227.6731 296.598,228.7321 C296.347,229.4821 290.605,228.1231 288.347,227.8791 C290.761,228.4541 294.563,229.8521 294.286,230.6251 C294.011,231.3921 290.083,230.5501 287.039,230.0661 C288.91,230.5461 292.268,231.6031 292.046,232.3291 C291.824,233.0541 282.129,231.6731 273.053,230.0141" id="Fill-142" fill="#FFCBBB"></path>
                <path d="M202.3964,177.104 C202.3964,177.104 203.4334,179.765 209.0864,179.765 C213.0354,179.765 214.5234,177.695 214.5234,177.695 C214.5234,177.695 215.9784,178.999 231.5344,199.416 C234.8284,203.739 234.1174,213.066 228.6114,221.131 C227.3094,229.227 226.8224,238.663 227.3334,249.028 L182.3104,249.028 C182.3104,249.028 181.5244,216.679 184.6384,199.037 C186.4794,188.602 194.3044,180.306 202.3964,177.104" id="Fill-144" fill="#9ACA3C"></path>
                <path d="M232.1391,191.0869 C262.1391,214.6259 282.9431,219.7339 282.9431,219.7339 L280.4961,231.2669 C280.4961,231.2669 244.4641,226.6969 220.7971,206.8049" id="Fill-146" fill="#FFCBBB"></path>
                <path d="M214.7158,178.4736 C222.4128,179.7686 234.2248,191.0976 234.2248,191.0976 L221.6888,209.4986 C221.6888,209.4986 216.3668,205.8136 209.1538,199.6146" id="Fill-148" fill="#9ACA3C"></path>
                <path d="M221.6889,208.8066 C212.2989,203.0896 208.0759,198.8966 208.0759,198.8966" id="Stroke-150" stroke="#B7E858" stroke-width="0.75"></path>
                <path d="M218.0766,157.1635 C221.2066,162.3375 222.5016,167.5115 218.1166,170.1645 C213.7306,172.8175 206.6796,174.1375 202.1956,166.7705 C199.0516,161.6055 200.0826,155.2525 204.4686,152.5995 C208.8536,149.9465 214.9466,151.9895 218.0766,157.1635" id="Fill-152" fill="#FFCBBB"></path>
                <path d="M214.4321,158.4873 C214.5771,159.0123 214.9911,159.6303 215.5101,159.6123 C215.6571,159.6063 215.7661,159.5163 215.8121,159.3803 C216.1161,158.4863 214.1291,157.3903 214.4321,158.4873" id="Fill-154" fill="#0B0B3A"></path>
                <path d="M212.3564,158.0415 C213.1644,156.9015 214.2384,156.4365 215.3294,156.3055" id="Stroke-156" stroke="#0B0B3A" stroke-width="0.5" stroke-linecap="round"></path>
                <path d="M219.2685,163.0615 L216.3665,164.5115 C216.3665,164.5115 217.3905,167.0155 218.9585,166.5465 C220.2685,166.1555 219.2685,163.0615 219.2685,163.0615" id="Fill-158" fill="#FFFFFF"></path>
                <path d="M214.7158,178.4736 C214.7158,178.4736 212.2098,179.8436 209.0868,179.7656 C204.5568,179.6516 202.3968,177.8406 202.3968,177.8406 L205.3838,165.0776 L216.3668,165.8786 L214.7158,178.4736 Z" id="Fill-160" fill="#FFCBBB"></path>
                <path d="M217.0185,157.3999 C217.0185,157.3999 220.7695,159.9079 220.9025,160.5749 C221.0355,161.2429 219.4485,162.2089 219.4485,162.2089" id="Fill-162" fill="#FFCBBB"></path>
                <path d="M206.5249,149.0366 C206.1199,149.2416 204.7209,148.8636 204.2129,148.8636 C203.4999,148.8646 202.7859,148.9156 202.0839,149.0446 C197.9019,149.8076 194.7789,153.2676 192.8099,156.8286 C191.5169,159.1666 190.4299,161.7636 188.0769,163.2476 C182.9049,166.5086 176.1159,165.3416 170.3209,167.2926 C164.4239,169.2776 159.9069,175.2626 161.4889,181.6466 C162.0059,183.7376 163.1039,185.6396 163.7499,187.6936 C165.1289,192.0776 164.4839,197.1796 167.1169,200.9456 C167.8229,201.9556 168.7349,202.8096 169.7169,203.5556 C174.1199,206.8996 180.1099,208.0516 185.4399,206.5766 C190.7689,205.1026 195.3159,201.0366 197.3739,195.9046 C199.7139,190.0706 198.9829,183.1196 202.3969,177.8406 C203.9909,175.3746 206.3719,173.4946 207.9559,171.0216 C209.4029,168.7616 210.1649,164.5106 210.3379,161.7896 C210.3789,161.1616 209.2529,155.9356 209.5899,155.9356 C212.2979,155.9356 215.7669,154.2506 217.3679,152.6506 C215.3289,148.1726 210.1199,147.2146 206.5249,149.0366" id="Fill-164" fill="#000000"></path>
                <path d="M209.4492,162.4717 C209.4492,162.4717 207.8762,161.3817 206.8422,162.9267 C205.5062,164.9237 208.7232,167.4467 210.2722,167.5627 C211.8212,167.6797 211.7822,165.9977 211.7822,165.9977" id="Fill-166" fill="#FFCBBB"></path>
                <polygon id="Fill-168" fill="#D9E4F4" points="448.681 261.5321 546.591 261.5321 546.591 130.7791 448.681 130.7791"></polygon>
                <polygon id="Stroke-170" stroke="#648ACC" points="448.681 261.5321 546.591 261.5321 546.591 130.7791 448.681 130.7791"></polygon>
                <polygon id="Fill-171" fill="#FFFFFF" points="463.305 261.5321 561.215 261.5321 561.215 130.7791 463.305 130.7791"></polygon>
                <polygon id="Stroke-172" stroke="#648ACC" points="463.305 261.5321 561.215 261.5321 561.215 130.7791 463.305 130.7791"></polygon>
                <path d="M545.0058,158.0439 L480.3058,158.0439 C478.3198,158.0439 476.7108,156.4349 476.7108,154.4489 L476.7108,144.5469 C476.7108,142.5619 478.3198,140.9519 480.3058,140.9519 L545.0058,140.9519 C546.9908,140.9519 548.6008,142.5619 548.6008,144.5469 L548.6008,154.4489 C548.6008,156.4349 546.9908,158.0439 545.0058,158.0439" id="Fill-173" fill="#D7E3F4"></path>
                <path d="M514.4911,250.7466 L480.3051,250.7466 C478.3201,250.7466 476.7111,249.1376 476.7111,247.1516 L476.7111,206.2896 C476.7111,204.3046 478.3201,202.6946 480.3051,202.6946 L514.4911,202.6946 C516.4761,202.6946 518.0861,204.3046 518.0861,206.2896 L518.0861,247.1516 C518.0861,249.1376 516.4761,250.7466 514.4911,250.7466" id="Fill-174" fill="#D7E3F4"></path>
                <path d="M482.0732,175.0493 L479.8912,175.0493 C478.1352,175.0493 476.7112,173.1813 476.7112,170.8773 C476.7112,168.5723 478.1352,166.7053 479.8912,166.7053 L482.0732,166.7053 L482.0732,175.0493 Z" id="Fill-175" fill="#B2CDED"></path>
                <path d="M485.2548,170.8769 C485.2548,173.1809 483.8308,175.0489 482.0728,175.0489 C480.3168,175.0489 478.8918,173.1809 478.8918,170.8769 C478.8918,168.5729 480.3168,166.7049 482.0728,166.7049 C483.8308,166.7049 485.2548,168.5729 485.2548,170.8769" id="Fill-176" fill="#D7E3F4"></path>
                <path d="M503.1884,175.0493 L501.0074,175.0493 C499.2504,175.0493 497.8264,173.1813 497.8264,170.8773 C497.8264,168.5723 499.2504,166.7053 501.0074,166.7053 L503.1884,166.7053 L503.1884,175.0493 Z" id="Fill-177" fill="#B2CDED"></path>
                <path d="M506.3701,170.8769 C506.3701,173.1809 504.9461,175.0489 503.1881,175.0489 C501.4321,175.0489 500.0081,173.1809 500.0081,170.8769 C500.0081,168.5729 501.4321,166.7049 503.1881,166.7049 C504.9461,166.7049 506.3701,168.5729 506.3701,170.8769" id="Fill-178" fill="#D7E3F4"></path>
                <path d="M524.3046,175.0493 L522.1226,175.0493 C520.3666,175.0493 518.9416,173.1813 518.9416,170.8773 C518.9416,168.5723 520.3666,166.7053 522.1226,166.7053 L524.3046,166.7053 L524.3046,175.0493 Z" id="Fill-179" fill="#B2CDED"></path>
                <path d="M527.4853,170.8769 C527.4853,173.1809 526.0613,175.0489 524.3043,175.0489 C522.5473,175.0489 521.1233,173.1809 521.1233,170.8769 C521.1233,168.5729 522.5473,166.7049 524.3043,166.7049 C526.0613,166.7049 527.4853,168.5729 527.4853,170.8769" id="Fill-180" fill="#D7E3F4"></path>
                <path d="M545.4199,175.0493 L543.2379,175.0493 C541.4819,175.0493 540.0569,173.1813 540.0569,170.8773 C540.0569,168.5723 541.4819,166.7053 543.2379,166.7053 L545.4199,166.7053 L545.4199,175.0493 Z" id="Fill-181" fill="#B2CDED"></path>
                <path d="M548.6005,170.8769 C548.6005,173.1809 547.1765,175.0489 545.4195,175.0489 C543.6625,175.0489 542.2385,173.1809 542.2385,170.8769 C542.2385,168.5729 543.6625,166.7049 545.4195,166.7049 C547.1765,166.7049 548.6005,168.5729 548.6005,170.8769" id="Fill-182" fill="#D7E3F4"></path>
                <path d="M482.0732,195.2593 L479.8912,195.2593 C478.1352,195.2593 476.7112,193.3913 476.7112,191.0873 C476.7112,188.7823 478.1352,186.9153 479.8912,186.9153 L482.0732,186.9153 L482.0732,195.2593 Z" id="Fill-183" fill="#B2CDED"></path>
                <path d="M485.2548,191.0869 C485.2548,193.3909 483.8308,195.2589 482.0728,195.2589 C480.3168,195.2589 478.8918,193.3909 478.8918,191.0869 C478.8918,188.7829 480.3168,186.9149 482.0728,186.9149 C483.8308,186.9149 485.2548,188.7829 485.2548,191.0869" id="Fill-184" fill="#D7E3F4"></path>
                <path d="M503.1884,195.2593 L501.0074,195.2593 C499.2504,195.2593 497.8264,193.3913 497.8264,191.0873 C497.8264,188.7823 499.2504,186.9153 501.0074,186.9153 L503.1884,186.9153 L503.1884,195.2593 Z" id="Fill-185" fill="#B2CDED"></path>
                <path d="M506.3701,191.0869 C506.3701,193.3909 504.9461,195.2589 503.1881,195.2589 C501.4321,195.2589 500.0081,193.3909 500.0081,191.0869 C500.0081,188.7829 501.4321,186.9149 503.1881,186.9149 C504.9461,186.9149 506.3701,188.7829 506.3701,191.0869" id="Fill-186" fill="#D7E3F4"></path>
                <path d="M524.3046,195.2593 L522.1226,195.2593 C520.3666,195.2593 518.9416,193.3913 518.9416,191.0873 C518.9416,188.7823 520.3666,186.9153 522.1226,186.9153 L524.3046,186.9153 L524.3046,195.2593 Z" id="Fill-187" fill="#B2CDED"></path>
                <path d="M527.4853,191.0869 C527.4853,193.3909 526.0613,195.2589 524.3043,195.2589 C522.5473,195.2589 521.1233,193.3909 521.1233,191.0869 C521.1233,188.7829 522.5473,186.9149 524.3043,186.9149 C526.0613,186.9149 527.4853,188.7829 527.4853,191.0869" id="Fill-188" fill="#D7E3F4"></path>
                <path d="M545.4199,195.2593 L543.2379,195.2593 C541.4819,195.2593 540.0569,193.3913 540.0569,191.0873 C540.0569,188.7823 541.4819,186.9153 543.2379,186.9153 L545.4199,186.9153 L545.4199,195.2593 Z" id="Fill-189" fill="#B2CDED"></path>
                <path d="M548.6005,191.0869 C548.6005,193.3909 547.1765,195.2589 545.4195,195.2589 C543.6625,195.2589 542.2385,193.3909 542.2385,191.0869 C542.2385,188.7829 543.6625,186.9149 545.4195,186.9149 C547.1765,186.9149 548.6005,188.7829 548.6005,191.0869" id="Fill-190" fill="#D7E3F4"></path>
                <polygon id="Fill-191" fill="#FFFFFF" points="76.8823 421.3413 243.0443 421.3413 243.0443 294.0173 118.6933 294.0173 76.8823 342.9103"></polygon>
                <polygon id="Stroke-192" stroke="#648ACC" points="76.8823 421.3413 243.0443 421.3413 243.0443 294.0173 118.6933 294.0173 76.8823 342.9103"></polygon>
                <polygon id="Fill-193" fill="#D9E4F4" points="195.8745 421.3413 257.0975 421.3413 257.0975 294.0173 236.8415 294.0173 195.8745 342.9103"></polygon>
                <polygon id="Stroke-194" stroke="#648ACC" points="195.8745 421.3413 257.0975 421.3413 257.0975 294.0173 236.8415 294.0173 195.8745 342.9103"></polygon>
                <polygon id="Fill-195" fill="#D9E4F4" points="76.882 421.3421 195.874 421.3421 195.874 342.9111 76.882 342.9111"></polygon>
                <polygon id="Stroke-196" stroke="#648ACC" points="76.882 421.3421 195.874 421.3421 195.874 342.9111 76.882 342.9111"></polygon>
                <path d="M206.5205,308.2944 C207.6595,309.3374 209.9895,308.6364 211.7255,306.7274 C213.4605,304.8184 213.9445,302.4264 212.8055,301.3834 C212.0325,300.6764 210.4445,299.2234 210.4445,299.2234 L204.1605,306.1344 C204.1605,306.1344 205.3815,307.2514 206.5205,308.2944" id="Fill-197" fill="#B2CDED"></path>
                <path d="M204.309,306.271 C205.448,307.313 207.778,306.612 209.514,304.703 C211.249,302.794 211.733,300.402 210.594,299.359 C209.455,298.317 207.124,299.018 205.389,300.927 C203.653,302.835 203.17,305.228 204.309,306.271" id="Fill-198" fill="#D7E3F4"></path>
                <path d="M187.998,308.2944 C189.137,309.3374 191.468,308.6364 193.203,306.7274 C194.938,304.8184 195.422,302.4264 194.283,301.3834 C193.51,300.6764 191.923,299.2234 191.923,299.2234 L185.638,306.1344 C185.638,306.1344 186.859,307.2514 187.998,308.2944" id="Fill-199" fill="#B2CDED"></path>
                <path d="M185.7871,306.271 C186.9261,307.313 189.2561,306.612 190.9921,304.703 C192.7271,302.794 193.2101,300.402 192.0721,299.359 C190.9331,298.317 188.6021,299.018 186.8671,300.927 C185.1311,302.835 184.6481,305.228 185.7871,306.271" id="Fill-200" fill="#D7E3F4"></path>
                <path d="M149.873,308.2944 C151.012,309.3374 153.343,308.6364 155.079,306.7274 C156.813,304.8184 157.297,302.4264 156.158,301.3834 C155.385,300.6764 153.798,299.2234 153.798,299.2234 L147.513,306.1344 C147.513,306.1344 148.734,307.2514 149.873,308.2944" id="Fill-201" fill="#B2CDED"></path>
                <path d="M147.6621,306.271 C148.8011,307.313 151.1311,306.612 152.8671,304.703 C154.6021,302.794 155.0861,300.402 153.9471,299.359 C152.8081,298.317 150.4771,299.018 148.7421,300.927 C147.0061,302.835 146.5231,305.228 147.6621,306.271" id="Fill-202" fill="#D7E3F4"></path>
                <path d="M130.2329,308.2944 C131.3719,309.3374 133.7029,308.6364 135.4379,306.7274 C137.1729,304.8184 137.6569,302.4264 136.5179,301.3834 C135.7449,300.6764 134.1569,299.2234 134.1569,299.2234 L127.8729,306.1344 C127.8729,306.1344 129.0939,307.2514 130.2329,308.2944" id="Fill-203" fill="#B2CDED"></path>
                <path d="M128.0219,306.271 C129.1599,307.313 131.4909,306.612 133.2269,304.703 C134.9619,302.794 135.4449,300.402 134.3059,299.359 C133.1679,298.317 130.8369,299.018 129.1019,300.927 C127.3659,302.835 126.8819,305.228 128.0219,306.271" id="Fill-204" fill="#D7E3F4"></path>
                <polygon id="Fill-205" fill="#D7E3F4" points="194.457 333.9995 201.06 325.4445 100.517 325.4445 92.962 333.9995"></polygon>
                <path d="M305.6489,274.519 L305.6489,380.854 C305.6489,385.997 301.4799,390.166 296.3359,390.166 L237.1819,390.166 C232.0389,390.166 227.8699,385.997 227.8699,380.854 L227.8699,377.805" id="Stroke-206" stroke="#648ACC"></path>
                <path d="M320.309,279.3989 L320.309,400.8839 C320.309,406.1289 316.057,410.3809 310.812,410.3809 L216.764,410.3809 C211.621,410.3809 207.452,406.2119 207.452,401.0689 L207.452,377.8049" id="Stroke-207" stroke="#648ACC"></path>
                <path d="M346.9208,277.3647 L346.9208,347.8437 C346.9208,352.9867 351.0898,357.1557 356.2338,357.1557 L429.6928,357.1557 C434.8358,357.1557 439.0058,352.9867 439.0058,347.8437 L439.0058,227.1057 C439.0058,221.9627 443.1748,217.7937 448.3178,217.7937 L478.6078,217.7937" id="Stroke-208" stroke="#648ACC"></path>
                <path d="M335.1113,279.3989 L335.1113,378.1809 C335.1113,383.3239 339.2813,387.4939 344.4243,387.4939 L479.2953,387.4939 C484.4383,387.4939 488.6073,383.3239 488.6073,378.1809 L488.6073,240.8489" id="Stroke-209" stroke="#648ACC"></path>
                <path d="M238.8764,124.8247 C238.8764,76.4307 278.1074,37.1997 326.5014,37.1997 C374.8964,37.1997 414.1274,76.4307 414.1274,124.8247 C414.1274,144.1157 407.8884,161.9467 397.3264,176.4207 C384.8184,195.2687 352.3194,216.5487 352.3194,229.2977 L352.3194,243.8627 C352.3194,246.7697 349.9614,249.1267 347.0544,249.1267 L332.9724,249.1267 L320.0314,249.1267 L305.9494,249.1267 C303.0424,249.1267 300.6854,246.7697 300.6854,243.8627 L300.6854,229.2977 C300.6854,216.5487 268.1854,195.2687 255.6784,176.4207 C245.1154,161.9467 238.8764,144.1157 238.8764,124.8247" id="Fill-210" fill="#FDD305"></path>
                <path d="M287.0151,127.6543 C284.9921,127.6543 283.1101,128.1533 281.4541,129.1433 C277.0021,131.8063 274.4831,139.3993 275.5961,146.8053 C277.5881,160.0573 288.7311,174.0933 313.6271,177.6823 C312.2071,163.0533 309.7761,149.6653 305.7071,141.7163 C302.2351,134.9323 296.7081,129.8913 290.9231,128.2323 C289.5791,127.8463 288.2691,127.6543 287.0151,127.6543 L287.0151,127.6543 Z M365.9891,127.6543 C364.7341,127.6543 363.4251,127.8463 362.0811,128.2323 C356.2961,129.8913 350.7681,134.9323 347.2961,141.7163 C343.2271,149.6653 340.7961,163.0533 339.3761,177.6823 C364.2721,174.0933 375.4161,160.0573 377.4081,146.8053 C378.5211,139.3993 376.0031,131.8063 371.5501,129.1433 C369.8931,128.1533 368.0131,127.6543 365.9891,127.6543 L365.9891,127.6543 Z M336.4521,247.6753 C336.3491,245.4793 334.7811,210.3033 337.5981,179.4773 C334.1461,179.8853 330.4511,180.1033 326.5021,180.1033 C322.5521,180.1033 318.8581,179.8853 315.4071,179.4773 C318.2231,210.3033 316.6541,245.4793 316.5511,247.6753 L315.0061,247.6023 C315.0311,247.0613 316.6561,210.6783 313.7771,179.2673 C287.7871,175.6533 276.1551,160.9303 274.0661,147.0343 C272.8461,138.9133 275.6191,130.8313 280.6611,127.8163 C283.7201,125.9873 287.4161,125.6163 291.3501,126.7453 C297.5391,128.5203 303.4211,133.8533 307.0851,141.0103 C311.3151,149.2763 313.8161,163.0003 315.2581,177.8993 C318.7441,178.3283 322.4871,178.5563 326.5021,178.5563 C330.5171,178.5563 334.2611,178.3283 337.7451,177.8993 C339.1871,163.0003 341.6881,149.2763 345.9201,141.0103 C349.5831,133.8533 355.4651,128.5203 361.6541,126.7453 C365.5881,125.6163 369.2851,125.9873 372.3441,127.8163 C377.3851,130.8313 380.1591,138.9133 378.9371,147.0343 C376.8481,160.9303 365.2161,175.6533 339.2261,179.2673 C336.3481,210.6783 337.9731,247.0613 337.9981,247.6023 L336.4521,247.6753 Z" id="Fill-211" fill="#FFFFFF"></path>
                <path d="M399.539,129.8525 C396.763,129.8525 394.512,127.6015 394.512,124.8245 C394.512,93.6455 373.432,66.5325 343.25,58.8915 C340.558,58.2105 338.928,55.4755 339.609,52.7835 C340.291,50.0915 343.024,48.4595 345.717,49.1445 C380.367,57.9155 404.566,89.0375 404.566,124.8245 C404.566,127.6015 402.315,129.8525 399.539,129.8525" id="Fill-212" fill="#FFEE99"></path>
                <path d="M324.8134,51.6499 C324.8134,54.4259 327.0644,56.6779 329.8404,56.6779 C332.6184,56.6779 334.8684,54.4259 334.8684,51.6499 C334.8684,48.8729 332.6184,46.6229 329.8404,46.6229 C327.0644,46.6229 324.8134,48.8729 324.8134,51.6499" id="Fill-213" fill="#FFEE99"></path>
                <path d="M413.9589,130.0063 C409.1229,165.9363 380.1139,203.1333 326.5019,203.1333 C272.8899,203.1333 244.9639,164.1953 239.0449,130.0063 C240.0549,147.3023 246.0689,163.2533 255.6779,176.4213 C268.1859,195.2683 300.6859,216.5483 300.6859,229.2973 L300.6859,243.8623 C300.6859,246.7703 303.0419,249.1263 305.9489,249.1263 L320.0319,249.1263 L332.9729,249.1263 L347.0549,249.1263 C349.9619,249.1263 352.3189,246.7703 352.3189,243.8623 L352.3189,229.2973 C352.3189,216.5483 384.8179,195.2683 397.3259,176.4213 C406.9359,163.2533 412.9479,147.3023 413.9589,130.0063" id="Fill-214" fill="#FFC043"></path>
                <path d="M354.3896,235.5171 L298.6146,235.5171 L298.6146,262.0991 C298.6146,266.4401 299.8496,270.6911 302.1766,274.3561 C306.5736,281.2841 314.2086,285.4801 322.4136,285.4801 L330.5906,285.4801 C338.7956,285.4801 346.4306,281.2841 350.8276,274.3561 C353.1546,270.6911 354.3896,266.4401 354.3896,262.0991 L354.3896,235.5171 Z" id="Fill-215" fill="#28364C"></path>
                <path d="M298.6098,253.4428 C298.7698,253.4478 298.9298,253.4428 299.0928,253.4248 L354.8668,247.6438 C356.7718,247.4468 358.1008,245.7348 357.8368,243.8218 C357.5728,241.9088 355.8128,240.5158 353.9118,240.7148 L298.1358,246.4978 C296.2328,246.6948 294.9028,248.4058 295.1678,250.3188 C295.4078,252.0688 296.8998,253.3818 298.6098,253.4428" id="Fill-216" fill="#475577"></path>
                <path d="M298.6098,265.6089 C298.7698,265.6139 298.9298,265.6089 299.0928,265.5909 L354.8668,259.8099 C356.7718,259.6129 358.1008,257.9019 357.8368,255.9879 C357.5728,254.0749 355.8128,252.6849 353.9118,252.8809 L298.1358,258.6639 C296.2328,258.8609 294.9028,260.5719 295.1678,262.4849 C295.4078,264.2359 296.8998,265.5479 298.6098,265.6089" id="Fill-217" fill="#475577"></path>
                <path d="M300.8378,277.6509 C300.9968,277.6569 301.1578,277.6509 301.3198,277.6339 L354.1878,272.1529 C356.0918,271.9559 357.4208,270.2449 357.1568,268.3319 C356.8928,266.4189 355.1298,265.0259 353.2318,265.2249 L300.3638,270.7059 C298.4608,270.9029 297.1298,272.6139 297.3948,274.5279 C297.6358,276.2779 299.1278,277.5909 300.8378,277.6509" id="Fill-218" fill="#475577"></path>
                <g id="Group-221" transform="translate(326.001900, 0.000000)">
                    <line x1="0.5" y1="5.68434189e-14" x2="0.5" y2="27.536" id="Fill-219" fill="#FFCD5C"></line>
                    <line x1="0.5" y1="5.68434189e-14" x2="0.5" y2="27.536" id="Stroke-220" stroke="#FFC043" stroke-width="3" stroke-linecap="round" stroke-linejoin="round"></line>
                </g>
                <g id="Group-224" transform="translate(365.038100, 10.967300)">
                    <line x1="11.121" y1="5.68434189e-14" x2="0" y2="25.19" id="Fill-222" fill="#FFCD5C"></line>
                    <line x1="11.121" y1="5.68434189e-14" x2="0" y2="25.19" id="Stroke-223" stroke="#FFC043" stroke-width="3" stroke-linecap="round" stroke-linejoin="round"></line>
                </g>
                <g id="Group-227" transform="translate(397.664700, 41.433600)">
                    <line x1="20.347" y1="0" x2="0" y2="18.553" id="Fill-225" fill="#FFCD5C"></line>
                    <line x1="20.347" y1="0" x2="0" y2="18.553" id="Stroke-226" stroke="#FFC043" stroke-width="3" stroke-linecap="round" stroke-linejoin="round"></line>
                </g>
                <g id="Group-230" transform="translate(276.845200, 10.967300)">
                    <line x1="0" y1="5.68434189e-14" x2="11.121" y2="25.19" id="Fill-228" fill="#FFCD5C"></line>
                    <line x1="0" y1="5.68434189e-14" x2="11.121" y2="25.19" id="Stroke-229" stroke="#FFC043" stroke-width="3" stroke-linecap="round" stroke-linejoin="round"></line>
                </g>
                <g id="Group-233" transform="translate(234.991700, 41.433600)">
                    <line x1="-2.84217094e-14" y1="0" x2="20.347" y2="18.553" id="Fill-231" fill="#FFCD5C"></line>
                    <line x1="-2.84217094e-14" y1="0" x2="20.347" y2="18.553" id="Stroke-232" stroke="#FFC043" stroke-width="3" stroke-linecap="round" stroke-linejoin="round"></line>
                </g>
                <path d="M209.3481,377.9477 C209.3481,378.9947 208.4991,379.8437 207.4521,379.8437 C206.4041,379.8437 205.5551,378.9947 205.5551,377.9477 C205.5551,376.8997 206.4041,376.0507 207.4521,376.0507 C208.4991,376.0507 209.3481,376.8997 209.3481,377.9477" id="Fill-234" fill="#648ACC"></path>
                <path d="M229.7666,377.9477 C229.7666,378.9947 228.9176,379.8437 227.8696,379.8437 C226.8226,379.8437 225.9726,378.9947 225.9726,377.9477 C225.9726,376.8997 226.8226,376.0507 227.8696,376.0507 C228.9176,376.0507 229.7666,376.8997 229.7666,377.9477" id="Fill-235" fill="#648ACC"></path>
                <path d="M490.5048,240.8491 C490.5048,241.8971 489.6548,242.7461 488.6078,242.7461 C487.5598,242.7461 486.7108,241.8971 486.7108,240.8491 C486.7108,239.8021 487.5598,238.9531 488.6078,238.9531 C489.6548,238.9531 490.5048,239.8021 490.5048,240.8491" id="Fill-236" fill="#648ACC"></path>
                <path d="M501.1923,240.8491 C501.1923,241.8971 500.3423,242.7461 499.2953,242.7461 C498.2483,242.7461 497.3983,241.8971 497.3983,240.8491 C497.3983,239.8021 498.2483,238.9531 499.2953,238.9531 C500.3423,238.9531 501.1923,239.8021 501.1923,240.8491" id="Fill-237" fill="#648ACC"></path>
                <path d="M511.8798,240.8491 C511.8798,241.8971 511.0308,242.7461 509.9838,242.7461 C508.9358,242.7461 508.0858,241.8971 508.0858,240.8491 C508.0858,239.8021 508.9358,238.9531 509.9838,238.9531 C511.0308,238.9531 511.8798,239.8021 511.8798,240.8491" id="Fill-238" fill="#648ACC"></path>
                <path d="M480.5048,217.7934 C480.5048,218.8414 479.6548,219.6894 478.6078,219.6894 C477.5598,219.6894 476.7108,218.8414 476.7108,217.7934 C476.7108,216.7454 477.5598,215.8964 478.6078,215.8964 C479.6548,215.8964 480.5048,216.7454 480.5048,217.7934" id="Fill-239" fill="#648ACC"></path>
                <path d="M381.0449,328.8442 C381.0449,350.4572 398.5659,367.9782 420.1789,367.9782 C441.7919,367.9782 459.3139,350.4572 459.3139,328.8442 C459.3139,307.2312 441.7919,289.7092 420.1789,289.7092 C398.5659,289.7092 381.0449,307.2312 381.0449,328.8442" id="Fill-240" fill="#F46072"></path>
                <path d="M391.8671,328.8442 C391.8671,344.4802 404.5431,357.1562 420.1791,357.1562 C435.8151,357.1562 448.4911,344.4802 448.4911,328.8442 C448.4911,313.2072 435.8151,300.5322 420.1791,300.5322 C404.5431,300.5322 391.8671,313.2072 391.8671,328.8442" id="Fill-241" fill="#FFFFFF"></path>
                <path d="M400.7324,328.8442 C400.7324,339.5842 409.4384,348.2902 420.1784,348.2902 C430.9194,348.2902 439.6264,339.5842 439.6264,328.8442 C439.6264,318.1042 430.9194,309.3972 420.1784,309.3972 C409.4384,309.3972 400.7324,318.1042 400.7324,328.8442" id="Fill-242" fill="#F46072"></path>
                <path d="M409.9911,328.8442 C409.9911,334.4702 414.5531,339.0322 420.1791,339.0322 C425.8051,339.0322 430.3661,334.4702 430.3661,328.8442 C430.3661,323.2172 425.8051,318.6562 420.1791,318.6562 C414.5531,318.6562 409.9911,323.2172 409.9911,328.8442" id="Fill-243" fill="#FFFFFF"></path>
                <polygon id="Fill-244" fill="#0C3656" points="418.6025 330.4204 424.9985 330.4204 418.6025 324.0244"></polygon>
                <polygon id="Fill-245" fill="#0C3656" points="460.082 288.9419 467.401 288.9419 467.401 287.0959 461.927 287.0959 461.927 281.6219 460.082 281.6219"></polygon>
                <polygon id="Fill-246" fill="#0C3656" points="463.4326 285.5913 470.7516 285.5913 470.7516 283.7453 465.2776 283.7453 465.2776 278.2723 463.4326 278.2723"></polygon>
                <polygon id="Fill-247" fill="#0C3656" points="421.0497 329.2768 465.3107 285.0168 464.0057 283.7128 419.7447 327.9728"></polygon>
                <path d="M119.208,259.018 L114.381,268.185 C114.381,268.185 111.088,268.185 106.545,265.942 C102.034,263.715 100.72,260.648 100.72,260.648 L108.881,249.852" id="Fill-248" fill="#FFCBBB"></path>
                <path d="M129.4707,241.7036 C133.9597,244.3496 126.5447,261.0996 122.4937,262.1606 C118.4427,263.2206 110.3997,255.3056 108.0017,248.5996 C105.6047,241.8926 113.3187,238.2256 117.8537,236.8626 C122.3887,235.5006 129.4707,241.7036 129.4707,241.7036" id="Fill-249" fill="#FFCBBB"></path>
                <path d="M126.1406,249.8237 C126.0636,249.9577 125.9916,250.0927 125.9206,250.2287 C125.8496,250.3657 125.7766,250.5017 125.7146,250.6427 C125.6826,250.7187 125.6626,250.7877 125.6846,250.8707 C125.7036,250.9387 125.7576,251.0137 125.8216,251.0477 C125.9556,251.1187 126.1516,251.0897 126.2256,250.9417 C126.2966,250.8007 126.3556,250.6547 126.4166,250.5097 C126.4846,250.3477 126.5506,250.1867 126.6116,250.0227 C126.6336,249.9657 126.6186,249.8747 126.5856,249.8237 C126.5556,249.7757 126.5156,249.7407 126.4626,249.7187 C126.3466,249.6697 126.2046,249.7117 126.1406,249.8237" id="Fill-250" fill="#00276F"></path>
                <path d="M128.6269,248.1909 C128.6269,248.1909 127.6419,246.7139 125.0499,247.2309" id="Stroke-251" stroke="#00276F" stroke-width="0.75" stroke-linecap="round" stroke-linejoin="round"></path>
                <path d="M122.1943,256.3423 L125.0503,258.3813 C125.0503,258.3813 123.9333,260.5403 122.9143,259.7003 C121.8943,258.8613 122.1943,256.3423 122.1943,256.3423" id="Fill-252" fill="#FFFFFF"></path>
                <path d="M133.5019,245.3735 C131.4629,244.7175 129.2219,243.4765 127.6779,242.7005 C125.6149,243.1275 123.4709,245.0625 123.4159,247.2545 C123.4039,247.7475 123.3539,248.4185 122.8649,248.4865 C122.5279,248.5345 122.2499,248.2045 122.1549,247.8775 C122.0609,247.5505 122.0729,247.1935 121.9389,246.8815 C121.6669,246.2465 120.8309,245.9915 120.1769,246.2165 C119.5239,246.4405 119.0549,247.0315 118.7879,247.6685 C118.1059,249.2975 117.4979,251.2685 119.0529,252.6355 C119.2949,252.8475 119.5779,253.0305 119.7339,253.3125 C120.0719,253.9255 119.6729,254.6695 119.2739,255.2425 C118.0369,257.0205 116.1769,259.0185 112.5289,259.0185 C109.9639,259.0185 105.7029,255.6355 105.4219,253.9455 C105.3969,253.7945 102.9419,243.4385 107.4979,236.8525 C109.9409,233.3195 114.2429,230.7465 118.7289,231.1225 C121.4999,231.3535 123.9189,232.9865 125.2759,234.0435 C132.7569,235.4185 134.3609,243.1285 133.5019,245.3735" id="Fill-253" fill="#000000"></path>
                <path d="M129.1811,251.4887 C129.1811,251.4887 129.8431,256.5107 128.8531,257.0597 C127.8631,257.6097 125.7741,256.1787 125.7741,256.1787" id="Fill-254" fill="#FFCBBB"></path>
                <path d="M131.2421,387.4614 L127.5801,411.1054 L127.3901,418.2244 L155.3051,418.0814 C155.9871,418.0784 156.5361,417.5234 156.533112,416.8414 C156.5301,416.3304 156.2131,415.8744 155.7361,415.6934 L143.6971,410.1574 L148.4581,385.5974" id="Fill-255" fill="#FFCBBB"></path>
                <path d="M157.7539,417.7817 C157.4689,416.8867 156.9449,415.8837 156.4169,415.6557 L143.6519,410.1577 C136.6149,413.0107 127.5069,410.8297 127.5069,410.8297 L125.8829,420.4407 C125.8839,420.7597 126.1439,421.0147 126.4619,421.013703 L157.5399,420.8547 C158.1659,420.8517 157.7629,417.8087 157.7539,417.7817" id="Fill-256" fill="#000000"></path>
                <path d="M146.4145,410.7085 C145.6995,411.6405 145.0945,412.6565 144.6145,413.7295" id="Stroke-257" stroke="#474B51" stroke-width="0.75"></path>
                <path d="M148.0219,411.6684 C147.2809,412.6944 146.9849,413.2874 146.5429,414.2384" id="Stroke-258" stroke="#474B51" stroke-width="0.75"></path>
                <path d="M149.3803,412.3706 C148.8773,413.0466 148.3833,413.9816 147.9923,414.7276" id="Stroke-259" stroke="#474B51" stroke-width="0.75"></path>
                <line x1="126.0468" y1="418.9389" x2="157.8848" y2="418.7759" id="Stroke-260" stroke="#474B51" stroke-width="0.75"></line>
                <path d="M126.9311,414.2387 C126.9311,414.2387 134.4101,414.3897 135.0541,418.8967" id="Stroke-261" stroke="#474B51" stroke-width="0.75"></path>
                <path d="M153.8007,414.5288 C153.8007,414.5288 151.7387,417.4598 151.3317,418.8108" id="Stroke-262" stroke="#474B51" stroke-width="0.75"></path>
                <path d="M44.5908,393.6577 L21.2988,390.8837 L14.1798,390.6917 L14.3218,418.6067 C14.3258,419.2887 14.8818,419.8387 15.5628,419.834722 C16.0728,419.8317 16.5298,419.5147 16.7108,419.0377 L22.2468,406.9987 L46.3838,409.7167" id="Fill-263" fill="#FFCBBB"></path>
                <path d="M14.6225,421.0561 C15.5165,420.7711 16.5205,420.2461 16.7485,419.7191 L22.2465,406.9531 C19.3935,399.9171 21.5735,390.8091 21.5735,390.8091 L11.9625,389.1851 C11.6445,389.1861 11.3885,389.4461 11.3904884,389.7641 L11.5485,420.8421 C11.5525,421.4671 14.5945,421.0651 14.6225,421.0561" id="Fill-264" fill="#000000"></path>
                <path d="M21.6958,409.7163 C20.7638,409.0013 19.7468,408.3963 18.6738,407.9173" id="Stroke-265" stroke="#474B51" stroke-width="0.75"></path>
                <path d="M20.7348,411.3237 C19.7098,410.5827 19.1168,410.2867 18.1658,409.8447" id="Stroke-266" stroke="#474B51" stroke-width="0.75"></path>
                <path d="M20.0336,412.6821 C19.3576,412.1791 18.4226,411.6861 17.6756,411.2951" id="Stroke-267" stroke="#474B51" stroke-width="0.75"></path>
                <line x1="13.4648" y1="389.3491" x2="13.6278" y2="421.1881" id="Stroke-268" stroke="#474B51" stroke-width="0.75"></line>
                <path d="M18.1655,390.2329 C18.1655,390.2329 18.0135,397.7119 13.5075,398.3559" id="Stroke-269" stroke="#474B51" stroke-width="0.75"></path>
                <path d="M17.875,417.103 C17.875,417.103 14.944,415.04 13.593,414.634" id="Stroke-270" stroke="#474B51" stroke-width="0.75"></path>
                <path d="M58.4448,328.7583 C53.4398,342.1413 61.6098,361.5683 61.6098,361.5683 L65.9148,392.8603 L25.0728,391.0623 L25.4768,418.2243 C25.4768,418.2243 69.2848,421.3413 79.8818,421.3413 C90.4778,421.3413 94.5738,418.9693 97.6838,412.7613 C102.3168,403.5113 95.6578,352.3723 95.6578,351.5253 L88.3868,318.6763" id="Fill-271" fill="#000000"></path>
                <line x1="29.9746" y1="391.2778" x2="30.2816" y2="418.5598" id="Stroke-272" stroke="#474B51" stroke-width="0.75"></line>
                <path d="M72.6118,335.9936 C72.6118,335.9936 67.9758,359.6866 91.5118,364.7776 C102.0298,367.0536 128.7748,367.8006 128.7748,367.8006 L124.2068,404.4036 L150.9138,404.4036 C150.9138,404.4036 156.4458,376.8246 158.1118,358.3776 C159.2198,346.1046 153.9418,340.6166 144.0188,339.3866 C135.6188,338.3456 110.3598,336.7016 110.3598,336.7016 L106.1128,331.3716" id="Fill-273" fill="#000000"></path>
                <path d="M96.7871,365.625502 C96.7871,365.625502 76.9801,365.6865 72.2411,343.4885" id="Stroke-274" stroke="#474B51" stroke-width="0.75"></path>
                <path d="M82.6933,341.396 C82.6933,341.396 88.0533,342.422 95.0343,341.964" id="Stroke-275" stroke="#474B51" stroke-width="0.75"></path>
                <path d="M56.8271,338.2573 C56.8271,338.2573 62.1081,339.7703 65.5391,339.7363" id="Stroke-276" stroke="#474B51" stroke-width="0.75"></path>
                <line x1="125.9716" y1="399.6391" x2="151.9006" y2="399.6391" id="Stroke-277" stroke="#474B51" stroke-width="0.75"></line>
                <polygon id="Fill-278" fill="#648ACC" points="179.294 321.8371 181.42 321.8371 181.42 298.6021 179.294 298.6021"></polygon>
                <path d="M184.2763,296.2495 C184.2763,298.4135 182.5223,300.1685 180.3573,300.1685 C178.1933,300.1685 176.4393,298.4135 176.4393,296.2495 C176.4393,294.0855 178.1933,292.3305 180.3573,292.3305 C182.5223,292.3305 184.2763,294.0855 184.2763,296.2495" id="Fill-279" fill="#648ACC"></path>
                <path d="M160.6904,302.9204 L168.5744,303.5024 C168.5744,303.5024 174.6354,301.4574 177.0484,301.4054 C178.5284,301.3734 179.2944,302.1544 179.2944,302.1544 L179.2944,304.5364 C179.2944,306.1234 181.4204,306.8224 181.4204,305.7454 L181.4204,304.4354 C181.4444,304.5234 185.7854,306.5854 183.2424,308.5494 C184.4364,308.7964 185.0704,310.4744 182.8044,311.6244 C183.5234,312.1154 184.3554,313.4764 182.6944,314.5674 C183.4314,315.6884 181.9324,316.9234 180.7404,317.1814 C178.4864,317.6684 160.4504,317.2904 160.4504,317.2904" id="Fill-280" fill="#FFCBBB"></path>
                <path d="M114.6835,267.3247 C127.6345,285.2397 120.6785,291.0467 111.3705,336.7477 C80.2805,336.7477 56.4865,331.3717 56.4865,331.3717 C56.4865,331.3717 63.8905,307.3877 77.6125,280.6957 C84.1565,267.9687 95.0345,261.6317 101.1905,260.0137" id="Fill-281" fill="#9ACA3C"></path>
                <path d="M95.0341,287.4673 C95.0341,287.4673 115.0471,318.8123 124.5581,320.2013 C139.6591,322.4083 164.6311,321.7893 164.6311,321.7893 L166.1201,299.7383 C166.1201,299.7383 134.0211,298.1153 132.6961,297.3633 C128.3961,294.9173 114.6831,267.3243 114.6831,267.3243" id="Fill-282" fill="#9ACA3C"></path>
                <path d="M116.3437,314.4829 C116.3437,314.4829 104.6027,304.7369 96.7867,289.6029" id="Stroke-283" stroke="#B7E858" stroke-width="0.75"></path>
                <line x1="161.4917" y1="299.4956" x2="159.6007" y2="321.8696" id="Stroke-284" stroke="#B7E858" stroke-width="0.75"></line>
                <path d="M586.1874,264.8921 C585.7024,269.1751 582.2614,281.3541 582.9824,281.8631 C583.7034,282.3721 584.9694,278.1051 585.4844,278.6331 C585.9974,279.1631 584.4934,285.8611 585.3484,286.1771 C586.5084,286.6071 587.6824,279.6631 587.6824,279.6631 C587.6824,279.6631 586.7764,287.3321 587.8894,287.4131 C588.6794,287.4711 589.6394,281.6511 590.2864,279.4721 C589.8854,281.9211 589.7084,285.9681 590.5294,286.0111 C591.3424,286.0531 592.0814,282.1041 592.8084,279.1091 C592.5294,281.0211 592.2084,284.5271 592.9644,284.6011 C593.7184,284.6761 596.1844,275.1991 598.1544,266.1851" id="Fill-285" fill="#F886BC"></path>
                <path d="M600.1298,206.1333 C600.1298,206.1333 607.0618,218.4463 608.0628,226.0023 C610.5278,244.6183 595.0818,276.1533 595.0818,276.1533 C595.0818,276.1533 583.8578,273.0913 583.8578,271.6823 C583.8578,270.2743 591.6808,237.1393 591.6808,237.1393 L580.4608,211.2403" id="Fill-286" fill="#FFCBBB"></path>
                <path d="M566.4267,165.7031 L567.9327,179.5851 C567.9327,179.5851 559.6097,186.6421 552.2437,178.7361 L553.1447,169.5991 L566.4267,165.7031 Z" id="Fill-287" fill="#FFCBBB"></path>
                <path d="M554.8144,151.7954 C554.8144,151.7954 545.8034,164.2044 549.4844,168.8544 C552.2004,172.2864 559.3254,172.6764 561.5264,171.3274 C562.0004,168.7864 567.8394,160.3874 566.9034,158.5184 C563.3254,151.3764 554.8144,151.7954 554.8144,151.7954" id="Fill-288" fill="#FFCBBB"></path>
                <path d="M568.8388,153.9419 C568.5478,149.2509 563.9218,147.8779 555.0438,148.4069 C553.8558,148.4779 551.7398,147.6709 551.1908,148.7269 C550.4688,150.1159 550.3408,152.9249 551.7348,154.1899 C552.6658,155.0339 553.2888,155.2159 554.5128,155.5019 C556.1218,155.8779 557.7608,157.4099 556.9048,159.0949 C556.6808,159.5359 556.1498,160.2849 556.4848,160.6489 C556.6558,160.8329 557.2288,161.0359 557.4488,161.1539 C558.0888,161.4959 558.0478,162.4669 557.6508,163.0729 C557.2518,163.6779 557.4308,164.3499 557.0288,164.9539 C556.0798,166.3839 557.2058,169.0199 558.6828,169.8949 C559.9888,170.6689 564.2748,171.9609 567.4098,170.3339 C570.1308,168.9239 571.7648,165.0859 571.786824,158.1839 C571.7948,155.5379 569.8268,153.7619 568.8388,153.9419" id="Fill-289" fill="#000000"></path>
                <path d="M555.7949,161.0288 C557.2589,159.1738 558.4429,159.4688 559.0899,160.4868 C559.9519,161.8458 558.2229,164.6688 557.4179,165.1508 C555.7859,166.1278 554.4649,166.0248 554.3389,164.6998" id="Fill-290" fill="#000000"></path>
                <path d="M552.1855,158.188 C551.7665,158.537 551.3745,159.169 551.6055,159.634 C551.6705,159.765 551.7975,159.828 551.9415,159.814 C552.8805,159.722 553.0595,157.46 552.1855,158.188" id="Fill-291" fill="#28364C"></path>
                <path d="M552.3027,156.4673 C552.8887,156.6753 553.8387,157.2073 554.1857,157.9473" id="Stroke-292" stroke="#28364C" stroke-width="0.75"></path>
                <path d="M552.2861,164.8056 L550.2281,163.7046 C550.2281,163.7046 548.8771,166.2326 549.8351,166.7656 C550.8941,167.3556 552.2861,164.8056 552.2861,164.8056" id="Fill-293" fill="#FFFFFF"></path>
                <polygon id="Fill-294" fill="#000000" points="521.248 421.3413 553.755 421.3163 553.753 419.8613 521.247 419.8853"></polygon>
                <path d="M549.1279,407.8598 L551.9409,408.5228 C551.9409,408.5228 553.0169,412.1968 553.4299,414.7548 C553.8429,417.3128 553.7529,419.8608 553.7529,419.8608 L521.2469,419.8848 C521.2469,419.8848 522.0969,417.0678 529.8529,412.5248 C532.9089,410.7338 534.4649,408.6858 534.4649,408.6858 L549.1279,407.8598 Z" id="Fill-295" fill="#22252D"></path>
                <path d="M552.4745,396.1635 L551.9405,408.5225 C551.9405,408.5225 550.5765,410.1735 545.0555,410.177508 C539.5355,410.1815 534.4645,408.6855 534.4645,408.6855 L533.3745,392.0125" id="Fill-296" fill="#F2B18F"></path>
                <polygon id="Fill-297" fill="#000000" points="567.5468 421.3413 600.0548 421.3163 600.0528 419.8613 567.5468 419.8853"></polygon>
                <path d="M595.4277,407.8598 L598.2407,408.5228 C598.2407,408.5228 599.3167,412.1968 599.7297,414.7548 C600.1427,417.3128 600.0527,419.8608 600.0527,419.8608 L567.5467,419.8848 C567.5467,419.8848 568.3967,417.0678 576.1527,412.5248 C579.2087,410.7338 580.7647,408.6858 580.7647,408.6858 L595.4277,407.8598 Z" id="Fill-298" fill="#22252D"></path>
                <path d="M597.1445,395.6596 L598.2405,408.5226 C598.2405,408.5226 596.8755,410.1736 591.3555,410.177605 C585.8345,410.1806 580.7645,408.6856 580.7645,408.6856 L578.2595,392.0126" id="Fill-299" fill="#F2B18F"></path>
                <path d="M591.9013,267.7651 C591.9013,267.7651 596.9713,278.3231 592.8973,298.5251 C594.9703,343.6291 600.3643,404.2661 600.3643,404.2661 L569.3933,404.1571 C569.3933,404.1571 563.0793,338.9771 559.3253,306.4941 C555.1423,270.3131 552.5273,226.0021 552.5273,226.0021" id="Fill-300" fill="#000000"></path>
                <path d="M574.3935,404.1567 C574.3935,404.1567 568.0795,338.9767 564.3255,306.4947" id="Stroke-301" stroke="#474B51" stroke-width="0.75"></path>
                <path d="M532.7617,269.7856 C532.7617,269.7856 529.4707,317.3366 529.4707,340.1556 C529.4707,362.9766 528.0047,404.2656 528.0047,404.2656 L559.3107,404.2656 L570.9577,296.3336 C580.4967,284.9076 579.8007,260.1136 577.5017,250.4596 L546.4607,241.9836 L532.7617,269.7856 Z" id="Fill-302" fill="#000000"></path>
                <path d="M564.5615,355.601 L570.9575,296.333 C578.9585,287.413 578.9585,276.153 578.9585,276.153" id="Stroke-303" stroke="#474B51" stroke-width="0.75"></path>
                <line x1="539.2958" y1="265.0102" x2="531.8868" y2="404.2662" id="Stroke-304" stroke="#474B51" stroke-width="0.75"></line>
                <line x1="559.8564" y1="277.5581" x2="575.0614" y2="277.8631" id="Stroke-305" stroke="#474B51" stroke-width="0.75"></line>
                <line x1="585.8994" y1="277.0786" x2="591.6804" y2="276.9586" id="Stroke-306" stroke="#474B51" stroke-width="0.75"></line>
                <path d="M506.3701,197.3545 C502.1261,192.5525 490.7361,174.2935 489.4561,174.5815 C488.1761,174.8695 491.6241,180.5205 490.5281,180.5605 C489.4331,180.6005 483.5391,172.2655 482.3361,172.8945 C480.7071,173.7475 487.2011,181.9595 487.2011,181.9595 C487.2011,181.9595 484.6581,178.4715 483.4591,179.6195 C482.6091,180.4335 483.0581,182.1415 484.8181,185.0245 C483.6381,183.5485 482.5221,183.2885 481.6581,184.1505 C480.8011,185.0075 481.6491,186.5805 482.7061,188.1705 C481.8731,187.1285 480.6561,186.6045 480.3441,187.6905 C479.9351,189.1115 483.3811,196.4815 491.5321,208.5005" id="Fill-307" fill="#FFCBBB"></path>
                <path d="M567.7792,178.1718 C567.7792,178.1718 585.7162,178.9238 591.0952,199.3388 C593.5202,208.5428 595.0822,271.6598 595.0822,271.6598 L529.5392,271.2208 C529.5392,271.2208 530.4122,214.1608 531.8782,201.8058 C534.5562,179.2278 552.3352,177.8198 552.3352,177.8198 C552.3352,177.8198 553.1442,179.8168 560.0922,179.8168 C567.0402,179.8168 567.7792,178.1718 567.7792,178.1718" id="Fill-308" fill="#9ACA3C"></path>
                <path d="M567.7792,178.1718 C589.0682,178.1718 602.1762,207.4158 602.1762,207.4158 L588.7902,214.1378" id="Fill-309" fill="#9ACA3C"></path>
                <path d="M539.6562,219.6645 C539.6562,219.6645 528.2952,236.0125 519.1232,236.8995 C506.7942,238.0925 484.8602,197.0465 484.8602,197.0465 L498.6952,187.7015 L517.6452,211.5355 L524.1092,201.8755" id="Fill-310" fill="#FFCBBB"></path>
                <path d="M552.3349,177.8198 C534.0049,178.8278 520.5889,206.1328 520.5889,206.1328 L542.0519,221.5388 L554.2329,205.6488" id="Fill-311" fill="#9ACA3C"></path>
                <line x1="541.2958" y1="220.9966" x2="551.6778" y2="207.4936" id="Stroke-312" stroke="#B7E858" stroke-width="0.75"></line>
                <path d="M592.8974,212.0757 C591.7084,203.4857 588.7904,196.1557 588.7904,196.1557" id="Stroke-313" stroke="#B7E858" stroke-width="0.75"></path>
                <path d="M551.4101,159.2314 C551.4101,159.2314 548.4591,160.6494 548.6061,161.1904 C548.7541,161.7314 549.6391,163.0414 549.6391,163.0414" id="Fill-314" fill="#FFCBBB"></path>
                <line x1="528.0048" y1="397.48" x2="559.8568" y2="397.48" id="Stroke-315" stroke="#474B51" stroke-width="0.75"></line>
                <line x1="568.7421" y1="397.7495" x2="599.7211" y2="397.7495" id="Stroke-316" stroke="#474B51" stroke-width="0.75"></line>
            </g>
        </g>
    </g>
</svg>