<?xml version="1.0" encoding="UTF-8"?>
<svg width="61px" height="58px" viewBox="0 0 61 58" version="1.1" xmlns="http://www.w3.org/2000/svg" xmlns:xlink="http://www.w3.org/1999/xlink">
    <title>contact</title>
    <g id="UI-Desktop" stroke="none" stroke-width="1" fill="none" fill-rule="evenodd">
        <g id="Tunnel-:-Etape-3/3---cas-forfait" transform="translate(-226.000000, -482.000000)" fill-rule="nonzero">
            <g id="Group-2" transform="translate(0.000000, 177.000000)">
                <g id="Group-14" transform="translate(40.000000, 265.000000)">
                    <g id="contact" transform="translate(186.000000, 40.000000)">
                        <path d="M61,11.4080413 L61,34.2251992 C61,34.6572848 60.8286139,35.0716905 60.5237422,35.3772684 C60.2188704,35.6828462 59.8054223,35.8545098 59.3743351,35.8545098 L15.4722054,35.8545098 C14.5745142,35.8545098 13.8466597,35.125089 13.8466597,34.2251992 L13.8466597,1.62931062 C13.8466597,0.729540284 14.574395,0 15.4722054,0 L59.3744543,0 C60.2721455,0 61,0.729420824 61,1.62931062 L61,11.4080413 L61,11.4080413 Z" id="Path" fill="#FFA553"></path>
                        <path d="M60.5938221,0.562057808 L38.992025,19.0514302 C38.0861101,19.8181225 36.7605496,19.8181225 35.8546347,19.0514302 L14.2528376,0.562057808 C14.5581861,0.205590114 15.0034562,0.000358379049 15.4722054,1.6976242e-15 L59.3744543,1.6976242e-15 C59.8432035,0.000477838732 60.2883545,0.205709574 60.5938221,0.562057808 Z" id="Path" fill="#F8C693"></path>
                        <path d="M60.4223169,35.4631599 C60.1300786,35.7162949 59.7564379,35.8552266 59.3701637,35.8543941 L15.4722054,35.8543941 C15.0860504,35.8548682 14.7125289,35.716056 14.4200522,35.4631599 L32.4310845,16.1261015 L35.8546347,19.0514302 C36.7605496,19.8181225 38.0861101,19.8181225 38.992025,19.0514302 L42.4071131,16.1261015 L60.4223169,35.4631599 Z" id="Path" fill="#E7872B"></path>
                        <path d="M13.3122403,16.8094109 L16.3317579,21.3492372 C16.9333969,22.2536665 16.7365055,23.4701245 15.8804094,24.1374262 L12.1622373,27.0363544 C11.3557215,27.6595755 11.1241477,28.7796295 11.6172105,29.6727101 C12.7082175,31.6362689 13.7403479,33.9562954 18.8630993,39.0918672 C23.9858507,44.227439 26.3025424,45.259929 28.2615639,46.353463 C29.1524617,46.8486233 30.2706426,46.6163937 30.8918278,45.8071738 L33.7829846,42.0814652 C34.449102,41.2232669 35.6632258,41.0259195 36.5658035,41.6290714 L41.2381599,44.7515086 L46.4986876,48.2642206 C47.4197388,48.8769293 47.6976751,50.1070057 47.1300034,51.0576658 L44.6385885,55.2189244 C43.9778344,56.3443541 42.9100681,57.1713735 41.6569713,57.528319 C37.516889,58.6672476 28.3857533,58.8992383 13.7488099,44.2263638 C-0.888133413,29.5534894 -0.667047753,20.4033555 0.469249112,16.2536845 C0.825131474,14.9978048 1.64988229,13.9275655 2.77235385,13.2651616 L6.92185161,10.7679764 C7.87043424,10.1995872 9.09719149,10.4780477 9.70884195,11.4007543 L13.3122403,16.8094109 Z" id="Path" fill="#A4B727"></path>
                    </g>
                </g>
            </g>
        </g>
    </g>
</svg>