<?xml version="1.0" encoding="UTF-8"?>
<svg width="574px" height="410px" viewBox="0 0 574 410" version="1.1" xmlns="http://www.w3.org/2000/svg" xmlns:xlink="http://www.w3.org/1999/xlink">
    <title>Group 289</title>
    <defs>
        <path d="M32.0238943,3.22855484 C32.6693097,3.98448417 33.1626141,4.88294208 33.3474713,5.86586137 C33.634792,7.3851104 33.0464182,8.78928081 32.0576968,9.92423058 C31.0636937,11.065515 29.6925821,11.7285368 28.6035096,12.7536867 C27.4785221,13.813677 28.2792175,14.9306788 28.0225302,16.1933764 C27.7362657,17.5986025 26.7940226,18.1972226 25.5739657,18.8781924 C22.9965294,20.3140358 19.9659291,20.6719409 17.1613827,21.4521529 C16.2899134,21.6949794 15.407881,21.99165 14.7011986,22.558597 C13.78642,23.293411 13.2677638,24.3987992 12.572701,25.3458224 C11.3103911,27.0698903 9.3910461,28.2998591 7.29740728,28.7285006 L3.32245125,29.1444729 C3.32245125,29.1444729 4.25624374,28.9723829 4.63652122,28.4444992 C5.4213717,27.3549475 4.12209029,26.2009939 3.27597289,25.6604411 C2.19112574,24.9689135 0.697480286,24.7324217 0.172486093,23.4000434 C-0.420112986,21.8966309 0.60663622,20.2348533 1.84676335,19.4145222 C2.5425303,18.9542077 3.31904753,18.6459236 4.10651926,18.3614139 L4.89505746,18.0800787 C5.0262274,18.0329269 5.15705537,17.985248 5.28721825,17.9364481 C6.59178129,17.4455163 7.91324554,16.6610812 8.68013847,15.4363913 C9.63611381,13.9086961 9.44386241,11.9418017 9.56850892,10.2198454 C10.0586443,3.48088321 16.9501174,0.141491472 22.7567433,0.00318596543" id="path-1"></path>
        <linearGradient x1="50.000928%" y1="100.000746%" x2="50.000928%" y2="0.00219299951%" id="linearGradient-3">
            <stop stop-color="#FFFFFF" offset="0%"></stop>
            <stop stop-color="#FFFFFF" offset="100%"></stop>
        </linearGradient>
    </defs>
    <g id="UI-Desktop" stroke="none" stroke-width="1" fill="none" fill-rule="evenodd">
        <g id="404-page" transform="translate(-433.000000, -236.000000)">
            <g id="Group-289" transform="translate(434.000000, 237.000000)">
                <path d="M293.079962,101.964943 L169.130629,101.964943 C167.260932,101.964943 165.745103,100.449917 165.745103,98.5801531 L165.745103,26.4311325 C165.745103,24.5613687 167.260932,23.0463428 169.130629,23.0463428 L293.079962,23.0463428 C294.950716,23.0463428 296.466545,24.5613687 296.466545,26.4311325 L296.466545,98.5801531 C296.466545,100.449917 294.950716,101.964943 293.079962,101.964943 Z" id="Stroke-1" stroke="#C0CCD8" stroke-width="1.056"></path>
                <line x1="165.744681" y1="37.3460764" x2="296.466122" y2="37.3460764" id="Stroke-3" stroke="#C0CCD8" stroke-width="1.056"></line>
                <path d="M176.276466,30.2748642 C176.276466,31.4288178 175.340561,32.3631718 174.187052,32.3631718 C173.033544,32.3631718 172.097639,31.4288178 172.097639,30.2748642 C172.097639,29.1219664 173.033544,28.1865567 174.187052,28.1865567 C175.340561,28.1865567 176.276466,29.1219664 176.276466,30.2748642 Z" id="Stroke-5" stroke="#C0CCD8" stroke-width="1.056"></path>
                <path d="M184.873061,30.2748642 C184.873061,31.4288178 183.937156,32.3631718 182.783647,32.3631718 C181.629083,32.3631718 180.694234,31.4288178 180.694234,30.2748642 C180.694234,29.1219664 181.629083,28.1865567 182.783647,28.1865567 C183.937156,28.1865567 184.873061,29.1219664 184.873061,30.2748642 Z" id="Stroke-7" stroke="#C0CCD8" stroke-width="1.056"></path>
                <path d="M193.469128,30.2748642 C193.469128,31.4288178 192.534279,32.3631718 191.379714,32.3631718 C190.226206,32.3631718 189.290301,31.4288178 189.290301,30.2748642 C189.290301,29.1219664 190.226206,28.1865567 191.379714,28.1865567 C192.534279,28.1865567 193.469128,29.1219664 193.469128,30.2748642 Z" id="Stroke-9" stroke="#C0CCD8" stroke-width="1.056"></path>
                <path d="M97.1680801,110.220831 L128.079358,110.220831 C131.066649,110.220831 133.487749,107.801013 133.487749,104.815303 L133.487749,73.9203869 C133.487749,70.9357329 131.066649,68.5148587 128.079358,68.5148587 L97.1680801,68.5148587 C94.1807892,68.5148587 91.7596893,70.9357329 91.7596893,73.9203869 L91.7596893,104.815303 C91.7596893,107.801013 94.1807892,110.220831 97.1680801,110.220831 Z" id="Stroke-11" stroke="#C0CCD8" stroke-width="1.056" stroke-linejoin="round"></path>
                <path d="M124.574784,89.3683729 C124.574784,95.9648066 119.224491,101.312268 112.623508,101.312268 C106.023581,101.312268 100.673288,95.9648066 100.673288,89.3683729 C100.673288,82.7708835 106.023581,77.4234225 112.623508,77.4234225 C119.224491,77.4234225 124.574784,82.7708835 124.574784,89.3683729 Z" id="Stroke-13" stroke="#C0CCD8" stroke-width="3.168"></path>
                <line x1="120.693524" y1="80.9356434" x2="103.819767" y2="97.800469" id="Stroke-15" stroke="#C0CCD8" stroke-width="3.168"></line>
                <path d="M410.122295,100.733918 L401.467813,91.7693988 L268.278793,91.7693988 C262.046468,91.7693988 256.994059,86.7207199 256.994059,80.4906375 L256.994059,11.279817 C256.994059,5.04973464 262.046468,0 268.278793,0 L402.064637,0 C408.296963,0 413.350428,5.04973464 413.350428,11.279817 L413.350428,99.4311015 C413.350428,101.118218 411.294817,101.948051 410.122295,100.733918" id="Fill-17" fill="#FFFFFF"></path>
                <path d="M410.122295,100.733918 L401.467813,91.7693988 L268.278793,91.7693988 C262.046468,91.7693988 256.994059,86.7207199 256.994059,80.4906375 L256.994059,11.279817 C256.994059,5.04973464 262.046468,0 268.278793,0 L402.064637,0 C408.296963,0 413.350428,5.04973464 413.350428,11.279817 L413.350428,99.4311015 C413.350428,101.118218 411.294817,101.948051 410.122295,100.733918 Z" id="Stroke-19" stroke="#C0CCD8" stroke-width="1.056" stroke-linejoin="round"></path>
                <path d="M290.921888,50.3339136 L290.921888,44.286479 C290.921888,43.1483619 290.963084,41.6132763 291.046534,39.6801665 C291.128928,37.7481125 291.19442,36.734576 291.241955,36.6395569 L290.851114,36.6395569 C290.044081,38.4660342 289.130358,40.1732098 288.109947,41.7610837 L282.344518,50.3339136 L290.921888,50.3339136 Z M310.53153,60.8271841 L304.802016,60.8271841 L304.802016,70.8939246 L290.921888,70.8939246 L290.921888,60.8271841 L270.173526,60.8271841 L270.173526,50.5112825 L291.811314,18.8899983 L304.802016,18.8899983 L304.802016,50.3339136 L310.53153,50.3339136 L310.53153,60.8271841 Z" id="Fill-21" fill="#9ACA3C"></path>
                <path d="M330.296347,44.9628034 C330.296347,50.8444826 330.665004,54.8870154 331.400208,57.0925131 C332.134354,59.2980108 333.3692,60.4002318 335.101575,60.4002318 C336.857189,60.4002318 338.09626,59.2621147 338.819844,56.9858806 C339.543427,54.7085907 339.905747,50.7019541 339.905747,44.9628034 C339.905747,39.2004259 339.537089,35.1631721 338.802943,32.8510418 C338.066683,30.5389116 336.831838,29.3828465 335.101575,29.3828465 C333.3692,29.3828465 332.134354,30.4977367 331.400208,32.7264613 C330.665004,34.9551859 330.296347,39.0346705 330.296347,44.9628034 M353.892564,44.9628034 C353.892564,54.1638148 352.349272,60.9048885 349.265855,65.1849689 C346.181382,69.4650492 341.458547,71.6050894 335.101575,71.6050894 C328.885095,71.6050894 324.199231,69.3700302 321.042928,64.8999117 C317.887681,60.4297933 316.310586,53.7837386 316.310586,44.9628034 C316.310586,35.7142825 317.852822,28.9330897 320.937295,24.6171132 C324.020712,20.3011368 328.74249,18.1431486 335.101575,18.1431486 C341.29376,18.1431486 345.974342,20.3898213 349.141209,24.8831666 C352.309131,29.3775677 353.892564,36.0700761 353.892564,44.9628034" id="Fill-23" fill="#9ACA3C"></path>
                <path d="M380.561636,50.3339136 L380.561636,44.286479 C380.561636,43.1483619 380.602832,41.6132763 380.686282,39.6801665 C380.768676,37.7481125 380.834168,36.734576 380.881703,36.6395569 L380.490862,36.6395569 C379.683828,38.4660342 378.770106,40.1732098 377.749695,41.7610837 L371.984266,50.3339136 L380.561636,50.3339136 Z M400.170222,60.8271841 L394.441764,60.8271841 L394.441764,70.8939246 L380.561636,70.8939246 L380.561636,60.8271841 L359.812217,60.8271841 L359.812217,50.5112825 L381.451062,18.8899983 L394.441764,18.8899983 L394.441764,50.3339136 L400.170222,50.3339136 L400.170222,60.8271841 Z" id="Fill-25" fill="#9ACA3C"></path>
                <path d="M535.624956,231.647471 L566.536233,231.647471 C569.523524,231.647471 571.944624,229.227652 571.944624,226.241942 L571.944624,195.347026 C571.944624,192.362372 569.523524,189.941498 566.536233,189.941498 L535.624956,189.941498 C532.637665,189.941498 530.216565,192.362372 530.216565,195.347026 L530.216565,226.241942 C530.216565,229.227652 532.637665,231.647471 535.624956,231.647471 Z" id="Stroke-27" stroke="#C0CCD8" stroke-width="1.056" stroke-linejoin="round"></path>
                <path d="M538.844533,220.671187 L563.316445,220.66274 L551.072566,199.485106 L538.844533,220.671187 Z M564.529108,222.507166 C564.371715,222.562066 564.202703,222.591627 564.030522,222.591627 L538.131512,222.601129 C537.590673,222.601129 537.085749,222.310793 536.816386,221.842032 C536.54491,221.374328 536.54491,220.7926 536.81533,220.324895 L549.75744,197.903566 C550.026803,197.434806 550.528558,197.14447 551.07151,197.143411 C551.612349,197.142358 552.116217,197.43375 552.386636,197.901455 L565.344592,220.314337 C565.616068,220.783098 565.616068,221.36377 565.345648,221.833586 C565.160791,222.151372 564.869245,222.387864 564.529108,222.507166 L564.529108,222.507166 Z" id="Fill-29" fill="#C0CCD8"></path>
                <path d="M551.078904,216.21511 L551.078904,216.21511 C550.587713,216.21511 550.184196,215.829755 550.16307,215.340935 L549.638075,206.517888 C549.601104,205.699668 550.25497,205.016587 551.074679,205.015531 C551.893332,205.015531 552.548254,205.698613 552.511283,206.516832 L551.993683,215.339879 C551.972557,215.829755 551.56904,216.21511 551.078904,216.21511" id="Fill-31" fill="#C0CCD8"></path>
                <path d="M552.012488,218.343114 C552.013542,218.858329 551.59418,219.276413 551.07975,219.276413 C550.564262,219.276413 550.144901,218.859384 550.144901,218.34417 C550.144901,217.828956 550.563206,217.409816 551.078693,217.409816 C551.59418,217.409816 552.012488,217.8279 552.012488,218.343114" id="Fill-33" fill="#C0CCD8"></path>
                <path d="M4.70804652,157.125191 C4.70804652,158.423784 3.65383282,159.47744 2.35455142,159.47744 C1.05527002,159.47744 0,158.423784 0,157.125191 C0,155.825541 1.05527002,154.771886 2.35455142,154.771886 C3.65383282,154.771886 4.70804652,155.825541 4.70804652,157.125191 Z" id="Stroke-35" stroke="#C0CCD8" stroke-width="1.056" stroke-linecap="round" stroke-linejoin="round"></path>
                <path d="M400.17075,282.562478 C400.17075,283.861072 399.116536,284.915784 397.816198,284.915784 C396.516917,284.915784 395.462703,283.861072 395.462703,282.562478 C395.462703,281.263885 396.516917,280.209173 397.816198,280.209173 C399.116536,280.209173 400.17075,281.263885 400.17075,282.562478 Z" id="Stroke-37" stroke="#C0CCD8" stroke-width="1.056" stroke-linecap="round" stroke-linejoin="round"></path>
                <path d="M561.919665,89.3683729 C561.919665,90.6669666 560.866507,91.7206223 559.565113,91.7206223 C558.265832,91.7206223 557.212675,90.6669666 557.212675,89.3683729 C557.212675,88.0687235 558.265832,87.0150678 559.565113,87.0150678 C560.866507,87.0150678 561.919665,88.0687235 561.919665,89.3683729 Z" id="Stroke-39" stroke="#C0CCD8" stroke-width="1.056" stroke-linecap="round" stroke-linejoin="round"></path>
                <path d="M434.865472,16.6050013 C434.865472,17.903595 433.811258,18.9572507 432.51092,18.9572507 C431.211639,18.9572507 430.157425,17.903595 430.157425,16.6050013 C430.157425,15.3064077 431.211639,14.2516962 432.51092,14.2516962 C433.811258,14.2516962 434.865472,15.3064077 434.865472,16.6050013 Z" id="Stroke-41" stroke="#C0CCD8" stroke-width="1.056" stroke-linecap="round" stroke-linejoin="round"></path>
                <line x1="557.212675" y1="166.311527" x2="557.212675" y2="173.597377" id="Stroke-43" stroke="#C0CCD8" stroke-width="1.056" stroke-linecap="round" stroke-linejoin="round"></line>
                <line x1="560.857212" y1="169.954663" x2="553.56856" y2="169.954663" id="Stroke-45" stroke="#C0CCD8" stroke-width="1.056" stroke-linecap="round" stroke-linejoin="round"></line>
                <line x1="366.667458" y1="306.663638" x2="366.667458" y2="313.948432" id="Stroke-47" stroke="#C0CCD8" stroke-width="1.056" stroke-linecap="round" stroke-linejoin="round"></line>
                <line x1="370.311995" y1="310.306246" x2="363.023344" y2="310.306246" id="Stroke-49" stroke="#C0CCD8" stroke-width="1.056" stroke-linecap="round" stroke-linejoin="round"></line>
                <line x1="212.509304" y1="3.16772398" x2="212.509304" y2="10.4525178" id="Stroke-51" stroke="#C0CCD8" stroke-width="1.056" stroke-linecap="round" stroke-linejoin="round"></line>
                <line x1="216.153841" y1="6.81033206" x2="208.86519" y2="6.81033206" id="Stroke-53" stroke="#C0CCD8" stroke-width="1.056" stroke-linecap="round" stroke-linejoin="round"></line>
                <line x1="49.3419542" y1="73.5854975" x2="49.3419542" y2="80.8702914" id="Stroke-55" stroke="#C0CCD8" stroke-width="1.056" stroke-linecap="round" stroke-linejoin="round"></line>
                <line x1="52.9864914" y1="77.2281056" x2="45.6978396" y2="77.2281056" id="Stroke-57" stroke="#C0CCD8" stroke-width="1.056" stroke-linecap="round" stroke-linejoin="round"></line>
                <line x1="37.4783531" y1="241.318509" x2="37.4783531" y2="248.604359" id="Stroke-59" stroke="#C0CCD8" stroke-width="1.056" stroke-linecap="round" stroke-linejoin="round"></line>
                <line x1="41.122362" y1="244.962068" x2="33.8337103" y2="244.962068" id="Stroke-61" stroke="#C0CCD8" stroke-width="1.056" stroke-linecap="round" stroke-linejoin="round"></line>
                <line x1="450.659874" y1="44.4163383" x2="450.659874" y2="51.7011322" id="Stroke-63" stroke="#C0CCD8" stroke-width="1.056" stroke-linecap="round" stroke-linejoin="round"></line>
                <line x1="454.304306" y1="48.0589464" x2="447.015654" y2="48.0589464" id="Stroke-65" stroke="#C0CCD8" stroke-width="1.056" stroke-linecap="round" stroke-linejoin="round"></line>
                <path d="M91.7084574,199.840899 L18.7691234,199.840899 C17.4941375,199.840899 16.4610503,198.808359 16.4610503,197.535104 C16.4610503,196.260793 17.4941375,195.228252 18.7691234,195.228252 L91.7084574,195.228252 C92.9834433,195.228252 94.0165305,196.260793 94.0165305,197.535104 C94.0165305,198.808359 92.9834433,199.840899 91.7084574,199.840899 Z" id="Stroke-67" stroke="#C0CCD8" stroke-width="1.056"></path>
                <path d="M521.171665,141.625261 L448.231274,141.625261 C446.957345,141.625261 445.924258,140.592721 445.924258,139.31841 C445.924258,138.045154 446.957345,137.012614 448.231274,137.012614 L521.171665,137.012614 C522.445594,137.012614 523.479738,138.045154 523.479738,139.31841 C523.479738,140.592721 522.445594,141.625261 521.171665,141.625261 Z" id="Stroke-69" stroke="#C0CCD8" stroke-width="1.056"></path>
                <path d="M531.849434,157.125191 L504.886704,157.125191 C504.248683,157.125191 503.732139,156.608921 503.732139,155.972293 C503.732139,155.335665 504.248683,154.818339 504.886704,154.818339 L531.849434,154.818339 C532.486399,154.818339 533.002942,155.335665 533.002942,155.972293 C533.002942,156.608921 532.486399,157.125191 531.849434,157.125191" id="Fill-71" fill="#C0CCD8"></path>
                <path d="M460.496913,102.188132 L433.534183,102.188132 C432.897219,102.188132 432.380675,101.671862 432.380675,101.035234 C432.380675,100.398607 432.897219,99.8812807 433.534183,99.8812807 L460.496913,99.8812807 C461.134935,99.8812807 461.651478,100.398607 461.651478,101.035234 C461.651478,101.671862 461.134935,102.188132 460.496913,102.188132" id="Fill-73" fill="#C0CCD8"></path>
                <path d="M64.59837,179.460158 L43.9735981,179.460158 C43.3366333,179.460158 42.8190334,178.943887 42.8190334,178.30726 C42.8190334,177.670632 43.3366333,177.153306 43.9735981,177.153306 L64.59837,177.153306 C65.2353348,177.153306 65.7518783,177.670632 65.7518783,178.30726 C65.7518783,178.943887 65.2353348,179.460158 64.59837,179.460158" id="Fill-75" fill="#C0CCD8"></path>
                <path d="M480.908519,77.7075295 L503.239258,77.7075295 C505.397332,77.7075295 507.146609,75.959179 507.146609,73.8033023 L507.146609,51.4843832 C507.146609,49.3274507 505.397332,47.5791002 503.239258,47.5791002 L480.908519,47.5791002 C478.750444,47.5791002 477.002224,49.3274507 477.002224,51.4843832 L477.002224,73.8033023 C477.002224,75.959179 478.750444,77.7075295 480.908519,77.7075295 Z" id="Stroke-77" stroke="#C0CCD8" stroke-width="1.056" stroke-linejoin="round"></path>
                <path d="M490.202923,63.9588008 L493.396197,63.9588008 L493.922248,61.3711153 L490.726861,61.3711153 L490.202923,63.9588008 Z M496.342292,61.3711153 L495.818354,63.9588008 L498.698956,63.9588008 L498.698956,66.2572061 L495.383147,66.2572061 L494.52541,70.7853917 L492.069452,70.7853917 L492.939864,66.2572061 L489.767716,66.2572061 L488.919486,70.7853917 L486.520569,70.7853917 L487.346616,66.2572061 L484.689956,66.2572061 L484.689956,63.9588008 L487.780767,63.9588008 L488.304704,61.3711153 L485.49382,61.3711153 L485.49382,59.0399813 L488.718784,59.0399813 L489.577578,54.501238 L492.022973,54.501238 L491.163124,59.0399813 L494.379637,59.0399813 L495.248994,54.501238 L497.648967,54.501238 L496.779611,59.0399813 L499.458454,59.0399813 L499.458454,61.3711153 L496.342292,61.3711153 Z" id="Fill-79" fill="#C0CCD8"></path>
                <path d="M238.215957,286.160744 L217.038726,147.332633 L121.655626,147.332633 L144.518754,294.440071 C146.068384,304.407569 154.385898,311.42631 164.648108,311.42631 L325.033306,311.42631 L326.212166,297.94733 L252.141507,297.94733 C245.029262,297.94733 239.271227,293.072852 238.215957,286.160744" id="Fill-81" fill="#475577"></path>
                <path d="M147.9403,286.160744 L127.546864,152.472108 C127.087362,149.457892 124.576474,147.332633 121.4751,147.332633 L121.289187,147.332633 C116.944516,147.332633 113.389978,151.397337 114.045957,155.617238 L135.622479,294.440071 C137.172109,304.407569 145.488567,311.42631 155.75289,311.42631 L259.053156,311.42631 L260.233072,297.94733 L161.86585,297.94733 C154.753605,297.94733 148.994514,293.072852 147.9403,286.160744" id="Fill-83" fill="#717A91"></path>
                <line x1="212.509304" y1="311.425887" x2="212.509304" y2="387.204636" id="Stroke-85" stroke="#544943" stroke-width="1.584"></line>
                <path d="M170.006641,393.899467 L170.006641,393.899467 C170.006641,390.20217 173.005551,387.204847 176.70375,387.204847 L248.314225,387.204847 C252.01348,387.204847 255.012391,390.20217 255.012391,393.899467" id="Stroke-87" stroke="#544943" stroke-width="1.584"></path>
                <path d="M205.181568,393.899467 L205.181568,393.899467 C205.181568,390.20217 208.180479,387.204847 211.879734,387.204847" id="Stroke-89" stroke="#544943" stroke-width="1.584"></path>
                <path d="M176.769031,400.657855 C176.769031,404.389992 173.741599,407.415821 170.006429,407.415821 C166.271259,407.415821 163.244884,404.389992 163.244884,400.657855 C163.244884,396.924662 166.271259,393.899889 170.006429,393.899889 C173.741599,393.899889 176.769031,396.924662 176.769031,400.657855" id="Fill-91" fill="#717A91"></path>
                <path d="M172.490592,400.657855 C172.490592,402.029297 171.37828,403.14102 170.006112,403.14102 C168.635001,403.14102 167.522689,402.029297 167.522689,400.657855 C167.522689,399.286414 168.635001,398.174691 170.006112,398.174691 C171.37828,398.174691 172.490592,399.286414 172.490592,400.657855" id="Fill-93" fill="#8E9DB2"></path>
                <path d="M211.943958,400.657855 C211.943958,404.389992 208.916527,407.415821 205.181357,407.415821 C201.447244,407.415821 198.419812,404.389992 198.419812,400.657855 C198.419812,396.924662 201.447244,393.899889 205.181357,393.899889 C208.916527,393.899889 211.943958,396.924662 211.943958,400.657855" id="Fill-95" fill="#717A91"></path>
                <path d="M207.66552,400.657855 C207.66552,402.029297 206.553208,403.14102 205.18104,403.14102 C203.809929,403.14102 202.697617,402.029297 202.697617,400.657855 C202.697617,399.286414 203.809929,398.174691 205.18104,398.174691 C206.553208,398.174691 207.66552,399.286414 207.66552,400.657855" id="Fill-97" fill="#8E9DB2"></path>
                <path d="M261.773935,400.657855 C261.773935,404.389992 258.746504,407.415821 255.012391,407.415821 C251.277221,407.415821 248.249789,404.389992 248.249789,400.657855 C248.249789,396.924662 251.277221,393.899889 255.012391,393.899889 C258.746504,393.899889 261.773935,396.924662 261.773935,400.657855" id="Fill-99" fill="#717A91"></path>
                <path d="M257.495497,400.657855 C257.495497,402.029297 256.383185,403.14102 255.012074,403.14102 C253.639906,403.14102 252.527594,402.029297 252.527594,400.657855 C252.527594,399.286414 253.639906,398.174691 255.012074,398.174691 C256.383185,398.174691 257.495497,399.286414 257.495497,400.657855" id="Fill-101" fill="#8E9DB2"></path>
                <path d="M287.058691,162.234365 L311.234832,126.133461 L318.725242,127.692829 C313.002066,146.961636 309.220418,154.585332 309.220418,154.585332" id="Fill-103" fill="#FFCBBB"></path>
                <path d="M314.872397,133.669421 L318.72482,127.692723 C318.72482,127.692723 325.898332,126.042559 328.505345,124.713348 C331.111302,123.383081 332.850015,121.024497 333.575712,119.035432 C334.132396,117.508793 333.890497,113.026005 333.237687,112.954213 C331.695451,112.78529 328.619428,118.528664 327.178599,118.869677 C325.738827,119.211745 321.067751,118.857007 318.500878,119.192741 C314.176278,119.757577 312.353059,123.806444 312.353059,123.806444 L308.401342,130.97088" id="Fill-105" fill="#FFCBBB"></path>
                <polyline id="Fill-107" fill="#E6E8EF" points="302.859749 136.704752 307.105124 130.552797 318.08458 135.479006 314.597647 144.822546"></polyline>
                <path d="M214.655971,123.835478 C214.655971,123.835478 232.555421,115.604716 248.323204,129.622138 C264.089931,143.640615 274.758827,156.665615 280.546439,160.880238 L304.30005,133.571763 L317.568565,139.796567 C314.071068,159.57531 304.252515,191.118467 280.22426,194.366007 C254.228068,197.878545 216.109476,165.853957 216.109476,165.853957" id="Fill-109" fill="#B9B5B2"></path>
                <line x1="272.83906" y1="169.954135" x2="280.547073" y2="160.880872" id="Stroke-111" stroke="#846A6A" stroke-width="1.056"></line>
                <path d="M310.81621,396.00076 L308.80919,403.71314 C308.321167,405.587127 309.736644,407.416771 311.673947,407.416771 L335.061012,407.416771 C336.466983,407.416771 337.606759,406.276543 337.606759,404.870261 C337.606759,403.763817 336.890569,402.783009 335.835299,402.446219 L319.849913,396.00076" id="Fill-113" fill="#000000"></path>
                <path d="M297.33569,275.49475 C293.601576,314.716503 310.816527,396.001077 310.816527,396.001077 C310.816527,396.001077 314.906622,400.941012 319.849173,396.001077 C319.849173,396.001077 323.996311,318.500372 328.366333,283.656887" id="Fill-115" fill="#FFCBBB"></path>
                <path d="M241.546976,229.55135 L268.38506,243.619449 L268.38506,243.893948 C268.38506,243.893948 323.159806,240.218822 331.443517,259.763185 C344.413092,290.36671 346.620814,389.908667 346.620814,389.908667 L306.532173,389.908667 C306.532173,389.908667 291.61262,306.298237 286.51162,301.199937 C281.41062,296.102693 260.375993,296.47749 221.697548,296.47749 C178.251902,296.47749 199.459766,240.490155 215.635291,235.686414" id="Fill-117" fill="#9ACA3C"></path>
                <path d="M309.309149,389.908456 C309.309149,389.908456 297.395901,303.635381 288.638955,297.308168 C277.947876,289.584175 227.460759,294.628631 227.460759,294.628631" id="Stroke-119" stroke="#FFFFFF" stroke-width="1.056"></path>
                <path d="M226.753231,396.00076 L224.746211,403.71314 C224.259245,405.587127 225.673666,407.416771 227.610968,407.416771 L250.998034,407.416771 C252.40506,407.416771 253.544836,406.276543 253.544836,404.870261 C253.544836,403.763817 252.828647,402.783009 251.772321,402.446219 L235.787991,396.00076" id="Fill-121" fill="#000000"></path>
                <path d="M230.647907,275.49475 C226.913793,314.716503 226.753231,396.001077 226.753231,396.001077 C226.753231,396.001077 230.844383,400.941012 235.787991,396.001077 C235.787991,396.001077 249.858257,318.500372 254.228279,283.656887" id="Fill-123" fill="#FFCBBB"></path>
                <path d="M194.205176,241.868987 C194.205176,241.868987 264.610383,243.002881 273.820492,264.325155 C285.146423,290.544079 266.476912,389.908667 266.476912,389.908667 L224.040057,389.908667 L224.040057,301.014122 C224.040057,299.290054 222.692185,297.743355 220.967204,297.789809 C215.09086,297.947118 201.977625,297.947118 185.326753,297.947118 C141.88005,297.947118 163.087914,230.366403 179.26344,225.562662" id="Fill-125" fill="#9ACA3C"></path>
                <path d="M194.205176,241.868987 C194.205176,241.868987 264.610383,243.002881 273.820492,264.325155 C276.890177,271.430469 278.484173,283.529561 277.663408,297.947118" id="Stroke-127" stroke="#FFFFFF" stroke-width="1.056"></path>
                <path d="M229.955696,389.908456 C229.955696,389.908456 230.386677,300.671843 228.337404,295.905053 C225.488492,289.280114 215.757613,292.533989 193.188145,292.533989 C149.742499,292.533989 167.441247,230.367247 183.616772,225.562451" id="Stroke-129" stroke="#FFFFFF" stroke-width="1.056"></path>
                <path d="M167.155299,252.732937 C167.155299,252.732937 189.45963,253.27349 192.838818,249.895035 C196.219062,246.517635 192.838818,231.206899 192.838818,231.206899" id="Stroke-131" stroke="#FFFFFF" stroke-width="1.056"></path>
                <path d="M166.609178,255.724981 C166.609178,255.724981 192.072981,256.265534 195.931741,252.882856 C199.789445,249.500178 195.931741,234.16727 195.931741,234.16727" id="Stroke-133" stroke="#FFFFFF" stroke-width="1.056" stroke-dasharray="3.167999863624573,2.11200008392334"></path>
                <path d="M162.309085,148.983114 C162.309085,148.983114 156.964074,243.89342 165.05659,243.89342 C173.14805,243.89342 263.111139,243.619976 268.385376,243.619976 C273.659614,243.619976 261.31961,162.453648 243.549031,145.309044 C243.549031,145.309044 217.193689,116.727314 205.580437,119.464918 C193.967185,122.202522 162.309085,148.983114 162.309085,148.983114" id="Fill-135" fill="#B9B5B2"></path>
                <line x1="262.673926" y1="192.154175" x2="251.502218" y2="146.38561" id="Stroke-137" stroke="#846A6A" stroke-width="1.056"></line>
                <path d="M116.798849,166.171321 L92.6227079,130.070417 L85.1322978,131.629785 C90.8554739,150.898592 94.6371222,158.522288 94.6371222,158.522288" id="Fill-139" fill="#FFCBBB"></path>
                <path d="M88.9856706,137.606377 L85.1321921,131.629679 C85.1321921,131.629679 77.9586799,129.979515 75.3527229,128.650304 C72.7467658,127.320037 71.0080526,124.961453 70.2823564,122.972388 C69.7256724,121.445749 69.9675711,116.962961 70.6203808,116.891169 C72.1626173,116.722246 75.2386396,122.46562 76.6784124,122.806632 C78.1181852,123.148701 82.7892603,122.793963 85.3561333,123.129697 C89.6807334,123.694533 91.505009,127.7434 91.505009,127.7434 L95.4567258,134.907836" id="Fill-141" fill="#FFCBBB"></path>
                <polyline id="Fill-143" fill="#E6E8EF" points="100.997791 140.641708 96.7524157 134.489753 85.7729597 139.414907 89.259893 148.759502"></polyline>
                <path d="M195.553365,124.378353 C195.553365,124.378353 177.863068,111.804166 159.592847,127.246873 C142.565923,141.638036 131.223091,170.683248 127.415034,170.683248 C124.772106,170.683248 108.389541,149.802284 98.6111276,137.021166 L86.9767492,143.235412 C94.307654,165.610286 110.291984,203.669639 134.209325,203.669639 C152.974963,203.669639 191.504466,159.737053 191.504466,159.737053" id="Fill-145" fill="#B9B5B2"></path>
                <line x1="160.767905" y1="189.618855" x2="189.281322" y2="165.853535" id="Stroke-147" stroke="#846A6A" stroke-width="1.056"></line>
                <g id="Group-152" transform="translate(197.256058, 123.777622)">
                    <polyline id="Fill-149" fill="#E6E8EF" points="3.00226004e-14 2.8410696 17.0015725 21.0456639 19.2261958 0"></polyline>
                    <polyline id="Stroke-151" stroke="#846A6A" stroke-width="1.056" stroke-linejoin="round" points="3.00226004e-14 2.8410696 17.0015725 21.0456639 19.2261958 0"></polyline>
                </g>
                <path d="M210.909815,108.242324 L215.691804,118.71659 C215.691804,118.71659 217.618544,124.717571 209.647505,127.437228 C200.91063,130.417658 195.552943,124.37867 195.552943,124.37867 L194.292745,107.940374" id="Fill-153" fill="#FFCBBB"></path>
                <path d="M195.093863,118.390675 C195.093863,118.390675 201.385343,126.271977 209.646871,127.437544 L203.645881,136.33555 C198.782555,133.59689 192.839663,122.974816 192.839663,122.974816 L195.093863,118.390675 Z" id="Fill-155" fill="#FFFFFF"></path>
                <path d="M215.190366,117.279691 C215.190366,117.279691 214.182631,122.904819 209.646766,127.437228 L216.482253,132.600985 C218.053011,128.735821 217.873435,122.719004 217.873435,122.719004 L215.190366,117.279691 Z" id="Fill-157" fill="#FFFFFF"></path>
                <path d="M217.99523,91.327349 C217.99523,91.327349 222.509968,108.602868 215.732579,112.970577 C208.955189,117.33723 197.16553,110.693287 196.486313,108.524741 C195.807095,106.356195 192.726847,87.9129978 197.148629,86.528887 C205.008753,84.0700051 215.688213,83.9623169 217.99523,91.327349" id="Fill-159" fill="#FFCBBB"></path>
                <path d="M217.849773,96.9325228 C217.960688,97.4065623 217.667029,97.8806018 217.192738,97.9914573 C216.718448,98.1023129 216.244157,97.8088096 216.133243,97.3347701 C216.022329,96.8617864 216.315988,96.3866911 216.790278,96.2758356 C217.263512,96.16498 217.738859,96.4584833 217.849773,96.9325228" id="Fill-161" fill="#173789"></path>
                <path d="M216.341023,91.7840739 C216.638907,91.8273604 217.965652,91.9635543 217.68467,92.6202416 C217.561079,92.9095218 217.09524,92.9031872 216.839609,92.8884064 C216.568133,92.8725699 216.28715,92.8324508 216.037857,92.9232468 C216.107574,93.0003178 216.164616,93.0921695 216.205813,93.1914116 C216.285037,93.3877843 215.632228,93.4088997 215.559341,93.4088997 C214.908644,93.4099554 214.121681,93.2874864 213.329436,93.8185374 C213.840698,91.9487736 215.856169,91.7133375 216.341023,91.7840739" id="Fill-163" fill="#173789"></path>
                <path d="M206.987358,99.3234133 C207.013767,99.8090662 207.429959,100.180696 207.915869,100.154302 C208.401779,100.126852 208.774663,99.7119356 208.747198,99.2262827 C208.72079,98.739574 208.304597,98.3679439 207.818687,98.3953939 C207.332777,98.421788 206.959894,98.8377603 206.987358,99.3234133" id="Fill-165" fill="#173789"></path>
                <path d="M204.374852,95.8349472 C203.737887,96.1770158 203.207611,96.6404976 203.350216,97.169437 C203.464299,97.5927996 203.881548,97.4819441 204.140348,97.2771252 C204.569216,96.9361124 205.060408,96.6732264 205.582233,96.5064151 C205.349841,96.6953975 205.215688,96.9994584 205.232589,97.2992963 C206.878345,97.1367082 208.312837,95.7167013 208.491356,94.0739275 C208.47868,94.1911176 207.412847,94.8478048 207.257567,94.919597 C206.327999,95.3492943 205.299138,95.3376808 204.374852,95.8349472" id="Fill-167" fill="#173789"></path>
                <path d="M213.45778,97.9629516 C213.45778,97.9629516 215.864091,104.024111 215.005298,104.551995 C214.147561,105.080934 211.125411,105.003863 211.125411,105.003863" id="Stroke-169" stroke="#EF977F" stroke-width="1.056"></path>
                <path d="M213.549152,113.971656 C213.549152,113.971656 206.678805,116.62691 200.65352,111.804166" id="Stroke-171" stroke="#EF977F" stroke-width="1.056"></path>
                <path d="M209.647188,109.916137 C209.647188,109.916137 210.257745,107.24399 214.656288,107.24399" id="Stroke-173" stroke="#EF977F" stroke-width="1.056"></path>
                <path d="M221.817652,82.0543343 C221.748991,81.235059 221.614837,80.3598279 221.050759,79.7601521 C220.402175,79.0707361 219.365919,78.9366537 218.418394,78.9292633 C215.105754,78.9049807 211.792059,79.9618037 209.104765,81.8991365 C209.84208,81.2593416 210.577283,80.6184909 211.315656,79.9765844 C211.899804,79.4698162 213.205423,78.6695446 212.575853,77.7225214 C212.023394,76.8895211 210.448412,77.3635605 209.647716,77.3530029 C205.866068,77.3065491 202.21646,78.6558196 198.735865,79.9892536 C197.019335,80.6469966 195.292241,81.316353 193.739442,82.3013839 C192.187698,83.2864147 190.803911,84.6198487 190.057088,86.2995743 C189.403222,87.7702581 189.270125,89.4193665 189.281744,91.0294115 C189.302871,93.925381 189.757091,96.7970679 190.211312,99.6571413 C190.704616,102.773766 191.453551,108.920443 195.645054,109.294185 C196.456313,109.365977 197.347852,109.417709 198.005944,108.938391 C198.656641,108.465407 198.88692,107.608124 198.984102,106.809964 C199.143607,105.508203 199.05065,104.181104 198.737978,102.908904 C199.524941,103.334379 200.266482,104.04491 201.147458,103.917162 C201.437948,103.874931 201.733719,103.714455 201.837239,103.439955 C201.903788,103.264698 201.883718,103.070437 201.863647,102.884622 C201.536186,99.898912 201.357667,96.9300945 201.166472,93.9317156 C205.454101,93.0248116 209.769194,92.2445996 214.103301,91.5910797 C216.025815,91.3017995 218.061356,90.9892924 219.552888,89.743487 C221.686668,87.9602962 222.0511,84.8246675 221.817652,82.0543343" id="Fill-175" fill="#000000"></path>
                <path d="M199.659517,104.064547 C198.947553,102.306695 197.703201,100.190937 195.755335,101.382898 C195.065554,101.80415 194.683163,102.704719 194.4138,103.576783 C193.521205,106.478031 195.603224,110.951317 198.453192,110.537456 C199.842261,110.335804 200.612323,108.687752 201.178514,107.330035" id="Fill-177" fill="#FFCBBB"></path>
                <path d="M458.623494,292.674723 C458.611899,283.27206 462.639671,273.930631 469.485722,267.482005 C472.861741,264.302034 476.901133,261.847375 481.248973,260.243665 C483.702819,259.340984 495.456562,258.455195 495.456562,258.455195 C495.456562,258.455195 494.087563,267.419715 491.745687,271.936287 C486.287649,282.470732 475.494107,291.325452 458.623494,292.674723" id="Fill-179" fill="#8EBCA2"></path>
                <path d="M493.193488,319.432826 C497.440977,314.223671 503.583514,310.593943 510.196117,309.379811 C516.80872,308.165678 523.840685,309.379811 529.663155,312.738206 C529.853294,312.848006 530.057165,312.981033 530.108925,313.193242 C530.170192,313.44557 529.987448,313.686285 529.81421,313.87949 C524.351947,319.993438 515.883378,323.288488 507.723257,322.475547 C504.139142,322.118698 496.618098,320.546661 493.193488,319.432826" id="Fill-181" fill="#A2CCB6"></path>
                <path d="M502.637468,305.13362 C502.645919,296.933476 505.373354,289.574779 510.188089,284.758369 C515.003881,279.941959 521.86789,277.706899 529.193513,278.571573 C529.43013,278.600078 529.699493,278.647588 529.890688,278.866132 C530.118855,279.125851 530.130474,279.497481 530.117798,279.809988 C529.699493,289.680356 524.747435,297.85305 517.194702,301.133318 C513.877837,302.573385 506.345174,304.646912 502.637468,305.13362" id="Fill-183" fill="#8EBCA2"></path>
                <path d="M515.374229,290.468275 C518.623489,285.236948 522.576262,280.442709 527.095226,276.255536 C528.911051,274.571587 530.835678,272.975267 533.016992,271.803366 C540.083815,268.01105 548.799563,269.185063 556.397719,271.752689 C553.376626,277.489728 549.434416,283.103242 543.638353,286.010825 C541.073593,287.29675 538.259539,287.9925 535.460274,288.616459 C529.900829,289.852762 521.022406,289.732405 515.374229,290.468275" id="Fill-185" fill="#A2CCB6"></path>
                <path d="M511.335682,276.77529 C497.198867,269.374362 495.111566,253.939045 494.754527,248.229456 C494.531643,244.652517 494.764034,240.675442 497.7471,238.098314 C515.263103,244.261883 519.733477,256.11287 511.335682,276.77529" id="Fill-187" fill="#8EBCA2"></path>
                <path d="M450.421567,274.550367 C451.516978,267.031192 452.531051,258.955629 449.10961,252.170213 C447.883215,249.737725 446.136051,247.602964 444.237833,245.648739 C439.639644,240.919957 433.625978,237.009396 427.028164,236.999894 C425.841909,244.042917 427.274288,251.495578 430.985162,257.597912 C434.696037,263.702358 440.65583,268.405801 447.456459,270.597574" id="Fill-189" fill="#8EBCA2"></path>
                <path d="M491.53157,323.718819 C483.650319,321.086791 476.955323,315.091089 473.475784,307.548688 C469.996245,300.006287 469.781811,291.023819 472.896917,283.324109 C473.035296,282.983096 473.21804,282.607243 473.568741,282.494276 C473.90254,282.388699 474.254296,282.562901 474.557462,282.737102 C486.751693,289.741062 495.094559,310.120537 491.53157,323.718819" id="Fill-191" fill="#A2CCB6"></path>
                <path d="M458.39757,282.1975 C456.122244,275.622181 456.242665,268.247647 458.732426,261.750456 C461.223243,255.25432 466.064387,249.685148 472.151996,246.314083 C474.633306,244.939474 477.333276,243.904822 479.533604,242.115297 C480.279371,245.418793 480.780069,248.778244 481.032531,252.155643 C481.281824,255.496091 481.279712,258.905163 480.391341,262.134755 C478.098057,270.483762 470.398494,276.160623 462.663016,280.059571" id="Fill-193" fill="#A2CCB6"></path>
                <path d="M448.184057,280.930368 C435.489127,282.467565 419.858666,277.347094 413.073882,265.395809 C434.779275,254.369376 448.184057,271.239481 448.184057,280.930368" id="Fill-195" fill="#A2CCB6"></path>
                <path d="M455.589644,309.240133 C452.743901,299.496457 445.252434,291.504299 436.228238,288.585103 C427.204042,285.663795 416.903804,287.898854 409.607758,294.360149 C409.304592,294.628314 408.978188,294.971439 409.005652,295.395857 C409.022553,295.64713 409.165157,295.865673 409.305649,296.067325 C414.156299,303.077619 421.897059,307.218338 429.813168,308.963522 C437.729278,310.709761 445.902075,310.291677 453.960789,309.688834" id="Fill-197" fill="#A2CCB6"></path>
                <path d="M439.269296,257.287939 C444.221354,262.151859 447.818145,268.186624 450.557199,274.52545 C453.48428,281.301364 455.60327,288.445741 457.43494,295.584839 C461.329615,310.75727 463.546844,326.28655 465.114433,341.853838 C465.994353,350.595591 466.568994,359.373239 467.562997,368.102323 C467.595743,368.385268 468.03095,368.400049 468.017218,368.102323 C467.678137,360.175622 466.967229,352.24681 466.192942,344.351783 C465.423936,336.495819 464.51127,328.65358 463.316565,320.850405 C462.118691,313.028225 460.640891,305.240886 458.722602,297.561236 C456.924735,290.369349 454.830039,283.176407 451.992747,276.318143 C449.046653,269.199105 445.160428,262.375681 439.484787,257.071507 C439.341126,256.937424 439.127748,257.149633 439.269296,257.287939" id="Fill-199" fill="#597F6E"></path>
                <path d="M462.613686,317.414094 C458.873234,311.226242 452.96837,307.000006 446.589215,303.843262 C439.521336,300.346561 431.92318,297.903515 424.126435,296.695718 C419.850426,296.032696 415.402236,295.590329 411.075523,295.937677 C410.828343,295.957736 410.824118,296.31353 411.075523,296.325143 C414.992382,296.514126 418.883888,296.635539 422.773281,297.185594 C426.529578,297.7177 430.249959,298.527474 433.89006,299.600133 C437.600934,300.692852 441.230472,302.063238 444.736419,303.699677 C447.97089,305.208369 451.149376,306.893373 454.01202,309.037636 C457.223252,311.445841 459.878857,314.391432 462.164747,317.675924 C462.35383,317.947256 462.789036,317.70443 462.613686,317.414094" id="Fill-201" fill="#597F6E"></path>
                <path d="M458.772038,298.892769 C458.810066,293.057544 458.177326,287.250824 458.694926,281.414543 C459.176611,275.992122 460.604764,270.538029 462.92657,265.608652 C464.20895,262.881605 465.84203,260.434336 467.564899,257.975455 C467.682151,257.809699 467.423351,257.616494 467.287085,257.760078 C465.456471,259.669961 464.015642,262.036991 462.830444,264.387129 C461.62095,266.786888 460.652299,269.307004 459.894913,271.883076 C458.295635,277.327668 457.790711,282.92429 457.915357,288.582146 C457.991413,292.015501 458.161482,295.478418 458.532252,298.892769 C458.549153,299.042688 458.770982,299.050078 458.772038,298.892769" id="Fill-203" fill="#597F6E"></path>
                <path d="M429.313526,269.476666 C433.182849,269.878913 436.733162,272.048515 439.844043,274.246622 C443.560199,276.873371 446.943613,279.944598 450.284773,283.025327 C452.000247,284.607922 453.662905,286.270755 455.470279,287.748829 C455.636122,287.883968 455.867458,287.66648 455.709009,287.50917 C452.571719,284.362984 449.20732,281.368828 445.820738,278.493974 C442.478521,275.657127 438.942997,272.85301 434.95114,270.983246 C433.169117,270.148134 431.286744,269.511506 429.313526,269.368853 C429.244865,269.364755 429.246977,269.469276 429.313526,269.476666" id="Fill-205" fill="#597F6E"></path>
                <path d="M486.585216,342.307079 C487.713373,336.325102 489.176385,330.479319 491.436923,324.815127 C493.675279,319.203725 496.536867,313.842539 499.912886,308.835035 C506.669149,298.812636 515.52222,290.197576 525.778093,283.788013 C528.644962,281.996376 531.622746,280.377885 534.690318,278.954711 C537.807537,277.507254 541.018769,276.375471 544.234227,275.17612 C544.538449,275.064208 544.423309,274.599671 544.097961,274.683076 C541.179331,275.431615 538.320912,276.595071 535.569182,277.816594 C532.770973,279.061343 530.044595,280.467625 527.403779,282.018547 C522.149612,285.107722 517.238751,288.781792 512.76204,292.915121 C503.77904,301.209228 496.514684,311.398438 491.71685,322.648693 C489.065471,328.867162 486.981339,335.520607 486.195432,342.25429 C486.17008,342.47389 486.54402,342.525623 486.585216,342.307079" id="Fill-207" fill="#597F6E"></path>
                <path d="M503.754639,250.05435 C509.41021,261.835656 512.779891,275.69788 510.170765,288.719713 C509.415492,292.491969 508.069732,296.019287 506.413413,299.480092 C506.260245,299.797878 506.70179,300.067099 506.889816,299.759871 C510.45703,293.944705 511.784832,286.729592 511.804902,279.989574 C511.827085,273.13131 510.515128,266.293106 508.331701,259.806472 C507.178193,256.382619 505.771166,253.053784 504.131748,249.833694 C504.003932,249.581366 503.634218,249.803077 503.754639,250.05435" id="Fill-209" fill="#597F6E"></path>
                <path d="M513.423511,332.049456 L513.423511,344.418824 C513.423511,393.464491 500.503584,407.416455 500.503584,407.416455 L460.49628,407.416455 C460.49628,407.416455 447.575296,393.464491 447.575296,344.418824 L447.575296,332.049456 L513.423511,332.049456 Z" id="Fill-211" fill="#F2F5F9"></path>
                <line x1="83.837136" y1="407.416244" x2="117.762113" y2="244.84076" id="Stroke-213" stroke="#544943" stroke-width="1.584"></line>
                <line x1="151.68804" y1="407.416244" x2="117.762007" y2="244.84076" id="Stroke-215" stroke="#544943" stroke-width="1.584"></line>
                <line x1="426.480881" y1="407.416244" x2="460.405858" y2="244.84076" id="Stroke-217" stroke="#544943" stroke-width="1.584"></line>
                <line x1="494.331257" y1="407.416244" x2="460.406281" y2="244.84076" id="Stroke-219" stroke="#544943" stroke-width="1.584"></line>
                <polygon id="Fill-221" fill="#E7EAF2" points="84.9345535 244.84076 490.166691 244.84076 490.166691 235.113977 84.9345535 235.113977"></polygon>
                <path d="M470.635111,216.572909 L327.43423,216.572909 C324.878977,216.572909 322.944843,214.265002 323.391669,211.752276 L339.846065,119.252287 C340.366834,116.322532 342.915749,114.187771 345.893533,114.187771 L489.09547,114.187771 C491.650724,114.187771 493.584857,116.494623 493.136975,119.00946 L476.683636,211.508394 C476.161811,214.439204 473.612895,216.572909 470.635111,216.572909" id="Fill-223" fill="#475577"></path>
                <path d="M473.962962,216.572909 L330.762081,216.572909 C328.206827,216.572909 326.272694,214.265002 326.718464,211.752276 L343.173915,119.252287 C343.694684,116.322532 346.2436,114.187771 349.220327,114.187771 L492.423321,114.187771 C494.978574,114.187771 496.912708,116.494623 496.464825,119.00946 L480.011486,211.508394 C479.489661,214.439204 476.940746,216.572909 473.962962,216.572909" id="Fill-224" fill="#C0CCD8"></path>
                <path d="M447.615647,216.572909 L364.906351,216.572909 C363.431719,216.572909 362.314126,215.240531 362.57187,213.787795 L372.074582,160.363862 C372.375635,158.671467 373.848154,157.438331 375.568909,157.438331 L458.278206,157.438331 C459.752837,157.438331 460.87043,158.77071 460.612687,160.223445 L451.108919,213.647378 C450.806809,215.340829 449.335347,216.572909 447.615647,216.572909" id="Fill-225" fill="#8E9DB2"></path>
                <path d="M449.596259,216.572909 L366.888019,216.572909 C365.412331,216.572909 364.294738,215.240531 364.552482,213.787795 L374.05625,160.363862 C374.357303,158.671467 375.829822,157.438331 377.549521,157.438331 L460.258817,157.438331 C461.733449,157.438331 462.851042,158.77071 462.593299,160.223445 L453.090587,213.647378 C452.788478,215.340829 451.317015,216.572909 449.596259,216.572909" id="Fill-226" fill="#C6D2E0"></path>
                <polygon id="Fill-227" fill="#8E9DB2" points="397.696939 216.572593 431.262765 216.572593 431.262765 185.15296 397.696939 185.15296"></polygon>
                <path d="M421.217841,220.451587 C417.456263,220.451587 413.479194,216.066986 412.335193,210.657234 C411.191191,205.248539 413.312294,200.862882 417.073873,200.862882 C420.836507,200.862882 424.812519,205.248539 425.957577,210.657234 C427.101579,216.066986 424.980475,220.451587 421.217841,220.451587 L421.217841,220.451587 Z M429.34099,185.153066 L397.696622,185.153066 L397.696622,194.177764 L406.336315,230.011559 L439.923268,230.011559 L429.34099,185.153066 Z" id="Fill-228" fill="#475577"></path>
                <path d="M379.184503,230.011243 L454.379094,230.011243 L454.379094,235.113766 L374.078221,235.113766 C374.078221,232.295923 376.364112,230.011243 379.184503,230.011243" id="Fill-229" fill="#475577"></path>
                <polygon id="Fill-230" fill="#C0CCD8" points="394.263878 235.113977 454.378354 235.113977 454.378354 230.011454 394.263878 230.011454"></polygon>
                <path d="M423.039581,220.451587 C419.276947,220.451587 415.300934,216.066986 414.155877,210.657234 C413.011875,205.248539 415.134035,200.862882 418.895613,200.862882 C422.657191,200.862882 426.63426,205.248539 427.778261,210.657234 C428.922263,216.066986 426.801159,220.451587 423.039581,220.451587 L423.039581,220.451587 Z M431.284208,185.153066 L397.697256,185.153066 L408.278477,230.011559 L441.865429,230.011559 L431.284208,185.153066 Z" id="Fill-231" fill="#C0CCD8"></path>
                <g id="Group-237" transform="translate(350.862598, 123.297775)" fill="#8E9DB2">
                    <polygon id="Fill-232" points="1.98906251 0 0 11.1805749 1.98906251 11.1805749 3.97812501 0"></polygon>
                    <polygon id="Fill-233" points="7.74625235 0 5.75718984 11.1805749 7.74625235 11.1805749 9.73531485 0"></polygon>
                    <polygon id="Fill-234" points="13.5023859 0 11.5133234 11.1805749 13.5023859 11.1805749 15.4914484 0"></polygon>
                    <polygon id="Fill-235" points="19.2595757 0 17.2705132 11.1805749 19.2595757 11.1805749 21.2486382 0"></polygon>
                    <polygon id="Fill-236" points="25.0157092 0 23.0266467 11.1805749 25.0157092 11.1805749 27.0047717 0"></polygon>
                </g>
                <g id="Group-248" transform="translate(426.420882, 123.297775)" fill="#8E9DB2">
                    <polygon id="Fill-238" points="1.98906251 0 0 11.1805749 1.98906251 11.1805749 3.97812501 0"></polygon>
                    <polygon id="Fill-239" points="8.03811531 0 6.04905281 11.1805749 8.03811531 11.1805749 10.0271778 0"></polygon>
                    <polygon id="Fill-240" points="14.0883301 0 12.0992676 11.1805749 14.0883301 11.1805749 16.0773926 0"></polygon>
                    <polygon id="Fill-241" points="20.1373829 0 18.1483204 11.1805749 20.1373829 11.1805749 22.1264454 0"></polygon>
                    <polygon id="Fill-242" points="26.1875977 0 24.1985352 11.1805749 26.1875977 11.1805749 28.1766602 0"></polygon>
                    <polygon id="Fill-243" points="32.2366505 0 30.247588 11.1805749 32.2366505 11.1805749 34.225713 0"></polygon>
                    <polygon id="Fill-244" points="38.2868652 0 36.2978027 11.1805749 38.2868652 11.1805749 40.2759277 0"></polygon>
                    <polygon id="Fill-245" points="44.335918 0 42.3468555 11.1805749 44.335918 11.1805749 46.3249806 0"></polygon>
                    <polygon id="Fill-246" points="50.3861328 0 48.3970703 11.1805749 50.3861328 11.1805749 52.3751953 0"></polygon>
                    <polygon id="Fill-247" points="56.4351856 0 54.4461231 11.1805749 56.4351856 11.1805749 58.4242481 0"></polygon>
                </g>
                <g id="Group-251" transform="translate(195.759783, 180.623700)">
                    <mask id="mask-2" fill="white">
                        <use xlink:href="#path-1"></use>
                    </mask>
                    <g id="Clip-250"></g>
                    <path d="M3.32245125,29.1444729 C3.32245125,29.1444729 4.25624374,28.9723829 4.63652122,28.4444992 C5.4213717,27.3549475 4.12209029,26.2009939 3.27597289,25.6604411 C2.19112574,24.9689135 0.697480286,24.7324217 0.172486093,23.4000434 C-0.420112986,21.8966309 0.60663622,20.2348533 1.84676335,19.4145222 C2.89041378,18.7240504 4.11575233,18.3756472 5.28721825,17.9364481 C6.59178129,17.4455163 7.91324554,16.6610812 8.68013847,15.4363913 C9.63611381,13.9086961 9.44386241,11.9418017 9.56850892,10.2198454 C10.0586443,3.48088321 16.9501174,0.141491472 22.7567433,0.00318596543 C25.6584718,-0.0654389042 30.0929298,0.973436045 32.0238943,3.22855484 C32.6693097,3.98448417 33.1626141,4.88294208 33.3474713,5.86586137 C33.634792,7.3851104 33.0464182,8.78928081 32.0576968,9.92423058 C31.0636937,11.065515 29.6925821,11.7285368 28.6035096,12.7536867 C27.4785221,13.813677 28.2792175,14.9306788 28.0225302,16.1933764 C27.7362657,17.5986025 26.7940226,18.1972226 25.5739657,18.8781924 C22.9965294,20.3140358 19.9659291,20.6719409 17.1613827,21.4521529 C16.2899134,21.6949794 15.407881,21.99165 14.7011986,22.558597 C13.78642,23.293411 13.2677638,24.3987992 12.572701,25.3458224 C11.3103911,27.0698903 9.3910461,28.2998591 7.29740728,28.7285006" id="Fill-249" fill="url(#linearGradient-3)" mask="url(#mask-2)"></path>
                </g>
                <path d="M215.231563,226.730551 L209.724934,226.730551 L209.724934,224.105914 L215.231563,224.105914 C217.005135,224.105914 218.449133,222.66268 218.449133,220.890047 L218.449133,216.366085 C218.449133,214.593451 217.005135,213.151273 215.231563,213.151273 L209.724934,213.151273 L209.724934,210.52558 L215.231563,210.52558 C218.453358,210.52558 221.07516,213.145995 221.07516,216.366085 L221.07516,220.890047 C221.07516,224.110137 218.453358,226.730551 215.231563,226.730551" id="Fill-252" fill="#E8EAEF"></path>
                <path d="M207.384431,233.638331 L198.100379,233.638331 C194.52894,233.638331 191.632493,230.743417 191.632493,227.172812 L191.632493,206.807063 L213.853374,206.807063 L213.853374,227.172812 C213.853374,230.743417 210.956927,233.638331 207.384431,233.638331" id="Fill-253" fill="#E8EAEF"></path>
                <path d="M188.036336,229.890568 C188.036336,229.890568 188.251826,235.113449 196.373919,235.113449 L209.111102,235.113449 C217.234252,235.113449 217.448686,229.890568 217.448686,229.890568 L188.036336,229.890568 Z" id="Fill-254" fill="#C6D2E0"></path>
                <polygon id="Fill-255" fill="#475577" points="249.046471 235.113977 366.595523 235.113977 366.595523 233.025669 249.046471 233.025669"></polygon>
                <polygon id="Fill-256" fill="#475577" points="253.064736 233.025669 261.488939 233.025669 261.488939 231.34172 253.064736 231.34172"></polygon>
                <polygon id="Fill-257" fill="#475577" points="265.816708 233.025669 274.24091 233.025669 274.24091 231.34172 265.816708 231.34172"></polygon>
                <polygon id="Fill-258" fill="#475577" points="278.567623 233.025669 286.991826 233.025669 286.991826 231.34172 278.567623 231.34172"></polygon>
                <polygon id="Fill-259" fill="#475577" points="291.318538 233.025669 299.742741 233.025669 299.742741 231.34172 291.318538 231.34172"></polygon>
                <polygon id="Fill-260" fill="#475577" points="304.069454 233.025669 312.493656 233.025669 312.493656 231.34172 304.069454 231.34172"></polygon>
                <polygon id="Fill-261" fill="#475577" points="316.820369 233.025669 325.244571 233.025669 325.244571 231.34172 316.820369 231.34172"></polygon>
                <polygon id="Fill-262" fill="#475577" points="329.57234 233.025669 337.996543 233.025669 337.996543 231.34172 329.57234 231.34172"></polygon>
                <polygon id="Fill-263" fill="#475577" points="342.323256 233.025669 350.747458 233.025669 350.747458 231.34172 342.323256 231.34172"></polygon>
                <polygon id="Fill-264" fill="#475577" points="355.074171 233.025669 363.498374 233.025669 363.498374 231.34172 355.074171 231.34172"></polygon>
                <polygon id="Fill-265" fill="#C0CCD8" points="250.584482 235.113977 368.133534 235.113977 368.133534 233.025669 250.584482 233.025669"></polygon>
                <polygon id="Fill-266" fill="#C0CCD8" points="254.603804 233.025669 263.028006 233.025669 263.028006 231.34172 254.603804 231.34172"></polygon>
                <polygon id="Fill-267" fill="#C0CCD8" points="267.354719 233.025669 275.778921 233.025669 275.778921 231.34172 267.354719 231.34172"></polygon>
                <polygon id="Fill-268" fill="#C0CCD8" points="280.105634 233.025669 288.529837 233.025669 288.529837 231.34172 280.105634 231.34172"></polygon>
                <polygon id="Fill-269" fill="#C0CCD8" points="292.857606 233.025669 301.281808 233.025669 301.281808 231.34172 292.857606 231.34172"></polygon>
                <polygon id="Fill-270" fill="#C0CCD8" points="305.608521 233.025669 314.032724 233.025669 314.032724 231.34172 305.608521 231.34172"></polygon>
                <polygon id="Fill-271" fill="#C0CCD8" points="318.359436 233.025669 326.783639 233.025669 326.783639 231.34172 318.359436 231.34172"></polygon>
                <polygon id="Fill-272" fill="#C0CCD8" points="331.110352 233.025669 339.535611 233.025669 339.535611 231.34172 331.110352 231.34172"></polygon>
                <polygon id="Fill-273" fill="#C0CCD8" points="343.861267 233.025669 352.286526 233.025669 352.286526 231.34172 343.861267 231.34172"></polygon>
                <polygon id="Fill-274" fill="#C0CCD8" points="356.612182 233.025669 365.037441 233.025669 365.037441 231.34172 356.612182 231.34172"></polygon>
                <path d="M83.3187967,313.9251 C84.779696,308.131049 84.1311117,301.827063 81.5188166,296.452152 C78.9065216,291.076185 74.3516424,286.669413 68.8914915,284.233758 C66.6668682,283.242393 64.2795707,282.555088 62.2641,281.186814 C61.8700903,284.070114 61.6894585,286.980864 61.7243173,289.889503 C61.759176,292.767524 62.0126944,295.684609 63.0119791,298.382095 C65.5925843,305.358604 72.6023659,309.646075 79.5107402,312.410074" id="Fill-275" fill="#8EBCA2"></path>
                <path d="M84.1656535,332.629916 C84.2976943,327.328909 84.2226952,321.960333 83.8170658,316.673051 C83.6385467,314.34614 83.3945353,311.990723 82.8029926,309.727158 C82.0836343,306.966327 81.0494908,304.263563 79.7671106,301.715996 C78.2977607,298.795744 76.4143308,295.83115 73.9309076,293.661548 C73.7566137,293.509518 73.5347852,293.737563 73.6795019,293.911765 C75.5618755,296.17533 77.3143209,298.449452 78.7171223,301.049807 C80.1262616,303.661775 81.2005455,306.438443 82.0287053,309.284792 C83.4283378,314.094867 83.4473516,319.295576 83.5962936,324.265073 C83.6797434,327.049131 83.6628422,329.85536 83.9258675,332.629916 C83.940656,332.781947 84.1614282,332.78617 84.1656535,332.629916" id="Fill-276" fill="#597F6E"></path>
                <path d="M66.8987319,350.336716 C65.8836022,342.323443 61.4332994,334.803213 54.8967519,330.054372 C51.6739003,327.712681 47.9651385,326.061461 44.0852518,325.169337 C41.8965436,324.666792 31.7853879,325.192564 31.7853879,325.192564 C31.7853879,325.192564 33.9297303,332.681121 36.4163225,336.276009 C42.2155542,344.654577 52.3774136,351.022965 66.8987319,350.336716" id="Fill-277" fill="#8EBCA2"></path>
                <path d="M58.0561184,324.530176 C57.7930931,319.681037 56.9015537,314.86885 55.4100209,310.262538 C54.8110839,308.410722 54.1086268,306.578966 53.0787087,304.943582 C49.7428301,299.64891 43.4936034,297.171024 37.4841628,296.081472 C37.41022,301.193497 37.9954248,306.568408 40.8063092,310.771417 C42.0506616,312.630623 43.6752915,314.174155 45.3189353,315.663843 C48.5798148,318.618935 54.5533402,321.888646 58.0561184,324.530176" id="Fill-278" fill="#A2CCB6"></path>
                <path d="M92.180424,306.870885 C91.2392373,300.412757 90.367768,293.475311 93.3075243,287.647476 C94.3606816,285.558112 95.860665,283.724245 97.4916329,282.045575 C101.441237,277.984038 106.607729,274.625643 112.273864,274.616141 C113.292162,280.666743 112.062598,287.06786 108.875662,292.3108 C105.687669,297.55374 98.0219087,304.988452 92.180424,306.870885" id="Fill-279" fill="#A2CCB6"></path>
                <path d="M81.7987431,344.394964 C87.8081837,345.638658 94.3098723,344.295722 99.3327041,340.771571 C104.355536,337.24742 107.829793,331.593786 108.701262,325.522069 C108.73929,325.252849 108.762529,324.944564 108.580841,324.742913 C108.407604,324.550763 108.11817,324.532815 107.85937,324.531759 C97.4725134,324.477915 84.5758251,334.390514 81.7987431,344.394964" id="Fill-280" fill="#A2CCB6"></path>
                <path d="M60.428733,321.042238 C68.9860327,316.226883 74.4842113,306.583506 74.6458293,296.102904 C68.4694891,295.75978 63.8184842,299.55843 61.128021,302.83342 C57.3822878,307.392223 57.0653899,315.404441 60.428733,321.042238" id="Fill-281" fill="#A2CCB6"></path>
                <path d="M66.6470093,337.958268 C64.3611191,332.267683 65.079421,325.467486 68.5029747,320.379744 C71.9275847,315.292001 77.9592081,312.064521 84.0943515,312.034928 C84.3489262,312.033904 84.6436412,312.058186 84.7915269,312.266173 C84.8781457,312.389697 84.8908216,312.550174 84.8971595,312.701149 C85.1327203,317.955702 82.8193656,323.076173 79.5035572,327.159881 C76.1898615,331.2457 71.9201904,334.435173 67.6378434,337.491619" id="Fill-282" fill="#A2CCB6"></path>
                <path d="M101.558912,291.842672 C97.1814955,295.921101 94.0220234,301.060576 91.5977544,306.492498 C89.0435573,312.213701 87.2013242,318.256913 85.5967645,324.303291 C82.1277888,337.383192 80.2147817,350.831555 78.8299379,364.273583 C78.0450874,371.897278 77.3172786,379.567427 77.0339524,387.22913 C77.0225635,387.527912 77.4535447,387.511019 77.4873471,387.22913 C78.2922678,380.511283 78.7369812,373.749094 79.3887345,367.01541 C80.0362626,360.325013 80.7925923,353.644118 81.7971586,346.997008 C82.7911617,340.418522 84.0196692,333.872766 85.5957081,327.407247 C87.1073111,321.20567 88.8587002,315.031544 91.1931814,309.085463 C93.6470275,302.830042 96.9575543,296.81428 101.774402,292.059105 C101.914894,291.919743 101.702572,291.709646 101.558912,291.842672" id="Fill-283" fill="#597F6E"></path>
                <path d="M66.6387699,347.00651 C66.6493332,345.822995 66.5373626,344.643703 66.5711651,343.45702 C66.6102491,342.101415 66.7285577,340.74581 66.9165838,339.402874 C67.0929903,338.135954 67.3296074,336.874312 67.6222098,335.629562 C67.8873477,334.506226 68.344737,333.376555 68.4947353,332.234215 C68.5221998,332.025173 68.2295974,331.996667 68.1334717,332.136029 C67.4669298,333.096777 67.2028482,334.425988 66.9313723,335.542989 C66.6218687,336.819412 66.3989839,338.114838 66.2289153,339.416599 C66.0535651,340.756368 65.9405382,342.104583 65.9088484,343.45702 C65.8803276,344.643703 65.8454689,345.914847 66.1285643,347.075135 C66.1982819,347.363359 66.6366573,347.296846 66.6387699,347.00651" id="Fill-284" fill="#597F6E"></path>
                <path d="M67.3506283,303.347896 C64.7932622,305.578732 63.2372935,308.831551 62.1904741,312.000964 C60.9049249,315.893578 60.2985936,320.062802 60.4485919,324.160235 C60.5309854,326.43119 60.791898,328.795053 61.5577346,330.946707 C61.6295648,331.149414 61.9337868,331.071287 61.8841394,330.856967 C60.9609102,326.897839 60.6176041,322.972497 61.0612612,318.918351 C61.4795664,315.083804 62.4820201,311.224975 64.2587611,307.787397 C65.0848083,306.188965 66.1073322,304.659159 67.4266838,303.423911 C67.4773874,303.376401 67.4023883,303.303553 67.3506283,303.347896" id="Fill-285" fill="#597F6E"></path>
                <path d="M69.8402838,376.760775 C69.9902822,372.24737 69.6121173,367.675898 69.1557844,363.188888 C68.6762122,358.482277 67.9726988,353.795727 67.0029913,349.164076 C65.0329426,339.754022 61.9738215,330.478052 57.2953522,322.049862 C56.0087467,319.731397 54.5996073,317.481557 53.0584272,315.323569 C51.523585,313.175083 49.8736033,310.989644 47.9458077,309.175836 C47.70074,308.946735 47.3817294,309.286692 47.5845441,309.537965 C49.0845275,311.394003 50.6563411,313.171915 52.0686494,315.101858 C53.4566622,316.999071 54.7422114,318.9723 55.9284659,321.001485 C58.3453406,325.136925 60.3586986,329.499355 62.0276942,333.986366 C65.3308267,342.873815 67.3346777,352.225801 68.4163559,361.632687 C68.9962791,366.667641 69.151559,371.706818 69.4441614,376.760775 C69.45895,377.014159 69.8318332,377.017327 69.8402838,376.760775" id="Fill-286" fill="#597F6E"></path>
                <path d="M104.790848,356.005342 L104.790848,364.443033 C104.790848,397.900297 93.6930834,407.415927 93.6930834,407.415927 L59.3276184,407.415927 C59.3276184,407.415927 48.2298538,397.900297 48.2298538,364.443033 L48.2298538,356.005342 L104.790848,356.005342 Z" id="Fill-287" fill="#F2F5F9"></path>
                <line x1="29.3578443" y1="407.416244" x2="568.554345" y2="407.416244" id="Stroke-288" stroke="#000000" stroke-width="2.112"></line>
            </g>
        </g>
    </g>
</svg>