<svg xmlns="http://www.w3.org/2000/svg" viewBox="0 0 244.48 82.97"><defs><style>.cls-1{fill:#a1c51e;}.cls-2,.cls-3,.cls-5{fill:#fff;}.cls-3{font-size:15px;letter-spacing:0.12em;}.cls-3,.cls-5{font-family:HelveticaNeueLTStd-LtEx, Helvetica Neue LT Std;}.cls-4{letter-spacing:-0.05em;}.cls-5{font-size:14.89px;letter-spacing:0.12em;}</style></defs><g id="Calque_2" data-name="Calque 2"><g id="Capa_1" data-name="Capa 1"><path class="cls-1" d="M63.24,35.84V29.58l.5-.37A12.55,12.55,0,0,0,65.23,28a13.5,13.5,0,0,0,2.84-4.19,13.31,13.31,0,0,0,0-10.29A13.2,13.2,0,0,0,61,6.41a13.39,13.39,0,0,0-10.29,0,13.92,13.92,0,0,0-4.23,2.84,13.46,13.46,0,0,0-2.86,4.22,13.06,13.06,0,0,0,2.86,14.47A13.21,13.21,0,0,0,48,29.18l.5.37v6.26l-1.87-1.09a18.76,18.76,0,0,1-7.88-8.87,18.3,18.3,0,0,1,0-14.51,19.27,19.27,0,0,1,4-5.9A18.63,18.63,0,0,1,73,11.35a18.24,18.24,0,0,1,1.46,7.25A18.15,18.15,0,0,1,73,25.84a18.58,18.58,0,0,1-7.93,8.92Z"/><path class="cls-2" d="M58.84,50.47h-6V16.81h6Z"/><path class="cls-2" d="M7.46,60.14H1.56V38.44A21.19,21.19,0,0,1,3.26,30,21.78,21.78,0,0,1,14.8,18.44a21.26,21.26,0,0,1,8.45-1.7h3v5.9h-3a15.51,15.51,0,0,0-6.13,1.24A15.66,15.66,0,0,0,8.7,32.31a15.3,15.3,0,0,0-1.24,6.13Z"/><rect class="cls-2" x="11.64" y="35.49" width="14.56" height="5.9"/><path class="cls-2" d="M128.23,60.14H122.9a.29.29,0,0,1-.29-.29V38.51a15.2,15.2,0,0,0-1.23-6.09,16.24,16.24,0,0,0-3.39-5,15.84,15.84,0,0,0-3.82-2.81,15.68,15.68,0,0,0-14.56,0,15.84,15.84,0,0,0-3.82,2.81,16.24,16.24,0,0,0-3.39,5,15.2,15.2,0,0,0-1.23,6.09V59.85a.29.29,0,0,1-.29.29H85.55a.28.28,0,0,1-.28-.29V38.51A21,21,0,0,1,87,30.09a22,22,0,0,1,11.5-11.5,21.7,21.7,0,0,1,16.84,0,22,22,0,0,1,11.5,11.5,21.05,21.05,0,0,1,1.71,8.42V59.85A.29.29,0,0,1,128.23,60.14Z"/><path class="cls-2" d="M161,78.74H158V72.83H161a15.2,15.2,0,0,0,6.09-1.23,16.24,16.24,0,0,0,5-3.39,15.93,15.93,0,0,0,3.38-5,15.21,15.21,0,0,0,1.24-6.09v-3.8a21.53,21.53,0,0,1-5.34,4.14,21.84,21.84,0,0,1-18.8.91,22,22,0,0,1-11.5-11.51,21.56,21.56,0,0,1,0-16.83,22,22,0,0,1,11.5-11.5A21.63,21.63,0,0,1,169,18.36a22.06,22.06,0,0,1,6.66,4.17,22.32,22.32,0,0,1,4.73,6.27,20.48,20.48,0,0,1,2.18,7.83V57.11a21,21,0,0,1-1.7,8.42,22.33,22.33,0,0,1-4.61,6.85A21.38,21.38,0,0,1,161,78.74Zm0-56A15.2,15.2,0,0,0,154.89,24a16,16,0,0,0-8.4,8.4,15.57,15.57,0,0,0,0,12.18,16.24,16.24,0,0,0,3.39,5,15.81,15.81,0,0,0,5,3.38,15.65,15.65,0,0,0,12.18,0,15.84,15.84,0,0,0,8.39-8.39,15.57,15.57,0,0,0,0-12.18,15.93,15.93,0,0,0-3.38-5,16.24,16.24,0,0,0-5-3.39A15.2,15.2,0,0,0,161,22.72Z"/><path class="cls-2" d="M236.76,60.14H193.51v-5.9h43.25Zm-28.23-10h-8.4l26.73-27.3H193.51v-5.9h43.25V21Z"/><text class="cls-3" transform="translate(0 79.67) scale(1.09 1)">Réparez<tspan class="cls-4" x="75.79" y="0"> </tspan><tspan x="79.14" y="0">: c’est</tspan></text><text class="cls-5" transform="translate(185.6 79.69) scale(1.09 1)">mieux</text></g></g></svg>