<?xml version="1.0" encoding="UTF-8"?>
<svg width="114px" height="39px" viewBox="0 0 114 39" version="1.1" xmlns="http://www.w3.org/2000/svg" xmlns:xlink="http://www.w3.org/1999/xlink">
    <title>Group 5</title>
    <g id="✳️--LOT-1---Recherche" stroke="none" stroke-width="1" fill="none" fill-rule="evenodd">
        <g id="Group-5" transform="translate(0.850000, 0.389653)" fill-rule="nonzero">
            <path d="M2.24282227,11.8943788 C3.84931621,9.77067221 6.31469666,8.31150552 8.95718328,7.96042782 C9.89130073,7.82720637 10.8379567,7.8867642 11.7783434,7.87736033 C11.7783434,8.80520854 11.7783434,9.73305674 11.7783434,10.6624723 C10.4680712,10.6467991 9.11704902,10.6170202 7.87573858,11.1028867 C5.07338622,12.0730523 3.02647785,14.8612989 2.97005465,17.8313535 C2.96065078,21.3186208 2.97005465,24.8058882 2.96692003,28.2931555 C2.03123526,28.2947228 1.0955505,28.2931555 0.159865738,28.2947228 C0.156731116,24.8576094 0.153596494,21.4189287 0.161433049,17.9818154 C0.164567672,15.7954163 0.916877028,13.6293923 2.24282227,11.8943788 Z" id="Path" fill="#4D5F68"></path>
            <path d="M24.2948903,7.89303344 C25.2368443,7.89146613 26.1787983,7.89146613 27.1223196,7.89303344 C27.1207523,13.179574 27.1223196,18.4645472 27.1207523,23.7495204 C26.1787983,23.7479531 25.2368443,23.7479531 24.2964576,23.7495204 C24.2917557,18.4629799 24.2948903,13.1780067 24.2948903,7.89303344 Z" id="Path" fill="#4D5F68"></path>
            <path d="M48.0600294,8.06230305 C50.3921884,7.6908503 52.8607035,8.12186087 54.8841022,9.35846937 C57.8337818,11.0950501 59.8383728,14.3879709 59.8775555,17.8297862 C59.8838248,21.0709857 59.869719,24.3137525 59.8838248,27.5565193 C59.8712863,27.7884813 59.9057672,28.0361165 59.8164304,28.2586747 C58.9356015,28.3182325 58.0390996,28.3276363 57.1614053,28.2539727 C57.0360204,28.0423857 57.1065494,27.7775101 57.0846071,27.5471154 C57.0971456,24.7259553 57.0846071,21.9047952 57.0908763,19.0852024 C57.0908763,18.3579701 57.109684,17.6260357 56.9842991,16.9082072 C56.6332214,14.7750967 55.2806319,12.8394675 53.4155316,11.7548881 C51.4485561,10.5778375 48.9204832,10.4211063 46.8202863,11.3332814 C44.204444,12.4288319 42.340911,15.134011 42.3268052,17.9802481 C42.3221032,21.2778707 42.3252379,24.5754934 42.3252379,27.8731161 C42.336209,28.0752992 42.3111321,28.3495787 42.0352853,28.2868863 C41.2171489,28.2931555 40.3958778,28.3292037 39.5824433,28.2618093 C39.4868374,28.0329818 39.5260201,27.7775101 39.5134816,27.5377115 C39.5275875,24.4062238 39.515049,21.2747361 39.5197509,18.1432484 C39.5197509,16.8408129 39.7501456,15.5352427 40.2469833,14.3299804 C41.5478515,11.0872136 44.5962717,8.59989077 48.0600294,8.06230305 Z" id="Path" fill="#4D5F68"></path>
            <path d="M70.4083192,9.0669495 C72.8266804,7.75824468 75.7888984,7.55449423 78.3875003,8.42435192 C81.7384116,9.52303705 84.4169464,12.4664474 85.130073,15.9286378 C85.3777081,16.9646304 85.2977753,18.035104 85.3071791,19.0914717 C85.3071791,21.7511987 85.3087464,24.4124931 85.3087464,27.0722201 C85.3009099,29.177119 84.5564371,31.2491043 83.3057228,32.9339638 C81.7697578,35.0263242 79.403118,36.4948948 76.8389969,36.9070976 C75.8155427,37.0795019 74.7748481,37.0497229 73.7435574,37.0497229 C73.7419901,36.1124709 73.7419901,35.1767861 73.7435574,34.2411013 C74.8250021,34.2379667 75.9283891,34.3053611 76.9816222,34.007572 C79.5081278,33.3571379 81.594219,31.2835852 82.2665955,28.7633488 C82.6051347,27.5784616 82.5032595,26.3355839 82.5220672,25.1193504 C80.6804766,27.0424412 78.0803074,28.2461362 75.4049072,28.2539727 C73.51473,28.3245017 71.6135815,27.8386353 69.9929818,26.865335 C67.5746207,25.4484857 65.7753474,23.0050476 65.1797692,20.2622531 C64.7346528,18.1432484 64.9352687,15.8722146 65.8490111,13.9005371 C66.7846958,11.8473595 68.4099975,10.1186153 70.4083192,9.0669495 M73.4567394,10.892867 C70.4678771,11.577782 68.0683237,14.2766918 67.7924769,17.3392178 C67.4899859,19.9675986 68.7830176,22.6665084 70.9584454,24.1507521 C72.3909678,25.1522639 74.1839718,25.6130534 75.9205526,25.4187068 C78.2339039,25.1836102 80.3779855,23.7620589 81.5268246,21.7449295 C82.2963744,20.4346573 82.6349136,18.8783174 82.4797498,17.3674294 C82.2618935,14.9725779 80.7666787,12.7501307 78.6539432,11.6106955 C77.0929013,10.7298666 75.1980221,10.4822315 73.4567394,10.892867 Z" id="Shape" fill="#4D5F68"></path>
            <path d="M90.4150462,7.93221622 C97.2015035,7.93064891 103.989528,7.93064891 110.777553,7.93221622 C110.775985,8.59048691 110.777553,9.24719028 110.774418,9.90546097 C106.627313,14.1795185 102.480207,18.4504414 98.3346695,22.7244989 C98.0494188,23.0050476 97.8002164,23.3357503 97.4601099,23.5536065 C96.1498377,23.6006259 94.8348637,23.5567412 93.5230242,23.570847 C97.6952065,19.2842509 101.892466,15.0242992 106.067783,10.7408378 C100.850204,10.7408378 95.632625,10.7392705 90.4150462,10.7408378 C90.4134789,9.80515306 90.4134789,8.86790098 90.4150462,7.93221622 Z" id="Path" fill="#4D5F68"></path>
            <path d="M4.89784737,16.6887837 C7.19239091,16.685649 9.48536714,16.6887837 11.7783434,16.6887837 C11.7783434,17.6166319 11.7783434,18.5444801 11.7783434,19.4723283 C9.48536714,19.4738956 7.19239091,19.4738956 4.89784737,19.4738956 C4.89784737,18.5444801 4.89784737,17.6166319 4.89784737,16.6887837 Z" id="Path" fill="#4D5F68"></path>
            <path d="M90.4134789,25.5080436 C97.2015035,25.5080436 103.989528,25.5064763 110.777553,25.5096109 C110.775985,26.4374591 110.775985,27.3653073 110.775985,28.2931555 C103.989528,28.2947228 97.2030708,28.2931555 90.4166135,28.2947228 C90.4119116,27.3653073 90.4134789,26.4358918 90.4134789,25.5080436 Z" id="Path" fill="#4D5F68"></path>
            <path d="M8.85217343,31.7960959 C9.09040473,31.7945286 9.33020333,31.7929613 9.57000194,31.7945286 C9.18914533,32.1283659 8.81299065,32.4669051 8.43213404,32.8007424 C8.31615301,32.7991751 8.08575827,32.7944731 7.97134456,32.7929058 C8.26443175,32.4590686 8.55751893,32.1283659 8.85217343,31.7960959 Z" id="Path" fill="#4D5F68"></path>
            <path d="M-1.78182649e-14,32.0139522 C1.15667564,32.0327599 2.31648589,31.9653655 3.47159422,32.048433 C4.09381675,32.0813466 4.74111626,32.5123571 4.77716442,33.181599 C4.89628006,33.8445716 4.39944243,34.4182075 3.79289301,34.6031502 C4.11262448,34.7254005 4.48877916,34.8648912 4.57341396,35.2426132 C4.7191739,35.8303549 4.69879886,36.4463081 4.81791451,37.0403191 C4.66745263,37.0356171 4.36652889,37.0277806 4.21606702,37.0230787 C4.03425893,36.3460002 4.34928847,35.3413538 3.59384449,34.9604972 C2.6127077,34.7018908 1.57671503,34.8884009 0.572068573,34.833545 C0.572068573,35.5654793 0.572068573,36.2958463 0.570501262,37.0293479 C0.427875947,37.0277806 0.142625316,37.0262133 -1.78182649e-14,37.0262133 C-1.78182649e-14,35.3554596 -1.78182649e-14,33.6847059 -1.78182649e-14,32.0139522 M0.572068573,32.4825782 C0.572068573,33.1095027 0.572068573,33.7364272 0.572068573,34.3633516 C1.53596494,34.3304381 2.50926517,34.4338806 3.4684596,34.3069284 C4.31794225,34.2050532 4.45586563,32.7897712 3.61421953,32.5687803 C2.61427501,32.3854049 1.58455158,32.5248956 0.572068573,32.4825782 Z" id="Shape" fill="#4D5F68"></path>
            <path d="M51.2197287,32.0139522 C51.4485561,32.0123849 51.6773836,32.0108176 51.906211,32.0123849 C51.8874033,32.426155 51.9500957,32.8587329 51.8215762,33.2615319 C51.719701,33.5655902 51.387431,33.6690328 51.1366612,33.81636 C51.2698827,33.5028978 51.4219118,33.2004067 51.553566,32.8885118 C51.0990457,32.8179828 51.2651807,32.3336837 51.2197287,32.0139522 Z" id="Path" fill="#4D5F68"></path>
            <path d="M65.4336736,33.3445994 C65.4336736,32.9559062 65.4352409,32.5703477 65.4368082,32.1847891 C65.5794335,32.1847891 65.8646842,32.1863564 66.0073095,32.1879237 C66.0057422,32.571915 66.0057422,32.9574735 66.0073095,33.3445994 C66.3850315,33.3430321 66.7643208,33.3430321 67.1451774,33.3445994 C67.1451774,33.44334 67.1451774,33.6376866 67.1436101,33.7364272 C66.7643208,33.7348598 66.3865988,33.7348598 66.0088768,33.7348598 C66.0229826,34.5984483 65.9728286,35.4636041 66.0261172,36.3256252 C66.090377,36.8444052 66.7878305,36.6155778 67.1451774,36.6578952 C67.1451774,36.762905 67.1451774,36.9713574 67.1451774,37.0763672 C66.6718494,37.0779345 66.1436656,37.190781 65.7157896,36.9306073 C65.4603179,36.7676069 65.4477794,36.4337697 65.4368082,36.1657595 C65.4227024,35.3570269 65.4415102,34.546727 65.4352409,33.7395618 C65.1468557,33.7364272 64.8584704,33.7332925 64.5732198,33.7332925 C64.5732198,33.6361192 64.5732198,33.44334 64.5732198,33.3461667 C64.8584704,33.3430321 65.1452884,33.3430321 65.4336736,33.3445994 Z" id="Path" fill="#4D5F68"></path>
            <path d="M95.1592971,32.4042127 C95.3489417,32.4026454 95.5401537,32.4042127 95.732933,32.40578 C95.7297983,32.6581171 95.7313656,32.9135888 95.732933,33.1690605 C95.5401537,33.1690605 95.3489417,33.1690605 95.1608644,33.1721951 C95.1577298,32.9151561 95.1577298,32.6581171 95.1592971,32.4042127 Z" id="Path" fill="#4D5F68"></path>
            <path d="M7.05446753,33.6392539 C7.86946933,33.1392816 8.96188521,33.1518201 9.80666593,33.5765614 C10.4476962,33.8994275 10.6812256,34.6313618 10.7345141,35.3006037 C9.42110738,35.3131422 8.10770063,35.2896325 6.79429388,35.3131422 C6.89930373,35.770797 7.09365031,36.2597981 7.55287248,36.4666832 C8.38824933,36.8600783 9.63896363,36.7613377 10.0746761,35.8334895 C10.2157341,35.8334895 10.4947155,35.8350568 10.6342062,35.8350568 C10.1013204,37.1484635 8.35376848,37.4008006 7.19709285,36.8240301 C6.02944603,36.2253173 5.95108047,34.3414093 7.05446753,33.6392539 M6.80526506,34.9025067 C7.92432522,34.9181798 9.04338539,34.9166125 10.1624456,34.904074 C9.83017559,33.2881762 7.14380427,33.2991473 6.80526506,34.9025067 Z" id="Shape" fill="#4D5F68"></path>
            <path d="M12.3018253,33.3461667 C12.4930373,33.3445994 12.6858165,33.3430321 12.8785958,33.3430321 C12.8738939,33.5859653 12.8691919,33.8304658 12.8629227,34.0749664 C13.760992,32.7192422 16.3627285,33.0844257 16.6730561,34.7520448 C16.8313545,35.4730079 16.5758828,36.3083848 15.9411218,36.7237222 C14.9944659,37.3302716 13.5776166,37.2378003 12.8676246,36.3052501 C12.8817304,37.0152421 12.8738939,37.7252341 12.8754612,38.4367933 C12.7328359,38.4383606 12.4475852,38.4399279 12.3049599,38.4414953 C12.300258,36.74253 12.3049599,35.045132 12.3018253,33.3461667 M14.0446753,33.7521003 C13.2343754,33.8743505 12.6576049,34.7301024 12.8879997,35.5278638 C13.1748176,36.8726168 15.2624761,37.0732326 15.9426891,35.9510378 C16.3000361,35.3491903 16.1856223,34.4824673 15.6292269,34.0389182 C15.1872451,33.6925424 14.5791284,33.6392539 14.0446753,33.7521003 Z" id="Shape" fill="#4D5F68"></path>
            <path d="M18.2638769,34.5247847 C18.3579156,33.841437 18.9252823,33.3289263 19.6133319,33.3038493 C20.3860163,33.2552626 21.4126051,33.1471182 21.9266831,33.8586774 C22.1946933,34.6736792 21.9486255,35.563912 22.0661738,36.4071254 C22.0912508,36.7158857 22.5065883,36.5842315 22.7009348,36.6876741 C22.7087714,37.1045788 22.2495492,37.0356171 21.9627313,37.0058382 C21.6618075,36.9964344 21.6179228,36.6578952 21.5348553,36.4447408 C20.9753253,37.0622614 20.0803906,37.1688386 19.2951677,37.0779345 C18.8845322,37.0183767 18.4347139,36.8506744 18.2215595,36.4682505 C17.997434,36.057615 18.1588671,35.493383 18.5836084,35.2864979 C19.3813698,34.8680258 20.3170546,35.0498339 21.1696718,34.8633239 C21.7056923,34.8131699 21.5771727,33.9887643 21.1587007,33.8492736 C20.5772282,33.6376866 19.9095537,33.6439558 19.321812,33.8288985 C18.9848401,33.9182352 18.8908014,34.2771495 18.7669838,34.5561309 C18.5977142,34.5451597 18.4300119,34.5341885 18.2638769,34.5247847 M19.4424949,35.4400944 C19.1682155,35.4855464 18.823407,35.5686139 18.7215318,35.866403 C18.6008488,36.1908364 18.8437821,36.5387795 19.1635136,36.6171451 C19.860967,36.813059 20.6979112,36.7252895 21.2574413,36.2378558 C21.5646342,35.9776821 21.4941052,35.5419696 21.533288,35.18619 C20.8452384,35.3366518 20.1383811,35.3507576 19.4424949,35.4400944 Z" id="Shape" fill="#4D5F68"></path>
            <path d="M23.9798607,33.3445994 C24.1240534,33.3445994 24.4124386,33.3445994 24.5566313,33.3445994 C24.5519293,33.6251481 24.5456601,33.9072641 24.5362562,34.1893801 C24.8983051,33.4840901 25.6662876,33.181599 26.4311354,33.2474261 C26.4311354,33.3853495 26.4311354,33.6643308 26.4311354,33.8022542 C25.7979417,33.745831 24.9813726,33.8179273 24.6945546,34.4903038 C24.4155732,35.302171 24.6052179,36.1861345 24.550362,37.0293479 C24.4077367,37.0277806 24.1224861,37.0262133 23.9798607,37.0262133 C23.9798607,35.7990086 23.9798607,34.571804 23.9798607,33.3445994 Z" id="Path" fill="#4D5F68"></path>
            <path d="M28.5611113,33.5264075 C29.4811229,33.1157719 30.7083276,33.1502528 31.4857139,33.8492736 C31.8932148,34.2175917 31.9778496,34.783391 32.0483786,35.3006037 C30.7365392,35.3115749 29.4231324,35.2896325 28.1097257,35.3131422 C28.2147355,35.7739317 28.4122167,36.2629327 28.8730062,36.4698178 C29.708383,36.8569437 30.9543954,36.7597704 31.3901079,35.8319222 C31.5311659,35.8334895 31.8101473,35.8350568 31.949638,35.8350568 C31.3995118,37.1813771 29.5688923,37.422743 28.4122167,36.7660396 C27.2586757,36.0717208 27.3245028,34.1016107 28.5611113,33.5264075 M28.1206968,34.9025067 C29.239757,34.9181798 30.3588172,34.9166125 31.4778773,34.9025067 C31.1440401,33.2881762 28.459236,33.2991473 28.1206968,34.9025067 Z" id="Shape" fill="#4D5F68"></path>
            <path d="M33.4793337,33.3461667 C34.7175095,33.3430321 35.9556853,33.3445994 37.1938611,33.3461667 C37.1938611,33.4527438 37.1922938,33.6690328 37.1907265,33.7771772 C36.1578685,34.7191313 35.1218758,35.6563833 34.0858831,36.5952027 C35.1610586,36.5952027 36.2346667,36.5952027 37.3098422,36.5952027 C37.3082748,36.7033472 37.3082748,36.9180688 37.3082748,37.0262133 C35.9697911,37.0262133 34.6297401,37.0324825 33.289689,37.0230787 C33.314766,36.7676069 33.36492,36.5074333 33.5874782,36.3507022 C34.5137591,35.493383 35.4431746,34.6360638 36.3694555,33.7771772 C35.4196649,33.7552349 34.4667397,33.8179273 33.5185165,33.7489656 C33.5091126,33.6486577 33.4887376,33.4464746 33.4793337,33.3461667 Z" id="Path" fill="#4D5F68"></path>
            <path d="M46.0068518,33.5640229 C47.1337485,32.9888197 48.9408583,33.1753298 49.3765708,34.551429 C49.1853588,34.5529963 48.9941469,34.5561309 48.8060695,34.5592655 C48.2857222,33.2803396 46.0319288,33.4370707 45.6996588,34.7755545 C45.5711393,35.3053056 45.6886876,35.9353647 46.1291021,36.2927117 C46.9535077,36.949415 48.4690976,36.7958185 48.8374157,35.6955661 C49.0254931,35.6971334 49.216705,35.7018353 49.407917,35.7081046 C49.1900608,36.2315865 48.8483869,36.7472319 48.2857222,36.9384439 C47.4707204,37.2236945 46.4880163,37.1594347 45.7717551,36.6547605 C44.7624067,35.9196916 44.8721185,34.1251203 46.0068518,33.5640229 Z" id="Path" fill="#4D5F68"></path>
            <path d="M54.5737746,33.6737347 C55.4075841,33.1251758 56.5689617,33.1392816 57.4341175,33.6126096 C58.0390996,33.9464468 58.2412827,34.6548715 58.3039751,35.2990364 C56.993703,35.3115749 55.6834309,35.2974691 54.3747261,35.3053056 C54.4609282,35.6375756 54.5298899,36.0058937 54.8057366,36.2425577 C55.3511609,36.7456646 56.1849705,36.7550684 56.8620489,36.5575872 C57.4106078,36.4227985 57.5406946,35.6124986 58.2052345,35.8146818 C57.698993,37.1280885 55.9733835,37.3913968 54.8167078,36.8522417 C53.6271186,36.2927117 53.4985991,34.4119383 54.5737746,33.6737347 M54.3684568,34.9009393 C55.4906516,34.9166125 56.6144137,34.9213144 57.7381758,34.899372 C57.6002524,34.6203906 57.5015118,34.3053611 57.2617132,34.0969087 C56.3542401,33.3461667 54.6521401,33.6533597 54.3684568,34.9009393 Z" id="Shape" fill="#4D5F68"></path>
            <path d="M60.2380371,33.5232728 C60.9809426,33.1674932 61.8758773,33.201974 62.6485617,33.4417727 C63.1015146,33.5749941 63.3178035,34.0122739 63.4384865,34.4338806 C63.3083997,34.4354479 63.048226,34.4370152 62.9181392,34.4385826 C62.5921385,33.5875326 61.5263669,33.6157442 60.7850287,33.7803119 C60.3979029,33.81636 60.0985464,34.3884286 60.4684319,34.6329291 C61.3147799,35.0090838 62.317859,34.808468 63.1469666,35.2473151 C63.7738911,35.6030947 63.5607368,36.6140104 62.9385142,36.8600783 C62.1031374,37.1986175 61.1172987,37.1923483 60.2756526,36.878886 C59.8352381,36.7252895 59.6440262,36.2833078 59.5531221,35.8632684 C59.7302283,35.8585665 59.9073345,35.8554318 60.0860079,35.8538645 C60.2740853,36.6970779 61.2426836,36.7158857 61.9338678,36.6641644 C62.3382341,36.6406547 62.9432162,36.530943 62.9510527,36.0137303 C63.0012067,35.7566912 62.745735,35.5889889 62.534148,35.5357004 C61.7363866,35.281796 60.8351827,35.4416617 60.0860079,35.0278916 C59.5311798,34.6909197 59.6722378,33.7756099 60.2380371,33.5232728 Z" id="Path" fill="#4D5F68"></path>
            <path d="M39.5589337,34.2081878 C39.5573664,33.9448795 39.5573664,33.6831386 39.5589337,33.4213976 C39.7250687,33.4213976 40.0573386,33.4229649 40.2234736,33.4245322 C40.2234736,33.6831386 40.2250409,33.9433122 40.2250409,34.2050532 C40.0589059,34.2050532 39.726636,34.2081878 39.5589337,34.2081878 Z" id="Path" fill="#4D5F68"></path>
            <path d="M87.2271353,34.571804 C87.8995118,33.6204461 89.5875059,33.4872247 90.2316708,34.5310539 C90.7457488,33.9260718 91.5842603,33.6925424 92.3491082,33.8633794 C92.8804266,33.9354757 93.4164471,34.3320054 93.441524,34.904074 C93.4901107,35.7660951 93.4430913,36.6312509 93.4587645,37.4948393 C93.3161391,37.4964066 93.0308885,37.4979739 92.8882632,37.4995412 C92.8600516,36.6390874 92.9431191,35.775499 92.8443785,34.9213144 C92.736234,34.3414093 92.0466171,34.2081878 91.5529141,34.2505052 C90.9949513,34.2505052 90.3680269,34.6125541 90.3398153,35.2222381 C90.2943632,35.9776821 90.3382479,36.737828 90.3241421,37.4964066 C90.1815168,37.4964066 89.8962662,37.4979739 89.7536409,37.4995412 C89.7128908,36.5920681 89.8351411,35.6704891 89.6893811,34.7724198 C89.1674665,33.8680813 87.4042414,34.1470627 87.2694527,35.2285074 C87.2051929,35.982384 87.2616161,36.74253 87.2428084,37.4995412 C87.1001831,37.4979739 86.8149325,37.4964066 86.6723071,37.4964066 C86.6723071,36.2958463 86.6723071,35.0952859 86.6723071,33.8947256 C86.8164998,33.8947256 87.1064523,33.8931583 87.250645,33.8931583 C87.2428084,34.1188511 87.2349718,34.3445439 87.2271353,34.571804 Z" id="Path" fill="#4D5F68"></path>
            <path d="M98.0666593,34.2050532 C98.9083054,33.6768693 100.058712,33.6862732 100.923868,34.1611685 C101.50534,34.4777653 101.721629,35.1485745 101.77335,35.770797 C100.46778,35.7817682 99.1606425,35.7598259 97.8550723,35.7833355 C97.9632167,36.2409904 98.1512941,36.7393953 98.6167855,36.9431458 C99.4443258,37.3255697 100.691905,37.2346657 101.113512,36.3036828 C101.253003,36.3036828 101.535119,36.3052501 101.676177,36.3052501 C101.141724,37.613955 99.4020084,37.8756959 98.2469001,37.2926562 C97.1294072,36.712751 97.0008877,34.9025067 98.0666593,34.2050532 M97.8660434,35.3727 C98.9788344,35.3883731 100.091625,35.3868058 101.204416,35.3727 C100.81729,33.8524082 98.2578712,33.8633794 97.8660434,35.3727 Z" id="Shape" fill="#4D5F68"></path>
            <path d="M108.68676,33.8884563 C108.937529,33.8884563 109.194569,33.8962929 109.45004,33.9009948 C109.885753,34.3664862 110.330869,34.8241411 110.80263,35.256719 C111.222669,34.7880929 111.674055,34.3492458 112.106633,33.8931583 C112.357402,33.8931583 112.60974,33.8931583 112.863644,33.8962929 C112.288441,34.4667942 111.724209,35.0435647 111.142736,35.6062294 C111.736747,36.2597981 112.379345,36.8679149 113,37.4948393 C112.747663,37.4964066 112.495326,37.4979739 112.246123,37.4995412 C111.75242,37.0011363 111.269688,36.4933275 110.771284,35.9996245 C110.288552,36.505866 109.796416,37.0011363 109.302713,37.4964066 C109.05351,37.4964066 108.802741,37.4948393 108.55824,37.4948393 C109.174193,36.8820207 109.763502,36.2409904 110.395129,35.6438448 C109.832464,35.0514012 109.255694,34.4730634 108.68676,33.8884563 Z" id="Path" fill="#4D5F68"></path>
            <path d="M95.1592971,33.8947256 C95.3019224,33.8931583 95.587173,33.891591 95.7297983,33.891591 C95.732933,35.0937186 95.732933,36.2974136 95.7297983,37.4995412 C95.587173,37.4995412 95.3019224,37.4979739 95.1592971,37.4964066 C95.1592971,36.2958463 95.1592971,35.0952859 95.1592971,33.8947256 Z" id="Path" fill="#4D5F68"></path>
            <path d="M103.415892,36.5575872 C103.299911,35.6751911 103.389248,34.7786891 103.365738,33.891591 C103.508364,33.891591 103.793614,33.8931583 103.93624,33.8947256 C103.959749,34.7489102 103.886086,35.609364 103.969153,36.4619813 C104.061624,37.0230787 104.710491,37.1719732 105.193223,37.1453289 C105.796638,37.1515982 106.542678,36.9023957 106.685303,36.2362885 C106.795015,35.4620367 106.705678,34.6736792 106.73389,33.8947256 C106.876515,33.8947256 107.161766,33.8931583 107.304391,33.891591 C107.305959,35.0937186 107.305959,36.2958463 107.305959,37.4979739 C107.160199,37.4979739 106.871813,37.4964066 106.726053,37.4964066 C106.73389,37.3240024 106.746428,36.9823286 106.754265,36.8099243 C106.263697,37.422743 105.454964,37.6750801 104.693251,37.5559645 C104.119615,37.5199163 103.511498,37.1641367 103.415892,36.5575872 Z" id="Path" fill="#4D5F68"></path>
            <path d="M39.5557991,37.024646 C39.5557991,36.762905 39.5573664,36.5027314 39.560501,36.2425577 C39.726636,36.2425577 40.0589059,36.244125 40.2250409,36.2456923 C40.2234736,36.505866 40.2234736,36.7660396 40.2250409,37.0277806 C40.0009154,37.0262133 39.7767899,37.024646 39.5557991,37.024646 Z" id="Path" fill="#4D5F68"></path>
            <path d="M20.5490166,1.68177931 C22.1210297,0.521969056 24.0911398,-0.0767438073 26.0440095,0.0078909953 C28.6410441,0.0705834417 31.1581459,1.39966331 32.7097839,3.47635059 C33.9181808,5.06246949 34.5529418,7.07019508 34.468307,9.06381488 C34.4118838,11.5119549 33.2301312,13.8911332 31.3556271,15.4584444 C30.6957891,16.0242437 29.9278066,16.4411485 29.1770646,16.8721591 C29.1754972,15.8863204 29.1739299,14.8989143 29.1770646,13.9130756 C30.821174,12.8065539 31.9167245,10.8912997 31.9229937,8.89454527 C31.9715803,7.51531145 31.5107909,6.13921225 30.6895198,5.0358252 C29.4576132,3.36193688 27.3433105,2.3964732 25.2728925,2.56104087 C22.9595412,2.69896426 20.807623,4.25843886 19.9440345,6.40565515 C19.1243308,8.34755368 19.3986102,10.706357 20.6649976,12.3943511 C21.0709312,13.0181409 21.7072596,13.4287765 22.2166357,13.9475565 C22.2699243,14.9161547 22.2150684,15.889455 22.2354434,16.8596206 C21.4032012,16.383158 20.5568532,15.90983 19.8484285,15.254694 C18.027213,13.6168538 16.9050182,11.20006 16.9316625,8.73938147 C16.9097201,5.98561576 18.3312713,3.29610981 20.5490166,1.68177931 Z" id="Path" fill="#A2C614"></path>
        </g>
    </g>
</svg>