<svg width="118" height="66" viewBox="0 0 118 66" fill="none" xmlns="http://www.w3.org/2000/svg">
<path id="Arrow 1" d="M3.24765 56.6148L2.25147 56.5274L3.24765 56.6148ZM82.4793 6.43098L82.1325 7.36894L82.4793 6.43098ZM115.918 19.5461C116.42 19.3152 116.639 18.7213 116.408 18.2196L112.646 10.0439C112.415 9.54216 111.821 9.32262 111.319 9.55351C110.818 9.7844 110.598 10.3783 110.829 10.88L114.174 18.1473L106.906 21.4918C106.405 21.7227 106.185 22.3166 106.416 22.8183C106.647 23.32 107.241 23.5396 107.742 23.3087L115.918 19.5461ZM3.49613 65.2252L3.68305 63.0945L1.6907 62.9197L1.50378 65.0504L3.49613 65.2252ZM4.0569 58.8329L4.24382 56.7022L2.25147 56.5274L2.06455 58.6581L4.0569 58.8329ZM4.24382 56.7022C4.29977 56.0644 4.36561 55.4304 4.44115 54.8005L2.45538 54.5624C2.37731 55.2134 2.30928 55.8684 2.25147 56.5274L4.24382 56.7022ZM5.01534 51.0372C5.24881 49.7803 5.52148 48.541 5.83182 47.3202L3.89346 46.8274C3.57242 48.0904 3.2904 49.3722 3.04898 50.6719L5.01534 51.0372ZM6.89005 43.6657C7.28507 42.4529 7.71808 41.2606 8.18744 40.0897L6.33103 39.3456C5.84527 40.5574 5.39715 41.7913 4.98839 43.0463L6.89005 43.6657ZM9.72033 36.6062C10.2721 35.4577 10.8599 34.3325 11.482 33.2318L9.74087 32.2477C9.097 33.3869 8.48863 34.5514 7.91756 35.7402L9.72033 36.6062ZM13.4638 29.9825C14.162 28.919 14.8935 27.8817 15.6565 26.8718L14.0608 25.6661C13.2713 26.711 12.5143 27.7844 11.7919 28.885L13.4638 29.9825ZM18.0497 23.9125C18.881 22.9512 19.7424 22.0188 20.6322 21.1166L19.2083 19.7122C18.2879 20.6454 17.3968 21.6099 16.5368 22.6044L18.0497 23.9125ZM23.3925 18.4951C24.3416 17.6508 25.3174 16.8382 26.318 16.0585L25.0887 14.4809C24.0539 15.2872 23.0448 16.1276 22.0632 17.0008L23.3925 18.4951ZM29.3956 13.817C30.4454 13.1034 31.5181 12.4239 32.6119 11.7798L31.5971 10.0564C30.466 10.7224 29.3567 11.4251 28.2712 12.163L29.3956 13.817ZM35.9536 9.95546C37.0862 9.38405 38.2379 8.84913 39.4068 8.3519L38.624 6.51149C37.4151 7.02574 36.224 7.57893 35.0528 8.16985L35.9536 9.95546ZM42.9566 6.97684C44.1525 6.55794 45.3636 6.17759 46.588 5.83695L46.0519 3.91013C44.7852 4.26253 43.5324 4.65599 42.2954 5.08927L42.9566 6.97684ZM50.2862 4.93805C51.5253 4.67979 52.7757 4.46177 54.0356 4.28514L53.7579 2.30451C52.4541 2.4873 51.1602 2.7129 49.8781 2.98013L50.2862 4.93805ZM57.8202 3.8821C59.0812 3.79007 60.3496 3.73951 61.6238 3.73155L61.6113 1.73159C60.2925 1.73983 58.9797 1.79215 57.6746 1.88741L57.8202 3.8821ZM65.4283 3.83449C66.6874 3.91056 67.9504 4.02865 69.2157 4.18983L69.4684 2.20587C68.1591 2.03908 66.852 1.91686 65.5489 1.83813L65.4283 3.83449ZM72.9719 4.79497C74.2082 5.03614 75.4452 5.31928 76.6813 5.64536L77.1914 3.71153C75.9132 3.37433 74.6338 3.08147 73.3548 2.83197L72.9719 4.79497ZM80.329 6.73461C80.9308 6.93554 81.532 7.14695 82.1325 7.36894L82.826 5.49301C82.2056 5.26367 81.5843 5.04522 80.9624 4.83756L80.329 6.73461ZM82.1325 7.36894L84.1963 8.13186L84.8898 6.25593L82.826 5.49301L82.1325 7.36894ZM88.3239 9.6577L92.4515 11.1835L93.145 9.30761L89.0174 7.78177L88.3239 9.6577ZM96.5791 12.7094L100.707 14.2352L101.4 12.3593L97.2726 10.8335L96.5791 12.7094ZM104.834 15.7611L108.962 17.2869L109.655 15.411L105.528 13.8851L104.834 15.7611ZM113.09 18.8127L115.153 19.5757L115.847 17.6997L113.783 16.9368L113.09 18.8127ZM3.24765 56.6148L1.2553 56.44L3.24765 56.6148ZM82.4793 6.43098L81.7858 8.3069L82.4793 6.43098ZM116.336 20.4545C117.34 19.9928 117.779 18.805 117.317 17.8016L109.792 1.45004C109.33 0.446625 108.142 0.00754611 107.139 0.469327C106.135 0.931102 105.696 2.11887 106.158 3.12229L112.847 17.657L98.3124 24.346C97.309 24.8077 96.8699 25.9955 97.3317 26.9989C97.7934 28.0023 98.9812 28.4414 99.9846 27.9796L116.336 20.4545ZM4.4923 65.3126L4.67922 63.1818L0.694527 62.8323L0.507603 64.9631L4.4923 65.3126ZM5.05307 58.9203L5.24 56.7895L1.2553 56.44L1.06838 58.5708L5.05307 58.9203ZM5.24 56.7895C5.29502 56.1623 5.35976 55.5389 5.43404 54.9195L1.46249 54.4433C1.38315 55.1049 1.31403 55.7705 1.2553 56.44L5.24 56.7895ZM5.99852 51.2198C6.22801 49.9843 6.49601 48.7663 6.80099 47.5666L2.92429 46.5811C2.59789 47.8651 2.3112 49.1682 2.06579 50.4893L5.99852 51.2198ZM7.84089 43.9754C8.22903 42.7837 8.65449 41.6122 9.11564 40.4618L5.40283 38.9735C4.90887 40.2058 4.45319 41.4605 4.03755 42.7366L7.84089 43.9754ZM10.6217 37.0392C11.1638 35.9108 11.7413 34.8053 12.3526 33.7239L8.87031 31.7557C8.21556 32.9141 7.5969 34.0983 7.01618 35.3071L10.6217 37.0392ZM14.2998 30.5312C14.9858 29.4863 15.7046 28.467 16.4544 27.4746L13.263 25.0632C12.4602 26.1257 11.6905 27.2171 10.9559 28.3362L14.2998 30.5312ZM18.8062 24.5666C19.6231 23.6218 20.4697 22.7055 21.3442 21.8188L18.4963 19.01C17.5607 19.9587 16.6547 20.9392 15.7804 21.9503L18.8062 24.5666ZM24.0571 19.2422C24.99 18.4124 25.9491 17.6137 26.9327 16.8473L24.4741 13.6921C23.4222 14.5117 22.3964 15.366 21.3986 16.2536L24.0571 19.2422ZM29.9578 14.644C30.9897 13.9425 32.0441 13.2747 33.1193 12.6415L31.0897 9.19471C29.94 9.87171 28.8124 10.5859 27.709 11.336L29.9578 14.644ZM36.4041 10.8483C37.5173 10.2866 38.6494 9.76082 39.7983 9.27211L38.2325 5.59128C37.0036 6.11404 35.7929 6.67638 34.6023 7.27704L36.4041 10.8483ZM43.2871 7.92062C44.4625 7.50892 45.6528 7.13512 46.856 6.80036L45.7839 2.94672C44.4961 3.305 43.2224 3.70501 41.9648 4.14549L43.2871 7.92062ZM50.4902 5.91702C51.7079 5.66324 52.9365 5.44901 54.1744 5.27545L53.619 1.31419C52.2933 1.50006 50.9777 1.72946 49.6741 2.00116L50.4902 5.91702ZM57.893 4.87945C59.1319 4.78902 60.3782 4.73935 61.63 4.73153L61.605 0.731607C60.264 0.73999 58.9289 0.7932 57.6018 0.890061L57.893 4.87945ZM65.368 4.83267C66.6051 4.90741 67.8461 5.02344 69.0893 5.18182L69.5948 1.21388C68.2635 1.04429 66.9344 0.920007 65.6092 0.839946L65.368 4.83267ZM72.7804 5.77646C73.9954 6.01348 75.2111 6.29176 76.4262 6.61229L77.4465 2.74461C76.1472 2.40185 74.8466 2.10413 73.5463 1.85047L72.7804 5.77646ZM80.0123 7.68314C80.604 7.88071 81.1952 8.08859 81.7858 8.3069L83.1727 4.55505C82.5424 4.32203 81.9111 4.10006 81.2791 3.88903L80.0123 7.68314ZM81.7858 8.3069L83.8496 9.06982L85.2365 5.31797L83.1727 4.55505L81.7858 8.3069ZM87.9772 10.5957L92.1048 12.1215L93.4917 8.36965L89.3641 6.84381L87.9772 10.5957ZM96.2324 13.6473L100.36 15.1732L101.747 11.4213L97.6193 9.89549L96.2324 13.6473ZM104.488 16.699L108.615 18.2249L110.002 14.473L105.875 12.9472L104.488 16.699ZM112.743 19.7507L114.807 20.5136L116.194 16.7618L114.13 15.9989L112.743 19.7507Z" fill="#C7CFD7"/>
</svg>
