<?xml version="1.0" encoding="UTF-8"?>
<svg width="17px" height="17px" viewBox="0 0 17 17" version="1.1" xmlns="http://www.w3.org/2000/svg" xmlns:xlink="http://www.w3.org/1999/xlink">
    <title>icon-home-active</title>
    <g id="Page-1" stroke="none" stroke-width="1" fill="none" fill-rule="evenodd">
        <g id="icon-home-active" transform="translate(1.042160, 0.970563)" fill="#9ACA3C" fill-rule="nonzero" stroke="#9ACA3C" stroke-width="0.7">
            <path d="M14.8396284,6.58636351 L7.86521338,0.142149011 C7.66203615,-0.0473830038 7.337978,-0.0473830038 7.13480077,0.142149011 L0.160648705,6.58611189 C0.057975515,6.6809408 8.8817842e-16,6.81162543 8.8817842e-16,6.94819165 C8.8817842e-16,7.2261363 0.235451581,7.45142967 0.52585501,7.45142967 L1.45267446,7.45142967 L1.45267446,14.496762 C1.45267446,14.7747066 1.68809318,15 1.97852947,15 L5.65951454,15 C5.94995084,15 6.18536955,14.7747066 6.18536955,14.496762 L6.18536955,10.4708578 L8.8146446,10.4708578 L8.8146446,14.496762 C8.8146446,14.7747066 9.05006331,15 9.34049961,15 L13.0214847,15 C13.311921,15 13.5473397,14.7747066 13.5473397,14.496762 L13.5473397,7.45142967 L14.4741591,7.45142967 C14.6167316,7.45142967 14.7531581,7.39604203 14.8522489,7.29794207 C15.0540786,7.09809367 15.0484257,6.77951255 14.8396284,6.58636351 Z M13.5473397,6.94819165 C13.2569034,6.94819165 13.0214847,7.17348502 13.0214847,7.45142967 L13.0214847,14.496762 L9.34049961,14.496762 L9.34049961,10.4708578 C9.34049961,10.1929132 9.10508089,9.9676198 8.8146446,9.9676198 L6.18536955,9.9676198 C5.89493326,9.9676198 5.65951454,10.1929132 5.65951454,10.4708578 L5.65951454,14.496762 L1.97852947,14.496762 L1.97852947,7.45142967 C1.97852947,7.17348502 1.74311076,6.94819165 1.45267446,6.94819165 L0.52585501,6.94819165 L7.50000708,0.504228771 L14.4767884,6.94819165 L13.5473397,6.94819165 Z" id="Shape"></path>
        </g>
    </g>
</svg>