<?xml version="1.0" encoding="UTF-8"?>
<svg width="18px" height="17px" viewBox="0 0 18 17" version="1.1" xmlns="http://www.w3.org/2000/svg" xmlns:xlink="http://www.w3.org/1999/xlink">
    <title>icon-vitrine-active</title>
    <g id="Page-1" stroke="none" stroke-width="1" fill="none" fill-rule="evenodd">
        <g id="icon-vitrine-active" transform="translate(1.042160, 0.960629)" fill="#9ACA3C" fill-rule="nonzero" stroke="#9ACA3C" stroke-width="0.7">
            <path d="M15.6527668,6.79799273 C15.9677074,6.49765713 16.0788817,6.05687233 15.9430376,5.64712429 C15.8068731,5.23737625 15.4522045,4.94487822 15.016478,4.88280468 L11.1423569,4.33198042 C10.9773575,4.30846772 10.8347853,4.20720635 10.7610962,4.06080058 L9.02908344,0.62575141 C8.83460846,0.23982957 8.43989152,-8.8817842e-16 8,-8.8817842e-16 C7.56042887,-8.8817842e-16 7.16571193,0.23982957 6.97123694,0.62575141 L5.23890377,4.06080058 C5.16521473,4.20720635 5.02232207,4.30846772 4.8573227,4.33198042 L0.9832016,4.88311819 C0.547795495,4.94487822 0.193126949,5.23737625 0.0569624209,5.64712429 C-0.0788817197,6.05687233 0.0322926124,6.49765713 0.347233155,6.79799273 L3.1503001,9.4715438 C3.2698045,9.5856588 3.3245907,9.7499342 3.29639663,9.9104476 L2.63479722,13.6859607 C2.56046741,14.1101299 2.73507839,14.530537 3.09102849,14.7838472 C3.44665819,15.0374709 3.90961759,15.0703887 4.29952872,14.8694335 L7.76419508,13.0868571 C7.91189354,13.0109894 8.08810646,13.0109894 8.23580492,13.0868571 L11.7007917,14.8694335 C11.8699561,14.9565872 12.0532175,14.9995371 12.2355178,14.9995371 C12.4722839,14.9995371 12.7080888,14.927118 12.9092919,14.7838472 C13.265242,14.530537 13.439853,14.1101299 13.3655232,13.6859607 L12.7036034,9.9107611 C12.6754093,9.7499342 12.7301955,9.5859723 12.8496999,9.4718573 L15.6527668,6.79799273 Z M12.0724407,10.016725 L12.7340401,13.7919247 C12.7673604,13.9819073 12.6920694,14.1634254 12.5325166,14.2769133 C12.3726435,14.3900878 12.1736831,14.4038819 11.9990721,14.3148472 L8.53408534,12.5319573 C8.36716364,12.446371 8.18326143,12.4031077 8,12.4031077 C7.81673857,12.4031077 7.63315674,12.446371 7.46591466,12.5322708 L4.00156869,14.3148472 C3.82631694,14.4038819 3.62735653,14.3900878 3.46780374,14.2769133 C3.30825096,14.1634254 3.23328037,13.9822208 3.26628024,13.7919247 L3.92787965,10.016725 C3.99163669,9.6524349 3.86828765,9.2806207 3.59788092,9.02292145 L0.79449358,6.34905685 C0.653202859,6.21425069 0.60514479,6.02426804 0.666338731,5.84086896 C0.727212284,5.65715637 0.880036943,5.53112828 1.0751527,5.50322654 L4.94895342,4.95240228 C5.32284519,4.89942033 5.6461158,4.66993634 5.81303749,4.33825048 L7.54537067,0.9032013 C7.63251597,0.73014781 7.80264153,0.62700542 7.99967961,0.62700542 C8.19703808,0.62700542 8.36684326,0.73014781 8.45430894,0.9032013 L10.1866421,4.33825048 C10.3535638,4.66993634 10.676514,4.89942033 11.0504058,4.95240228 L14.9245269,5.50322654 C15.1196427,5.53112828 15.2724673,5.65715637 15.3333409,5.84086896 C15.3942144,6.02426804 15.3464768,6.21425069 15.205186,6.34905685 L12.4021191,9.02260795 C12.1317124,9.2806207 12.0083633,9.6521214 12.0724407,10.016725 Z" id="Shape"></path>
        </g>
    </g>
</svg>