<?xml version="1.0" encoding="UTF-8"?>
<svg width="18px" height="18px" viewBox="0 0 18 18" version="1.1" xmlns="http://www.w3.org/2000/svg" xmlns:xlink="http://www.w3.org/1999/xlink">
    <title>logout</title>
    <g id="Symbols" stroke="none" stroke-width="1" fill="none" fill-rule="evenodd">
        <g id="Menu--Copy" transform="translate(-29.000000, -409.000000)" fill="#444444" fill-rule="nonzero">
            <g id="logout" transform="translate(37.928498, 418.460629) scale(-1, 1) translate(-37.928498, -418.460629) translate(29.042160, 409.960629)">
                <path d="M17.1931336,9.07954224 L5.98855596,9.07954224 C5.66864752,9.07954224 5.40901372,8.81990844 5.40901372,8.5 C5.40901372,8.18009156 5.66864752,7.92045776 5.98855596,7.92045776 L17.1931336,7.92045776 C17.513042,7.92045776 17.7726758,8.18009156 17.7726758,8.5 C17.7726758,8.81990844 17.513042,9.07954224 17.1931336,9.07954224 Z" id="Path"></path>
                <path d="M9.07954224,12.170387 C8.93111941,12.170387 8.78283809,12.1140741 8.66992925,12.0004578 L5.57908448,8.90961299 C5.35270079,8.68308782 5.35270079,8.31606325 5.57908448,8.08967957 L8.66992925,4.9988348 C8.89631293,4.77245112 9.2633375,4.77245112 9.48986267,4.9988348 C9.71624636,5.22521849 9.71624636,5.59224302 9.48986267,5.81862671 L6.80848938,8.5 L9.48986267,11.1813733 C9.71624636,11.407757 9.71624636,11.7747815 9.48986267,12.0011652 C9.37624635,12.1140741 9.22782355,12.170387 9.07954224,12.170387 L9.07954224,12.170387 Z" id="Path"></path>
                <path d="M8.5,17 C3.8134332,17 0,13.1865668 0,8.5 C0,3.8134332 3.8134332,0 8.5,0 C12.0165876,0 15.1214398,2.11569707 16.4111194,5.39062006 C16.5285559,5.68803165 16.3816895,6.02421142 16.084278,6.14235538 C15.7867249,6.25837702 15.4505451,6.11377446 15.3324011,5.81480651 C14.2188764,2.98656679 11.5367956,1.15908448 8.5,1.15908448 C4.45240116,1.15908448 1.15908448,4.45254264 1.15908448,8.5 C1.15908448,12.5474574 4.45240116,15.8409155 8.5,15.8409155 C11.5367956,15.8409155 14.2188764,14.0134332 15.3324011,11.1860424 C15.4498377,10.886933 15.7860174,10.7424719 16.084278,10.8583521 C16.3816895,10.9757886 16.5285559,11.3126758 16.4111194,11.6102289 C15.1214398,14.8843029 12.0165876,17 8.5,17 Z" id="Path"></path>
            </g>
        </g>
    </g>
</svg>