<?xml version="1.0" encoding="UTF-8"?>
<svg width="18px" height="17px" viewBox="0 0 18 17" version="1.1" xmlns="http://www.w3.org/2000/svg" xmlns:xlink="http://www.w3.org/1999/xlink">
    <title>Group</title>
    <g id="Symbols" stroke="none" stroke-width="1" fill="none" fill-rule="evenodd">
        <g id="Menu--Copy" transform="translate(-30.000000, -329.000000)" fill="#444444" fill-rule="nonzero" stroke="#444444" stroke-width="0.4">
            <g id="Group" transform="translate(31.082160, 329.960629)">
                <path d="M14.0075058,0.106974478 C13.9381062,0.0375711142 13.8437644,-0.000999160027 13.745612,1.9684008e-05 C13.647806,0.000733044645 13.5541571,0.0389568425 13.4838337,0.106974478 L8.20230947,5.38855947 L8.18764433,5.40345636 L8.18025403,5.41084707 C8.1729792,5.42193313 8.16189375,5.43301919 8.15450345,5.44398978 C8.15450345,5.44768514 8.1508083,5.44768514 8.1508083,5.45138049 C8.143418,5.46235108 8.13960738,5.46985726 8.13233255,5.48082785 C8.12852193,5.48452321 8.12852193,5.48833403 8.12494225,5.49191391 C8.1212471,5.50299998 8.11766744,5.51039068 8.1138568,5.52147675 C8.1138568,5.5251721 8.11016165,5.5251721 8.11016165,5.52875195 L7.16963048,8.36516728 C7.12459585,8.49716072 7.15889145,8.64347363 7.25831408,8.74140051 C7.32794457,8.81011101 7.42205543,8.84856578 7.51997691,8.84833587 C7.5600462,8.84752647 7.59988453,8.84140605 7.63810622,8.82985807 L10.4669746,7.88569507 C10.4705543,7.88569507 10.4705543,7.88569507 10.4742494,7.88199972 C10.4859122,7.87865078 10.4972286,7.87368517 10.5073903,7.86733377 C10.5102771,7.86687185 10.512933,7.86560157 10.5148961,7.86352294 C10.525866,7.85624771 10.5406466,7.848857 10.5517321,7.84135082 C10.5627021,7.83396011 10.5737875,7.82287405 10.584873,7.81559881 C10.5886836,7.81201893 10.5922633,7.81201893 10.5922633,7.8082081 C10.5959584,7.80451275 10.6033487,7.8008174 10.6071593,7.79354216 L15.8920323,2.50814634 C15.9612009,2.4390894 16,2.34555076 16,2.24808579 C16,2.15050535 15.9612009,2.05685121 15.8920323,1.98802524 L14.0075058,0.106974478 Z M8.62286373,6.33283794 L9.66662817,7.37666003 L8.10277135,7.89666566 L8.62286373,6.33283794 Z M10.3489608,7.01520818 L8.98429561,5.65058317 L13.745612,0.888888309 L15.1101617,2.25351335 L10.3489608,7.01520818 Z" id="Shape"></path>
                <path d="M13.137067,6.40024301 C12.9336028,6.40082041 12.7688222,6.56561011 12.7682448,6.76908554 L12.7682448,13.6626533 C12.7665127,14.2729642 12.2722864,14.7672178 11.6617783,14.769181 L1.84411084,14.769181 C1.23383371,14.7672178 0.739376451,14.2729642 0.737644342,13.6626533 L0.737644342,3.84421269 C0.739376451,3.23390186 1.23383371,2.73953276 1.84411084,2.73768508 L8.73706698,2.73768508 C8.9408776,2.73768508 9.10588914,2.57254893 9.10588914,2.36884253 C9.10588914,2.16513613 8.9408776,2 8.73706698,2 L1.84411084,2 C0.825750585,2.00046192 0.000461893764,2.82591166 -6.66133815e-14,3.84421269 L-6.66133815e-14,13.6626533 C0.000461893764,14.6809544 0.825750585,15.5064041 1.84411084,15.5067505 L11.6617783,15.5067505 C12.6801386,15.5064041 13.5055427,14.6809544 13.5058891,13.6626533 L13.5058891,6.76908554 C13.5053118,6.56561011 13.3405312,6.40082041 13.137067,6.40024301 L13.137067,6.40024301 Z" id="Path"></path>
            </g>
        </g>
    </g>
</svg>