<?xml version="1.0" encoding="UTF-8"?>
<svg width="18px" height="18px" viewBox="0 0 18 18" version="1.1" xmlns="http://www.w3.org/2000/svg" xmlns:xlink="http://www.w3.org/1999/xlink">
    <title>repair-garage</title>
    <g id="Symbols" stroke="none" stroke-width="1" fill="none" fill-rule="evenodd">
        <g id="Menu--Copy" transform="translate(-30.000000, -291.000000)" fill="#444444" fill-rule="nonzero" stroke="#444444" stroke-width="0.4">
            <g id="repair-garage" transform="translate(31.082160, 291.960629)">
                <path d="M14.9622696,13.0502745 L7.75085897,5.63611094 L6.42550986,1.91764352 C6.39828779,1.84131753 6.33774916,1.78185916 6.26420894,1.75824449 L2.4766846,0.515522385 C2.36698372,0.479256996 2.24184346,0.529016483 2.18293003,0.629800528 C2.1223914,0.73522317 2.13823708,0.868055698 2.22193478,0.953658883 L5.58000051,4.40224434 L3.79106362,6.27961074 L0.432591596,2.83102529 C0.352956885,2.74963901 0.220909534,2.73277139 0.124210242,2.79265145 C0.0242605548,2.85337489 -0.0224638927,2.97735191 0.0104463703,3.09331682 L1.12817641,7.02937657 C1.15133549,7.11118454 1.21187412,7.17696827 1.29028993,7.20437816 L5.01280635,8.51119722 L12.2234043,15.9224089 C12.2713477,15.971325 12.3339178,15.9983132 12.3944565,15.9983132 C12.3948627,15.9983132 12.395269,15.9983132 12.3956753,15.9983132 C12.4038013,15.9995783 12.4119273,16 12.419647,16 C12.4781542,16 12.5325983,15.9734335 12.5821668,15.9207222 L14.9638948,13.4234706 C15.0622193,13.3193131 15.0610004,13.1523236 14.9622696,13.0502745 Z M12.4001446,15.3624039 L5.32809479,8.09288018 C5.29924753,8.06420522 5.26633726,8.04354238 5.2313955,8.03131336 L1.57835631,6.74853065 L0.776727309,3.925734 L3.61472962,6.83961582 C3.66348556,6.8893753 3.7163045,6.90202602 3.79512662,6.91594181 C3.86257234,6.91467674 3.92595507,6.88726685 3.97389842,6.83750736 L6.1195663,4.58567974 C6.16750965,4.53549856 6.19391912,4.46887145 6.19310652,4.39844912 C6.19270022,4.3280268 6.16588445,4.26224307 6.11753481,4.21290527 L3.32706954,1.3462528 L5.99280085,2.22126073 L7.29458458,5.87394442 C7.30799247,5.91105319 7.32790115,5.94352336 7.35390432,5.96966818 L14.4247353,13.2396135 L12.4001446,15.3624039 Z" id="Shape"></path>
                <path d="M11.3953659,13.4382298 C11.4437155,13.4871459 11.5066919,13.5145558 11.5737314,13.5145558 C11.6415834,13.5145558 11.7057787,13.4871459 11.7541284,13.4361214 L12.4923746,12.6623192 C12.540318,12.6125597 12.5663212,12.5467759 12.5663212,12.4755102 C12.5659149,12.4055096 12.5390991,12.3393042 12.4907494,12.2895447 L11.4347769,11.2057999 C11.3884588,11.1581489 11.3267013,11.130739 11.2710382,11.130739 C11.2698193,11.130739 11.2686004,11.130739 11.2673815,11.130739 C11.2035925,11.1176666 11.1385846,11.1412813 11.0756081,11.2079084 L10.3377682,11.9821323 C10.2898248,12.0323135 10.2638216,12.0985189 10.2642233,12.1689412 C10.2646342,12.2393635 10.29145,12.3051473 10.3397997,12.354485 L11.3953659,13.4382298 Z M11.2584429,11.7653833 L11.9532151,12.4784621 L11.5721062,12.877803 L10.8777403,12.1647243 L11.2584429,11.7653833 Z" id="Shape"></path>
                <path d="M15.9906137,2.09939215 L15.5526228,0.474196709 C15.5266196,0.377207879 15.4477975,0.302990339 15.3523171,0.285701026 L13.8246308,0.0040117269 C13.7405268,-0.0111691335 13.6584543,0.017505825 13.6015724,0.076964195 L9.28667124,4.55405294 C9.2387279,4.60381243 9.21231843,4.67001785 9.21231843,4.74044017 C9.21231843,4.8108625 9.2387279,4.87706792 9.28667124,4.9268274 L9.6811881,5.33628894 L9.10789944,5.9237039 C9.0591435,5.9730417 9.03151513,6.04177726 9.03191701,6.11219959 C9.03232773,6.18262191 9.0603624,6.25093578 9.10871204,6.30027358 L9.87783708,7.07365408 C9.92537413,7.12130511 9.98794426,7.14787162 10.0545774,7.14787162 C10.1224294,7.14787162 10.1862184,7.12046173 10.2341618,7.07070225 L10.7936362,6.49003434 L11.1889657,6.90033926 C11.2369091,6.94967705 11.3006981,6.97750863 11.3685501,6.97750863 C11.4364021,6.97750863 11.5001912,6.95009874 11.5481345,6.89991757 L15.9256058,2.3566234 C15.9902074,2.28999629 16.015398,2.19089901 15.9906137,2.09939215 Z M10.0509207,6.51449239 L9.64827784,6.10882606 L10.039138,5.70822002 L10.3759603,6.0578015 L10.4336549,6.11768157 L10.0509207,6.51449239 Z M11.3677375,6.34117757 L9.82501814,4.74044017 L13.866886,0.547570868 L15.1060996,0.775705464 L15.4612054,2.0926451 L11.3677375,6.34117757 Z" id="Shape"></path>
                <path d="M1.6718052,15.8427094 C1.73884463,15.8427094 1.80182106,15.8157212 1.8501707,15.7663834 L6.42022797,11.089835 C6.46898391,11.0392322 6.49579968,10.9721834 6.49579968,10.900496 C6.49539338,10.8304953 6.46735871,10.7617598 6.41819647,10.712422 L5.62144306,9.91289667 C5.52555637,9.81632953 5.36059876,9.81632953 5.26552466,9.91627019 L0.74056665,14.612638 C0.692623304,14.6623975 0.666213833,14.7286029 0.666213833,14.7990253 C0.666213833,14.8694476 0.692623304,14.935653 0.74056665,14.9854125 L1.4922208,15.76554 C1.54016415,15.8152995 1.60395318,15.8427094 1.6718052,15.8427094 Z M5.44795316,10.4720584 L5.87781808,10.9038695 L1.6730241,15.2080651 L1.27931984,14.799447 L5.44795316,10.4720584 Z" id="Shape"></path>
            </g>
        </g>
    </g>
</svg>