<?xml version="1.0" encoding="UTF-8"?>
<svg width="22px" height="15px" viewBox="0 0 22 15" version="1.1" xmlns="http://www.w3.org/2000/svg" xmlns:xlink="http://www.w3.org/1999/xlink">
    <title>icon-clients-active</title>
    <g id="Page-1" stroke="none" stroke-width="1" fill="none" fill-rule="evenodd">
        <g id="icon-clients-active" transform="translate(1.000000, 0.990066)" fill="#9ACA3C" fill-rule="nonzero" stroke="#9ACA3C" stroke-width="0.2">
            <path d="M9.99995924,0 C8.32171652,0 6.95647566,1.36064887 6.95647566,3.0333374 C6.95647566,4.70602592 8.32167576,6.06667479 9.99995924,6.06667479 C11.6782427,6.06667479 13.0434428,4.70598529 13.0434428,3.0333374 C13.0434428,1.3606895 11.6782427,0 9.99995924,0 Z M9.99995924,5.19998375 C8.80171521,5.19998375 7.82606569,4.22758679 7.82606569,3.0333374 C7.82606569,1.839088 8.80171521,0.866691042 9.99995924,0.866691042 C11.1982033,0.866691042 12.1738528,1.839088 12.1738528,3.0333374 C12.1738528,4.22758679 11.198244,5.19998375 9.99995924,5.19998375 Z" id="Shape"></path>
            <path d="M16.0869264,3.46668292 C14.8886824,3.46668292 13.9130328,4.43907988 13.9130328,5.63332927 C13.9130328,6.82757866 14.8886824,7.79997563 16.0869264,7.79997563 C17.2851704,7.79997563 18.2608199,6.82757866 18.2608199,5.63332927 C18.2608199,4.43907988 17.2851704,3.46668292 16.0869264,3.46668292 Z M16.0869264,6.93332521 C15.3677843,6.93332521 14.7825821,6.35007391 14.7825821,5.63332927 C14.7825821,4.91658464 15.3677843,4.33333333 16.0869264,4.33333333 C16.8060685,4.33333333 17.3912707,4.91658464 17.3912707,5.63332927 C17.3912707,6.35007391 16.8060277,6.93332521 16.0869264,6.93332521 Z" id="Shape"></path>
            <path d="M3.97478539,3.46668292 C2.77564463,3.46668292 1.80089185,4.43907988 1.80089185,5.63332927 C1.80089185,6.82757866 2.77654137,7.79997563 3.97478539,7.79997563 C5.17302942,7.79997563 6.14867894,6.82757866 6.14867894,5.63332927 C6.14867894,4.43907988 5.1738854,3.46668292 3.97478539,3.46668292 Z M3.97478539,6.93332521 C3.25564333,6.93332521 2.67044111,6.35007391 2.67044111,5.63332927 C2.67044111,4.91658464 3.25564333,4.33333333 3.97478539,4.33333333 C4.69392746,4.33333333 5.27912968,4.91658464 5.27912968,5.63332927 C5.27912968,6.35007391 4.6938867,6.93332521 3.97478539,6.93332521 Z" id="Shape"></path>
            <path d="M16.0869264,8.66666667 C18.2443118,8.66666667 20,10.4164612 20,12.5666545 C20,12.8058537 19.8052043,13 19.565205,13 C19.3252056,13 19.13041,12.8058537 19.13041,12.5666545 C19.13041,10.893966 17.7651691,9.53331708 16.0869264,9.53331708 C15.529523,9.53331708 14.9851631,9.68411661 14.5112785,9.97100947 C14.3060481,10.094956 14.0399618,10.0299562 13.9138888,9.82540992 C13.7895277,9.62086368 13.8556417,9.35481139 14.0599754,9.23001178 C14.6704085,8.86166606 15.3712898,8.66666667 16.0869264,8.66666667 Z M3.91303285,8.66666667 C4.62871025,8.66666667 5.32955073,8.86166606 5.93912788,9.22911803 C6.14431754,9.35391764 6.21043149,9.61996994 6.08521444,9.82451617 C5.95999739,10.0290624 5.69215845,10.0940622 5.48782476,9.97011572 C5.01475539,9.68411661 4.47043622,9.53331708 3.91303285,9.53331708 C2.23479012,9.53331708 0.869549268,10.893966 0.869590028,12.5666545 C0.869590028,12.8058537 0.674794362,13 0.434795014,13 C0.194795666,13 0,12.8058537 0,12.5666545 C0,10.4164612 1.7556474,8.66666667 3.91303285,8.66666667 Z" id="Combined-Shape"></path>
            <path d="M9.99995924,6.93332521 C6.88343238,6.93332521 4.3477871,9.46051731 4.3477871,12.5666545 C4.3477871,12.8058537 4.54258276,13 4.78258211,13 C5.02258146,13 5.21737713,12.8058537 5.21737713,12.5666545 C5.21737713,9.93806269 7.3625751,7.80001625 9.99995924,7.80001625 C12.6373434,7.80001625 14.7825414,9.93806269 14.7825414,12.5666545 C14.7825414,12.8058537 14.977337,13 15.2173364,13 C15.4573357,13 15.6521314,12.8058537 15.6521314,12.5666545 C15.6521314,9.46051731 13.1164861,6.93332521 9.99995924,6.93332521 Z" id="Path"></path>
        </g>
    </g>
</svg>