<?xml version="1.0" encoding="UTF-8"?>
<svg width="13px" height="17px" viewBox="0 0 13 17" version="1.1" xmlns="http://www.w3.org/2000/svg" xmlns:xlink="http://www.w3.org/1999/xlink">
    <title>Group 3</title>
    <g id="Symbols" stroke="none" stroke-width="1" fill="none" fill-rule="evenodd">
        <g id="Menu--Copy" transform="translate(-32.000000, -171.000000)" fill="#444444" stroke="#444444" stroke-width="0.5">
            <g id="Group-3" transform="translate(33.000000, 171.960629)">
                <path d="M0.71456,15.2524699 L10.72456,15.2524699 C11.1193432,15.2524702 11.4395144,14.9327047 11.44,14.5379366 L11.44,4.52831073 C11.44,4.52039103 11.44,4.51335129 11.44,4.50631155 C11.4386743,4.49591306 11.4366159,4.48562117 11.43384,4.4755127 C11.4258872,4.44344829 11.4111869,4.41344875 11.39072,4.38751599 C11.39072,4.38751599 11.39072,4.37783636 11.38456,4.37343652 L7.568,0.0800770067 L7.5636,0.0800770067 C7.53457073,0.0484250189 7.49744886,0.0253007862 7.45624,0.0131995066 C7.44759806,0.0107253002 7.43876883,0.00895952071 7.42984,0.00791970396 C7.41745991,0.00426759649 7.40480561,0.00161912205 7.392,0 L0.71456,0 C0.319777104,0.000485570035 0,0.320644819 0,0.715413258 L0,14.5379366 C0,14.9330484 0.320313399,15.2533498 0.71544,15.2533498 L0.71456,15.2524699 Z M7.62696,0.865007666 L10.67176,4.28983965 L7.86544,4.28983965 C7.76072,4.28983965 7.62696,4.09008711 7.62696,3.932573 L7.62696,0.865007666 Z M0.47696,0.714533291 C0.477442592,0.583515748 0.58353756,0.477424746 0.71456,0.476942172 L7.15,0.476942172 L7.15,3.932573 C7.14259634,4.35176568 7.45000165,4.71020275 7.86544,4.76678182 L10.96392,4.76678182 L10.96392,14.5344167 C10.96392,14.5976632 10.9387945,14.6583192 10.8940708,14.7030412 C10.8493471,14.7477632 10.7886888,14.7729028 10.72544,14.7729028 L0.71456,14.7729028 C0.651094831,14.7736023 0.590020488,14.7487072 0.545140992,14.7038294 C0.500261497,14.6589516 0.475365502,14.5978795 0.476065035,14.5344167 L0.47696,0.714533291 Z M2.62152,6.67279057 L8.81848,6.67279057 C8.95018887,6.67279057 9.05696,6.56602343 9.05696,6.43431948 C9.05696,6.30261554 8.95018887,6.1958484 8.81848,6.1958484 L2.62152,6.1958484 C2.48981113,6.1958484 2.38304,6.30261554 2.38304,6.43431948 C2.38304,6.56602343 2.48981113,6.67279057 2.62152,6.67279057 L2.62152,6.67279057 Z M2.62152,8.57967929 L8.81848,8.57967929 C8.95018887,8.57967929 9.05696,8.47291215 9.05696,8.3412082 C9.05696,8.20950426 8.95018887,8.10273712 8.81848,8.10273712 L2.62152,8.10273712 C2.48981113,8.10273712 2.38304,8.20950426 2.38304,8.3412082 C2.38304,8.47291215 2.48981113,8.57967929 2.62152,8.57967929 Z M2.62152,4.76678182 L5.48152,4.76678182 C5.61322887,4.76678182 5.72,4.66001468 5.72,4.52831073 C5.72,4.39660679 5.61322887,4.28983965 5.48152,4.28983965 L2.62152,4.28983965 C2.48981113,4.28983965 2.38304,4.39660679 2.38304,4.52831073 C2.38304,4.66001468 2.48981113,4.76678182 2.62152,4.76678182 Z M2.62152,10.486568 L8.81848,10.486568 C8.95018887,10.486568 9.05696,10.3798009 9.05696,10.2480969 C9.05696,10.116393 8.95018887,10.0096258 8.81848,10.0096258 L2.62152,10.0096258 C2.48981113,10.0096258 2.38304,10.116393 2.38304,10.2480969 C2.38304,10.3798009 2.48981113,10.486568 2.62152,10.486568 Z M2.62152,12.3934567 L8.81848,12.3934567 C8.95018887,12.3934567 9.05696,12.2866896 9.05696,12.1549856 C9.05696,12.0232817 8.95018887,11.9165146 8.81848,11.9165146 L2.62152,11.9165146 C2.48981113,11.9165146 2.38304,12.0232817 2.38304,12.1549856 C2.38304,12.2866896 2.48981113,12.3934567 2.62152,12.3934567 Z" id="document-2"></path>
            </g>
        </g>
    </g>
</svg>