<?xml version="1.0" encoding="UTF-8"?>
<svg width="18px" height="17px" viewBox="0 0 18 17" version="1.1" xmlns="http://www.w3.org/2000/svg" xmlns:xlink="http://www.w3.org/1999/xlink">
    <title>icon-forum-active</title>
    <g id="Page-1" stroke="none" stroke-width="1" fill="none" fill-rule="evenodd">
        <g id="icon-forum-active" transform="translate(1.082160, 0.960592)" fill="#9ACA3C" fill-rule="nonzero" stroke="#9ACA3C" stroke-width="0.4">
            <path d="M14.0075058,0.107011657 C13.9381062,0.0376082908 13.8437644,-0.000961983217 13.745612,1.82369693e-05 C13.647806,0.000770221783 13.5541571,0.0389940188 13.4838337,0.107011657 L8.20230947,5.38859665 L8.18764433,5.40349354 L8.18025403,5.41088425 C8.1729792,5.42197031 8.16189375,5.43305637 8.15450345,5.44402696 C8.15450345,5.44772232 8.1508083,5.44772232 8.1508083,5.45141767 C8.143418,5.46238826 8.13960738,5.46989444 8.13233255,5.48086503 C8.12852193,5.48456039 8.12852193,5.48837121 8.12494225,5.49195109 C8.1212471,5.50303716 8.11766744,5.51042786 8.1138568,5.52151393 C8.1138568,5.52520928 8.11016165,5.52520928 8.11016165,5.52878913 L7.16963048,8.36520446 C7.12459585,8.4971979 7.15889145,8.64351081 7.25831408,8.74143769 C7.32794457,8.81014819 7.42205543,8.84860296 7.51997691,8.84837509 C7.5600462,8.84756365 7.59988453,8.84144323 7.63810622,8.82989525 L10.4669746,7.88573225 C10.4705543,7.88573225 10.4705543,7.88573225 10.4742494,7.8820369 C10.4859122,7.87868796 10.4972286,7.87372235 10.5073903,7.86737095 C10.5102771,7.86690903 10.512933,7.86563875 10.5148961,7.86356012 C10.525866,7.85628489 10.5406466,7.84889418 10.5517321,7.841388 C10.5627021,7.83399729 10.5737875,7.82291123 10.584873,7.81563599 C10.5886836,7.81205611 10.5922633,7.81205611 10.5922633,7.80824528 C10.5959584,7.80454993 10.6033487,7.80085458 10.6071593,7.79357934 L15.8920323,2.50818352 C15.9612009,2.43912658 16,2.34558794 16,2.24812297 C16,2.15054253 15.9612009,2.05688839 15.8920323,1.98806242 L14.0075058,0.107011657 Z M8.62286373,6.33287512 L9.66662817,7.37669721 L8.10277135,7.89670284 L8.62286373,6.33287512 Z M10.3489608,7.01524536 L8.98429561,5.65062035 L13.745612,0.888925487 L15.1101617,2.25355053 L10.3489608,7.01524536 Z" id="Shape"></path>
            <path d="M12.7682448,6.76912272 L12.7682448,13.6626905 C12.7665127,14.2730014 12.2722864,14.767255 11.6617783,14.7692182 L1.84411084,14.7692182 C1.23383371,14.767255 0.739376451,14.2730014 0.737644342,13.6626905 L0.737644342,3.84424987 C0.739376451,3.23393904 1.23383371,2.73956994 1.84411084,2.73772226 L8.73706698,2.73772226 C8.9408776,2.73772226 9.10588914,2.57258611 9.10588914,2.36887971 C9.10588914,2.16517331 8.9408776,2.00003718 8.73706698,2.00003718 L1.84411084,2.00003718 C0.825750585,2.0004991 0.0004618938,2.82594884 -8.8817842e-16,3.84424987 L-8.8817842e-16,13.6626905 C0.0004618938,14.6809916 0.825750585,15.5064413 1.84411084,15.5067877 L11.6617783,15.5067877 C12.6801386,15.5064413 13.5055427,14.6809916 13.5058891,13.6626905 L13.5058891,6.76912272 C13.5053118,6.56564729 13.3405312,6.40085759 13.137067,6.40028019 C12.9336028,6.40085759 12.7688222,6.56564729 12.7682448,6.76912272 Z" id="Path"></path>
        </g>
    </g>
</svg>