<?xml version="1.0" encoding="UTF-8"?>
<svg id="Calque_10" data-name="Calque 10" xmlns="http://www.w3.org/2000/svg" viewBox="0 0 2048 1536">
  <defs>
    <style>
      .cls-1, .cls-2 {
        stroke-width: 5px;
      }

      .cls-1, .cls-2, .cls-3, .cls-4 {
        stroke: #475a61;
        stroke-miterlimit: 10;
      }

      .cls-1, .cls-3 {
        fill: none;
      }

      .cls-2, .cls-4 {
        fill: #f6f3f5;
      }

      .cls-3 {
        stroke-width: 7px;
      }

      .cls-5 {
        fill: #fff;
        stroke-width: 0px;
      }

      .cls-4 {
        stroke-width: 8px;
      }
    </style>
  </defs>
  <rect class="cls-5" width="2048" height="1536"/>
  <g>
    <path class="cls-2" d="M1035.51,672.58c-24.13,15.87-91.56,62.33-91.56,62.33l-.32,9.72-434.92,322.06-.32,44.96-15.54,39.51s-13.06,22.67,25.26,30.23c38.32,7.56,117.66,24.83,117.66,24.83l26.66-47.28,31.63-2.81,25.91-72.76,76.43,2.05,16.41-24.18,16.19-2.16,25.37-87.33,89.81,1.08,12.41-23.86,41.45-.86,39.94-31.52,25.69,31.52s22.67,10.04,32.17-.86c9.5-10.9,38.32-85.93,38.32-85.93,0,0,21.81-17.6,45.77-4.1l-144.41-184.64Z"/>
    <ellipse class="cls-2" cx="1292.73" cy="607.32" rx="264.58" ry="277.53"/>
    <path class="cls-2" d="M1292.73,854.98c130.06,5.93,235.75-110.71,235.75-247.29s-105.55-247.29-235.75-247.29-235.75,110.71-235.75,247.29v16.14l33.34,3.89,104.28,158.68-3.24,31.74s57,34.82,101.36,36.84Z"/>
    <path class="cls-4" d="M1452.2,543.39c0,35.51-28.79,64.3-64.3,64.3s-64.3-28.79-64.3-64.3,28.79-64.31,64.3-64.31,64.3,28.8,64.3,64.31Z"/>
    <line class="cls-1" x1="1100.91" y1="798.47" x2="539.16" y2="1186"/>
    <line class="cls-3" x1="1090.16" y1="784.1" x2="518.1" y2="1181.39"/>
    <line class="cls-1" x1="849.44" y1="990.31" x2="559.94" y2="1190.03"/>
    <line class="cls-1" x1="849.53" y1="986.68" x2="556.03" y2="1189.16"/>
    <line class="cls-1" x1="709.92" y1="1110.98" x2="586.71" y2="1195.98"/>
    <line class="cls-1" x1="840.81" y1="1020.87" x2="749.01" y2="1084.2"/>
    <line class="cls-1" x1="1111.95" y1="809.22" x2="875.59" y2="972.27"/>
    <line class="cls-1" x1="1127.34" y1="823.02" x2="910.99" y2="972.27"/>
    <line class="cls-1" x1="1109.32" y1="806.65" x2="868.64" y2="972.68"/>
  </g>
</svg>