<?xml version="1.0" encoding="UTF-8"?>
<svg id="Calque_1" data-name="Calque 1" xmlns="http://www.w3.org/2000/svg" viewBox="0 0 2048 1536">
  <defs>
    <style>
      .cls-1, .cls-2, .cls-3 {
        stroke: #475b62;
        stroke-miterlimit: 10;
        stroke-width: 6px;
      }

      .cls-1, .cls-3 {
        fill: none;
      }

      .cls-2, .cls-4 {
        fill: #f6f3f5;
      }

      .cls-5 {
        fill: #fff;
      }

      .cls-5, .cls-4 {
        stroke-width: 0px;
      }

      .cls-3 {
        stroke-dasharray: 0 4;
      }
    </style>
  </defs>
  <rect class="cls-5" width="2048" height="1536"/>
  <g>
    <g>
      <path class="cls-2" d="M547.88,969.38l102.91-57.39c1.97-1.1,1.89-4.15-.14-4.93l-71.4-27.3c-1.27-.49-2.72.24-3.24,1.64l-31.51,84.7c-.86,2.32,1.32,4.44,3.38,3.29Z"/>
      <path class="cls-4" d="M543.09,966.94l-191.25-52.04s-175.99-67.31-170.6-92.22c5.39-24.9,41.49-152.48,41.49-152.48,0,0,13.5-13.91,22.98-11.33,9.48,2.58-8.57-39.34,4.11-90.48,12.68-51.14,50.92-135.57,83.67-174.32,32.75-38.74,37.4-49.04,37.4-49.04,0,0,26.58-2.48,32.15,5.97,5.56,8.45,81.32,63.3,164.18,98.8,82.87,35.5,166.59,61.06,228.05,47.71,61.46-13.35,85.81-22.92,85.81-22.92.49.38,54.13-25.52,54.13-25.52,0,0,43.99-22.26,55.35-21.49s34.62,17.28,34.62,17.28l14.46,18.28,44.08,57.33,38.4,54.4,30.92,44.5,24.74,50.22,23.29,52.14s6.54-1.92,8.65.5c2.12,2.43,20.45,26.85,20.45,26.85l49.91,47.81,60.16,44.13,7.52,2.97,27.53,14.43,84.12,32.6,66.65,18.6,58.15,15.82,47.15,18.84,39.83,21.94s23.54,13.81,29.61,18.7c6.07,4.89,20.28,20.26,27.73,29.23,7.45,8.97,13.02,16.55,14.34,25.07,1.33,8.51-1.7,25.39-2.36,27.81-.66,2.42,1.37,2.63,1.37,2.63,0,0,7.93,3.06,11.56,8.52,1.48,2.22,4.23,3.58,2.93,17.28-1.3,13.7-3.4,38.63-3.4,38.63,0,0-4.85,10.82-17.35,12.11-12.49,1.28-78.25,7.68-78.25,7.68l-86,5.57-76.58,1.54-70.96-3.17-59.08-4.1-74.19-9.78-82.17-14.9-83.52-18.21-95.23-29.38-85.36-29.3-59.2-27.9-25.38-21.48s-114.79-57.6-128.65-62.76c-13.86-5.16-78.01-31.46-78.01-31.46l-68.37-22.25s-10.68,21.38-12.81,28.61c-.89,2.99-21.38,51.4-23.25,52.31-3.2,1.56-5.48-.28-5.48-.28Z"/>
      <path class="cls-1" d="M246.99,659.26l2.52,5.81c2.06,4.75,5.53,8.76,9.94,11.48l59.92,36.97c6.5,4.01,13.3,7.5,20.35,10.44l129.85,54.15,92.03,32.44,108.2,41.01,102.92,40.03,122.82,62.1,97.63,39.05,128.56,40.99,108.27,27.15,98.83,17.64,92.76,12.75,83.59,5.63,94.2.65,83.39-5.53,42.2-5.54c7.7-1.01,15.31-14.1,15.99-16.63"/>
      <path class="cls-1" d="M365.19,356.19s19.11,25.28,42.34,45.23c23.46,20.14,86.63,64.4,116.41,77.36,29.78,12.96,65.79,23.45,104.67,28.48,38.88,5.03,83.05,13.58,107.95,11.33s86.73-15.26,106.34-21.03,39.45-22.58,39.45-22.58l67.25-31.87s32.17-5.38,42,.99c9.83,6.38,16.29,8.13,23.31,19.76,7.02,11.62,139.4,155.9,139.4,155.9"/>
      <path class="cls-1" d="M1113.54,806.03s-15.05-42.31-31.79-76.01c-16.74-33.7-40.17-73.39-63.68-104.3-23.51-30.92-81.04-118.74-90.56-129.66-9.52-10.92-25.53-30.37-25.53-30.37"/>
      <path class="cls-3" d="M1370.15,857.39s10.36,51.53,4.52,90.88c-5.85,39.35-21.12,89.51-48.97,127.55"/>
      <path class="cls-1" d="M550.93,805.05s78.5-138.42,194.56-116.1c116.06,22.33,201.23,56.6,264.11,82.04s97.11,40.76,124.51,35.26c27.4-5.5,42.94-8.21,56.67-33.16,13.73-24.95,25.97-43.07,25.97-43.07"/>
      <path class="cls-1" d="M1030.03,449.78c10.52-2.76,14.69-2.79,15.61-.22.92,2.56,12.13,6.41-48.42,36.84"/>
      <circle class="cls-1" cx="998.92" cy="486.86" r="2.79"/>
      <path class="cls-1" d="M1071.24,502.97c1.66-2.16,5.95-2.1,8.29-.93,2.85,1.43,22.22,8.21-36.54,34.34"/>
      <circle class="cls-1" cx="1041.51" cy="536.59" r="2.79"/>
      <path class="cls-1" d="M1113.84,561.74c2.27-2.77,8.81-2.78,10.48-1.57,1.66,1.2,18.24,7.8-43.5,26.68"/>
      <circle class="cls-1" cx="1080.82" cy="586.84" r="2.79"/>
      <path class="cls-1" d="M1151.21,619.52c2.49-1.79,7.52-2.35,9.22-1.19,6.26,4.28.54,19.58-31.17,27.13"/>
      <circle class="cls-1" cx="1129.25" cy="645.47" r="2.79"/>
      <path class="cls-1" d="M1183.66,679.79c2.49-1.79,7.82-.91,10,2.14,1.68,2.34,5.09,7.94-22.9,19.88"/>
      <circle class="cls-1" cx="1170.67" cy="702.17" r="2.79"/>
    </g>
    <path class="cls-1" d="M542.7,968.4l-191.25-52.04s-175.99-67.31-170.6-92.22c5.39-24.9,41.49-152.48,41.49-152.48,0,0,13.5-13.91,22.98-11.33s-8.57-39.34,4.11-90.48c12.68-51.14,50.92-135.57,83.67-174.32,32.75-38.74,37.4-49.04,37.4-49.04,0,0,26.58-2.48,32.15,5.97,5.56,8.45,81.32,63.3,164.18,98.8,82.87,35.5,166.59,61.06,228.05,47.71,61.46-13.35,85.81-22.92,85.81-22.92l54.13-25.52s43.99-22.26,55.35-21.49c11.35.78,34.62,17.28,34.62,17.28l14.46,18.28,44.08,57.33,38.4,54.4,30.92,44.5,24.74,50.22,23.29,52.14s6.54-1.92,8.65.5c2.12,2.43,20.45,26.85,20.45,26.85l49.91,47.81,60.16,44.13,7.52,2.97,27.53,14.43,84.12,32.6,66.65,18.6,58.15,15.82,47.15,18.84,39.83,21.94s23.54,13.81,29.61,18.7c6.07,4.89,20.28,20.26,27.73,29.23,7.45,8.97,13.02,16.55,14.34,25.07,1.33,8.51-1.7,25.39-2.36,27.81-.66,2.42,1.37,2.63,1.37,2.63,0,0,7.93,3.06,11.56,8.52,1.48,2.22,4.23,3.58,2.93,17.28-1.3,13.7-3.4,38.63-3.4,38.63,0,0-4.85,10.82-17.35,12.11-12.49,1.28-78.25,7.68-78.25,7.68l-86,5.57-76.58,1.54-70.96-3.17-59.08-4.1-74.19-9.78-82.17-14.9-83.52-18.21-95.23-29.38-85.36-29.3-59.2-27.9-25.38-21.48s-114.79-57.6-128.65-62.76c-13.86-5.16-78.01-31.46-78.01-31.46l-68.37-22.25s-10.68,21.38-12.81,28.61c-.89,2.99-22.64,50.32-23.25,52.31-.5,1.64-5.48-.28-5.48-.28Z"/>
  </g>
</svg>