<?xml version="1.0" encoding="UTF-8"?>
<svg id="Calque_8" data-name="Calque 8" xmlns="http://www.w3.org/2000/svg" viewBox="0 0 2048 1536">
  <defs>
    <style>
      .cls-1, .cls-2, .cls-3 {
        stroke-width: 5px;
      }

      .cls-1, .cls-2, .cls-3, .cls-4 {
        stroke: #475a61;
        stroke-miterlimit: 10;
      }

      .cls-1, .cls-5 {
        fill: #475a61;
      }

      .cls-2, .cls-4 {
        fill: none;
      }

      .cls-5, .cls-6 {
        stroke-width: 0px;
      }

      .cls-3 {
        fill: #f6f3f5;
      }

      .cls-6 {
        fill: #fff;
      }

      .cls-4 {
        stroke-width: 3px;
      }
    </style>
  </defs>
  <rect class="cls-6" width="2048" height="1536"/>
  <g>
    <path class="cls-3" d="M981.01,931.85l-205.34-120.38c-3.38-1.98-7.73-.74-9.56,2.72l-17.2,32.54s-34.96,77.49-46.1,133.78c-11.15,56.28-20.59,90.73-13.13,115.31,7.46,24.58,35.54,57.97,64.38,71.75s60.76,31.39,87.37,38.96c11.55,3.29,18.77,6.1,23.25,8.22,10.28,4.89,21.77,6.86,33.04,5.23,6.73-.98,13.37-3.21,17.98-7.74,13.4-13.18,56.62-79.02,56.62-79.02,0,0-.89-4.19,2.23-10.66,1.94-4.01,6.54-11.01,9.76-15.75,1.83-2.69.97-6.36-1.86-7.97l-48.55-27.62,52.82-121.91c2.78-6.42.34-13.91-5.7-17.45Z"/>
    <g>
      <polygon class="cls-5" points="945.65 983.28 938.86 994.3 934.78 991.89 941.41 980.64 945.65 983.28"/>
      <polygon class="cls-5" points="932.24 1005.44 925.76 1016.68 922.07 1014.63 928.35 1003.22 932.24 1005.44"/>
      <polygon class="cls-5" points="919.44 1028 913.27 1039.42 909.97 1037.71 915.94 1026.12 919.44 1028"/>
      <polygon class="cls-5" points="907.27 1050.92 901.47 1062.52 898.59 1061.15 904.18 1049.38 907.27 1050.92"/>
      <polygon class="cls-5" points="895.9 1074.23 890.58 1086.06 888.11 1085.01 893.22 1073.02 895.9 1074.23"/>
      <polygon class="cls-5" points="885.58 1098.02 880.96 1110.13 878.92 1109.42 883.32 1097.14 885.58 1098.02"/>
      <polygon class="cls-5" points="876.85 1122.41 873.42 1134.89 871.81 1134.53 875.02 1121.87 876.85 1122.41"/>
      <path class="cls-5" d="M870.97,1147.59c-.3,2.13-.53,4.27-.69,6.42-.16,2.15-.22,4.29-.19,6.45l-1.13.02c-.07-2.17-.05-4.37.07-6.54.11-2.18.31-4.35.57-6.52l1.38.18Z"/>
      <polygon class="cls-5" points="870.09 1173.46 869.97 1186.47 869.36 1186.46 869.22 1173.47 870.09 1173.46"/>
      <polygon class="cls-5" points="869.67 1199.47 869.17 1212.47 869.08 1212.47 869.32 1199.46 869.67 1199.47"/>
    </g>
    <g>
      <polygon class="cls-5" points="760.98 877.36 756.28 889.45 752.72 888.12 757.25 875.91 760.98 877.36"/>
      <polygon class="cls-5" points="751.66 901.59 747.1 913.75 743.91 912.6 748.28 900.34 751.66 901.59"/>
      <polygon class="cls-5" points="742.62 925.95 738.21 938.17 735.39 937.19 739.61 924.88 742.62 925.95"/>
      <polygon class="cls-5" points="733.89 950.42 729.66 962.71 727.21 961.9 731.25 949.53 733.89 950.42"/>
      <polygon class="cls-5" points="725.54 975.03 721.56 987.39 719.47 986.75 723.27 974.3 725.54 975.03"/>
      <polygon class="cls-5" points="717.74 999.8 714.15 1012.28 712.43 1011.82 715.84 999.25 717.74 999.8"/>
      <polygon class="cls-5" points="710.85 1024.83 708.04 1037.49 706.69 1037.24 709.32 1024.47 710.85 1024.83"/>
      <polygon class="cls-5" points="706.14 1050.29 704.98 1063.23 704.01 1063.16 704.97 1050.18 706.14 1050.29"/>
      <polygon class="cls-5" points="704.02 1076.19 703.33 1089.17 702.76 1089.15 703.25 1076.15 704.02 1076.19"/>
      <path class="cls-5" d="M703.01,1102.15c-.02,4.33.05,8.66.36,12.98h-.16c-.38-4.31-.51-8.65-.57-12.98h.37Z"/>
    </g>
    <path class="cls-3" d="M1228.61,804.79l35.68-56.65c1.06-1.69,3.44-2.15,5.55-1.09l30.59,15.49c2.49,1.26,3.58,4.13,2.34,6.13l-39.61,63.9c-1.28,2.07-4.46,2.25-6.65.38l-26.66-22.75c-1.74-1.49-2.27-3.78-1.24-5.42Z"/>
    <ellipse class="cls-3" cx="1281.2" cy="799.04" rx="41.04" ry="6.68" transform="translate(-67.73 1477.52) rotate(-58.65)"/>
    <path class="cls-3" d="M1051.38,382.62l22.61-25.02s47-36.99,61.52-47.06c14.52-10.07,25.37-24.2,47.11-20.71,21.74,3.49,45.38,2.46,62.67,9.61s83.38,40.05,98.02,58.45c14.65,18.4,18.14,21.46,18.4,27.42.26,5.96,18.5,14.92,20.49,23,1.99,8.08,7.13,25.66-17.31,78.06-24.45,52.4-78.22,153.7-78.22,153.7l-5-40.59-27.28-69.78-7.91-12.83,9.7-17.28-194.96-112.12-9.08,13.07-12.38-5.05,11.62-12.86Z"/>
    <polygon class="cls-3" points="748.91 846.73 734.58 833.8 769.43 691.18 817.13 498.27 980.57 407.18 1050.19 357.04 1073.99 357.6 1039.77 395.48 1052.15 400.53 1254.86 524.64 1295.44 486.71 1313.43 514.51 1281.67 599.47 1243.49 780.16 1090.78 895.75 1002.3 988.3 972.27 982.64 1007.41 897.95 891.53 852.07 794.38 769.44 748.91 846.73"/>
    <polygon class="cls-3" points="1096.6 964.63 1166.57 857.98 1101.36 886.61 1029.37 959.99 1075.17 990.02 1096.6 964.63"/>
    <ellipse class="cls-3" cx="1025.48" cy="648.55" rx="248.57" ry="260.92" transform="translate(352.98 1658.48) rotate(-88.65)"/>
    <ellipse class="cls-2" cx="1022.41" cy="639.91" rx="211.15" ry="224.33" transform="translate(358.62 1646.98) rotate(-88.65)"/>
    <path class="cls-1" d="M933.89,1071.21l-25.68,59.74c-2.73,6.36-14.99,47.55-8.84,51.89,6.96,4.91,14.87-7.13,72.85-49.56.04-.03.1-.02.13.03.48,1.03,5.18,10.52,12.15,3.07,7.15-7.63,19.04-39.28,19.73-41.11.02-.05.07-.06.12-.04l13.38,6.88s.08,0,.11-.02l93.84-121.56s.02-.08,0-.11l-14.99-15.71s-.09-.04-.13,0l-21.32,25.26s-.08.04-.11.02l-26.85-16.92s-.05-.07-.03-.11l49.06-85.19c.05-.09.07-.07,0,0l-94.96,100.52s-.05.03-.08.03l-29.92-5.65s-.08.01-.09.05l-38.35,88.51Z"/>
    <path class="cls-2" d="M1295.44,486.71s42.24-41.46,54.55-50.3c12.31-8.84,30.7-22.89,22.54,3.11-8.15,26-25.58,83.77-25.58,83.77"/>
    <path class="cls-1" d="M935.78,1160.84s30.86,14.7,15.22,34.57c-15.65,19.87-24,33.36-36.63,39.02-12.63,5.65-26.84,2.78-26.84,2.78,0,0-94.3-14.56-131.04-46.97-36.73-32.41-55.6-71.48-55.6-71.48l17.69,19.24c18.96,20.62,42.02,37.15,67.91,47.85,6.23,2.57,12.35,4.74,18.14,6.36l72.39,26.85c16.11,8.07,36.35-6.7,49.14-19.38h0s-12.53-18.62-12.53-18.62l22.14-20.22Z"/>
    <path class="cls-1" d="M901.54,1168.55c2.42,1.13,4.13,3.39,4.67,6.01.63,3.1,1.23,7.41.96,11.98-.51,8.84.3,23.84-10.89,33.62-11.19,9.78-37.34,11.47-59.19,10.36-21.85-1.11-86.74-19.45-114.31-43.01-27.57-23.56-33.87-27.73-33.48-44.24.39-16.51,11.6-24.52,11.6-24.52l-12.47-20.79s-17.44,15.86-20.28,22.74c-2.84,6.88-6.19,27.13-2.73,40.2,3,11.31,20.55,32.93,43.94,46.57s37.68,21.52,54.62,27.08c16.93,5.56,30.07,7.75,38.87,8.95,8.8,1.2,28.28,3.84,37.82,3.07,9.54-.77,22.85-1.55,29.44-3.08,6.58-1.53,30.42-11.39,34.86-14.26,4.43-2.87,13.37-14.56,15.98-22.93s1.93-28.62.81-34.45c-1.12-5.83-15.83-16.99-19-17.26s-2.34,9.12-3.67,11.15c-.67,1.02.81,2.04,2.45,2.8Z"/>
    <rect class="cls-2" x="1123.29" y="681.39" width="33.22" height="45.46" transform="translate(2365.47 162.68) rotate(124.46)"/>
    <path class="cls-5" d="M844.29,527.97c7.9-1.74,14.85-.88,21.99,1.39,6.62,1.92,11.06,7.54,16.39,11.49,10.87,8.05,21.25,16.58,31.26,25.74,0,0-1.02,1.84-1.02,1.84-9.86-2.71-19.41-5.9-28.99-9.3-6.33-2.39-12.51-4.91-19.07-6.67-6.7-2.05-11.67-6.74-15.97-12.26-2.17-2.92-4.17-6.16-5.62-10.4l1.02-1.84h0Z"/>
    <path class="cls-5" d="M903.71,807.05c-.99-8.03.53-14.87,3.47-21.76,2.54-6.41,8.55-10.3,13-15.23,9.04-10.06,18.52-19.58,28.59-28.68,0,0,1.73,1.19,1.73,1.19-3.63,9.56-7.71,18.77-12,27.98-2.98,6.08-6.08,11.99-8.45,18.35-2.67,6.47-7.81,10.98-13.72,14.73-3.12,1.89-6.52,3.57-10.89,4.6,0,0-1.73-1.19-1.73-1.19h0Z"/>
    <path class="cls-5" d="M1215.31,541.01c-3.83,5.66-8.73,9.68-14.22,13.28-5.21,3.53-11.5,4.67-17.3,6.83-11.37,4.23-23.82,8.48-35.44,11.89,0,0-.56-1.17-.56-1.17,5.14-3.59,10.38-6.96,15.62-10.34,3.92-2.51,11.88-7.4,15.9-9.76,2.68-1.57,5.23-3.41,7.84-5.11,5.28-3.51,11.29-5.27,17.53-6.34,3.19-.49,6.48-.79,10.07-.44,0,0,.56,1.17.56,1.17h0Z"/>
    <path class="cls-5" d="M1124.85,818.99c-5.82-3.99-10.14-9.06-14.07-14.63-3.88-5.35-5.63-11.81-8.27-17.78-5.19-11.67-10.52-24.48-14.96-36.41,0,0,1.06-.57,1.06-.57,3.94,5.28,7.68,10.68,11.44,16.06,2.79,4.03,8.26,12.22,10.91,16.35,1.77,2.75,3.77,5.38,5.67,8.06,3.86,5.41,6.17,11.58,7.83,18.02.8,3.28,1.42,6.65,1.46,10.34,0,0-1.06.57-1.06.57h0Z"/>
    <path class="cls-5" d="M1239.56,641.73c-6.02,3.23-12.24,4.5-18.76,5.13-6.25.7-12.35-1.23-18.49-2.02-12.03-1.55-25.03-3.6-36.9-5.99,0,0,.05-1.3.05-1.3,6.22-.79,12.43-1.32,18.64-1.88,4.64-.4,13.96-1.01,18.61-1.23,3.1-.14,6.21-.58,9.32-.87,6.3-.64,12.44.6,18.46,2.56,3.05,1.05,6.1,2.32,9.11,4.3,0,0-.05,1.3-.05,1.3h0Z"/>
    <path class="cls-5" d="M1012.85,841.14c-3.65-6.36-5.1-12.93-5.77-19.88-.76-6.62,1.51-13.02,2.47-19.47,1.89-13.02,4.29-25.97,7.18-38.84,0,0,1.5.07,1.5.07.86,6.57,1.43,13.13,2.03,19.7.97,9.86.98,19.69,2.22,29.5.7,6.68-.79,13.13-3.09,19.44-1.23,3.2-2.72,6.4-5.03,9.55,0,0-1.5-.07-1.5-.07h0Z"/>
    <path class="cls-5" d="M1034.17,434.67c3.16,5.61,4.4,11.41,4.98,17.53.65,5.83-1.32,11.48-2.16,17.17-1.65,11.18-3.79,23.24-6.26,34.25,0,0-1.3-.06-1.3-.06-.74-5.8-1.23-11.58-1.74-17.37-.36-4.32-.91-13-1.09-17.33-.11-2.89-.53-5.79-.8-8.68-.6-5.89.69-11.58,2.7-17.14,1.07-2.83,2.36-5.64,4.37-8.42l1.3.06h0Z"/>
    <path class="cls-5" d="M828.39,731.56c3.56-6.41,8.43-11.05,14.03-15.22,5.27-4.07,11.93-5.44,17.94-7.95,12.12-5.12,24.44-9.75,36.96-13.93,0,0,.71,1.32.71,1.32-5.18,4.14-10.5,8.02-15.81,11.92-7.94,5.93-16.34,11.02-24.11,17.15-5.36,4.05-11.65,6.12-18.24,7.41-3.38.6-6.88.98-10.77.63,0,0-.71-1.32-.71-1.32h0Z"/>
    <path class="cls-5" d="M807.34,627.15c6.26-3.82,12.78-5.45,19.72-6.31,6.59-.94,13.06,1.15,19.53,1.93,13.07,1.53,26.07,3.58,39.02,6.12,0,0-.03,1.5-.03,1.5-6.55,1.04-13.09,1.79-19.63,2.57-9.83,1.24-19.65,1.52-29.43,3.02-6.66.88-13.15-.43-19.52-2.56-3.24-1.15-6.47-2.54-9.68-4.77l.03-1.5h0Z"/>
    <path class="cls-5" d="M925.19,454.28c5.8,3.32,10.06,7.81,13.91,12.91,3.78,4.83,5.23,10.9,7.67,16.4,4.79,10.8,9.65,22.65,13.64,33.74,0,0-1.13.63-1.13.63-3.83-4.75-7.45-9.63-11.08-14.49-2.7-3.64-7.96-11.06-10.51-14.81-1.69-2.5-3.65-4.85-5.48-7.28-3.76-4.9-5.82-10.64-7.2-16.66-.66-3.08-1.12-6.27-.96-9.8,0,0,1.13-.63,1.13-.63h0Z"/>
    <path class="cls-5" d="M1139.31,464.36c1.15,7.72-.14,14.27-2.89,20.92-2.35,6.13-8.17,9.74-12.41,14.38-8.66,9.5-17.75,18.45-27.43,26.98,0,0-1.73-1.19-1.73-1.19,3.34-9.13,7.13-17.92,11.13-26.71,2.78-5.8,5.69-11.43,7.87-17.5,2.48-6.2,7.44-10.42,13.14-13.89,3.02-1.74,6.33-3.29,10.59-4.18l1.73,1.19h0Z"/>
    <path class="cls-5" d="M1204.65,746.9c-1.33.55-3.17,1.02-4.55,1.41-1.47.4-2.88.67-4.26.92-.33.04-.49-.21-.66-.43-3.08-2.04-12.19-7.44-15.47-9.49-3.54-2.16-12.74-7.77-16.17-9.86-.84-2.78-1.6-5.9-2.01-8.84,2.8-.98,5.92-1.73,8.77-2.26,3.39,2.07,12.66,7.72,16.17,9.86,3.37,2,12.25,7.57,15.52,9.41.27.06.57.08.69.39.42,1.34.81,2.71,1.13,4.2.28,1.4.71,3.25.84,4.69h0Z"/>
    <path class="cls-4" d="M1132.76,699.13l12.92.3c.66.02,1.01.79.59,1.3l-10.26,12.16"/>
    <path class="cls-5" d="M1023.54,636.4c13.69-6.6,28-10.46,42.63-13.62,14.42-3.23,29.27-3.07,43.91-4.36,28.54-2.52,59.65-4.79,88.17-6.19,0,0,.23,1.68.23,1.68-27.8,6.39-58.41,12.66-86.54,17.97-7.23,1.35-14.41,3.07-21.62,4.62-14.47,3.17-29.2,3.91-44.01,3.65-7.45-.21-14.93-.66-22.55-2.09,0,0-.23-1.68-.23-1.68h0Z"/>
    <path class="cls-5" d="M1022.7,637.67c-9.22-7.04-15.69-15.75-21.44-25.32-5.68-9.14-7.43-19.93-10.86-29.96-6.95-20.2-13.23-40.55-18.84-61.19,0,0,1.92-.84,1.92-.84,5.78,9.04,11.19,18.24,16.63,27.43,5.39,9.19,10.61,18.48,15.67,27.85,2.51,4.69,5.47,9.17,8.22,13.76,5.63,9.26,8.42,19.6,10.06,30.32.74,5.46,1.2,11.05.56,17.12,0,0-1.92.84-1.92.84h0Z"/>
    <polygon class="cls-2" points="1071.98 643.74 1083.07 654.05 1070.44 655.94 1055.77 645.49 839.56 571.81 1056.46 643.58 1071.98 643.74"/>
    <circle class="cls-5" cx="1026.35" cy="635.63" r="11.12"/>
    <g>
      <polygon class="cls-5" points="1285.81 455.04 1291.31 449.14 1294.73 452.23 1289.61 458.29 1285.81 455.04"/>
      <polygon class="cls-5" points="1296.9 443.36 1302.58 437.68 1305.33 440.35 1299.98 446.25 1296.9 443.36"/>
      <polygon class="cls-5" points="1308.36 432.1 1314.24 426.62 1316.35 428.82 1310.79 434.54 1308.36 432.1"/>
      <polygon class="cls-5" points="1320.21 421.27 1326.31 416.04 1327.81 417.75 1322.02 423.22 1320.21 421.27"/>
      <polygon class="cls-5" points="1332.56 410.98 1338.95 406.13 1339.86 407.31 1333.75 412.43 1332.56 410.98"/>
      <polygon class="cls-5" points="1345.54 401.53 1352.36 397.29 1352.73 397.9 1346.17 402.44 1345.54 401.53"/>
      <path class="cls-5" d="M1359.47,393.57c1.99-.93,4.03-1.77,6.11-2.48-2.04.81-4.03,1.74-5.97,2.76l-.14-.29Z"/>
    </g>
    <g>
      <polygon class="cls-5" points="1115.47 351.41 1120.96 345.37 1124.38 348.49 1119.38 354.52 1115.47 351.41"/>
      <polygon class="cls-5" points="1126.65 339.63 1132.54 334.11 1135.22 336.94 1129.69 342.62 1126.65 339.63"/>
      <polygon class="cls-5" points="1138.61 328.8 1144.86 323.72 1146.87 326.16 1140.95 331.45 1138.61 328.8"/>
      <polygon class="cls-5" points="1151.29 318.86 1157.9 314.26 1159.29 316.25 1152.99 321.08 1151.29 318.86"/>
      <polygon class="cls-5" points="1164.68 309.93 1171.65 305.91 1172.5 307.37 1165.79 311.67 1164.68 309.93"/>
      <polygon class="cls-5" points="1178.79 302.22 1186.11 298.91 1186.5 299.79 1179.4 303.4 1178.79 302.22"/>
      <polygon class="cls-5" points="1193.6 296.02 1201.24 293.6 1201.3 293.81 1193.8 296.58 1193.6 296.02"/>
    </g>
  </g>
</svg>