<?xml version="1.0" encoding="UTF-8"?>
<svg id="Calque_2" data-name="Calque 2" xmlns="http://www.w3.org/2000/svg" viewBox="0 0 2048 1536">
  <defs>
    <style>
      .cls-1, .cls-2, .cls-3 {
        fill: none;
      }

      .cls-1, .cls-2, .cls-3, .cls-4, .cls-5 {
        stroke-miterlimit: 10;
      }

      .cls-1, .cls-3, .cls-4, .cls-5 {
        stroke-width: 5px;
      }

      .cls-1, .cls-5 {
        stroke: #475b62;
      }

      .cls-2 {
        stroke-width: 13px;
      }

      .cls-2, .cls-3, .cls-4 {
        stroke: #475a61;
      }

      .cls-6 {
        fill: #475a61;
      }

      .cls-6, .cls-7, .cls-8 {
        stroke-width: 0px;
      }

      .cls-4 {
        fill: #f6f3f5;
      }

      .cls-7 {
        fill: #fff;
      }

      .cls-8, .cls-5 {
        fill: #f5f1f4;
      }
    </style>
  </defs>
  <rect class="cls-7" width="2048" height="1536"/>
  <g>
    <g>
      <path class="cls-5" d="M930.28,707.37l11.8-213.07c3.18-21.37,19.83-37.04,39.36-37.04h173.88c20.24,0,37.27,16.84,39.57,39.14,2.97,28.74,1.64,158.13.99,208.89-.15,11.39-8.5,20.53-18.77,20.55-57.41.09-211.82.44-237.07.2-7.28-.07-10.94-10.69-9.76-18.66Z"/>
      <circle class="cls-3" cx="1068.64" cy="533.04" r="9.99"/>
      <circle class="cls-6" cx="1068.54" cy="533.13" r="3.94"/>
    </g>
    <path class="cls-8" d="M1472.89,1321.79s-4.13,5.39-10.79,6.29c-6.65.9-43.51,2.52-43.51,2.52h-238.2l-44.22-2.16h-69.03l-55.19.18-147.96,3.96h-172.04l-45.66-7.37-10.02-2.2-9.03-6.2s-7.37-8.49-8.63-16.76-2.52-10.79-2.52-10.79l-4.13-32v-68.31l6.47-61.84,7.91-59.69,10.79-67.96,2.52-19.06,7.19-52.85,15.46-115.6,4.85-44.94,1.08-26.25-.36-17.98,1.08-9.71s-1.08-1.62,14.74-3.24c15.82-1.62,30.56,0,30.56,0l42.79-.72h83.6l-.36-9.71h321.44l93.84,3.42,4.67,1.44,3.24,6.83,25.17,1.08,52.85-2.88,31.64-1.08,34.88-1.08,12.22-.54s11.33-3.24,11.15,16.54,0,28.4,0,28.4l11.15,65.26,17.26,98.7,13.12,84.85,14.02,87.19,12.94,76.4,4.31,38.11v33.08l-4.13,33.08-7.55,27.69s-7.91,10.79-11.15,16.54c-3.31,5.88-8.45,9.35-8.45,9.35Z"/>
    <path class="cls-3" d="M619.32,1289.25s16,17.44,26.79,19.6c10.79,2.16,117.57,5.39,117.57,5.39h687.1s27.87,4.85,44.94-18.34"/>
    <path class="cls-1" d="M1476.13,1321.79s-4.13,5.39-10.79,6.29c-6.65.9-43.51,2.52-43.51,2.52h-238.2l-44.22-2.16h-69.03l-55.19.18-147.96,3.96h-172.04l-45.66-7.37-10.02-2.2-9.03-6.2s-7.37-8.49-8.63-16.76c-1.26-8.27-2.52-10.79-2.52-10.79l-4.13-32v-68.31l6.47-61.84,7.91-59.69,10.79-67.96,2.52-19.06,7.19-52.85,15.46-115.6,4.85-44.94,1.08-26.25-.36-17.98,1.08-9.71s-1.08-1.62,14.74-3.24c15.82-1.62,30.56,0,30.56,0l42.79-.72h83.6l-.36-9.71h321.44l81.35,1.62,14.56.54,2.34,9.89,28.67.72,52.85-2.88,31.64-1.08,34.88-1.08,12.22-.54s11.33-3.24,11.15,16.54,0,28.4,0,28.4l11.15,65.26,17.26,98.7,13.12,84.85,14.02,87.19,12.94,76.4,4.31,38.11v33.08l-4.13,33.08-7.55,27.69s-7.91,10.79-11.15,16.54-8.45,9.35-8.45,9.35Z"/>
    <path class="cls-4" d="M619.32,1289.25l-39.55-23.55s-13.66-9.17-26.25-30.2c-12.58-21.03-14.2-66.34-12.22-71.55s4.49-34.7,11.87-54.29c7.37-19.6,28.58-63.64,31.28-66.88s34.88-53.21,37.03-56.81c2.16-3.6,24.63-38.29,24.63-45.66s-3.72,43.75-3.72,43.75l-15.7,26s-10.07,16.72-16.54,29.12c-6.47,12.4-4.3,7.37-16.8,30.2-12.5,22.83-17.89,43.51-23.83,61.84-5.93,18.34-.54,58.25-1.26,65.62-.72,7.37,9.53,37.75,15.1,48.18,5.57,10.43,33.44,33.08,33.44,33.08l2.52,11.15Z"/>
    <path class="cls-5" d="M857.73,699.41l-.03-14.2s.72-9.67-5.39-10.68-37.19-9.03-37.19-9.03l-35.39-5.66-4.92-1.75-8.49-1.08-5.79,51.57h7.61l4-25.89,1.26-7.01s1.26-3.06,6.83-1.98c5.57,1.08,22.29,3.78,22.29,3.78l18.88,3.96,20.45,4.63s4.99,1.3,5.08,6.34-.36,7.01-.36,7.01h11.17Z"/>
    <path class="cls-5" d="M1260.85,701.57l-5.39-17.08s-3.31-7.93,4.13-11.15c7.44-3.22,32.18-9.17,32.18-9.17l39.61-6.92h15.42l8.61,42.35h0l-11.95.4-6.9-33.03s-.31-3.88-9.02-3.16c-8.72.72-32.54,5.39-32.54,5.39l-16.54,4.85-10.7,3.6,2.5,24.6-9.42-.69"/>
    <path class="cls-4" d="M845.16,680.66l3.19-14.15,13.3-44.4,18.52-61.84s24.09-88.09,30.02-106.61c5.93-18.52,24.09-76.94,24.09-76.94,0,0,11.33-34.88,17.98-47.82,6.65-12.94,26.97-50.16,37.39-58.97,10.43-8.81,24.09-21.21,30.92-23.73,6.83-2.52,13.66-8.45,21.57-8.99,7.91-.54,31.1,3.6,41.35,9.71s32.18,22.29,42.79,38.47c10.61,16.18,22.29,32.18,22.29,32.18l21.93,42.43,13.3,32.36,19.78,51.78,13.66,46.02,12.94,44.22,8.81,33.62,3.6,15.82s4.85,11.15,6.11,17.26c1.26,6.11,3.6,28.4,3.6,28.4l2.41,27.78s-1.73,10.64,8.09,16.78c9.82,6.14,16.47,7.22,16.47,7.22l16.18-5.39,30.2-3.82s6.9,1.33,10.91-5.07c4.01-6.4-5.24-23.31-5.24-23.31l-9.99-19.58s-29.66-105.35-32-110.56c-2.34-5.21-47.46-90.97-47.46-90.97l-49.8-102.47-67.6-78.74-83.42-21.57s-77.12,29.48-76.22,29.48-47.46,48.18-47.46,48.18l-52.13,114.7-33.98,90.79-28.76,90.43-17.98,47.82-4.81,18.67s.49,6.08.49,13.87c0,7.37,7.36,10.7,7.36,10.7l30.28,2.05,15.75,2.2c5.34.75,10.36-2.73,11.54-7.99Z"/>
    <path class="cls-5" d="M1285.48,704.12c-.67.16-15.53,1.23-15.69-2.1-.11-2.27-2.73-25.98-3.85-39.83-.36-4.55,5.39-10.37,9.52-10.97l58.31-7.28c4.09-.59,9.66-.9,12.29,5.39l10.73,47.42c.83,4.45-8.39,6.08-12.54,6.07l-3.78.36-5.64-27.42-1.55-8.79c-.32-1.8-2.3-3.21-3.96-2.99l-44.55,5.83c-1.68.25-2.71,2.03-2.49,3.88l1.35,14.7,1.35,10.38.49,5.35Z"/>
    <path class="cls-5" d="M821.91,702.47c.73.16,13.45,1.96,13.63-1.37.12-2.27,2.8-26.5,4.02-40.35.4-4.55-2.87-8.6-7.42-9.19l-63.74-8.39c-4.5-.59-10.95,2.34-11.82,6.77l-8.75,42.74c-.91,4.45,1.75,8.31,6.31,8.29l7.05.67,6.19-29.01,2.58-13.44,29.54,3.19,25.3,2.83-1.33,20.11-1.55,17.15Z"/>
    <path class="cls-4" d="M796.17,538.69l23.73-67.82,29.26-71.73s27.64-52.04,39.1-70.25c11.46-18.2,21.57-38.02,43.42-61.48,21.84-23.46,48.4-44.63,62.02-49.48,13.62-4.85,18.47-12.4,44.22-13.21,25.75-.81,40.72-6.07,73.35,12.67,32.63,18.74,32.76,15.91,51.91,36.94,19.15,21.03,34.11,42.34,42.34,60.4,8.22,18.07,18.61,40.58,18.61,40.58l36.4,72.54s27.78,64.58,28.04,65.66c.27,1.08,13.89,35.33,20.76,62.83s17.93,69.44,17.93,69.44l5.93,26.16-.98,12.03-48.78,5.83s-10.58-4.77-16.1-15.63c-5.52-10.86-6.96-51.49-6.96-51.49l-21.93-100.49s-8.81-44.94-26.61-97.26c-17.8-52.31-26.16-77.39-42.07-98.7-15.91-21.3-33.71-46.92-61.21-60.94-27.51-14.02-52.58-24.81-84.67-11.87s-55.82,30.2-71.73,47.46c-15.91,17.26-43.6,55.73-61.93,110.38-18.34,54.65-26.2,85.93-32.51,119.91-6.32,33.98-15.33,64.33-18.61,81.84-4.2,22.45-16.39,79.01-16.39,79.01l-52.41-7.5,25.86-125.84Z"/>
    <polygon class="cls-5" points="1347.59 722.87 1342.1 682.69 1279.81 689.39 1282.16 722.87 1347.59 722.87"/>
    <polygon class="cls-5" points="756.76 722.87 762.37 682.69 826.06 689.39 823.66 722.87 756.76 722.87"/>
    <circle class="cls-3" cx="1063.88" cy="868.91" r="9.99"/>
    <g>
      <polyline class="cls-2" points="1336.16 795.98 1081.62 804.54 966.77 802.02 871.85 799.08 812.12 796.14"/>
      <polyline class="cls-2" points="1335.25 784 1080.78 792.63 962.77 790.14 867.85 787.21 808.12 784.27"/>
      <polyline class="cls-3" points="816.95 799.81 839.59 802.07 890.96 805.31 917.39 808 953.52 808 979.95 808 1022.55 808 1071.74 808 1122.33 808 1152.53 808 1193.52 808 1236.67 808 1291.68 803.91 1325.66 801.98 1338.33 801.17 1337.43 777.26 1318.64 777.26 1263.63 780.5 1209.16 783.2 1171.41 784.27 1098.06 784.44 1058.65 784.44 1025.79 784.44 998.29 784.44 940.04 784.44 891.5 782.12 854.29 777.83 826.06 777.26 818.3 777.83 816.95 799.81"/>
      <path class="cls-5" d="M814.65,886.48c2,0,3.64-1.59,3.68-3.6.32-14.33,1.35-67.83-.62-93.62-.78-10.24-9.09-9.57-14.02-9.57-3.44,0-10.08.44-11.33,8.76-3.29,22.01-6.38,80.27-7.12,94.73-.09,1.79,1.34,3.29,3.13,3.29h26.28Z"/>
      <path class="cls-1" d="M796.04,868.86l-.42,7.3c-.06.96.7,1.77,1.66,1.79l9.6.2c.95.02,1.73-.75,1.73-1.7v-7.18c0-.91-.72-1.66-1.64-1.7l-9.18-.32c-.92-.03-1.7.68-1.75,1.6Z"/>
      <path class="cls-5" d="M845.35,807l1.84-29.97-27.43-4.58s-6.76-8.33-16.68-4.35c-9.93,3.98-17.28,14.64-17.28,14.64l6,16.24c1.58,2.79,4.15,4.89,7.22,5.81,2.72.81,13.47.94,17.47.55,4.23-.42,28.86,1.67,28.86,1.67Z"/>
      <line class="cls-5" x1="800.66" y1="785.92" x2="823.23" y2="787.39"/>
    </g>
  </g>
</svg>