<?xml version="1.0" encoding="UTF-8"?>
<svg id="Calque_9" data-name="Calque 9" xmlns="http://www.w3.org/2000/svg" viewBox="0 0 2048 1536">
  <defs>
    <style>
      .cls-1 {
        fill: none;
      }

      .cls-1, .cls-2 {
        stroke: #475a61;
        stroke-miterlimit: 10;
        stroke-width: 5px;
      }

      .cls-2 {
        fill: #f6f3f5;
      }

      .cls-3 {
        fill: #fff;
        stroke-width: 0px;
      }
    </style>
  </defs>
  <rect class="cls-3" width="2048" height="1536"/>
  <g>
    <path class="cls-2" d="M863.28,1289.93l14.98,14.98,51.87-14.98,29.68-315.82s1.73-33.43-9.8-65.7c-11.53-32.27-233.69-119.01-233.69-119.01l-11.91-.86-19.98,1.15s-11.05,2.31-14.79,13.06c-3.75,10.76-50.24,182.98-50.24,182.98l8.55,8.93s34.58-2.69,36.31-7.49c1.73-4.8,49.85-150.32,49.85-150.32l165.4,95.86s4.42,16.42,4.23,31.31c-.19,14.89-20.46,325.9-20.46,325.9Z"/>
    <path class="cls-2" d="M1395.22,1084.47l17.72,13.33,32.42-13.76-31.89-251.42s-11.81-41.01-24.59-46.3c-12.77-5.28-74.54-6.15-74.54-6.15l3.65,29.58s27.47,15.66,32.08,31.5c4.61,15.85,45.14,243.2,45.14,243.2Z"/>
    <path class="cls-2" d="M950.02,908.41s49.18-.58,79.63-9.03c30.45-8.45,305.06-81.02,324.37-90.96,19.31-9.94,44.52-25.57,57.34-46.36,12.82-20.78,37.6-63.14,44.38-87.2,6.77-24.06,13.98-45.53,17.72-66.42,3.75-20.89,7.35-49.27,7.35-58.5s-1.3-40.49-4.32-54.17c-3.03-13.69-16.57-48.41-34.87-63.54-18.3-15.13-46.68-35.01-104.02-44.81-57.34-9.8-109.93-20.75-125.92-25.36-15.99-4.61-42.65-12.97-57.92-29.97s-36.74-55.9-52.3-69.16c-15.56-13.26-32.71-29.68-90.77-31.41-58.06-1.73-252.57,2.16-263.23,2.45-10.66.29-104.02,3.75-123.76,8.79-19.74,5.04-34,6.34-42.94,22.76-8.93,16.42-14.55,41.64-13.4,73.91,1.15,32.27-.72,32.13,1.87,47.55,2.59,15.42,51,236.58,51,236.58,0,0,13.69,57.63,21.18,76.07,7.49,18.44,32.42,59.22,41.35,69.45,0,0,40.77,37.46,63.39,48.77,22.62,11.31,100.21,50.86,107.7,54.97,7.49,4.11,59.07,27.59,67.07,30.18,8,2.59,23.93,5.52,29.1,5.4Z"/>
    <path class="cls-1" d="M914.1,900.32s-60.61-44.65-72.71-77.79c-12.1-33.14-68-185.57-78.95-212.08-10.95-26.51-32.71-71.03-46.97-88.18-14.26-17.15-138.4-107.23-147.7-164.25"/>
    <path class="cls-2" d="M1416.54,666.79s0,37.03-34,49.71c-34,12.68-202.29,56.19-237.44,63.68-35.15,7.49-132.98,27.09-140.91,29.1-7.92,2.02-49.56,10.95-72.9,2.31-23.34-8.64-38.76-2.02-64.83-63.39-26.08-61.38-45.62-112.19-45.62-112.19,0,0,238.21-40.34,283.16-34.96,44.95,5.38,304.92,37.94,312.55,65.75Z"/>
    <path class="cls-1" d="M820.83,636.01s-37.46-94.9-57.05-114.69c-19.59-19.79-199.26-137.87-196.43-181.87"/>
    <path class="cls-1" d="M1416.54,666.79s22.19-76.51,24.21-104.74c2.02-28.24,5.76-59.36-4.61-79.53-10.37-20.17-36.88-61.09-97.4-72.62-60.51-11.53-129.09-24.49-145.81-32.27-16.71-7.78-50.14-35.15-62.24-52.44-12.1-17.29-35.41-67.47-35.41-67.47"/>
  </g>
</svg>