<?xml version="1.0" encoding="UTF-8"?>
<svg id="Calque_5" data-name="Calque 5" xmlns="http://www.w3.org/2000/svg" viewBox="0 0 2048 1536">
  <defs>
    <style>
      .cls-1 {
        fill: #475a61;
      }

      .cls-1, .cls-2, .cls-3 {
        stroke-width: 5px;
      }

      .cls-1, .cls-2, .cls-3, .cls-4 {
        stroke: #475a61;
        stroke-miterlimit: 10;
      }

      .cls-2 {
        fill: none;
      }

      .cls-3, .cls-4 {
        fill: #f6f3f5;
      }

      .cls-5 {
        fill: #fff;
        stroke-width: 0px;
      }

      .cls-4 {
        stroke-width: 3px;
      }
    </style>
  </defs>
  <rect class="cls-5" width="2048" height="1536"/>
  <g>
    <path class="cls-3" d="M278.74,303.55l97.19,706.51c1.19,8.68,9.21,14.61,17.66,13.07l821.1-149.45c8.14-1.48,13.61-9.35,12.29-17.69l-95.6-604.89c-1.24-7.82-8.06-13.43-15.81-12.98l-822.7,47.83c-8.84.51-15.37,8.63-14.14,17.59Z"/>
    <path class="cls-3" d="M417.74,1053.46c20.79,19.05,62.18,51.65,98.28,75.22,36.1,23.57,138.4,93.27,138.4,93.27l96.28,63.68,18.05,9.78s12.1,7.02,59.67-2.51c55.99-11.21,653.64-154.82,653.64-154.82l282.82-75.22s4.8-1.22,4.51-10.53c-.28-9.31-1.5-10.34-13.45-15.42-16.42-6.98-121.01-42.78-121.01-42.78l-123.73-42.87-153.91-55.75-109.41-39.11s-5.83-2.32-19.81-1.38c-13.98.94-784.98,122.82-821.91,139.97-36.92,17.15-9.82,38.88,11.56,58.48Z"/>
    <polygon class="cls-3" points="296.64 314.82 386.9 946.65 1206.77 811.26 1122.53 268.19 296.64 314.82"/>
    <path class="cls-3" d="M941.68,1112.56l150.77,82.3s9.03,4.37,24.26,1.13c18.45-3.93,343.05-82.61,343.05-82.61,0,0,9.03-4.58-22.53-16.39-39.33-14.72-149.49-64.59-149.49-64.59,0,0-4.98-1.63-16.89,1.32-17.57,4.35-323.18,70.77-323.18,70.77,0,0-2.7.63-5.43,1.57-2.93,1.01-3.27,5.03-.55,6.52Z"/>
    <polygon class="cls-1" points="492.21 982.75 504.74 992.28 1170.42 877.45 1154.87 865.92 492.21 982.75"/>
    <path class="cls-3" d="M1275.56,877.61l-829.84,146.07c-3,.53-3.89,4.41-1.41,6.19l173.31,124.21c.78.56,1.76.77,2.7.57l890.19-184.67c3.39-.7,3.74-5.41.48-6.6l-233.66-85.6c-.57-.21-1.18-.26-1.78-.16Z"/>
    <path class="cls-2" d="M389.54,1006.07l376.84,276.05s12.41,10.91,50.02,4.14c37.61-6.77,950.56-235.43,950.56-235.43,0,0,2.54-9.4-11-13.92"/>
    <circle class="cls-4" cx="734.22" cy="275.16" r="5.37"/>
  </g>
</svg>