<?xml version="1.0" encoding="UTF-8"?>
<svg id="Calque_7" data-name="Calque 7" xmlns="http://www.w3.org/2000/svg" viewBox="0 0 2048 1536">
  <defs>
    <style>
      .cls-1, .cls-2 {
        stroke: #f6f3f5;
      }

      .cls-1, .cls-2, .cls-3, .cls-4, .cls-5, .cls-6, .cls-7, .cls-8 {
        stroke-miterlimit: 10;
      }

      .cls-1, .cls-2, .cls-6, .cls-7 {
        stroke-width: 15px;
      }

      .cls-1, .cls-3, .cls-9, .cls-6 {
        fill: #475a61;
      }

      .cls-2, .cls-5, .cls-7 {
        fill: #f6f3f5;
      }

      .cls-3, .cls-4, .cls-5 {
        stroke-width: 5px;
      }

      .cls-3, .cls-4, .cls-5, .cls-6, .cls-7, .cls-8 {
        stroke: #475a61;
      }

      .cls-4, .cls-8 {
        fill: none;
      }

      .cls-9, .cls-10 {
        stroke-width: 0px;
      }

      .cls-10 {
        fill: #fff;
      }

      .cls-8 {
        stroke-width: 9px;
      }
    </style>
  </defs>
  <rect class="cls-10" width="2048" height="1536"/>
  <g>
    <path class="cls-5" d="M557.54,1065.62s-79.5-13.03-83.28-31.31c-3.78-18.28-9.46-73.12-7.56-228.19,1.89-155.07-3.15-287.03-2.31-289.97.84-2.94,1.05-13.45,4.62-18.91,3.57-5.46,34.46-56.73,39.71-62.41,5.25-5.67,45.39-36.14,54-38.45,8.61-2.31,20.17-13.24,41.6-16.81,21.43-3.57,50.43-7.14,54.21-7.14s14.88-4.14,15.67-4.96,85.66-6.43,85.66-6.43c0,0,229.72-3.83,231.19-4.15,1.47-.32,12.46-25.53,27.5-40.66,15.05-15.13,27.65-26.9,32.07-29,4.41-2.1,11.24-6.83,17.65-7.14,6.41-.32,6.43-.81,6.43-.81,0,0-.3-1.48,2.31-3.17,2.29-1.49,33.1-22.42,40.51-27.45,1.03-.7,2.28-.97,3.5-.77l25.79,4.17c.55.05.77.74.36,1.1-3.79,3.33-9.17,9.1-9.17,9.1l100.1,6.41,28.45-8.82s21.34,8.79,21.62,8.82c.67.08,37.94,2.32,48.62,6.22,10.68,3.9,33.61,13.95,42.16,27.11,8.55,13.16,13.99,22.38,18.67,39.32,4.69,16.94,12.49,43.97,12.49,43.97,0,0,.37.98,3.84.93,3.47-.06,13.93,1.06,15.48,1.65s18,4.08,27.26,8.92c9.26,4.85,9.24,11.87,11.88,12.96,1.85.77,10.93,4.47,14.5,4.81,3.57.33,15.9,4.02,19.09,5.14,3.19,1.12,20.03,6.62,22.87,8.06s14.2,7.39,15.74,9.1c1.54,1.71,7.58,11.58,9.02,15.54,1.44,3.96,4.87,9.63,5.81,11.35.95,1.71,6.76,4.75,8.23,5.4,1.48.65,5.1,2.07,8.61,14.01,3.51,11.94,5.14,14.05,7.68,30.06,2.54,16.02,3.25,30.85,3.57,43.77.32,12.92-3.2,398.21-3.78,400.75-.58,2.55-13.24,51.58-13.24,51.58-10.22,22.69-48.93,48.15-59.67,53.58-19.54,9.88-111.29,10.9-111.29,10.9l-153.68-7.96s-2.29,1.24-2.71.47c-1-1.85-4.74,7.26-60.33,64.24-53.39,54.73-154.76,151.71-243.32,151.15"/>
    <path class="cls-5" d="M464.38,516.15s8.02,4.5,21.26,7.73c13.24,3.23,114.27,33.46,156.29,27.15,42.02-6.3,114.1-35.72,128.17-37.4,14.08-1.68,102.96,5.67,102.96,5.67,0,0,52.53-44.13,96.66-53.79,44.13-9.67,95.61-20.8,140.99-9.46,45.39,11.35,102.96,27.11,145.19,63.04,42.23,35.93,66.5,60.25,72.81,70.18,6.3,9.93,15.13,23.95,15.13,23.95l87.78,2.52s17.02-.79,23.95-16.7c6.93-15.92,15.13-46.17,15.13-46.17,0,0,59.45-10.67,58.82-8.46-.63,2.21-8.23,506.92-8.23,506.92"/>
    <path class="cls-3" d="M1382.07,692.26l60.43,22.67s19.12,6.3,19.33,25.21c.21,18.91,5.46,41.81-14.29,47.91-19.75,6.09-53.83,11.45-53.83,11.45h-26.01l14.38-107.24Z"/>
    <path class="cls-3" d="M547.99,812.04c-23.51-37.65-3.76-55.72,24.97-53.4"/>
    <path class="cls-3" d="M1309.15,564.18l13.57-11.94,147.98.63-15.13,46.17s-7.56,17.18-23.95,16.7c-16.4-.47-87.78-2.52-87.78-2.52l-34.69-49.05Z"/>
    <path class="cls-5" d="M604.1,720.39c66.34-92.91,262.89-205.95,262.89-205.95,55.41-39.03,118.34-61.78,195.83-61.78,172.07,0,331.61,143.71,331.61,329.19,0,123.77-86.57,205.12-156.31,282.77"/>
    <path class="cls-9" d="M755.32,585.73c108.29-97.57,252.51-129.3,383.21-55.55,102.5,58.26,175.16,165.3,195.54,281,14.76,82.67-3.29,177.92-72.96,231.17,13.9-14.99,25.82-32.01,34.73-50.35,22.27-45.34,26.61-97.19,19.71-146.66-16.11-108.16-78.38-209.26-167.09-273-128.76-90.57-266.77-68.73-393.15,13.4h0Z"/>
    <path class="cls-9" d="M731.72,603.02c86.17-61.59,194.51-88.48,297.23-55.41,141.52,45.34,242.97,185.78,262.18,330.48,9.75,74.09-5.69,159.99-67.69,208.03-6.06,4.69-12.54,9.05-19.22,12.81,7.86-6.43,15.3-13.38,21.96-21.02,53.64-60.98,54.38-150.16,34.37-224.95-35.47-130.83-133.7-252.97-268.26-288.15-88.52-23.31-180.06-1.68-260.56,38.21h0Z"/>
    <path class="cls-4" d="M610.18,711.51c66.34-92.91,256.81-197.07,256.81-197.07,55.41-39.03,124.86-61.7,202.35-61.7,172.07,0,325.09,143.64,325.09,329.11,0,123.77-107.68,234.06-181.25,308.09-165.1,166.13-152.21,136.24-152.21,136.24"/>
    <path class="cls-5" d="M1160.41,991.29c0,185.48-122,296.9-294.07,296.9s-337.09-170.52-337.09-356,112.54-295.96,284.61-295.96,346.54,169.58,346.54,355.05Z"/>
    <path class="cls-6" d="M1106.41,988.97c0,155.76-102.45,249.33-246.95,249.33s-283.08-143.2-283.08-298.96,94.51-248.54,239.01-248.54,291.02,142.41,291.02,298.17Z"/>
    <path class="cls-1" d="M1035.65,976.51c0,108.16-71.14,173.14-171.48,173.14s-196.57-99.44-196.57-207.6,65.63-172.59,165.97-172.59,202.09,98.89,202.09,207.05Z"/>
    <path class="cls-2" d="M1003.17,973.52c0,89.07-58.59,142.58-141.22,142.58s-161.88-81.89-161.88-170.96,54.04-142.12,136.68-142.12,166.42,81.43,166.42,170.5Z"/>
    <path class="cls-1" d="M936.65,967.39c0,49.97-32.87,80-79.23,80s-90.82-45.95-90.82-95.92,30.32-79.74,76.68-79.74,93.37,45.69,93.37,95.66Z"/>
    <path class="cls-7" d="M875.84,961.79c0,14.23-9.36,22.78-22.57,22.78s-25.87-13.09-25.87-27.32,8.64-22.71,21.84-22.71,26.59,13.01,26.59,27.25Z"/>
    <circle class="cls-3" cx="595.13" cy="481.85" r="36.51"/>
    <ellipse class="cls-3" cx="845.64" cy="455.69" rx="14.6" ry="17.39"/>
    <ellipse class="cls-3" cx="911.52" cy="441.77" rx="3.68" ry=".63"/>
    <path class="cls-4" d="M1529.52,544.41l-3.51-24s-1.42-5.83,7.25-10.72c8.67-4.89,21.59-14.97,27.74-22.06,6.15-7.09,9.78-9.56,9.17-10.87"/>
    <path class="cls-3" d="M1473.17,413.56c0,8.02-37.5.26-51.47-2.68-21.93-4.62-35.62-10.57-35.62-18.6s21.92-6.95,43.36-4.43c22.26,2.62,43.73,15.15,43.73,25.71Z"/>
    <path class="cls-4" d="M1540.77,436.84l-39.02,26.51-4.73,2.36c-4.73,2.36-19.7-1.73-28.68-3.47-8.98-1.73-113.15-22.69-127.96-25.84-14.81-3.15-49.8-11.66-54.84-15.13-5.04-3.47-8.98-8.04-13.24-16.39-4.25-8.35-8.04-39.4-8.19-48.85-.12-7.22-3.88-36-5.66-49.21-.52-3.87,1.84-7.54,5.57-8.69l27.62-8.5s33.93,15.34,42.44,26.69c8.51,11.35,23.64,49.38,23.64,49.38"/>
    <path class="cls-3" d="M1429.48,1060.14s-.01-43.48-6.73-63.23c-1.8-5.28-5.27-11.09-9.39-16.77-14.82-20.43-38.04-33.24-63.25-34.44-3.03-.14-5.19-.07-5.79.36l-45.12,48.75-38.08,47.54-10.65,9.44,179,5.69,91.84-6.15"/>
    <line class="cls-4" x1="991.64" y1="459.02" x2="972.9" y2="395.65"/>
    <path class="cls-4" d="M991.05,356.88s-14.06,40.14-17.46,41.1c-19.61,5.57-174.22,6.03-174.22,6.03,0,0-18.2.33-25.53-2.43l-91.56-23.29"/>
    <line class="cls-4" x1="853.22" y1="359.45" x2="792.37" y2="403.95"/>
    <path class="cls-3" d="M799.37,359.58c-.41-10.06-27.28-14.31-60.2-12.45-35.54,2.01-71.45,17.51-69.5,26.08,1.53,6.7,38.68,11.48,71.78,8.43,33.14-3.05,58.19-15.19,57.91-22.06Z"/>
    <polyline class="cls-4" points="1074.7 279.27 1072.26 294.55 1237 306.45 1291.63 289.64 1288.17 268.65"/>
    <path class="cls-3" d="M1143.47,253.37l-24.11,22.62c-.91.85-2.13,1.28-3.37,1.19l-31.3-2.37,39.89-24.15,18.89,2.72Z"/>
    <path class="cls-3" d="M1266.47,259.51c.15.04.2.23.08.33l-26.97,22.81c-.6.54-1.42.79-2.22.66l-21.5-3.28c-.8-.16-.98-1.21-.29-1.63l34.81-22.64s.1-.04.15-.03l15.95,3.78Z"/>
    <path class="cls-4" d="M1394.43,386.01s-30.73-12.01-36.72-20.31c0,0-2.52,2-19.75,14.08-17.23,12.08-30.47,29.42-33.93,35.72s-3.78,15.34-3.78,15.34l-52.54,79.98"/>
    <path class="cls-8" d="M673.95,414.36c1.83.29-21.89.56-20.12,0,3.31-1.05,12.24-1.26,20.12,0Z"/>
    <path class="cls-4" d="M521.37,424.23h129.39s32.19,7.2,25.84,31.46c-4.55,17.39-7.08,45.03-16.55,52.27-6.32,4.83-28.42,18.28-42.92,22.27-24,6.61-77.22,8.74-105.06,1.37-32.15-8.51-47.7-15.44-47.7-15.44"/>
  </g>
</svg>