<?xml version="1.0" encoding="UTF-8"?>
<svg id="Calque_4" data-name="Calque 4" xmlns="http://www.w3.org/2000/svg" viewBox="0 0 2048 1536">
  <defs>
    <style>
      .cls-1 {
        fill: #4c5f68;
      }

      .cls-1, .cls-2, .cls-3, .cls-4 {
        stroke-width: 0px;
      }

      .cls-5 {
        stroke: #f6f3f5;
      }

      .cls-5, .cls-6, .cls-7, .cls-2, .cls-8 {
        fill: #475a61;
      }

      .cls-5, .cls-6, .cls-7, .cls-9, .cls-8 {
        stroke-miterlimit: 10;
      }

      .cls-6 {
        stroke-width: 2px;
      }

      .cls-6, .cls-7, .cls-9, .cls-8 {
        stroke: #475a61;
      }

      .cls-7, .cls-9 {
        stroke-width: 5px;
      }

      .cls-9, .cls-4 {
        fill: #f6f3f5;
      }

      .cls-3 {
        fill: #fff;
      }

      .cls-8 {
        stroke-width: 6px;
      }
    </style>
  </defs>
  <rect class="cls-3" width="2048" height="1536"/>
  <g>
    <g>
      <rect class="cls-9" x="609.8" y="215.84" width="521.47" height="1104.32" rx="54.74" ry="54.74"/>
      <rect class="cls-6" x="603.36" y="545.95" width="8.67" height="130.09" rx=".14" ry=".14"/>
      <rect class="cls-7" x="633.35" y="238.71" width="225.04" height="225.04" rx="33.68" ry="33.68"/>
      <circle class="cls-4" cx="805.39" cy="287.37" r="19.98"/>
      <circle class="cls-5" cx="684.48" cy="408.16" r="8.43"/>
      <circle class="cls-4" cx="693.48" cy="298.84" r="52.38"/>
      <circle class="cls-7" cx="693.48" cy="298.84" r="44.48"/>
      <circle class="cls-9" cx="693.48" cy="298.84" r="35.5"/>
      <circle class="cls-2" cx="805.39" cy="287.37" r="6.31"/>
      <circle class="cls-2" cx="692.91" cy="298.84" r="11.47"/>
      <circle class="cls-4" cx="799.08" cy="403.61" r="52.38"/>
      <circle class="cls-7" cx="799.08" cy="403.61" r="44.48"/>
      <circle class="cls-9" cx="799.08" cy="403.61" r="35.5"/>
      <circle class="cls-2" cx="798.51" cy="403.61" r="11.47"/>
      <g>
        <path class="cls-2" d="M899.28,801.73v-17.33l1.39-1.03c1.63-1.2,2.98-2.34,4.13-3.49,3.29-3.29,5.93-7.2,7.84-11.61,1.9-4.37,2.87-9.18,2.87-14.29s-.97-9.77-2.87-14.21c-1.91-4.47-4.55-8.4-7.84-11.69-3.29-3.29-7.23-5.93-11.69-7.84-8.99-3.85-19.83-3.76-28.49,0-4.42,1.91-8.37,4.56-11.73,7.87-3.33,3.28-5.99,7.21-7.91,11.67-1.9,4.45-2.87,9.23-2.87,14.21s.97,9.9,2.87,14.29c1.91,4.41,4.57,8.31,7.91,11.59,1.14,1.12,2.43,2.21,4.07,3.42l1.39,1.03v17.34l-5.16-3.02c-4.01-2.34-7.61-5.1-10.72-8.21-4.66-4.66-8.4-10.16-11.12-16.35-2.74-6.23-4.13-12.99-4.13-20.09s1.39-13.85,4.14-20.09c2.72-6.19,6.46-11.69,11.12-16.34,4.65-4.66,10.16-8.37,16.37-11.04,12.48-5.36,27.66-5.36,40.14,0,6.21,2.68,11.72,6.39,16.37,11.04,4.66,4.66,8.37,10.16,11.04,16.37,2.68,6.24,4.04,12.99,4.04,20.06s-1.36,13.83-4.04,20.06c-2.67,6.2-6.38,11.71-11.04,16.37-3.17,3.17-6.84,5.97-10.91,8.32l-5.15,2.98Z"/>
        <path class="cls-1" d="M887.08,842.25h-16.55v-93.21h16.55v93.21Z"/>
      </g>
    </g>
    <g>
      <rect class="cls-9" x="916.54" y="215.84" width="521.47" height="1104.32" rx="54.74" ry="54.74"/>
      <rect class="cls-8" x="1098.03" y="241.88" width="158.5" height="45.72" rx="15.64" ry="15.64"/>
      <rect class="cls-6" x="1435.97" y="546.07" width="8.67" height="130.09" rx=".14" ry=".14"/>
      <rect class="cls-6" x="909.72" y="516.48" width="8.67" height="81.35" rx=".14" ry=".14"/>
      <rect class="cls-6" x="909.61" y="435.13" width="8.67" height="36.75" rx=".14" ry=".14"/>
      <rect class="cls-6" x="909.72" y="624.46" width="8.67" height="81.35" rx=".14" ry=".14"/>
      <circle class="cls-4" cx="1228.54" cy="264.74" r="16.67"/>
      <circle class="cls-2" cx="1228.54" cy="264.74" r="3.88"/>
    </g>
  </g>
</svg>