<?xml version="1.0" encoding="UTF-8"?>
<svg id="Calque_12" data-name="Calque 12" xmlns="http://www.w3.org/2000/svg" viewBox="0 0 2048 1536">
  <defs>
    <style>
      .cls-1 {
        stroke-dasharray: 0 0 0 0 0 0 2 2;
      }

      .cls-1, .cls-2, .cls-3, .cls-4, .cls-5, .cls-6, .cls-7, .cls-8, .cls-9, .cls-10, .cls-11, .cls-12, .cls-13 {
        stroke: #485b62;
        stroke-miterlimit: 10;
      }

      .cls-1, .cls-2, .cls-4, .cls-5, .cls-8, .cls-10, .cls-13 {
        fill: none;
      }

      .cls-1, .cls-12, .cls-13 {
        stroke-width: 11px;
      }

      .cls-2, .cls-3, .cls-7 {
        stroke-width: 5px;
      }

      .cls-3, .cls-6 {
        fill: #f6f3f5;
      }

      .cls-4, .cls-9 {
        stroke-width: 3px;
      }

      .cls-5 {
        stroke-width: 18px;
      }

      .cls-6 {
        stroke-width: 8px;
      }

      .cls-7, .cls-9, .cls-11, .cls-12 {
        fill: #485b62;
      }

      .cls-14 {
        fill: #fff;
        stroke-width: 0px;
      }

      .cls-10 {
        stroke-width: 2px;
      }

      .cls-13 {
        stroke-dasharray: 0 0 0 0 0 0 1.99 1.99;
      }
    </style>
  </defs>
  <rect class="cls-14" width="2048" height="1536"/>
  <g>
    <ellipse class="cls-6" cx="1344.36" cy="960.04" rx="24.91" ry="31.09"/>
    <path class="cls-3" d="M841.92,795.58c-5.1-146.35-104.27-315.12-225.56-306.76-128.97,8.89-186.53,179.23-177.34,319.49,9.22,140.74,94.43,292.47,212.98,293.51,133.82,1.16,194.82-165.39,189.92-306.24h0ZM646.87,1040.45c-89.4-.82-153.66-123.14-160.61-236.59-6.92-113.06,36.48-250.35,133.73-257.53,91.46-6.74,166.25,129.3,170.08,247.28,3.7,113.52-42.31,247.78-143.2,246.84Z"/>
    <g>
      <line class="cls-10" x1="1125.58" y1="884.94" x2="1235.77" y2="920.05"/>
      <line class="cls-10" x1="1120.17" y1="943.52" x2="1287.29" y2="934.81"/>
      <line class="cls-10" x1="1124.02" y1="1004.64" x2="1303.11" y2="999.47"/>
      <line class="cls-10" x1="1137.99" y1="1063.73" x2="1353.77" y2="989.45"/>
      <line class="cls-10" x1="1160.53" y1="1118.02" x2="1268.62" y2="956.04"/>
      <line class="cls-10" x1="1190.43" y1="1166.1" x2="1310.57" y2="955.59"/>
      <line class="cls-10" x1="1229.19" y1="1208.18" x2="1320.94" y2="963.2"/>
      <line class="cls-10" x1="1273.42" y1="1237.84" x2="1358.89" y2="965.79"/>
      <line class="cls-10" x1="1367.83" y1="1253.15" x2="1315.89" y2="988.42"/>
      <line class="cls-10" x1="1320.94" y1="1253.15" x2="1265.41" y2="961.1"/>
      <line class="cls-10" x1="1369.24" y1="685.47" x2="1357.43" y2="938.56"/>
      <line class="cls-10" x1="1456.06" y1="751.14" x2="1347.12" y2="902.17"/>
      <line class="cls-10" x1="1521.25" y1="858.56" x2="1351.92" y2="985.34"/>
      <line class="cls-10" x1="1539.22" y1="921.95" x2="1355.6" y2="980.79"/>
      <line class="cls-10" x1="1544.3" y1="989.56" x2="1357.43" y2="938.56"/>
      <line class="cls-10" x1="1538.23" y1="1056.25" x2="1360.05" y2="970.57"/>
      <line class="cls-10" x1="1521.93" y1="1117.59" x2="1324.81" y2="988.67"/>
      <line class="cls-10" x1="1494.95" y1="1169.9" x2="1283.6" y2="995.83"/>
      <line class="cls-10" x1="1458.89" y1="1209.89" x2="1358.89" y2="965.79"/>
      <line class="cls-10" x1="1415.14" y1="1237.1" x2="1324.81" y2="988.67"/>
      <line class="cls-10" x1="1138.75" y1="829.47" x2="1218.03" y2="897.86"/>
      <line class="cls-10" x1="1160.39" y1="777.97" x2="1214.58" y2="879.38"/>
    </g>
    <line class="cls-10" x1="1320.94" y1="673.46" x2="1275.33" y2="932.57"/>
    <polygon class="cls-3" points="1265.41 681.56 1321.37 943.52 1353.77 939.5 1308.74 673.38 1265.41 681.56"/>
    <ellipse class="cls-3" cx="1336.32" cy="961.1" rx="24.91" ry="31.09"/>
    <ellipse class="cls-13" cx="1344.36" cy="963.2" rx="57.08" ry="74.42"/>
    <ellipse class="cls-2" cx="1345.45" cy="962.15" rx="61.85" ry="80.16"/>
    <ellipse class="cls-2" cx="1347.12" cy="962.71" rx="49.12" ry="68.53"/>
    <g>
      <ellipse class="cls-1" cx="661.95" cy="791.02" rx="47.34" ry="61.73"/>
      <ellipse class="cls-2" cx="661.37" cy="790.15" rx="52.78" ry="66.48"/>
      <ellipse class="cls-2" cx="664.23" cy="790.62" rx="40.74" ry="56.84"/>
    </g>
    <ellipse class="cls-12" cx="1324.81" cy="962.15" rx="19.56" ry="16.76"/>
    <ellipse class="cls-3" cx="1296.03" cy="969.66" rx="24.91" ry="31.09"/>
    <path class="cls-3" d="M1314.11,607.83c-150.55,6.95-253.45,152.58-253.45,339.94s133.25,377.78,283.96,376.14c145.7-1.59,269.29-112.35,267.35-349.32-1.63-200.3-159.91-373.13-297.86-366.75h0ZM1338.61,1253.14c-115.94,1.32-218.44-150.17-218.44-299.2s72.75-275.04,188.57-280.56c106.13-5.07,234.29,142.57,235.55,301.9,1.49,188.52-93.58,276.61-205.67,277.87h-.01Z"/>
    <path class="cls-3" d="M843.42,813c-5.17-168.5-115.62-336.41-225.61-328.87-105.48,7.22-185.15,129.83-181.7,295.35,3.41,164.06,97.01,313.78,202.83,321.34,117.03,8.35,209.78-115.73,204.49-287.81h-.01ZM635.91,1039.16c-79.71-6-151.63-124.99-152.79-255.39-1.26-140.52,58.21-234.27,136.88-234.75,83.08-.51,166.07,127.46,169.96,261.39,3.98,136.76-65.88,235.4-154.04,228.75h-.01Z"/>
    <path class="cls-3" d="M1211.13,659.62c.41.28.79.59,1.14.93,2.18,2.1,4.44-2.77,6.2,18.94s35.84,221.34,35.84,221.34l21.01,31.74,15.53,20.34s11.23,5.08,11.06,15.64c-.17,10.56.56,17.21-11.51,16.76-12.07-.45-55.09-1.34-55.09-1.34l-51.85-258.25-10.73-38.66-12.63-25.59-15.31-31.51,4.36-8.05,3.46-2.35,64.93-1.79,16.43,4.3-25.23,11.65-38.05-3.02s4.13,9.23,7.61,15.52"/>
    <path class="cls-3" d="M1207.21,658.69l-6.65-40.44-14.51-61.82s-18.61-1.26-28.38,4.47l22.82,88.95"/>
    <path class="cls-2" d="M1178.31,646.23c1.26,2.27,2.43,4.16,3.29,5.1,3.23,3.51,8.8,8.8,12.4,8.21,3.6-.59,5.2-2.68,9.05-2.35,3.23.28,5.99.97,8.08,2.42"/>
    <g>
      <path class="cls-2" d="M1353.77,940.35s29.98-5.81,42.46,7.6"/>
      <path class="cls-2" d="M1358.89,947.95s30.23,29.67,31.24,47.89"/>
      <path class="cls-2" d="M1360.05,970.57s16.68,19.5,1.18,57.8"/>
      <path class="cls-3" d="M1340.35,930.42s26.07-26.45,34.16-26.23"/>
      <path class="cls-2" d="M1355.6,980.79s1.12,22.91-36,38.69"/>
      <path class="cls-3" d="M1329.3,930.42s-1.44-25.09,7.02-34.57"/>
      <path class="cls-7" d="M1315.89,945.38s-5.85-9.9-10.64-15.38"/>
    </g>
    <path class="cls-3" d="M1260.97,612.86l-10.39-53.3.88-.25c8.6-2.39,17.34-4.25,26.17-5.58l.27-.04,11.06,53.81-27.99,5.36h0Z"/>
    <g>
      <line class="cls-10" x1="1227.93" y1="700.22" x2="1307.29" y2="945.38"/>
      <line class="cls-10" x1="1236.62" y1="795.65" x2="1316.16" y2="894.18"/>
      <line class="cls-10" x1="1493.13" y1="801.56" x2="1315.77" y2="917.3"/>
      <line class="cls-10" x1="1336.32" y1="930.01" x2="1414.83" y2="712.55"/>
    </g>
    <path class="cls-3" d="M770.12,708.69l-44.7,40.01s-.29,4.48-3.44,7.21-15.88,9.89-15.88,9.89l-8.72,9.55,4.4,9.22,1.23,5.42,10.39,2.96s4.16,1.31,5.98,3.07,2.85,4.36,2.85,4.36l85.05,39.94,39.33-11.95,6.72-.96,1.1,18.4-47.38-1.34-6.26,17.88-91.41-41.79-17.32-6.06-9.22-2.68-11.23,3.35-10.56,2.41-1.39-45.75,4.57-7.87,10.81-7.96,4.19-.17,6.2-5.8,27.49-15.48,49.86-48.44c.44-.42,1.16-.25,1.36.32l6.77,19.09c.4,1.13.08,2.39-.81,3.18h.02Z"/>
    <polygon class="cls-3" points="807.2 647.01 827.25 628.42 830.87 652.68 815.27 666.85 807.2 647.01"/>
    <path class="cls-3" d="M678.93,791.94c0,12.81-8.58,23.19-19.16,23.19s-21.4-12.17-21.4-24.97,5.95-23.41,16.54-23.41,24.03,12.39,24.03,25.2h-.01Z"/>
    <path class="cls-3" d="M837.95,826.19c-29.25,0-52.97,34.11-52.97,76.21s29.03,76.21,58.28,76.21,47.65-34.11,47.65-76.21-23.71-76.21-52.96-76.21ZM851.89,956.49s-7.46-1.01-13.94-2.69c-6.49-1.68-9.2-10.73-9.2-10.73.26-7.55,5.53-11.74,5.53-11.74l8.55,2.01,11.9,14.42-2.85,8.72h0ZM854.98,860.82l-13.07-6.7v-5.26l13.07,2.91v9.05h0Z"/>
    <g>
      <polygon class="cls-11" points="652.23 794.21 631.15 798.52 650.38 811.25 629.32 806.75 644.99 826.78 625.82 813.87 636.54 839.41 620.97 819.24 625.77 848.03 615.18 822.39 613.66 851.86 608.99 823.04 601.27 850.57 602.93 821.12 589.7 844.28 597.55 816.81 579.99 833.53 593.32 810.49 572.99 819.29 590.63 802.73 569.33 802.83 589.7 794.21 569.33 785.6 590.63 785.69 572.99 769.13 593.32 777.93 579.99 754.89 597.55 771.61 589.7 744.15 602.93 767.31 601.27 737.85 608.99 765.39 613.66 736.56 615.18 766.03 625.77 740.4 620.97 769.18 636.54 749.02 625.82 774.55 644.99 761.65 629.32 781.67 650.38 777.17 631.15 789.9 652.23 794.21"/>
      <polygon class="cls-11" points="568.53 795.67 589.86 790.54 569.82 778.24 591.43 782.08 574.76 762.23 594.75 774.71 582.93 749.06 599.51 769.06 593.6 739.89 605.3 765.65 605.81 735.56 611.59 764.77 618.48 736.44 617.83 766.51 630.49 742.44 623.46 770.71 640.77 753.05 627.99 777 648.41 767.32 631.01 784.82 652.72 783.97 632.26 793.47 653.33 801.53 631.61 802.19 650.18 818.44 629.14 810.19 643.55 833.2 625.06 816.78 634.02 844.49 619.72 821.36 622.46 851.32 613.62 823.53 609.87 853.07 607.28 823.09 597.39 849.59 601.28 820.08 586.12 841.19 596.14 814.78 577.06 828.61 592.32 807.65 571.02 812.98 590.16 799.32 568.53 795.67"/>
      <polygon class="cls-11" points="652.3 791.64 631.54 797.3 651.55 808.77 630.25 805.63 647.17 824.61 627.21 812.96 639.55 837.76 622.71 818.64 629.36 847.05 617.14 822.15 617.52 851.66 611 823.19 605.07 851.17 604.83 821.67 593.13 845.63 599.19 817.72 582.74 835.54 594.56 811.69 574.84 821.78 591.37 804.11 570.12 805.58 589.9 795.67 569.01 788.39 590.27 787.11 571.6 771.72 592.46 779.19 577.67 757.06 596.27 772.61 586.67 745.71 601.36 767.97 597.81 738.68 607.29 765.67 610.09 736.6 613.51 765.91 622.43 739.65 619.48 768.68 633.72 747.55 624.68 773.72 642.97 759.61 628.63 780.6 649.35 774.76 630.99 788.7 652.3 791.64"/>
    </g>
    <ellipse class="cls-3" cx="610.78" cy="794.21" rx="34.19" ry="58.67"/>
    <path class="cls-7" d="M822.67,293.03c-.31.27-1.14,1.01-2.31,2.04h-.01c-.42.39-.88.78-1.39,1.23-2.14,1.88-4.91,4.33-7.63,6.7-2.96,2.61-5.86,5.15-7.81,6.85-1.33,1.16-1.6-.66-1.6-.66l8.55-6.66,7.92-6.15h.01l1.63-1.28h.01l2.64-2.06h-.01Z"/>
    <path class="cls-2" d="M742.51,305.89s3.13,11.29,8.05,12.96c4.92,1.68,5.87.79,5.87.79"/>
    <g>
      <path class="cls-3" d="M1352.1,260.52c-2.57-2.91-13.97-1.79-13.97-1.79,0,0-6.25-5.15-11.95-11.96-3.34-3.99-5.28-5-8.07-5.11-3.87,2.69-8.11,3.54-10.64,3.82-1.44.16-2.34.12-2.34.12,0,0-19.52-.72-30.83,3.61-11.33,4.31-17.65,8.54-27.04,17.31-9.39,8.75-8.52,8.48-14.76,8.48s-8.49-.29-14.62-6.09l-6.12-5.81s.73-3.61-1.59-5.83c-2.32-2.21-3.74-3.34-5.48-2.18s-3.78.17-3.78.17c0,0-.61-.76-3.24,1.82-2.64,2.59-15.95,14.4-15.95,14.4,0,0-9.06,2.04-15.79-1.57-6.73-3.61-21.46-14.37-21.46-14.37,0,0-10.6-7.05-18.61-9.81-.65-.22-1.63-.52-2.88-.87-11.19-3.18-44.17-11.04-57.76-14.25-8.14.55-13.84,1.31-13.84,1.31l-3.36,22.35c.81-.91,2.49.15,2.69-.79.2-.91,22.25,3.69,40.8,7.73l.53.11c9.49,2.06,17.96,3.97,22.04,4.89.62.14,1.13.25,1.53.34l1.03.24,15.59,6.63,2.29.97s1.28,1.02,3.01,2.37h0c2.19,1.72,5.13,3.97,7.16,5.33,3.63,2.46,3.97,2.64,0,5.48-1.54,1.11-2.96,2.64-4.16,4.26-1.93,2.59-3.36,5.43-4.03,7.32-.25.71-.53,1.38-.83,2.01-1.02,2.13-2.15,3.84-2.15,5.4,0,2.01,2.29,6.51,4.03,8.22,1.73,1.7,1.62,7.71,1.62,7.71,0,0-2.26,2.13-2.18,4.13.07,2.01,1.67,6.69,4.53,8.17,2.85,1.48,2.96,1.78,5.02,1.06s4.36-.98,5.17,3.16,1.45,10.17,1.45,10.17c0,0-.87.81-1.01,2.06-.14,1.26-1.68,3.05-1.68,5.53s1.37,4.39,2.4,4.59c1.03.19,1.07,1.68-.11,6.54l-1.17,4.86s-225.2,132.34-243.47,144.91c-18.27,12.57-62.61,38.64-62.61,38.64l-1.89-10.73-3.1-9.01-27.06-197.92-1.4-16.01-38.14,22s.6,1.63,3.2,1.84c2.6.21,3.98-.09,4.94,2.18.97,2.26,6.63,1.85,6.63,1.85l27.13,183.13,1.32,13.86-1.57.78,2.45,21.57s-1.33,1.03-1.96,3.79c-.63,2.77-27.95,35.54-27.95,35.54l-26.83,26.82-164.26,113.64-8.49-2.34-3.49,2.34-.76,3.19s-11.44,14.74-15.17,21.37c-3.73,6.61-4.05,8.63-3.72,15.22l.34,6.6s-1.95,2.13-1.9,4.24c.06,2.13.17,4.19,2.13,5.15,1.95.95,14.76,17.09,23.14,21.12,8.38,4.02,39.78,13.4,46.48,14.63s147.43,50.62,147.43,50.62l106.18,32.32h21.84l2.91-13.22s18.44-.34,21.23-3.34c2.8-3.02,8.04-6.04,6.03-15.43-2-9.39-5.08-14.67-9.36-15.25-4.26-.58-10.22-.83-10.22-.83l182.29-316.47s29-36.89,33.69-41.24c4.7-4.36,26.48-23.63,29.5-24.81,3.02-1.17,9.22-5.2,9.22-5.2l2.18,3.52s-2.24,2.32-1.57,4.53,1.03,2.82,1.68,3.42l.65.58-3.61,2.87s-.8,1.12-.88,1.68c-.09.57-10.98,7.12-10.98,7.12l-12.89,10.64-.45,2.19-4.08,2.62s.02,10.03,2.29,18.57c2.26,8.55,3.39,12.32,4.1,13.91.72,1.59,1.12,2.23,2.6,2.35,1.49.12,3.53-2.09,3.53-2.09,0,0,16.34-4.03,21.74-3.92,5.41.11,7.5-.01,7.5-.01,0,0,2.19-1.23,2.14-4.8-.04-3.56,3.48-13.43,3.54-13.58s4.61-12.57,4.61-12.57c0,0,5.11-.16,7.53.58,2.44.76,10.21,1.72,19.52,10.98,9.3,9.26,18.19,20.04,18.19,20.04,0,0,2.55,3.75,7.45,2.45,4.91-1.32,28.9-6.68,28.9-6.68,0,0,2.62,1.79-.39-16.09-3.02-17.88-10.53-20.09-10.53-20.09v-2.35s-3.42-.05-5.84,0c-2.44.06-3.94.93-3.94.93l-28.38-19.46s-2.46-1.73-5.87-1.89l-3.41-.17-1.68-1.39s2.6-1.48,1.14-4.36c-1.45-2.87-3.29-4.24-3.29-4.24l-24.3-130.14s1.09-2.09.81-4.34c-.09-.72-.34-1.47-.81-2.16-1.93-2.82-5.2-4.3-5.2-4.3,0,0-1.23-7.91-1.95-9.9-.73-1.98-.56-7.88-.56-7.88,0,0,3.46-9.16,6.9-9.3,3.43-.14,10.19-.27,10.19-.27,0,0,4.2-.78,6.8-3.65.66-.73,2.05-2.14,3.74-3.8,4.95-4.86,12.52-12.07,12.52-12.07,0,0,8.01-.12,15.89-2.93,7.87-2.81,9.05-2.18,18.6-10.39,9.56-8.22,12.23-13.2,25.65-13.7,13.41-.51,11.45-1.39,19.51,3.24l8.04,4.65.37-.11,12.03-3.75,18.77-4.45,11.91-.73c-1.39-2.46-3.24-5.52-4.65-7.1M791.27,866.33s-176.48-59.45-183.36-62.38c-6.86-2.93-9.26-16.55-9.55-21.21-.3-4.65,5.36-12.66,5.36-12.66,0,0,168.63-116.08,178.19-123.36,9.55-7.3,35.62-38.89,35.62-38.89,4.09-.46,7.01,2.45,7.01,2.45l32.75,219.2,10.11,56.6-76.12-19.75h-.01ZM1164.25,425.12l-.4,4.39s-34.21,23.1-46.71,35.17c-12.48,12.07-43.5,44.17-55.24,63.86-11.72,19.69-175.24,311.27-175.24,311.27l-34.54-239.81s-2.72-8.8,6.2-14.55c8.93-5.74,104.65-63.45,134.26-78.64,29.61-15.2,89.4-46.48,89.4-46.48l81.24-39.24s1.39-.36,1.01,4.03h.02Z"/>
      <path class="cls-3" d="M814.5,318.1v1.53l-19.37,23.17c-3.84,4.6-10.2,6.21-15.76,3.99l-5.43-2.16s-.46-.46-3.85-7.97c-3.39-7.5-3.01-5.99-5.82-7.25s-6.17-3.85-6.63-5.28c-.21-.66-.4-2.24-.19-4.04.22-2.1.99-4.5,2.87-6.09,3.48-2.98,11.4-4.7,11.4-4.7v-3.43s1.57-1.08,5.31-1.95c2.19-.51,5.12-.96,8.94-1.07,10.31-.29,11.9,2.35,11.9,2.35l16.63,12.9h0Z"/>
      <path class="cls-7" d="M1406.55,255.49c-.67,7.21-5.53,8.17-10.39,10.64s-7.3-.47-7.3-.47l-32.11,1.96c-1.39-2.46-3.24-5.52-4.65-7.1-2.57-2.91-13.97-1.79-13.97-1.79,0,0-6.25-5.15-11.95-11.96-3.34-3.99-5.28-5-8.07-5.11.25-.19.49-.36.73-.55,6.2-4.77,12.53-2.6,12.53-2.6l54.89-3.36,1.85-.83s6.12-.63,12.23,1.34c6.12,1.96,6.87,12.61,6.2,19.82h.01Z"/>
      <path class="cls-7" d="M1065.22,230.61c-8.14.55-13.84,1.31-13.84,1.31l-2.35,24.24c-.52.6-1.09,1.23-1.63,1.95-1.36,1.85-4.54,2.92-8.28,3.08-3.74.15-6.38-2.68-6.38-2.68,0,0-83.59-10.14-93.12-11.15-9.51-1.01-9.63-12.48-9.55-20.36.09-7.88,7.12-13.82,9.55-14.58,2.44-.76,7.55,0,7.55,0l86.5,13.48s2.67.4,3.8,0,3.78-1.31,6.58-.88c2.81.42,5.81,4,6.54,5.09s1.07,1.43,3,.09,5.67-.97,5.67-.97c0,0,2.26.53,5.95,1.41v-.03Z"/>
    </g>
    <g>
      <line class="cls-8" x1="613.06" y1="549.31" x2="603.89" y2="736.74"/>
      <line class="cls-8" x1="579.88" y1="557.97" x2="624.96" y2="732.32"/>
      <line class="cls-8" x1="549.52" y1="578.64" x2="613.66" y2="736.56"/>
      <line class="cls-8" x1="523.86" y1="610.18" x2="629.04" y2="727.48"/>
      <line class="cls-8" x1="506.3" y1="654.69" x2="576.58" y2="766.74"/>
      <line class="cls-8" x1="493.88" y1="698.95" x2="577.75" y2="761.5"/>
      <line class="cls-8" x1="486.94" y1="746.94" x2="574.37" y2="763.21"/>
      <line class="cls-8" x1="486.04" y1="799.83" x2="563.83" y2="784.62"/>
      <line class="cls-8" x1="492.71" y1="852.88" x2="583.69" y2="830.01"/>
      <line class="cls-8" x1="503.84" y1="901.94" x2="571.54" y2="866.42"/>
      <line class="cls-8" x1="524.93" y1="949.21" x2="567.07" y2="859.26"/>
      <line class="cls-8" x1="550.51" y1="987.31" x2="569.01" y2="945.09"/>
      <line class="cls-8" x1="579.99" y1="1016.15" x2="620.26" y2="852.75"/>
      <line class="cls-8" x1="613.22" y1="1034.39" x2="658.03" y2="857.92"/>
      <line class="cls-8" x1="646.87" y1="1040.45" x2="612.52" y2="854.32"/>
      <line class="cls-8" x1="681.18" y1="1032.99" x2="653.56" y2="856.63"/>
      <line class="cls-8" x1="713.61" y1="1015.01" x2="655.97" y2="857.25"/>
      <line class="cls-8" x1="764.97" y1="947.39" x2="658.03" y2="857.92"/>
      <line class="cls-8" x1="741.91" y1="986.28" x2="699.1" y2="864.71"/>
      <line class="cls-8" x1="779.4" y1="899.05" x2="752.04" y2="880.94"/>
      <line class="cls-8" x1="782.36" y1="894.81" x2="667.37" y2="856.63"/>
      <line class="cls-8" x1="789.94" y1="790.15" x2="699.6" y2="774.11"/>
      <line class="cls-8" x1="779.71" y1="735.55" x2="702.73" y2="777.69"/>
      <line class="cls-8" x1="739.8" y1="637.49" x2="707.98" y2="671.64"/>
      <line class="cls-8" x1="714.15" y1="601.72" x2="675.46" y2="695.36"/>
      <line class="cls-8" x1="682.59" y1="571.93" x2="654.04" y2="710.19"/>
      <line class="cls-8" x1="649.54" y1="555.62" x2="664.6" y2="702.88"/>
    </g>
    <path class="cls-2" d="M813.47,319.63s10,.34,13.63-4.02,13.97-21.57,13.97-21.57"/>
    <g>
      <path class="cls-3" d="M851.97,891.45l64.2,21.46s14.83,1.26,17.77,4.02c2.93,2.77,5.95,9.22,5.2,15.09s-2.01,9.55-6.87,11.06-12.57,1.17-17.6-.84l-5.03-2.01-50.45-8.05-20.37-8.88-8.63.25s-11.02-4.4-13.24-9.97-3.73-14.16-1.13-17.77c2.6-3.6,5.69-8.09,12.94-6.37,7.25,1.72,12.28,2.85,12.28,2.85l10.94-.84h-.01Z"/>
      <ellipse class="cls-9" cx="915.95" cy="928.66" rx="3.58" ry="5.92"/>
      <ellipse class="cls-9" cx="830.8" cy="906.87" rx="3.58" ry="5.92"/>
    </g>
    <path class="cls-9" d="M628.09,552.4v3.24l-1.17.95v8.21s2.88,2.79,3.69,2.79,3.88-.39,3.97-1.73.39-8.94.39-8.94l-.95-1.06-.06-2.79"/>
    <path class="cls-9" d="M1339.92,678.74v10.22l-1.22.71v10.35s3.33,2.81,4.27,2.85,5.24-2.26,5.24-2.26l.17-10.02-.67-1.13.08-8.46-7.88-2.26h.01Z"/>
    <path class="cls-2" d="M562.49,786.35l-38.55,30.34s-5.07,3.35-4.78,9.39c.29,6.03,4.4,33.31,4.4,33.31,0,0,3.18,8.13,4.44,9.55s6.52,5.87,9.69,6.96,8.87,2.19,8.87,2.19c0,0,5.94-.13,8.05-2.01,2.1-1.88,4.04-6.13,4.36-8.6.31-2.47-.17-25.39-.17-25.39l-.38-20.2s-.42-2.6,2.89-5.32c3.31-2.72,7-5.32,7-5.32l-4.82-3.81-8.88,7.54s-2.41,3.16-2.47,6.45c-.06,3.29,1.97,41.78,1.97,41.78,0,0-1.76,9.79-5.1,9.5-3.34-.29-11.45-2-14.49-4.93-3.03-2.93-5.81-8.49-6.31-11.9-.5-3.42-3.81-29.4-3.81-29.4,0,0,.13-3.75,2.35-5.32s36.39-28.93,36.39-28.93l-.65-5.88h0Z"/>
    <path class="cls-3" d="M573.94,943.69l2.01-3.74,2.74-.34.34-3.86,2.79-6.65-.14-7.91,12.54-18.55,10.95-23.39,1.68-3.54.22-5.4,3.58-11.73.28-4.69-29.46-25.77.08,16.68s-.57,1.29-2.36.21c-1.79-1.08-6.62-4.9-6.62-4.9l-1.56-.2-.45-1.87.39-1.87-6.4-4.64,11.17.22s4.77-1.2,4.93-5.76c.17-4.56-10.34-21.84-10.34-21.84l-20.22,17.06-20.74,17.62,1.76,3.98-4.53-2.18-7.14-3.44s-8.36-10.39-10.62-18.48c-2.26-8.09-3.53-11.06-3.81-16.8s-.9-11.17.42-16.41,3.69-12.22,5.66-14.39c1.97-2.18,7.63-7.69,11.1-7.94s8.97-.46,15.38,3.02c6.41,3.48,12.53,8.34,15.5,11.06,2.48,2.27,6.37,6.25,7.59,7.51.2.21.55.2.73-.03l1.64-1.99s-13.69-13.61-19.75-16.57-12.39-6.7-18.36-5.73c-5.97.98-10.13,2.1-13.62,6.23s-7.93,12.24-8.6,17.71c-.67,5.48-.75,16.34-.7,17.99.06,1.65,3.07,15.37,4.86,19.36,1.79,3.99,7.96,14.69,8.58,15.73s2.88,4.5,2.88,4.5l-.78,4.19,4.61,6.37,10.37,6.76s2.93.42,3.49,0,.2-.08.56-.42,1.58,3.32,3.09,3.91,3.6-.84,3.6-.84l2.75,2.93s1.4.29,1.11-.75-.25-1.84-.25-1.84l3.69-2.1-.13-2.3s.67.12,2.14,1.97c1.47,1.85,1.8,2.64,1.8,2.64l4.99,3.31h3.18l5.78,2.31,17.81.29-.29,9.69-1.42,1.47h-1.52s-1.1,1.64-1.2,2.8-2.53,2.81-2.53,2.81h-2.1l-3.38,5.62h-2.57l-.08,2.98-3.46,2.79h-2.1s-1.97,4.26-3.06,4.68-3.72,3-3.72,3c0,0-2.74-.93-4.75-.85s-3.72.64-4.02,1.41-.29,1.34-.75,1.12-3.16-2.01-3.16-2.01l-1.94,4.22,4.31,8.19.53,12.81s2.38,11.23,6.59,14.96c4.21,3.73,6.99,5.03,11.75,5.04h5.58"/>
    <path class="cls-11" d="M572.82,949.12l2.18,1.79,4.48-.25,2.43,1.13,5.45.25,2.39,1.47,5.75-.28,1.13,1.24h6.33l1.3,1.34h5.55l1.42,1.19,6.2.25,1.47,1.38s3.62-.48,4.36-.5,2.26-.08,2.26-.08l1.13,1.63h5.54l1.64.88,5.98-.63,2.57,1.76,4.53-.67,2.26,1.59,6.1-.69,1.76,1.42,5.03-.42,2.14,1.47h7.08l.8.96,6.16-.25,1.34.92h6.87l1.8,1.15,5.49-.29,2.85,1.52,4.9-1.02,2.2,1.61,5.32-.92,2.89,1.13,4.44-.88,3.65,1.89,5.41-.88.59.88h6.12l3.73,1.11,4.74-1.05,3.69,1.89,3.73-1.13,8.28-5.45-7.43.11-1.62-1.12-5.36.34-3.52-1.17-2.51.84-3.13-.78-.67.5-5.25-.5-1.34.45-2.18-1.34-4.47-.08-1.4,1.01-1.56-1.4-5.36-.28-1.73.45-1.12-.89-5.64.56-3.13-1.79-.89.78-4.86-.17-1.06-1.23-5.36.89-1.45-1.23-2.29.11-5.25-.39-.56-.78-1.79-.17-.56.78-5.2-.41-.61-1.21-6.2.11-.84-1.23-5.76,1.01-2.68-1.79-5.59.56-2.01-1.73-5.73.95-2.21-1.84-4.8.28-2.5-1.45-1.48.92-4.45-.06-1.79-1.84-5.08.61-1.73-2.12-2.35.95-3.74-.06-1.79-2.07-1.62,1.34-3.41-.78-2.07-1.83-.97,1.05-4.61-.56-1.23-1.23-2.29.67-3.46-.22-1.79-1.9-2.18.96-3.8-.46-1.62-1.68-1.56,1.06-3.63-1.4-1.12,5.43h-.07Z"/>
    <path class="cls-3" d="M716.37,729.3h-5.87s-4.18,1.65-5.53,1.07,1.43-4.27,0-5.7-4.47-1.87-5.31-1.84-3.24-1.73-3.24-1.73c0,0-.87-1.76,0-2.79s3.69-5.2,3.69-5.2c0,0-.38-7.68-4.07-6.66s-48.05,33.15-48.05,33.15c0,0,1.95,7.14,3.57,9.04s6.43,6.15,8.94,8.6c2.51,2.46,5.48,4.13,5.48,4.13l50.4-32.08h-.01Z"/>
    <line class="cls-2" x1="710.65" y1="696.34" x2="733.63" y2="710.97"/>
    <line class="cls-2" x1="733.63" y1="710.97" x2="763.05" y2="686.45"/>
    <line class="cls-2" x1="804.8" y1="645.96" x2="826.51" y2="623.49"/>
    <line class="cls-10" x1="867.39" y1="582.19" x2="1139.11" y2="435.85"/>
    <line class="cls-2" x1="1084.16" y1="465.44" x2="1162.07" y2="422.55"/>
    <path class="cls-3" d="M1141.68,289.24l-1.14,2.59-4.21,9.49-.65-.15-6.96-1.64-5.13,11.62s-3.01,1.49-5.56.95c-2.56-.55-4.53,3.33-7.66,3.38-3.13.04-14.5-.82-22.24-6.18-7.73-5.35-27.67-15.25-27.67-15.25l-5.86-.41-5.12,2.6s-3.43,1.88-8.47-2.44c-5.02-4.31-15.42-18.31-15.42-18.31,0,0-1.01-2.56,1.01-5.45,2.01-2.9,3.73-6.96,6.66-6.5s7.79,5.87,7.79,5.87c0,0,.01,0,.02-.01.24-.24,2.23-2.08,5.17-2.66,2.16-.44,6.43-1.54,8.88-2.19.24-.06.46-.12.68-.19.26-.06.48-.12.66-.17.17-.05.34-.09.51-.14l-7.97-7.63.02-.25,2.35-24.24s5.69-.76,13.84-1.31c16.09-1.11,41.71-1.43,51.77,6.44,3.23,2.54,5.08,5.2,5.99,7.81,3.37,9.62-5.99,18.67-5.99,18.67l10.39,2.01,10.17,5.37v5.81s0,.01-.01.02h0c-.15.39-1.43,3.34-4.57,3.56-2.65.17-3.77,1.04-4.12,1.39-.1.1-.14.16-.14.16l-.42,1.22h-.01l-.67,1.91,4.91,1.34,1.79,2.91,3.24-2.24,4.13,2.24h0Z"/>
    <path class="cls-7" d="M1423.22,295.83l-2.06,2.06-10.44-4.86-26.83-5.47-13.35,2.8-10.28,4.35-26.7-3.34-2.69-3.53-11.06-1.33-1.29-3.8-1.38-4.08-3.1-2.06-12-7.99s13.1-3.56,11.4-11.09c-1.12-4.94-2.36-9.75-5.97-12-1.9-1.19-4.46-1.67-8.01-1.06,0,0,1.85-2.35,10.62-2.46,3.64-.04,6.05-.4,8.03-.3,2.78.11,4.72,1.12,8.07,5.11,5.69,6.81,11.95,11.96,11.95,11.96,0,0,11.4-1.12,13.97,1.79,1.4,1.58,3.26,4.64,4.65,7.1,1.16,2.05,2,3.68,2,3.68,0,0,3.97,2.46,4.35,5.03.4,2.56,6.94,7.65,12.85,4.58,5.92-3.07,7.32-5.13,21.23-2.29,13.91,2.85,18.44,4.35,18.44,4.35,0,0,9.34,4.53,9.5,5.71.17,1.17.17,5.08-1.9,7.15h0Z"/>
    <path class="cls-7" d="M1037.31,278.73s1.17,4.58,3.8,5.03,3.91,1.56,4.81-.78c.89-2.35,1.56-5.03,1.56-5.03,0,0,11.57-2.29,13.86-2.23s20.28-.45,25.59,2.46c5.31,2.91,16.15,7.49,16.15,7.49l25.22-2.59,4.51-11.04-16.14-5.25-25.13-5.57s.1,5.13-1.19,6.24c-1.29,1.12-10.5,2.74-14.64.56-4.13-2.18-10.71-6.03-18.72-3.97-8,2.06-15.92,5.36-15.92,5.36,0,0-4.92,6.51-3.74,9.33h-.02Z"/>
    <path class="cls-2" d="M1241.86,292.87s36.2,21.29,43.41,34.36c7.21,13.07,27.66,46.77,27.66,78.28s-5.75,114.32-11.01,141.64c-5.25,27.32-8.98,62.61-8.98,62.61"/>
    <path class="cls-2" d="M1213.46,307.88s39.96,10.47,56.31,22.03c16.34,11.57,33.88,33.62,35.45,38.06s1.84,28.15,0,35.03c-1.84,6.87-7.88,26.15-18.1,37.21s-36.54,30.84-36.54,30.84l-29.45,16.81"/>
    <line class="cls-2" x1="1122.54" y1="536.17" x2="1179.26" y2="500.36"/>
    <path class="cls-2" d="M1318.51,282.71s-32.34,6.98-44.75,11.34c-12.4,4.36-34.59,4.18-79.43,55.11"/>
    <path class="cls-9" d="M844.21,545.59s1.98-.45,2.07-1.68c.08-1.23-2.1-4.22-2.07-4.58s-.87-2.43,0-4.19,1.23-2.82-.11-3.41-6.29-2.1-14.25-.7-35.37,8.1-35.37,8.1l.34,2.96s4.41.34,4.19,2.4c-.22,2.07-1.76,3.69-2.91,3.69s-.22,3.24-.22,3.24c0,0,5.08,1.15,9.95,0,4.86-1.15,38.39-5.84,38.39-5.84h-.01Z"/>
    <line class="cls-4" x1="776.93" y1="299.63" x2="777.04" y2="304.44"/>
    <path class="cls-9" d="M739.44,307.79s-23.3-4.02-30.73-9.39c-7.43-5.36-15.87-12.68-17.66-22.52-1.79-9.83-2.91-18.77,1.9-23.47,4.81-4.69,7.82-7.54,16.76-7.38,8.94.17,19.95,1.23,25.48,2.12l5.53.89s6.43-3.91,15.03-1.68c8.6,2.23,52.3,16.65,52.3,16.65l47.83.67s16.65-.28,24.81,9.05,11.68,18.61,10.17,20.17-45.93,1.12-45.93,1.12l-49.17,2.07-56.32,11.68v.02Z"/>
    <path class="cls-5" d="M925.37,928.8l-18.78,7.62-22.8,16.32-23.24,7.6s-5.65,2.45-4.27,6.82c1.37,4.35,2.85,2.34,11.09,2.9,8.24.56,38.55-16.87,38.55-16.87l21.37-21.49c1.36-1.36-.13-3.61-1.92-2.88v-.02Z"/>
    <line class="cls-2" x1="1280.28" y1="751.14" x2="1275.33" y2="932.57"/>
    <path class="cls-7" d="M804.09,298.18c11.96,9.39,16.2,6.62,16.2,6.62l12.39-10.24-28.6,3.62h0Z"/>
  </g>
</svg>