<?xml version="1.0" encoding="UTF-8"?>
<svg width="12px" height="6px" viewBox="0 0 12 6" version="1.1" xmlns="http://www.w3.org/2000/svg" xmlns:xlink="http://www.w3.org/1999/xlink">
    <title>&gt;</title>
    <g id="UI-Desktop" stroke="none" stroke-width="1" fill="none" fill-rule="evenodd">
        <g id="Réparateur-&gt;-Mon-entreprise" transform="translate(-1113.000000, -362.000000)" fill="#748993" fill-rule="nonzero">
            <g id="Group-8" transform="translate(295.000000, 97.000000)">
                <g id="Group-2" transform="translate(0.000000, 140.000000)">
                    <g id="Group-18-Copy" transform="translate(0.000000, 105.500000)">
                        <g id="Group" transform="translate(233.000000, 0.000000)">
                            <path d="M588.388889,28 C588.444444,28 588.502315,27.9772306 588.5625,27.9316919 C588.622685,27.8861532 588.680556,27.8406144 588.736111,27.7950757 L588.736111,27.7950757 L593.694444,23.3095108 C593.805556,23.2032538 593.884259,23.089407 593.930556,22.9679704 C593.976852,22.8465338 594,22.694738 594,22.5125831 C594,22.3304282 593.969907,22.1748375 593.909722,22.0458111 C593.849537,21.9167847 593.763889,21.8067328 593.652778,21.7156553 L593.652778,21.7156553 L588.777778,17.2073211 C588.722222,17.1466028 588.664352,17.0972691 588.604167,17.0593202 C588.543981,17.0213712 588.490741,17.0023968 588.444444,17.0023968 C588.333333,16.9872172 588.238426,17.0441406 588.159722,17.173167 C588.081019,17.3021934 588.041667,17.4577841 588.041667,17.639939 C588.041667,17.8069143 588.0625,17.9359407 588.104167,18.0270182 C588.145833,18.1180957 588.203704,18.2015833 588.277778,18.2774812 L588.277778,18.2774812 L592.9375,22.5524295 L588.333333,26.6566075 C588.253086,26.7274455 588.188272,26.7949103 588.138889,26.8590018 L588.076389,26.9526092 C588.025463,27.0436867 588,27.1727131 588,27.3396884 C588,27.4914842 588.039352,27.6394851 588.118056,27.783691 C588.196759,27.927897 588.287037,28 588.388889,28 Z" id="&gt;" transform="translate(591.000000, 22.500000) rotate(90.000000) translate(-591.000000, -22.500000) "></path>
                        </g>
                    </g>
                </g>
            </g>
        </g>
    </g>
</svg>