<?xml version="1.0" encoding="UTF-8"?>
<svg width="39px" height="39px" viewBox="0 0 39 39" version="1.1" xmlns="http://www.w3.org/2000/svg" xmlns:xlink="http://www.w3.org/1999/xlink">
    <title>Group 10</title>
    <g id="UI-Desktop" stroke="none" stroke-width="1" fill="none" fill-rule="evenodd">
        <g id="Espace-réparateur-:-Mes-devis-:-nouveau" transform="translate(-140.000000, -172.000000)" fill-rule="nonzero">
            <g id="Group" transform="translate(30.000000, 100.000000)">
                <g id="data" transform="translate(3.000000, 49.000000)">
                    <g id="Group-10" transform="translate(107.000000, 23.000000)">
                        <rect id="Rectangle_2525" fill="#DBFEFB" x="0" y="0" width="39" height="39" rx="11.25"></rect>
                        <path d="M22.7685,22.089 C22.7685,22.089 16.51575,22.089 14.172,27.393 C16.9343612,28.3685524 19.839066,28.8804616 22.7685,28.908 C25.697934,28.8804616 28.6026388,28.3685524 31.365,27.393 C29.0205,22.089 22.7685,22.089 22.7685,22.089 Z M22.7685,21.333 C25.113,21.333 26.676,19.0605 26.676,15.27075 C26.676,11.481 22.7685,11.4795 22.7685,11.4795 C22.7685,11.4795 18.861,11.4795 18.861,15.26775 C18.861,19.056 20.424,21.333 22.7685,21.333 Z M15.183,18.7477667 C15.9290749,18.7504153 16.6408727,18.4347579 17.13975,17.88 C16.9317739,17.0263392 16.8309973,16.1500865 16.83975,15.2715 C16.7713112,14.1526032 17.2520689,13.0704786 18.12825,12.37125 C17.3535,10.641 15.18375,10.6365 15.18375,10.6365 C15.18375,10.6365 11.9655,10.6365 11.9655,13.7565 C11.9655,16.8765 13.2525,18.7477667 15.18375,18.7477667 L15.183,18.7477667 Z M18.2175,21.19275 L18.108,19.95975 C17.1704899,19.6093902 16.1830725,19.410894 15.183,19.37175 C15.183,19.37175 10.03425,19.37175 8.10375,23.73975 C9.94521723,24.3917052 11.8653805,24.7952598 13.8135,24.93975 C15.1200519,23.5137822 16.5997804,22.2567815 18.21825,21.198 L18.2175,21.19275 Z" id="users" fill="#A8D8D4"></path>
                    </g>
                </g>
            </g>
        </g>
    </g>
</svg>