<?xml version="1.0" encoding="UTF-8"?>
<svg width="39px" height="39px" viewBox="0 0 39 39" version="1.1" xmlns="http://www.w3.org/2000/svg" xmlns:xlink="http://www.w3.org/1999/xlink">
    <title>Group 32</title>
    <defs>
        <filter color-interpolation-filters="auto" id="filter-1">
            <feColorMatrix in="SourceGraphic" type="matrix" values="0 0 0 0 0.603922 0 0 0 0 0.792157 0 0 0 0 0.235294 0 0 0 1.000000 0"></feColorMatrix>
        </filter>
    </defs>
    <g id="UI-Desktop" stroke="none" stroke-width="1" fill="none" fill-rule="evenodd">
        <g id="Espace-réparateur-:-Mes-devis-:-nouveau" transform="translate(-409.000000, -172.000000)">
            <g id="Group" transform="translate(30.000000, 100.000000)">
                <g id="data" transform="translate(3.000000, 49.000000)">
                    <g id="Group-31-Copy" transform="translate(269.000000, 0.000000)">
                        <g id="Group-32" transform="translate(107.000000, 23.000000)">
                            <rect id="Rectangle_2526" fill="#E8F9C5" fill-rule="nonzero" x="0" y="0" width="39" height="39" rx="11.25"></rect>
                            <g filter="url(#filter-1)" id="check">
                                <g transform="translate(11.000000, 13.000000)">
                                    <path d="M7.01036044,13.7302927 C6.83560209,13.9034111 6.59717077,14 6.34949658,14 C6.10182238,14 5.86339106,13.9034111 5.68863271,13.7302927 L0.410793395,8.53168458 C-0.136931132,7.99226999 -0.136931132,7.11757553 0.410793395,6.57917236 L1.07165726,5.92816636 C1.61955298,5.38875177 2.50669552,5.38875177 3.05442005,5.92816636 L6.34949658,9.17341939 L15.2532723,0.404560943 C15.8011679,-0.134853648 16.6891663,-0.134853648 17.236035,0.404560943 L17.8968989,1.05556695 C18.4446234,1.59498154 18.4446234,2.4695074 17.8968989,3.00807917 L7.01036044,13.7302927 Z" id="Path" fill="#000000" fill-rule="nonzero"></path>
                                </g>
                            </g>
                        </g>
                    </g>
                </g>
            </g>
        </g>
    </g>
</svg>