<?xml version="1.0" encoding="UTF-8"?>
<svg width="39px" height="39px" viewBox="0 0 39 39" version="1.1" xmlns="http://www.w3.org/2000/svg" xmlns:xlink="http://www.w3.org/1999/xlink">
    <title>Group 33</title>
    <g id="UI-Desktop" stroke="none" stroke-width="1" fill="none" fill-rule="evenodd">
        <g id="Espace-réparateur-:-Mes-devis-:-nouveau" transform="translate(-678.000000, -172.000000)" fill-rule="nonzero">
            <g id="Group" transform="translate(30.000000, 100.000000)">
                <g id="data" transform="translate(3.000000, 49.000000)">
                    <g id="Group-31-Copy-2" transform="translate(538.000000, 0.000000)">
                        <g id="Group-33" transform="translate(107.000000, 23.000000)">
                            <rect id="Rectangle_2527" fill="#FFDFC8" x="0" y="0" width="39" height="39" rx="11.25"></rect>
                            <path d="M26.91225,12.0645 L24.79725,14.1885 C26.9473258,16.3319325 27.5931136,19.5601595 26.4330633,22.3657632 C25.2730131,25.1713669 22.5359723,27.0008749 19.5,27 L19.5,25.5 L16.5,28.5 L19.5,31.5 L19.5,30 C23.7493871,29.9994025 27.5794689,27.4376078 29.2024841,23.5103807 C30.8254993,19.5831535 29.9214232,15.0648613 26.91225,12.0645 Z M22.5,10.5 L19.5,7.5 L19.5,9 C15.2506129,9.00059748 11.4205311,11.5623922 9.79751592,15.4896193 C8.1745007,19.4168465 9.07857677,23.9351387 12.08775,26.9355 L14.20275,24.8115 C12.0526742,22.6680675 11.4068864,19.4398405 12.5669367,16.6342368 C13.7269869,13.8286331 16.4640277,11.9991251 19.5,12 L19.5,13.5 L22.5,10.5 L22.5,10.5 Z" id="spin" fill="#E67C2E"></path>
                        </g>
                    </g>
                </g>
            </g>
        </g>
    </g>
</svg>