<?xml version="1.0" encoding="UTF-8"?>
<svg width="24px" height="24px" viewBox="0 0 24 24" version="1.1" xmlns="http://www.w3.org/2000/svg" xmlns:xlink="http://www.w3.org/1999/xlink">
    <title>Shape</title>
    <g id="UI-Desktop" stroke="none" stroke-width="1" fill="none" fill-rule="evenodd">
        <g id="Tunnel-:-Etape-3/3---cas-forfait" transform="translate(-57.000000, -283.000000)" fill="#99CC2D" fill-rule="nonzero">
            <g id="Group-2" transform="translate(0.000000, 177.000000)">
                <g id="Group-8-Copy" transform="translate(40.000000, 85.000000)">
                    <g id="check-mark" transform="translate(17.000000, 21.000000)">
                        <path d="M11.6491995,0 L12.5789532,0 C12.8404372,0.0452941176 13.1069215,0.0355882353 13.3686997,0.0773529412 C15.2611499,0.291764706 17.0962442,0.974117647 18.6777961,2.03382353 C19.260179,2.42941176 19.8084424,2.87470588 20.3178804,3.35970588 C20.5096549,3.52294118 20.6673101,3.72 20.8440839,3.89823529 C21.5026472,4.62911765 22.091501,5.42764706 22.5553483,6.29676471 C23.1130241,7.33705882 23.5309867,8.45470588 23.7621751,9.61323529 C23.8471794,10.0320588 23.9071825,10.4558824 23.9530672,10.8808824 C23.9530672,11.0682353 23.9915986,11.2526471 23.9927752,11.44 C24.001305,11.9694118 24.0127762,12.5005882 23.9580675,13.0276471 C23.7545276,15.4347059 22.7974196,17.7755882 21.2505754,19.6326471 C21.0729192,19.8373529 20.9058518,20.0508824 20.7117242,20.2408824 C20.5040664,20.4829412 20.2602304,20.6891176 20.0319833,20.9108824 C19.7231439,21.1717647 19.4184224,21.4385294 19.0904644,21.6755882 C17.5974464,22.7735294 15.8452976,23.5167647 14.0193214,23.8305882 C13.7095996,23.8738235 13.4013484,23.9273529 13.0898618,23.9535294 C12.8848513,23.955 12.6830762,23.9935294 12.4783598,24 L11.5897847,24 C11.4506599,23.9914706 11.3109469,23.99 11.1729986,23.9702941 C9.53585561,23.8629412 7.92371393,23.4035294 6.46981567,22.6435294 C5.53300281,22.1667647 4.67619407,21.5435294 3.89703637,20.8408824 C3.72408631,20.6694118 3.53319414,20.5164706 3.37406832,20.3317647 C2.85521812,19.7844118 2.37489931,19.1976471 1.96252518,18.5652941 C1.5363268,17.9297059 1.19101494,17.2432353 0.894823241,16.5388235 C0.25331968,14.9855882 -0.0493429351,13.2955882 0.00654229028,11.6167647 C-0.0028699582,11.3802941 0.0388968944,11.1473529 0.0468384791,10.9117647 C0.152726275,9.81823529 0.397444735,8.73647059 0.795406366,7.71147059 C1.18866187,6.69911765 1.7086886,5.73411765 2.35960441,4.86352941 C2.90963268,4.13705882 3.5228995,3.45441176 4.22587681,2.87264706 C4.95591433,2.24205882 5.76507357,1.70235294 6.63011803,1.27529412 C8.18255076,0.486470588 9.91116902,0.0594117647 11.6491995,0 M17.538914,6.80352941 C17.5392082,6.81 17.5395023,6.82323529 17.5397964,6.82970588 C17.4533214,6.84441176 17.3694935,6.86941176 17.2877246,6.90058824 C17.2871364,6.90588235 17.2859598,6.91676471 17.2850774,6.92235294 C17.2115443,6.95558824 17.1433055,6.99941176 17.084773,7.05529412 C17.0577128,7.07794118 17.0294761,7.09941176 17.0015335,7.12117647 C14.7649479,9.35352941 12.5315978,11.5894118 10.2970712,13.8241176 C10.2376564,13.8679412 10.1964778,13.9717647 10.1141206,13.9611765 C10.0158803,13.8782353 9.9235226,13.7882353 9.82969425,13.7002941 C9.75469039,13.6347059 9.6820396,13.5664706 9.612036,13.4961765 C9.60085895,13.4914706 9.57821073,13.4823529 9.56673955,13.4776471 C9.45526324,13.3597059 9.33437467,13.2508824 9.21407437,13.1423529 C9.09553886,13.0444118 8.99406306,12.9288235 8.87611582,12.8305882 C8.61698486,12.5891176 8.35373603,12.3526471 8.09460506,12.1111765 C8.03754331,12.0614706 7.97989329,12.0129412 7.9190078,11.9685294 C7.77164729,11.8232353 7.61810999,11.6847059 7.47133774,11.5394118 C7.32956574,11.4235294 7.20220626,11.2917647 7.06602279,11.1697059 C6.93542784,11.0567647 6.81218621,10.9291176 6.65306038,10.8561765 C6.60511674,10.8320588 6.5571731,10.8082353 6.50922946,10.7844118 C6.20039006,10.6926471 5.84331288,10.6902941 5.56006303,10.8594118 C5.51094286,10.8852941 5.46094029,10.91 5.41123185,10.9347059 C5.27828384,11.0426471 5.16651339,11.1705882 5.07827356,11.3179412 C5.05562534,11.3805882 5.03091818,11.4426471 5.00121077,11.5026471 C4.95179647,11.6620588 4.94856101,11.8308824 4.9547378,11.9964706 C4.96179698,12.3058824 5.12298174,12.6023529 5.35534662,12.8011765 C5.36152341,12.8126471 5.37417112,12.8352941 5.38034791,12.8467647 C5.59094697,13.0094118 5.77683888,13.2026471 5.97655502,13.3788235 C6.10156145,13.4882353 6.22274415,13.6014706 6.34833884,13.71 C6.42922535,13.7852941 6.50805293,13.8632353 6.59188077,13.9355882 C6.85218827,14.1764706 7.11631949,14.4132353 7.37721525,14.6535294 C7.55487144,14.8197059 7.73635136,14.9811765 7.91577234,15.1452941 C8.29020335,15.4820588 8.66875222,15.8147059 9.02994726,16.1658824 C9.11936362,16.235 9.19877946,16.3158824 9.28084251,16.3935294 C9.37202366,16.4802941 9.47997039,16.5458824 9.57379874,16.6294118 C9.6308605,16.6541176 9.68851052,16.6770588 9.74704294,16.6991176 C9.74704294,16.7047059 9.74674881,16.7158824 9.74645467,16.7214706 C9.97999609,16.8014706 10.2291265,16.7935294 10.4720802,16.7741176 C10.586792,16.7332353 10.6994448,16.6864706 10.8076857,16.6294118 C10.9141618,16.5511765 11.0250498,16.4761765 11.1171134,16.3802941 C11.8892119,15.6052941 12.6677813,14.8370588 13.4404681,14.0632353 C13.4489979,14.0564706 13.4663518,14.0435294 13.4748816,14.0367647 C13.6528319,13.8417647 13.8472537,13.6614706 14.0352045,13.4758824 C14.078442,13.4382353 14.1193265,13.3976471 14.1528576,13.3508824 C14.1655053,13.3447059 14.1910949,13.3320588 14.2037426,13.3255882 C14.2252143,13.2961765 14.2469801,13.2670588 14.2687459,13.2379412 C14.2984533,13.2161765 14.3281608,13.1947059 14.3584564,13.1735294 C14.3637508,13.1588235 14.3746337,13.1294118 14.3799281,13.1144118 C14.3946348,13.1088235 14.4237539,13.0976471 14.4384605,13.0917647 C14.4822863,13.0335294 14.5343478,12.9817647 14.5925861,12.9376471 C14.5987629,12.9252941 14.6111165,12.9002941 14.6172933,12.8876471 C14.771713,12.7770588 14.8864247,12.6217647 15.0299615,12.4982353 C15.0502567,12.4679412 15.0720225,12.4388235 15.0946707,12.4105882 C15.1070243,12.4041176 15.1320256,12.3911765 15.1443792,12.3847059 C15.2864453,12.2217647 15.4499831,12.0785294 15.6038146,11.9264706 C15.9708922,11.5605882 16.3391465,11.1952941 16.7041652,10.8267647 C17.1803662,10.3505882 17.6686266,9.88617647 18.1357094,9.40088235 C18.3118949,9.22323529 18.4921983,9.05029412 18.6736782,8.87823529 C18.801626,8.75176471 18.8998663,8.60088235 18.9813411,8.44117647 C18.9842824,8.42617647 18.9904592,8.39617647 18.9934005,8.38117647 C19.0404618,8.28352941 19.0457562,8.17411765 19.0486975,8.06764706 L19.0766401,8.08088235 C19.076346,8.01735294 19.076346,7.95352941 19.0769342,7.89 L19.0486975,7.90088235 C19.0516388,7.73705882 19.0101661,7.575 18.9275148,7.43352941 C18.8745709,7.33617647 18.8154502,7.24117647 18.7295635,7.16941176 C18.7248573,7.15558824 18.7151509,7.12823529 18.7104448,7.11441176 C18.6963264,7.10941176 18.6680897,7.09941176 18.6536772,7.09441176 C18.5877915,7.01941176 18.5060226,6.96117647 18.4169003,6.91676471 C18.1521808,6.76235294 17.8342233,6.75323529 17.538914,6.80352941 Z" id="Shape"></path>
                    </g>
                </g>
            </g>
        </g>
    </g>
</svg>