<?xml version="1.0" encoding="UTF-8"?>
<svg width="14px" height="12px" viewBox="0 0 14 12" version="1.1" xmlns="http://www.w3.org/2000/svg" xmlns:xlink="http://www.w3.org/1999/xlink">
    <title>icon-back</title>
    <g id="Page-1" stroke="none" stroke-width="1" fill="none" fill-rule="evenodd">
        <g id="icon-back" transform="translate(0.000000, -0.000000)" fill="#9ACA3C" fill-rule="nonzero">
            <path d="M13.4166667,5.40008044 L1.77945833,5.40008044 L6.23554167,1.03453365 C6.468875,0.805936437 6.47791667,0.426141066 6.25566667,0.186143991 C6.03370833,-0.0535530871 5.66445833,-0.0631529701 5.43083333,0.165444244 L0.341833333,5.15138347 C0.121625,5.37818071 0,5.67937704 0,6.00007313 C0,6.32046922 0.121625,6.62196555 0.352041667,6.85866266 L5.431125,11.834402 C5.544,11.9451007 5.68866667,12 5.83333333,12 C5.98733333,12 6.14133333,11.9376008 6.25595833,11.8137023 C6.47820833,11.5737052 6.46916667,11.1942098 6.23583333,10.9656126 L1.76108333,6.60006582 L13.4166667,6.60006582 C13.7386667,6.60006582 14,6.33126909 14,6.00007313 C14,5.66887717 13.7386667,5.40008044 13.4166667,5.40008044 L13.4166667,5.40008044 Z" id="Path"></path>
        </g>
    </g>
</svg>