<?xml version="1.0" encoding="UTF-8"?>
<svg width="17px" height="17px" viewBox="0 0 17 17" version="1.1" xmlns="http://www.w3.org/2000/svg" xmlns:xlink="http://www.w3.org/1999/xlink">
    <title>icon-edit</title>
    <g id="Page-1" stroke="none" stroke-width="1" fill="none" fill-rule="evenodd">
        <g id="icon-edit" transform="translate(0.000000, -0.000000)" fill="#9ACA3C" fill-rule="nonzero">
            <path d="M13.4582901,8.49972438 C13.066597,8.49972438 12.75,8.81710987 12.75,9.20803744 L12.75,14.8749311 C12.75,15.2652102 12.4326248,15.5832442 12.0417099,15.5832442 L2.125,15.5832442 C1.73395537,15.5832442 1.41670991,15.2652102 1.41670991,14.8749311 L1.41670991,4.95789963 C1.41670991,4.56762057 1.73395537,4.24958658 2.125,4.24958658 L7.79170991,4.24958658 C8.18340302,4.24958658 8.5,3.93220109 8.5,3.54127352 C8.5,3.15021621 8.18340302,2.83283073 7.79170991,2.83283073 L2.125,2.83283073 C0.953422555,2.83283073 0,3.7862842 0,4.95789963 L0,14.8749311 C0,16.0465465 0.953422555,17 2.125,17 L12.0417099,17 C13.2132874,17 14.1667099,16.0465465 14.1667099,14.8749311 L14.1667099,9.20803744 C14.1667099,8.81633163 13.8499832,8.49972438 13.4582901,8.49972438 Z" id="Path"></path>
            <path d="M6.64127349,7.85444741 C6.59172822,7.90399432 6.5583954,7.96703041 6.54425811,8.03499526 L6.04348755,10.5398372 C6.0201416,10.6559222 6.05697632,10.7756389 6.14050293,10.8599465 C6.20781709,10.9272628 6.29847716,10.9633205 6.39134218,10.9633205 C6.41390991,10.9633205 6.43738555,10.9612453 6.4607315,10.9563165 L8.96471406,10.4555297 C9.03410341,10.4412622 9.09713745,10.408058 9.14603423,10.3583815 L14.7503586,4.75387539 L12.246376,2.24994136 L6.64127349,7.85444741 Z" id="Path"></path>
            <path d="M16.4814606,0.518004995 C15.7909393,-0.172668332 14.6674805,-0.172668332 13.977478,0.518004995 L12.9972076,1.49830718 L15.5011902,4.0023709 L16.4814606,3.02193905 C16.8158264,2.68834059 17,2.24345615 17,1.77029628 C17,1.29713641 16.8158264,0.852252002 16.4814606,0.518004995 Z" id="Path"></path>
        </g>
    </g>
</svg>