<?xml version="1.0" encoding="UTF-8"?>
<svg width="16px" height="16px" viewBox="0 0 16 16" version="1.1" xmlns="http://www.w3.org/2000/svg" xmlns:xlink="http://www.w3.org/1999/xlink">
    <title>ic-new</title>
    <defs>
        <filter color-interpolation-filters="auto" id="filter-1">
            <feColorMatrix in="SourceGraphic" type="matrix" values="0 0 0 0 0.353827 0 0 0 0 0.667564 0 0 0 0 0.965919 0 0 0 1.000000 0"></feColorMatrix>
        </filter>
    </defs>
    <g id="Symbols" stroke="none" stroke-width="1" fill="none" fill-rule="evenodd">
        <g id="Statut" transform="translate(-1.000000, -3.000000)">
            <g transform="translate(1.300302, -0.000000)" id="Group">
                <g transform="translate(0.000000, 3.432764)" id="badge">
                    <g transform="translate(-0.000000, -0.000000)">
                        <path d="M14.8183581,8.58426668 L14.531243,8.18837916 C14.2914546,7.86161487 14.2882995,7.41859788 14.5217777,7.08554966 L14.8025825,6.68652018 C15.130714,6.22150944 14.9761136,5.57740674 14.4776061,5.3071978 L14.0485111,5.07469244 C13.6919836,4.88303261 13.4963667,4.48400313 13.5657791,4.08497365 L13.647812,3.60111113 C13.7424653,3.04184146 13.3259907,2.52341734 12.7580708,2.50142359 L12.2721837,2.47942984 C11.8683296,2.46372001 11.5212674,2.18722715 11.4076834,1.79762356 L11.2720136,1.3263289 C11.1142581,0.779627091 10.5147871,0.496850294 9.99734892,0.723071732 L9.5493232,0.917873525 C9.17702014,1.07811371 8.74476997,0.983854778 8.47658556,0.67908423 L8.15160916,0.314616359 C7.77299588,-0.109548836 7.11042263,-0.103264907 6.74127468,0.324042252 L6.4226085,0.694794052 C6.1575792,0.9995646 5.72848414,1.10324943 5.35302597,0.949293169 L4.90184514,0.763917269 C4.37809676,0.547121725 3.78493595,0.839324415 3.63349064,1.38916819 L3.5041311,1.86046285 C3.39370222,2.25635036 3.04979516,2.53598519 2.6490961,2.55797895 L2.16320905,2.58625663 C1.59844423,2.61767627 1.18827984,3.14238433 1.2923985,3.69851203 L1.38074159,4.17923258 C1.45330914,4.57826206 1.2640025,4.9804335 0.9106301,5.1752353 L0.484690155,5.41402459 C-0.0106622249,5.69051746 -0.152642207,6.33776213 0.181799528,6.79648893 L0.468914602,7.19237645 C0.708703015,7.51914075 0.711858126,7.96215773 0.478379934,8.29520595 L0.19126486,8.6973774 C-0.136866653,9.16238813 0.0177337714,9.80649083 0.516241262,10.0766998 L0.945336318,10.3092051 C1.30186383,10.500865 1.49748069,10.8998944 1.42806826,11.2989239 L1.34919049,11.7765025 C1.25453717,12.3357722 1.67101178,12.8541963 2.23893171,12.8761901 L2.72481875,12.8981838 C3.12867292,12.9138936 3.4757351,13.1903865 3.58931909,13.5799901 L3.72498885,14.0512847 C3.88274438,14.5979866 4.48221541,14.8807634 4.99965357,14.6545419 L5.44767929,14.4597401 C5.81998235,14.2994999 6.25223252,14.3937589 6.52041693,14.6953875 L6.84539333,15.0598553 C7.22400662,15.4840205 7.88657986,15.4777366 8.25572781,15.0504294 L8.574394,14.6796776 C8.83942329,14.3749071 9.26851835,14.2712223 9.64397652,14.4251785 L10.0951574,14.6105544 C10.6189057,14.82735 11.2120665,14.5351473 11.3635119,13.9853035 L11.4928714,13.5140088 C11.6001452,13.1244052 11.9440522,12.8447704 12.3479064,12.8196347 L12.8337934,12.791357 C13.3985583,12.7599374 13.8087227,12.2352293 13.704604,11.6759597 L13.6162609,11.1952391 C13.5436934,10.7962096 13.733,10.3940382 14.0863724,10.1992364 L14.5123123,9.96044709 C15.0108198,9.69338012 15.1527998,9.04299348 14.8183581,8.58426668 Z M7.49850125,12.3640499 C4.89869003,12.3640499 2.79107608,10.2495078 2.79107608,7.64167736 C2.79107608,5.0338469 4.89869003,2.91616289 7.49850125,2.91616289 C10.0983125,2.91616289 12.2059264,5.03070493 12.2059264,7.63853539 C12.2059264,10.2463659 10.0983125,12.3640499 7.49850125,12.3640499 Z" id="Shape" fill="#ffffff" fill-rule="nonzero"></path>
                        <path d="M10.2655333,6.44773088 L8.50498156,6.31891034 L7.8392532,4.67880492 C7.71304877,4.37089241 7.2776435,4.37089241 7.15459418,4.67880492 L6.48886582,6.31891034 L4.72831405,6.44773088 C4.39702743,6.4728666 4.26135767,6.8876059 4.51692163,7.10125948 L5.8641539,8.24179256 L5.44136907,9.96044709 C5.3624913,10.2840694 5.71270859,10.5417105 5.99666855,10.3657605 L7.49534614,9.43259707 L8.99402372,10.3657605 C9.27482857,10.5417105 9.62820097,10.2840694 9.5493232,9.96044709 L9.12653837,8.24179256 L10.4737706,7.10125948 C10.7324897,6.8876059 10.59682,6.4728666 10.2655333,6.44773088 Z" id="Path" fill="#ffffff" fill-rule="nonzero"></path>
                    </g>
                </g>
            </g>
        </g>
    </g>
</svg>