<?xml version="1.0" encoding="UTF-8"?>
<svg width="19px" height="19px" viewBox="0 0 19 19" version="1.1" xmlns="http://www.w3.org/2000/svg" xmlns:xlink="http://www.w3.org/1999/xlink">
    <title>icon-gps</title>
    <g id="Page-1" stroke="none" stroke-width="1" fill="none" fill-rule="evenodd">
        <g id="icon-gps" transform="translate(1.000000, 1.000000)" fill="#9ACA3C" fill-rule="nonzero" stroke="#9ACA3C" stroke-width="0.3">
            <path d="M8.5,15.5833333 C4.59425,15.5833333 1.41666667,12.40575 1.41666667,8.5 C1.41666667,4.59425 4.59425,1.41666667 8.5,1.41666667 C12.40575,1.41666667 15.5833333,4.59425 15.5833333,8.5 C15.5833333,12.40575 12.40575,15.5833333 8.5,15.5833333 Z M8.5,2.47916667 C5.18004167,2.47916667 2.47916667,5.18004167 2.47916667,8.5 C2.47916667,11.8199583 5.18004167,14.5208333 8.5,14.5208333 C11.8199583,14.5208333 14.5208333,11.8199583 14.5208333,8.5 C14.5208333,5.18004167 11.8199583,2.47916667 8.5,2.47916667 Z" id="Shape"></path>
            <path d="M8.5,3.54166667 C8.20675,3.54166667 7.96875,3.30366667 7.96875,3.01041667 L7.96875,0.53125 C7.96875,0.238 8.20675,-2.22044605e-16 8.5,-2.22044605e-16 C8.79325,-2.22044605e-16 9.03125,0.238 9.03125,0.53125 L9.03125,3.01041667 C9.03125,3.30366667 8.79325,3.54166667 8.5,3.54166667 Z" id="Path"></path>
            <path d="M16.46875,9.03125 L13.9895833,9.03125 C13.6963333,9.03125 13.4583333,8.79325 13.4583333,8.5 C13.4583333,8.20675 13.6963333,7.96875 13.9895833,7.96875 L16.46875,7.96875 C16.762,7.96875 17,8.20675 17,8.5 C17,8.79325 16.762,9.03125 16.46875,9.03125 Z" id="Path"></path>
            <path d="M8.5,17 C8.20675,17 7.96875,16.762 7.96875,16.46875 L7.96875,13.9895833 C7.96875,13.6963333 8.20675,13.4583333 8.5,13.4583333 C8.79325,13.4583333 9.03125,13.6963333 9.03125,13.9895833 L9.03125,16.46875 C9.03125,16.762 8.79325,17 8.5,17 Z" id="Path"></path>
            <path d="M3.01041667,9.03125 L0.53125,9.03125 C0.238,9.03125 -2.22044605e-16,8.79325 -2.22044605e-16,8.5 C-2.22044605e-16,8.20675 0.238,7.96875 0.53125,7.96875 L3.01041667,7.96875 C3.30366667,7.96875 3.54166667,8.20675 3.54166667,8.5 C3.54166667,8.79325 3.30366667,9.03125 3.01041667,9.03125 Z" id="Path"></path>
            <path d="M8.5,10.625 C7.32841667,10.625 6.375,9.67158333 6.375,8.5 C6.375,7.32841667 7.32841667,6.375 8.5,6.375 C9.67158333,6.375 10.625,7.32841667 10.625,8.5 C10.625,9.67158333 9.67158333,10.625 8.5,10.625 Z M8.5,7.4375 C7.91420833,7.4375 7.4375,7.91420833 7.4375,8.5 C7.4375,9.08579167 7.91420833,9.5625 8.5,9.5625 C9.08579167,9.5625 9.5625,9.08579167 9.5625,8.5 C9.5625,7.91420833 9.08579167,7.4375 8.5,7.4375 Z" id="Shape"></path>
        </g>
    </g>
</svg>