<?xml version="1.0" encoding="UTF-8"?>
<svg width="25px" height="25px" viewBox="0 0 25 25" version="1.1" xmlns="http://www.w3.org/2000/svg" xmlns:xlink="http://www.w3.org/1999/xlink">
    <title>attention</title>
    <g id="Page-1" stroke="none" stroke-width="1" fill="none" fill-rule="evenodd">
        <g id="attention" fill="#FF4747" fill-rule="nonzero">
            <path d="M12.2900391,0 L12.7016602,0 C14.5947266,0.0390625 16.4814453,0.493652344 18.1674805,1.35986328 C20.6826172,2.63378906 22.7387695,4.78662109 23.8950195,7.35839844 C24.5966797,8.90332031 24.9648438,10.5932617 25,12.2890625 L25,12.7016602 C24.9628906,14.6196289 24.4946289,16.5302734 23.6074219,18.2329102 C22.6884766,20.0136719 21.3334961,21.5668945 19.6943359,22.7192383 C17.6547852,24.1694336 15.168457,24.9638672 12.668457,25 L12.2973633,25 C9.98632812,24.9570312 7.68798828,24.2749023 5.74609375,23.0166016 C4.39111328,22.1455078 3.20556641,21.0102539 2.27929688,19.6918945 C0.837402344,17.6645508 0.0434570312,15.1958008 0,12.7104492 L0,12.2958984 C0.021484375,11.6411133 0.0712890625,10.9858398 0.188476562,10.3408203 C0.541503906,8.29443359 1.42236328,6.34277344 2.71923828,4.72119141 C3.83691406,3.31445312 5.26171875,2.15136719 6.86621094,1.34277344 C8.54150391,0.489257812 10.4125977,0.0400390625 12.2900391,0 M11.3535156,1.89355469 C8.88574219,2.15087891 6.52880859,3.31396484 4.81542969,5.10742188 C3.63183594,6.33154297 2.74902344,7.84423828 2.26708984,9.47705078 C1.75195313,11.2124023 1.69140625,13.0795898 2.08935547,14.8447266 C2.45800781,16.4863281 3.22412109,18.0371094 4.30566406,19.3261719 C4.52246094,19.5644531 4.73632813,19.8056641 4.95751953,20.0400391 C5.19238281,20.262207 5.43505859,20.4755859 5.67382813,20.6933594 C6.15722656,21.1005859 6.68017578,21.4604492 7.22851563,21.7744141 C9.37792969,23.0102539 11.9672852,23.4458008 14.4047852,22.9985352 C16.4233398,22.6357422 18.3344727,21.6743164 19.8144531,20.2524414 C21.8720703,18.3510742 23.1044922,15.5932617 23.1655273,12.7924805 C23.2475586,10.2006836 22.3330078,7.59228516 20.6464844,5.62255859 C20.3549805,5.31201172 20.0874023,4.97705078 19.7597656,4.70263672 C18.7612305,3.74902344 17.5615234,3.01171875 16.2724609,2.52148438 C14.7128906,1.92675781 13.0126953,1.71679688 11.3535156,1.89355469 Z" id="Shape"></path>
            <path d="M11.1479492,4.36621094 C11.972168,4.35253906 12.796875,4.36572266 13.6210938,4.36035156 C13.777832,4.36523438 13.9672852,4.34765625 14.0839844,4.47607422 C14.1616211,4.55712891 14.1367188,4.67919922 14.1381836,4.78076172 C13.9692383,7.80859375 13.7973633,10.8364258 13.6264648,13.8642578 C13.6088867,14.0249023 13.6079102,14.206543 13.4951172,14.3349609 C13.3764648,14.4204102 13.222168,14.4033203 13.0839844,14.4091797 C12.644043,14.40625 12.2041016,14.4135742 11.7646484,14.4052734 C11.6542969,14.4003906 11.5117188,14.3857422 11.4599609,14.2714844 C11.371582,14.0859375 11.3789063,13.8740234 11.3637695,13.6733398 C11.2050781,10.8232422 11.0439453,7.97363281 10.8852539,5.12353516 C10.8828125,4.93017578 10.8432617,4.73339844 10.8852539,4.54199219 C10.909668,4.42285156 11.0380859,4.37060547 11.1479492,4.36621094 Z" id="Path"></path>
            <path d="M12.0336914,16.8745117 C12.5332031,16.7539063 13.0834961,16.8256836 13.5185547,17.1054688 C14.3095703,17.5820312 14.637207,18.6757813 14.2368164,19.5087891 C13.9746094,20.0800781 13.4213867,20.5131836 12.796875,20.6074219 C12.2578125,20.6928711 11.6850586,20.5332031 11.2700195,20.1782227 C10.878418,19.8515625 10.6259766,19.3613281 10.5966797,18.8515625 C10.5654297,18.3613281 10.7202148,17.855957 11.0419922,17.4819336 C11.2949219,17.1787109 11.6499023,16.9658203 12.0336914,16.8745117 Z" id="Path"></path>
        </g>
    </g>
</svg>