<?xml version="1.0" encoding="UTF-8"?>
<svg width="14px" height="15px" viewBox="0 0 14 15" version="1.1" xmlns="http://www.w3.org/2000/svg" xmlns:xlink="http://www.w3.org/1999/xlink">
    <title>sound-mix</title>
    <g id="UI-" stroke="none" stroke-width="1" fill="none" fill-rule="evenodd">
        <g id="Admin-&gt;-Services" transform="translate(-1012.000000, -114.000000)" fill="#363636" fill-rule="nonzero">
            <g id="Group-13" transform="translate(266.000000, 105.000000)">
                <g id="Group-19" transform="translate(734.250000, 0.000000)">
                    <path d="M14.9145,10.3305 C14.9145,9.906 14.57025,9.87 14.1465,9.87 C13.72275,9.87 13.3785,9.906 13.3785,10.3305 L13.3785,16.7805 L14.9145,16.7805 L14.9145,10.3305 Z M13.37925,23.2275 C13.37925,23.6505 13.722,23.688 14.14725,23.688 C14.5725,23.688 14.91525,23.6505 14.91525,23.2275 L14.91525,20.6175 L13.37925,20.6175 L13.37925,23.2275 Z M15.9885,17.547 L12.30375,17.547 C11.87925,17.547 11.844,17.89125 11.844,18.315 L11.844,19.083 C11.844,19.5075 11.87925,19.851 12.30375,19.851 L15.98925,19.851 C16.4115,19.851 16.44975,19.50825 16.44975,19.083 L16.44975,18.31425 C16.44975,17.8905 16.4115,17.547 15.9885,17.547 Z M25.20075,18.315 L21.5145,18.315 C21.09075,18.315 21.0555,18.65925 21.0555,19.083 L21.0555,19.851 C21.0555,20.2755 21.09075,20.619 21.51525,20.619 L25.20075,20.619 C25.623,20.619 25.66125,20.27625 25.66125,19.851 L25.66125,19.08225 C25.66125,18.6585 25.623,18.31425 25.2,18.31425 L25.20075,18.315 Z M21.05625,14.47575 C21.05625,14.052 21.018,13.70775 20.595,13.70775 L16.9095,13.70775 C16.485,13.70775 16.44975,14.052 16.44975,14.47575 L16.44975,15.24375 C16.44975,15.66825 16.485,16.01175 16.9095,16.01175 L20.595,16.01175 C21.01725,16.01175 21.0555,15.669 21.0555,15.24375 L21.05625,14.47575 Z M19.521,10.3305 C19.521,9.906 19.17675,9.87 18.753,9.87 C18.32925,9.87 17.985,9.906 17.985,10.3305 L17.985,12.9405 L19.52025,12.9405 L19.521,10.3305 Z M17.985,23.2275 C17.985,23.6505 18.32775,23.688 18.753,23.688 C19.17825,23.688 19.521,23.6505 19.521,23.2275 L19.521,16.7775 L17.985,16.7775 L17.985,23.2275 Z M24.126,10.3275 C24.126,9.903 23.78175,9.867 23.358,9.867 C22.93425,9.867 22.59,9.903 22.59,10.3275 L22.59,17.54325 L24.12525,17.54325 L24.12525,10.3305 L24.126,10.3275 Z M22.5915,23.2275 C22.5915,23.6505 22.93425,23.688 23.3595,23.688 C23.78475,23.688 24.1275,23.6505 24.1275,23.2275 L24.1275,21.38475 L22.5915,21.38475 L22.5915,23.2275 Z" id="sound-mix"></path>
                </g>
            </g>
        </g>
    </g>
</svg>