<?xml version="1.0" encoding="UTF-8"?>
<svg width="17px" height="17px" viewBox="0 0 17 17" version="1.1" xmlns="http://www.w3.org/2000/svg" xmlns:xlink="http://www.w3.org/1999/xlink">
    <title>icon-web</title>
    <g id="Page-1" stroke="none" stroke-width="1" fill="none" fill-rule="evenodd">
        <g id="icon-web" transform="translate(1.000000, 1.000000)" fill="#9ACA3C" fill-rule="nonzero" stroke="#9ACA3C" stroke-width="0.3">
            <path d="M7.75,0 C4.47608268,0 0,2.47450787 0,7.75 C0,12.8912402 4.30521654,15.5 7.75,15.5 C13.6601378,15.5 15.5,10.3221457 15.5,7.75 C15.5,3.95433071 12.5952756,0 7.75,0 Z M5.95285433,0.729232283 C5.14429134,1.41879921 4.4730315,2.55994094 4.03976378,3.97568898 C3.47834646,3.64311024 2.96269685,3.23120079 2.50501969,2.75216535 C3.45088583,1.7605315 4.64694882,1.0648622 5.95285433,0.729232283 Z M2.17244094,3.12440945 C2.68503937,3.65836614 3.26781496,4.11299213 3.90246063,4.4730315 C3.6644685,5.39753937 3.52411417,6.42273622 3.50580709,7.49980315 L0.506496063,7.49980315 C0.561417323,5.89183071 1.14724409,4.35708661 2.17244094,3.12440945 Z M2.17244094,12.3755906 C1.14419291,11.1429134 0.561417323,9.60816929 0.506496063,8.00019685 L3.50580709,8.00019685 C3.52411417,9.08031496 3.6644685,10.1024606 3.90246063,11.0269685 C3.27086614,11.3900591 2.68809055,11.8416339 2.17244094,12.3755906 Z M2.50501969,12.7508858 C2.96269685,12.2718504 3.47834646,11.8599409 4.03976378,11.5273622 C4.4730315,12.9400591 5.14429134,14.084252 5.95285433,14.7738189 C4.64694882,14.4351378 3.45088583,13.7394685 2.50501969,12.7508858 Z M7.49980315,14.9812992 C6.2,14.8165354 5.08021654,13.3641732 4.47608268,11.2832677 C5.40974409,10.8103346 6.44104331,10.5448819 7.49980315,10.5052165 L7.49980315,14.9812992 Z M7.49980315,10.007874 C6.39527559,10.0444882 5.32125984,10.3160433 4.34793307,10.7920276 C4.14350394,9.93769685 4.02145669,8.99488189 4.00314961,8.00019685 L7.49980315,8.00019685 L7.49980315,10.007874 L7.49980315,10.007874 Z M7.49980315,7.49980315 L4.00314961,7.49980315 C4.02145669,6.50511811 4.14350394,5.56230315 4.34793307,4.70797244 C5.32431102,5.18395669 6.39832677,5.45551181 7.49980315,5.49212598 L7.49980315,7.49980315 Z M7.49980315,4.99478346 C6.43799213,4.95816929 5.40974409,4.68966535 4.47608268,4.21673228 C5.08021654,2.13277559 6.2,0.683464567 7.49980315,0.518700787 L7.49980315,4.99478346 Z M13.3275591,3.12440945 C14.3527559,4.35708661 14.9385827,5.89183071 14.9935039,7.49980315 L11.9972441,7.49980315 C11.978937,6.41968504 11.8385827,5.39753937 11.6005906,4.4730315 C12.232185,4.10994094 12.8149606,3.65836614 13.3275591,3.12440945 Z M12.9949803,2.74911417 C12.5373031,3.22814961 12.0216535,3.64005906 11.4602362,3.9726378 C11.0269685,2.55994094 10.3557087,1.41879921 9.54714567,0.726181102 C10.8530512,1.0648622 12.0491142,1.7605315 12.9949803,2.74911417 Z M8.00019685,0.518700787 C9.3,0.683464567 10.4197835,2.13582677 11.0239173,4.21673228 C10.0902559,4.68966535 9.06200787,4.95511811 8.00019685,4.99478346 L8.00019685,0.518700787 L8.00019685,0.518700787 Z M8.00019685,5.49212598 C9.10472441,5.45551181 10.1787402,5.18395669 11.1520669,4.70797244 C11.3564961,5.56230315 11.4785433,6.50511811 11.4968504,7.49980315 L8.00019685,7.49980315 L8.00019685,5.49212598 Z M8.00019685,8.00019685 L11.4968504,8.00019685 C11.4785433,8.99488189 11.3564961,9.93769685 11.1520669,10.7920276 C10.1787402,10.3129921 9.10472441,10.041437 8.00019685,10.007874 L8.00019685,8.00019685 L8.00019685,8.00019685 Z M8.00019685,14.9812992 L8.00019685,10.5052165 C9.06200787,10.5418307 10.0902559,10.8103346 11.0239173,11.2832677 C10.4197835,13.3672244 9.3,14.8165354 8.00019685,14.9812992 Z M9.54714567,14.7707677 C10.3557087,14.0812008 11.0269685,12.9400591 11.4602362,11.524311 C12.0216535,11.8568898 12.5373031,12.2687992 12.9949803,12.7478346 C12.0491142,13.7394685 10.8530512,14.4351378 9.54714567,14.7707677 Z M13.3275591,12.3755906 C12.8149606,11.8416339 12.232185,11.3900591 11.6005906,11.0269685 C11.8385827,10.1024606 11.978937,9.07726378 11.9972441,8.00019685 L14.9935039,8.00019685 C14.9385827,9.60816929 14.3527559,11.1429134 13.3275591,12.3755906 Z" id="Shape"></path>
        </g>
    </g>
</svg>