<?xml version="1.0" encoding="UTF-8"?>
<svg width="21px" height="16px" viewBox="0 0 21 16" version="1.1" xmlns="http://www.w3.org/2000/svg" xmlns:xlink="http://www.w3.org/1999/xlink">
    <title>icon-chat-active</title>
    <g id="Page-1" stroke="none" stroke-width="1" fill="none" fill-rule="evenodd">
        <g id="icon-chat-active" transform="translate(1.192206, 0.504528)" fill="#9ACA3C" fill-rule="nonzero" stroke="#9ACA3C" stroke-width="0.5">
            <path d="M16.2239044,6.39786691 C16.1040971,6.35977048 15.9761685,6.42625528 15.938168,6.54636487 C15.9001674,6.66647446 15.9664849,6.79472578 16.0862922,6.83282222 C17.8647387,7.40094667 18.6579201,8.24786407 18.6579201,9.5814715 C18.5088763,10.6523099 17.873723,11.5936472 16.9377676,12.1308462 C16.8761046,12.1748045 16.8402839,12.2466266 16.8422036,12.3224565 L16.8422036,14.0661099 C16.2956725,13.8584554 15.807439,13.5211878 15.4192553,13.0831492 C15.3658067,13.0231896 15.2849964,12.9955793 15.2061475,13.0103373 C15.0761804,13.0352467 14.9443021,13.0706946 14.8095568,13.1061425 C14.5830613,13.1782643 14.3483036,13.2210845 14.1109838,13.2335633 C13.0980036,13.2816669 12.0999108,12.9747767 11.2880225,12.3655688 C11.1866877,12.2909633 11.0442121,12.3128389 10.9697943,12.4144294 C10.8953766,12.5160199 10.9171972,12.658855 11.018532,12.7334605 C11.9070379,13.4039762 13.0010128,13.7427884 14.1119394,13.6915118 C14.3894137,13.6805351 14.6641907,13.6325292 14.9290118,13.5487622 C15.0102413,13.526727 15.090515,13.5046918 15.1698332,13.4855308 C15.6691675,14.0263965 16.3124786,14.4126922 17.0237753,14.5987865 C17.0390229,14.6004045 17.0543983,14.6004045 17.069646,14.5987865 C17.1950414,14.5982616 17.2965648,14.4964821 17.2970884,14.3707702 L17.2970884,12.4364646 C18.326341,11.83376 19.0024186,10.7703536 19.1128048,9.5805135 C19.1128048,8.03805082 18.1953902,7.02634859 16.2239044,6.39786691 Z M15.0169307,6.15931212 C15.0169307,2.64805393 11.8231811,0 7.58873915,0 C3.33327316,0 0,2.70553701 0,6.16027018 C0.132750267,8.0014329 1.15140656,9.6624896 2.73026417,10.6123348 L2.73026417,13.6397771 C2.73026417,13.7657069 2.83209359,13.8678036 2.95770655,13.8678036 C2.99062354,13.8679529 3.02319829,13.861095 3.05327057,13.8476742 C4.16337171,13.306267 5.16314542,12.5622611 6.00142071,11.6537366 C6.59928,11.7775071 7.20688477,11.8480389 7.81713717,11.8645079 C12.1232521,11.8645079 15.0169307,9.571891 15.0169307,6.15931212 Z M7.81713717,11.4075174 C7.19237845,11.3880701 6.57062512,11.3123993 5.95937254,11.1814173 C5.88055184,11.1670445 5.79992572,11.1945918 5.74626477,11.2542292 C5.0114359,12.064029 4.14597652,12.7441523 3.18610456,13.266137 L3.18610456,10.4877881 C3.18802422,10.4119583 3.15220353,10.3401362 3.09054054,10.2961778 C1.88643384,9.47704395 0.454884755,8.08595339 0.454884755,6.16027018 C0.454884755,2.96133672 3.5884291,0.456032442 7.58873915,0.456032442 C11.5642026,0.456032442 14.5649129,2.90768584 14.5649129,6.15835407 C14.562046,9.2988464 11.849939,11.4075174 7.81713717,11.4075174 Z M7.50846537,5.24628919 C7.00601355,5.24628919 6.59869586,5.65463455 6.59869586,6.15835407 C6.59869586,6.6620736 7.00601355,7.07041896 7.50846537,7.07041896 C8.0109172,7.07041896 8.41823488,6.6620736 8.41823488,6.15835407 C8.41770816,5.65485344 8.01069886,5.24681724 7.50846537,5.24628919 Z M7.50846538,6.61534457 C7.25723946,6.61534457 7.05358062,6.41117189 7.05358062,6.15931212 C7.05358062,5.90745236 7.25723946,5.70327968 7.50846538,5.70327968 C7.75969129,5.70327968 7.96335013,5.90745236 7.96335013,6.15931212 C7.96021655,6.40908059 7.75762445,6.6100504 7.50846538,6.61055431 L7.50846538,6.61534457 Z M10.6936143,5.24628919 C10.1911625,5.24628919 9.78384479,5.65463455 9.78384479,6.15835407 C9.78384479,6.6620736 10.1911625,7.07041896 10.6936143,7.07041896 C11.1960661,7.07041896 11.6033838,6.6620736 11.6033838,6.15835407 C11.6028571,5.65485344 11.1958478,5.24681724 10.6936143,5.24628919 L10.6936143,5.24628919 Z M10.6936143,6.61534457 C10.4423884,6.61534457 10.2387295,6.41117189 10.2387295,6.15931212 C10.2387295,5.90745236 10.4423884,5.70327968 10.6936143,5.70327968 C10.9448402,5.70327968 11.1484991,5.90745236 11.1484991,6.15931212 C11.1453655,6.40908059 10.9427734,6.6100504 10.6936143,6.61055431 L10.6936143,6.61534457 Z M4.32331645,5.2894015 C3.82086462,5.2894015 3.41354694,5.69774686 3.41354694,6.20146638 C3.41354694,6.70518591 3.82086462,7.11353127 4.32331645,7.11353127 C4.82576828,7.11353127 5.23308596,6.70518591 5.23308596,6.20146638 C5.23255923,5.69796575 4.82554994,5.28992955 4.32331645,5.2894015 L4.32331645,5.2894015 Z M4.32331645,6.65845688 C4.07209054,6.65845688 3.8684317,6.4542842 3.8684317,6.20242443 C3.8684317,5.95056467 4.07209054,5.74639199 4.32331645,5.74639199 C4.57454236,5.74639199 4.7782012,5.95056467 4.7782012,6.20242443 C4.77767553,6.45406558 4.5743243,6.65792988 4.32331645,6.65845688 Z" id="chat"></path>
        </g>
    </g>
</svg>