<?xml version="1.0" encoding="UTF-8"?>
<svg width="18px" height="19px" viewBox="0 0 18 19" version="1.1" xmlns="http://www.w3.org/2000/svg" xmlns:xlink="http://www.w3.org/1999/xlink">
    <title>question</title>
    <defs>
        <filter id="filter-1">
            <feColorMatrix in="SourceGraphic" type="matrix" values="0 0 0 0 0.542960 0 0 0 0 0.643309 0 0 0 0 0.691095 0 0 0 1.000000 0"></feColorMatrix>
        </filter>
    </defs>
    <g id="UI-Desktop" stroke="none" stroke-width="1" fill="none" fill-rule="evenodd">
        <g id="Réparateur-&gt;-Prestations-:-cas-devis" transform="translate(-1039.000000, -558.000000)">
            <g id="Rectangle-2" transform="translate(851.000000, 67.000000)">
                <g id="Group-11" transform="translate(40.000000, 408.000000)">
                    <g id="Group-25" transform="translate(40.000000, 76.000000)">
                        <g id="question" transform="translate(0.000000, 5.184783)" filter="url(#filter-1)">
                            <g transform="translate(108.000000, 2.000000)">
                                <path d="M9.74995421,13.5 C9.74995421,13.9141846 9.41418457,14.2499542 9,14.2499542 C8.58581543,14.2499542 8.25004579,13.9141846 8.25004579,13.5 C8.25004579,13.0858154 8.58581543,12.7500458 9,12.7500458 C9.41418457,12.7500458 9.74995421,13.0858154 9.74995421,13.5 Z" id="Path" fill="#000000" fill-rule="nonzero"></path>
                                <path d="M9,18 C4.03720095,18 0,13.9627991 0,9 C0,4.03720095 4.03720095,0 9,0 C13.9627991,0 18,4.03720095 18,9 C18,13.9627991 13.9627991,18 9,18 Z M9,1.125 C4.65751649,1.125 1.125,4.65751649 1.125,9 C1.125,13.3424835 4.65751649,16.875 9,16.875 C13.3424835,16.875 16.875,13.3424835 16.875,9 C16.875,4.65751649 13.3424835,1.125 9,1.125 Z" id="Shape" fill="#000000" fill-rule="nonzero"></path>
                                <path d="M9,11.0625458 C8.68949891,11.0625458 8.4375,10.8105469 8.4375,10.5000458 L8.4375,9.74253846 C8.4375,9.02856445 8.89054871,8.38874816 9.56401063,8.15103148 C10.4602203,7.8353119 11.0625458,6.88046266 11.0625458,6.1875 C11.0625458,5.0497284 10.1377716,4.12495421 9,4.12495421 C7.8622284,4.12495421 6.93745421,5.0497284 6.93745421,6.1875 C6.93745421,6.49800109 6.6854553,6.75 6.37495421,6.75 C6.06445312,6.75 5.81245421,6.49800109 5.81245421,6.1875 C5.81245421,4.43023682 7.24205018,2.99995421 9,2.99995421 C10.7579498,2.99995421 12.1875458,4.43023682 12.1875458,6.1875 C12.1875458,7.43856813 11.1997375,8.7668152 9.93823242,9.21231077 C9.71328734,9.29100038 9.5625,9.50468446 9.5625,9.7432251 L9.5625,10.5000458 C9.5625,10.8105469 9.31050109,11.0625458 9,11.0625458 L9,11.0625458 Z" id="Path" fill="#000000" fill-rule="nonzero"></path>
                            </g>
                        </g>
                    </g>
                </g>
            </g>
        </g>
    </g>
</svg>