<?xml version="1.0" encoding="UTF-8"?>
<svg width="28px" height="28px" viewBox="0 0 28 28" version="1.1" xmlns="http://www.w3.org/2000/svg" xmlns:xlink="http://www.w3.org/1999/xlink">
    <title>Path</title>
    <g id="UI-Desktop" stroke="none" stroke-width="1" fill="none" fill-rule="evenodd">
        <g id="Page-prestation---cas-devis-payant" transform="translate(-40.000000, -1159.000000)" fill="#1778F2" fill-rule="nonzero">
            <g id="Group-10" transform="translate(0.000000, 178.000000)">
                <g id="Group-11" transform="translate(39.500000, 86.000000)">
                    <g id="facebook" transform="translate(0.500000, 895.000000)">
                        <path d="M28,14 C28,6.2671875 21.7328125,0 14,0 C6.2671875,0 0,6.2671875 0,14 C0,21.7328125 6.2671875,28 14,28 C14.0820312,28 14.1640625,28 14.2460938,27.9945312 L14.2460938,17.1007813 L11.2382812,17.1007813 L11.2382812,13.5953125 L14.2460938,13.5953125 L14.2460938,11.0140625 C14.2460938,8.02265625 16.0726562,6.39296875 18.7414063,6.39296875 C20.0210937,6.39296875 21.1203125,6.4859375 21.4375,6.5296875 L21.4375,9.6578125 L19.6,9.6578125 C18.1507812,9.6578125 17.8664063,10.346875 17.8664063,11.3585937 L17.8664063,13.5898437 L21.3390625,13.5898437 L20.8851562,17.0953125 L17.8664063,17.0953125 L17.8664063,27.4585937 C23.7179688,25.7796875 28,20.3929687 28,14 Z" id="Path"></path>
                    </g>
                </g>
            </g>
        </g>
    </g>
</svg>