<?xml version="1.0" encoding="UTF-8"?>
<svg width="14px" height="14px" viewBox="0 0 14 14" version="1.1" xmlns="http://www.w3.org/2000/svg" xmlns:xlink="http://www.w3.org/1999/xlink">
    <title>Group</title>
    <g id="UI-Desktop" stroke="none" stroke-width="1" fill="none" fill-rule="evenodd">
        <g id="Espace-client-&gt;-Mes-devis-1" transform="translate(-499.000000, -350.000000)" fill="#FFFFFF" fill-rule="nonzero">
            <g id="Group-4" transform="translate(28.000000, 102.000000)">
                <g id="Group-26" transform="translate(3.000000, 235.000000)">
                    <g id="Group-25-Copy" transform="translate(360.000000, 0.000000)">
                        <g id="Group" transform="translate(108.000000, 13.000000)">
                            <path d="M10.063,3.50000114 L10.938,3.50000114 C11.0540728,3.5002679 11.1654825,3.45434425 11.2476523,3.37236204 C11.3298221,3.29037984 11.3760011,3.17907536 11.3760011,3.06300229 L11.3760011,0.438002287 C11.3762663,0.321756027 11.3302055,0.210194212 11.2480068,0.127995477 C11.1658081,0.0457967422 11.0542463,-0.000264028469 10.938,1.13858993e-06 L10.063,1.13858993e-06 C9.94692692,1.13858993e-06 9.83562245,0.0461801683 9.75364025,0.128349975 C9.67165804,0.210519781 9.62573439,0.321929516 9.62599885,0.438002287 L9.62599885,3.06300229 C9.62599885,3.30435072 9.82165156,3.50000114 10.063,3.50000114 L10.063,3.50000114 Z M3.063,3.50000229 L3.938,3.50000229 C4.17951073,3.50000229 4.37544861,3.30451239 4.376,3.06300229 L4.376,0.438002287 C4.376,0.196101567 4.17990072,2.28703634e-06 3.938,2.28703634e-06 L3.063,2.28703634e-06 C2.8214899,0.000553681405 2.626,0.196491553 2.626,0.438002287 L2.626,3.06300229 C2.62654988,3.30412259 2.8218797,3.49945241 3.063,3.50000229 Z M13.125,1.75000229 L12.25,1.75000229 L12.25,3.93800229 C12.2502656,4.05407506 12.204342,4.16548479 12.1223598,4.2476546 C12.0403776,4.32982441 11.9290731,4.37600259 11.813,4.37600229 L9.188,4.37600229 C8.94665156,4.37600229 8.751,4.18035072 8.751,3.93900229 L8.751,1.75000229 L5.25,1.75000229 L5.25,3.93800229 C5.25000063,4.17951302 5.0545101,4.37545089 4.813,4.37600229 L2.188,4.37600229 C1.9468797,4.37545241 1.75154988,4.18012259 1.751,3.93900229 L1.751,1.75000229 L0.875,1.75000229 C0.391750844,1.75000229 0,2.14175313 0,2.62500229 L0,13.1250023 C0,13.6082514 0.391750844,14.0000023 0.875,14.0000023 L13.125,14.0000023 C13.6082492,14.0000023 14,13.6082514 14,13.1250023 L14,2.62500229 C14,2.14175313 13.6082492,1.75000229 13.125,1.75000229 Z M13.125,12.6880023 C13.1252656,12.8040751 13.079342,12.9154848 12.9973598,12.9976546 C12.9153776,13.0798244 12.8040731,13.1260023 12.688,13.1260023 L1.313,13.1260023 C1.07165156,13.1260023 0.876,12.9303507 0.876,12.6890023 L0.876,5.68900229 C0.876551394,5.44749218 1.07248927,5.25200114 1.314,5.25200114 L12.688,5.25200114 C12.8042463,5.25173597 12.9158081,5.29779674 12.9980068,5.37999548 C13.0802055,5.46219421 13.1262663,5.57375603 13.1260011,5.69000229 L13.125,12.6880023 Z" id="calendar"></path>
                        </g>
                    </g>
                </g>
            </g>
        </g>
    </g>
</svg>