<?xml version="1.0" encoding="UTF-8"?>
<svg width="13px" height="13px" viewBox="0 0 13 13" version="1.1" xmlns="http://www.w3.org/2000/svg" xmlns:xlink="http://www.w3.org/1999/xlink">
    <title>close</title>
    <g id="Symbols" stroke="none" stroke-width="1" fill="none" fill-rule="evenodd">
        <g id="Close" transform="translate(-1.000000, -1.000000)" fill="#F44336" fill-rule="nonzero">
            <g id="close" transform="translate(1.000000, 1.000000)">
                <path d="M12.6666471,10.5220043 L2.47853775,0.333269243 C2.03420605,-0.111089748 1.31383331,-0.111089748 0.870195873,0.333269243 L0.333248775,0.869416128 C-0.111082925,1.31391397 -0.111082925,2.03433102 0.333248775,2.47799567 L10.5213581,12.6667308 C10.9658287,13.1110897 11.6862014,13.1110897 12.1298388,12.6667308 L12.6659528,12.1305838 C13.1111176,11.6869192 13.1111176,10.9663633 12.6666471,10.5220043 L12.6666471,10.5220043 Z" id="Path"></path>
                <path d="M10.5213581,0.333269243 L0.333248775,10.5220043 C-0.111082925,10.9663633 -0.111082925,11.6869192 0.333248775,12.1305838 L0.869362733,12.6667308 C1.31383331,13.1110897 2.03420605,13.1110897 2.47784349,12.6667308 L12.6666471,2.47869001 C13.1111176,2.03433102 13.1111176,1.31391397 12.6666471,0.870249319 L12.1305331,0.334102398 C11.6862014,-0.111089748 10.9658287,-0.111089748 10.5213581,0.333269243 Z" id="Path"></path>
            </g>
        </g>
    </g>
</svg>