<?xml version="1.0" encoding="UTF-8"?>
<svg width="28px" height="28px" viewBox="0 0 28 28" version="1.1" xmlns="http://www.w3.org/2000/svg" xmlns:xlink="http://www.w3.org/1999/xlink">
    <title>linkedin</title>
    <defs>
        <filter id="filter-1">
            <feColorMatrix in="SourceGraphic" type="matrix" values="0 0 0 0 1.000000 0 0 0 0 1.000000 0 0 0 0 1.000000 0 0 0 1.000000 0"></feColorMatrix>
        </filter>
    </defs>
    <g id="Symbols" stroke="none" stroke-width="1" fill="none" fill-rule="evenodd">
        <g id="Footer" transform="translate(-1204.000000, -65.000000)">
            <g id="linkedin" transform="translate(1081.000000, 65.000000)" filter="url(#filter-1)">
                <g transform="translate(123.000000, 0.000000)">
                    <path d="M14,0 C6.26919557,0 0,6.26919557 0,14 C0,21.7308044 6.26919557,28 14,28 C21.7308044,28 28,21.7308044 28,14 C28,6.26919557 21.7308044,0 14,0 Z M9.9317627,21.1640625 L6.52212526,21.1640625 L6.52212526,10.9060974 L9.9317627,10.9060974 L9.9317627,21.1640625 Z M8.22705078,9.50537109 L8.20483398,9.50537109 C7.06066895,9.50537109 6.32067871,8.71774291 6.32067871,7.73336791 C6.32067871,6.72677611 7.08331302,5.9609375 8.2496948,5.9609375 C9.41607669,5.9609375 10.1338501,6.72677611 10.1560669,7.73336791 C10.1560669,8.71774291 9.41607669,9.50537109 8.22705078,9.50537109 Z M22.2261963,21.1640625 L18.8169861,21.1640625 L18.8169861,15.6763001 C18.8169861,14.2971497 18.3233033,13.3565674 17.0896301,13.3565674 C16.1477661,13.3565674 15.586792,13.9910279 15.340271,14.6034851 C15.2501221,14.8226624 15.2281189,15.1289978 15.2281189,15.4355469 L15.2281189,21.1640625 L11.8186951,21.1640625 C11.8186951,21.1640625 11.8633423,11.8684693 11.8186951,10.9060974 L15.2281189,10.9060974 L15.2281189,12.3585205 C15.6812134,11.6595459 16.4919128,10.6653443 18.3008728,10.6653443 C20.5441284,10.6653443 22.2261963,12.1314392 22.2261963,15.2821655 L22.2261963,21.1640625 Z" id="Shape" fill="#000000" fill-rule="nonzero"></path>
                </g>
            </g>
        </g>
    </g>
</svg>