<?xml version="1.0" encoding="UTF-8"?>
<svg width="28px" height="28px" viewBox="0 0 28 28" version="1.1" xmlns="http://www.w3.org/2000/svg" xmlns:xlink="http://www.w3.org/1999/xlink">
    <title>Shape</title>
    <g id="UI-Mobile-" stroke="none" stroke-width="1" fill="none" fill-rule="evenodd">
        <g id="Catalogue-services-Editing" transform="translate(-359.000000, -24.000000)" fill="#444444" fill-rule="nonzero">
            <g id="tools" transform="translate(359.000000, 24.000000)">
                <path d="M18.4669111,14.0000547 L18.6100832,13.8568828 C19.3438268,14.1069688 20.1055158,14.2333516 20.8833377,14.2333516 C24.8074469,14.2333516 28,11.0408047 28,7.11664844 C28,6.08819531 27.7751792,5.08402344 27.3317721,4.13196875 L26.6736615,2.71895313 L22.7123647,6.66104688 C22.5291065,6.84435938 22.2853638,6.9453125 22.0259258,6.9453125 C21.7664878,6.9453125 21.5227452,6.84430469 21.3392136,6.66077344 C21.1557366,6.47735156 21.0546739,6.23344531 21.0546739,5.9740625 C21.0546739,5.71467969 21.1557366,5.47077344 21.3411823,5.28532813 L25.2810963,1.32622656 L23.8679685,0.668117188 C22.9159666,0.224765625 21.9117928,0 20.8833924,0 C16.9592284,0 13.76673,3.19249219 13.76673,7.11664844 C13.76673,7.89452344 13.8931131,8.65621094 14.1431448,9.38989844 L12.5399776,10.9930625 L8.53126666,6.98446875 L8.53126666,3.38067188 L2.97112299,0.044625 L0.0446250872,2.9710625 L3.38078785,8.53125 L6.98448239,8.53125 L10.9931387,12.5398984 L0.925423682,22.6075938 C0.328672517,23.2042344 0,23.9974766 0,24.8411953 C0,25.6850234 0.328672517,26.4782656 0.925150244,27.0745781 C1.52162797,27.6713281 2.31487171,28 3.15875617,28 C4.00264063,28 4.79588437,27.6713281 5.39214334,27.0747969 L13.9998633,18.4670391 L22.6074738,27.0745781 C23.204225,27.6713281 23.9974687,28 24.8412438,28 C25.6849642,28 26.4782627,27.6713281 27.074631,27.0747969 C27.6713275,26.478375 28,25.6851328 28,24.84125 C28,23.9973125 27.6713275,23.2040156 27.0747951,22.6078672 L18.4669111,14.0000547 Z M6.34376239,6.34375 L4.61929808,6.34375 L2.79918515,3.31017969 L3.31024084,2.79907031 L6.34376239,4.61928906 L6.34376239,6.34375 Z M3.8452497,25.5281797 C3.66199153,25.7115469 3.41824886,25.8124453 3.15881086,25.8124453 C2.89937285,25.8124453 2.65563019,25.7114922 2.47209858,25.5279063 C2.28862166,25.3444297 2.18750427,25.1005781 2.18750427,24.8411953 C2.18750427,24.5818672 2.28856697,24.3379609 2.47215327,24.1544297 L16.7410796,9.88547656 L16.4178758,9.19160156 C16.1102033,8.53097656 15.9541796,7.83283594 15.9541796,7.11664844 C15.9541796,4.39873438 18.1654183,2.1875 20.8833377,2.1875 C21.0289161,2.1875 21.1739476,2.19411719 21.3182682,2.20729687 L19.792648,3.74035156 C19.1958969,4.33704688 18.8672244,5.13028906 18.8672244,5.9740625 C18.8672244,6.81783594 19.1958969,7.61107813 19.7923746,8.20744531 C20.3887976,8.80419531 21.1820414,9.1328125 22.0259805,9.1328125 C22.869865,9.1328125 23.6631087,8.80419531 24.2575083,8.20952344 L25.7926988,6.68171875 C25.8058785,6.82598438 25.8124957,6.97101563 25.8124957,7.11659375 C25.8124957,9.8345625 23.601257,12.0457969 20.8833377,12.0457969 C20.1671488,12.0457969 19.4690615,11.8897734 18.8083805,11.5821016 L18.1145041,11.2588984 L3.8452497,25.5281797 Z M25.5279561,25.5279609 C25.3445339,25.7114375 25.1006271,25.8125 24.8412438,25.8125 C24.5818605,25.8125 24.3379538,25.7114375 24.1544222,25.5278516 L15.5468116,16.9202031 L16.9202362,15.5468359 L25.5281749,24.1548125 C25.7114877,24.3380703 25.812441,24.5818125 25.812441,24.84125 C25.812441,25.1006328 25.7115424,25.3444297 25.5279561,25.5279609 Z" id="Shape"></path>
            </g>
        </g>
    </g>
</svg>