<?xml version="1.0" encoding="UTF-8"?>
<svg width="28px" height="28px" viewBox="0 0 28 28" version="1.1" xmlns="http://www.w3.org/2000/svg" xmlns:xlink="http://www.w3.org/1999/xlink">
    <title>twitter</title>
    <defs>
        <filter id="filter-1">
            <feColorMatrix in="SourceGraphic" type="matrix" values="0 0 0 0 1.000000 0 0 0 0 1.000000 0 0 0 0 1.000000 0 0 0 1.000000 0"></feColorMatrix>
        </filter>
    </defs>
    <g id="Symbols" stroke="none" stroke-width="1" fill="none" fill-rule="evenodd">
        <g id="Footer" transform="translate(-1163.000000, -65.000000)">
            <g id="twitter" transform="translate(1081.000000, 65.000000)" filter="url(#filter-1)">
                <g transform="translate(82.000000, 0.000000)">
                    <path d="M14,0 C6.26919557,0 0,6.26919557 0,14 C0,21.7308044 6.26919557,28 14,28 C21.7308044,28 28,21.7308044 28,14 C28,6.26919557 21.7308044,0 14,0 Z M20.3922424,10.9157104 C20.3984375,11.0534973 20.4014282,11.1919251 20.4014282,11.3309936 C20.4014282,15.577179 17.1693115,20.4736328 11.2585755,20.4738464 L11.2587891,20.4738464 L11.2585755,20.4738464 C9.44384766,20.4738464 7.75515748,19.9419251 6.33306888,19.0303955 C6.58450319,19.0600891 6.84042357,19.0748291 7.09954831,19.0748291 C8.60516355,19.0748291 9.99072266,18.5612793 11.0906677,17.6993103 C9.68395996,17.6732483 8.4979248,16.7442017 8.08862305,15.4673767 C8.28451537,15.5049744 8.48596191,15.5254822 8.69253541,15.5254822 C8.98583984,15.5254822 9.26995847,15.4859619 9.539978,15.412262 C8.06961061,15.1178894 6.96197513,13.8184204 6.96197513,12.2623901 C6.96197513,12.2478638 6.96197513,12.2348327 6.96240234,12.2213745 C7.39541627,12.4621277 7.89059447,12.6069641 8.41781615,12.6231995 C7.5549927,12.0474854 6.9878235,11.063324 6.9878235,9.94842527 C6.9878235,9.3596802 7.14697266,8.80810547 7.42297363,8.33322142 C9.00762942,10.2776184 11.3758545,11.556366 14.0465698,11.6907349 C13.9914551,11.4553223 13.9630432,11.210083 13.9630432,10.9580078 C13.9630432,9.18408203 15.4022217,7.74490358 17.1767883,7.74490358 C18.1011353,7.74490358 18.9359741,8.13562012 19.5223694,8.76025391 C20.2544556,8.61584473 20.9418945,8.34838867 21.5628967,7.98031615 C21.3225708,8.73034668 20.8132935,9.3596802 20.1497803,9.7576599 C20.7998352,9.67990111 21.4193421,9.5075073 21.9950561,9.25158691 C21.5650329,9.89608763 21.0196533,10.4621887 20.3922424,10.9157104 Z" id="Shape" fill="#000000" fill-rule="nonzero"></path>
                </g>
            </g>
        </g>
    </g>
</svg>