<?xml version="1.0" encoding="UTF-8"?>
<svg width="15px" height="19px" viewBox="0 0 15 19" version="1.1" xmlns="http://www.w3.org/2000/svg" xmlns:xlink="http://www.w3.org/1999/xlink">
    <title>icon-adresse</title>
    <g id="Page-1" stroke="none" stroke-width="1" fill="none" fill-rule="evenodd">
        <g id="icon-adresse" transform="translate(1.000000, 1.000000)" stroke="#9ACA3C" stroke-width="1.2">
            <path d="M6.26315789,0 C2.80963398,0 0,2.76190571 0,6.15673016 C0,10.3698134 5.60491276,16.5548659 5.84354689,16.8161084 C6.0676907,17.061513 6.45903041,17.0610813 6.6827689,16.8161084 C6.92140303,16.5548659 12.5263158,10.3698134 12.5263158,6.15673016 C12.5263158,2.76190571 9.71664803,0 6.26315789,0 Z M6.26315789,9.25435307 C4.5256042,9.25435307 3.11203898,7.8647674 3.11203898,6.15673016 C3.11203898,4.44869292 4.52563798,3.05914045 6.26315789,3.05914045 C8.00067781,3.05914045 9.41424303,4.44872612 9.41424303,6.15676336 C9.41424303,7.8648006 8.00067781,9.25435307 6.26315789,9.25435307 Z" id="Shape"></path>
        </g>
    </g>
</svg>