<?xml version="1.0" encoding="UTF-8"?>
<svg width="15px" height="18px" viewBox="0 0 15 18" version="1.1" xmlns="http://www.w3.org/2000/svg" xmlns:xlink="http://www.w3.org/1999/xlink">
    <title>trash</title>
    <g id="Symbols" stroke="none" stroke-width="1" fill="none" fill-rule="evenodd">
        <g id="Delete-button-1" transform="translate(-13.000000, -11.000000)" fill="#E57C2F" fill-rule="nonzero">
            <g id="trash" transform="translate(13.000000, 11.000000)">
                <path d="M13.5576923,2.25 L10.3846154,2.25 L10.3846154,1.6875 C10.3846154,0.755507812 9.60973558,0 8.65384615,0 L6.34615385,0 C5.39026442,0 4.61538462,0.755507812 4.61538462,1.6875 L4.61538462,2.25 L1.44230769,2.25 C0.645757212,2.25 0,2.87961328 0,3.65625 L0,4.78125 C0,5.09192578 0.25828125,5.34375 0.576923077,5.34375 L14.4230769,5.34375 C14.7417187,5.34375 15,5.09192578 15,4.78125 L15,3.65625 C15,2.87961328 14.3542428,2.25 13.5576923,2.25 Z M5.76923077,1.6875 C5.76923077,1.37742187 6.028125,1.125 6.34615385,1.125 L8.65384615,1.125 C8.971875,1.125 9.23076923,1.37742187 9.23076923,1.6875 L9.23076923,2.25 L5.76923077,2.25 L5.76923077,1.6875 Z" id="Shape"></path>
                <path d="M1.09485577,6.46875 C0.991911058,6.46875 0.909879808,6.55263281 0.914783654,6.65289844 L1.39074519,16.3926562 C1.43473558,17.2940625 2.19411058,18 3.11935096,18 L11.880649,18 C12.8058894,18 13.5652644,17.2940625 13.6092548,16.3926562 L14.0852163,6.65289844 C14.0901202,6.55263281 14.0080889,6.46875 13.9051442,6.46875 L1.09485577,6.46875 Z M9.80769231,7.875 C9.80769231,7.56421875 10.0658654,7.3125 10.3846154,7.3125 C10.7033654,7.3125 10.9615385,7.56421875 10.9615385,7.875 L10.9615385,15.1875 C10.9615385,15.4982812 10.7033654,15.75 10.3846154,15.75 C10.0658654,15.75 9.80769231,15.4982812 9.80769231,15.1875 L9.80769231,7.875 Z M6.92307692,7.875 C6.92307692,7.56421875 7.18125,7.3125 7.5,7.3125 C7.81875,7.3125 8.07692308,7.56421875 8.07692308,7.875 L8.07692308,15.1875 C8.07692308,15.4982812 7.81875,15.75 7.5,15.75 C7.18125,15.75 6.92307692,15.4982812 6.92307692,15.1875 L6.92307692,7.875 Z M4.03846154,7.875 C4.03846154,7.56421875 4.29663462,7.3125 4.61538462,7.3125 C4.93413462,7.3125 5.19230769,7.56421875 5.19230769,7.875 L5.19230769,15.1875 C5.19230769,15.4982812 4.93413462,15.75 4.61538462,15.75 C4.29663462,15.75 4.03846154,15.4982812 4.03846154,15.1875 L4.03846154,7.875 Z" id="Shape"></path>
            </g>
        </g>
    </g>
</svg>