<?xml version="1.0" encoding="UTF-8"?>
<svg width="19px" height="19px" viewBox="0 0 19 19" version="1.1" xmlns="http://www.w3.org/2000/svg" xmlns:xlink="http://www.w3.org/1999/xlink">
    <title>icon-search-green</title>
    <g id="Page-1" stroke="none" stroke-width="1" fill="none" fill-rule="evenodd">
        <g id="icon-search-green" transform="translate(-0.000000, -0.000000)" fill="#9ACA3C" fill-rule="nonzero">
            <path d="M18.8319309,17.1929303 C19.0579021,17.4190896 19.0579021,17.7855667 18.8319309,18.011726 L18.0131353,18.8305216 C17.786976,19.0564928 17.4204989,19.0564928 17.1943396,18.8305216 L11.4669981,13.1003615 C11.407759,13.0397209 11.3629595,12.9665003 11.3359344,12.8861499 C8.32883774,15.0834464 4.13714497,14.5959896 1.71453006,11.7672656 C-0.708084838,8.93854165 -0.545276117,4.72174242 2.08823315,2.08823315 C4.72174242,-0.545276117 8.93854165,-0.708084838 11.7672656,1.71453006 C14.5959896,4.13714497 15.0834464,8.32883774 12.8861499,11.3359344 C12.9665003,11.3629595 13.0397209,11.407759 13.1003615,11.4669981 L18.8319309,17.1929303 Z M7.15035259,2.4066928 C5.23273333,2.40612318 3.50361827,3.56083047 2.76938213,5.33231607 C2.03514599,7.10380166 2.44040428,9.14315292 3.79616433,10.4993161 C5.15192438,11.8554793 7.19115506,12.2613439 8.96285888,11.5276345 C10.7345627,10.793925 11.8897841,9.06515336 11.8897841,7.14753402 C11.8897841,4.5297902 9.76809629,2.40747138 7.15035259,2.4066928 Z" id="Shape"></path>
        </g>
    </g>
</svg>