<?xml version="1.0" encoding="UTF-8"?>
<svg width="45px" height="41px" viewBox="0 0 45 41" version="1.1" xmlns="http://www.w3.org/2000/svg" xmlns:xlink="http://www.w3.org/1999/xlink">
    <title>Path</title>
    <g id="Page-1" stroke="none" stroke-width="1" fill="none" fill-rule="evenodd">
        <g id="clip" fill="#C5C5C5" fill-rule="nonzero">
            <path d="M38.3198312,17.3960161 L18.6036459,37.1122014 C15.5055498,40.2099648 10.4652395,40.2099648 7.3678086,37.112534 L7.24606675,36.9907922 C5.75023917,35.4949646 4.92631992,33.4995299 4.92631992,31.3727072 C4.92631992,29.2458845 5.75023917,27.2507824 7.24606675,25.7549549 L30.4648236,2.53619799 C32.5879874,0.413034181 36.0429933,0.412701575 38.166157,2.53619799 L38.2266953,2.59673622 C40.3498592,4.71990004 40.3498592,8.17457329 38.2266953,10.297737 L15.129015,33.3954173 C13.980451,34.5439814 12.1110822,34.5436488 10.9628508,33.39575 L10.9023125,33.3348791 C10.3484871,32.7810537 10.0434673,32.0409566 10.0434673,31.2516306 C10.0434673,30.461972 10.3484871,29.721875 10.9023125,29.1680496 L30.5260272,9.54433488 C31.024969,9.04539305 31.024969,8.23677464 30.5260272,7.73783281 C30.027418,7.23922359 29.2187996,7.23922359 28.7198578,7.73783281 L9.09581048,27.3622128 C8.0596746,28.3983487 7.48888515,29.7797523 7.48888515,31.2516306 C7.48888515,32.723509 8.0596746,34.1049126 9.09547779,35.1407159 L9.15634872,35.2015868 C11.3011333,37.3463714 14.7903999,37.3460387 16.9351845,35.2015868 L40.0325321,12.1042391 C43.1519165,8.98485473 43.1519165,3.90961851 40.0325321,0.790566852 L39.9719939,0.730028534 C36.8529422,-2.38902312 31.7777059,-2.38902312 28.6586543,0.730028534 L5.43989738,23.9487854 C3.46142672,25.9269235 2.37207038,28.5636647 2.37207038,31.3727072 C2.37207038,34.1820823 3.46142672,36.8184909 5.43956477,38.796629 L5.56130654,38.9183707 C7.60829858,40.9653628 10.2969297,41.9888588 12.9855609,41.9888588 C15.6741921,41.9888588 18.3628233,40.9653628 20.4094827,38.9183707 L40.1260006,19.2021855 C40.6246097,18.7032437 40.6246097,17.8946253 40.1260006,17.3960161 C39.6270587,16.8970743 38.8184404,16.8970743 38.3198312,17.3960161 Z" id="Path" transform="translate(22.372070, 20.189799) scale(-1, 1) rotate(-90.000000) translate(-22.372070, -20.189799) "></path>
        </g>
    </g>
</svg>