<svg width="20" height="20" viewBox="0 0 20 20" fill="none" xmlns="http://www.w3.org/2000/svg">
<path id="Vector" d="M11.203 9.433L8.957 8.385C8.761 8.294 8.6 8.396 8.6 8.613V10.587C8.6 10.804 8.761 10.906 8.957 10.815L11.202 9.767C11.399 9.675 11.399 9.525 11.203 9.433ZM9.6 0C4.298 0 0 4.298 0 9.6C0 14.902 4.298 19.2 9.6 19.2C14.902 19.2 19.2 14.902 19.2 9.6C19.2 4.298 14.902 0 9.6 0ZM9.6 13.5C4.686 13.5 4.6 13.057 4.6 9.6C4.6 6.143 4.686 5.7 9.6 5.7C14.514 5.7 14.6 6.143 14.6 9.6C14.6 13.057 14.514 13.5 9.6 13.5Z" fill="#F6F3F5"/>
</svg>
