<svg width="24" height="24" viewBox="0 0 24 24" fill="none" xmlns="http://www.w3.org/2000/svg">
<g id="mdi:linkedin" clip-path="url(#clip0_3176_5424)">
<path id="Vector" d="M22.5556 3C23.2039 3 23.8256 3.25754 24.284 3.71596C24.7425 4.17438 25 4.79614 25 5.44444V22.5556C25 23.2039 24.7425 23.8256 24.284 24.284C23.8256 24.7425 23.2039 25 22.5556 25H5.44444C4.79614 25 4.17438 24.7425 3.71596 24.284C3.25754 23.8256 3 23.2039 3 22.5556V5.44444C3 4.79614 3.25754 4.17438 3.71596 3.71596C4.17438 3.25754 4.79614 3 5.44444 3H22.5556ZM21.9444 21.9444V15.4667C21.9444 14.4099 21.5247 13.3965 20.7774 12.6492C20.0302 11.902 19.0167 11.4822 17.96 11.4822C16.9211 11.4822 15.7111 12.1178 15.1244 13.0711V11.7144H11.7144V21.9444H15.1244V15.9189C15.1244 14.9778 15.8822 14.2078 16.8233 14.2078C17.2771 14.2078 17.7124 14.3881 18.0333 14.709C18.3542 15.0298 18.5344 15.4651 18.5344 15.9189V21.9444H21.9444ZM7.74222 9.79556C8.2868 9.79556 8.80907 9.57922 9.19415 9.19415C9.57922 8.80907 9.79556 8.2868 9.79556 7.74222C9.79556 6.60556 8.87889 5.67667 7.74222 5.67667C7.1944 5.67667 6.66902 5.89429 6.28165 6.28165C5.89429 6.66902 5.67667 7.1944 5.67667 7.74222C5.67667 8.87889 6.60556 9.79556 7.74222 9.79556ZM9.44111 21.9444V11.7144H6.05556V21.9444H9.44111Z" fill="#9ACA3C"/>
</g>
<defs>
<clipPath id="clip0_3176_5424">
<rect width="24" height="24" fill="white"/>
</clipPath>
</defs>
</svg>
