<svg width="24" height="24" viewBox="0 0 24 24" fill="none" xmlns="http://www.w3.org/2000/svg">
<g id="mingcute:youtube-line" clip-path="url(#clip0_3176_5420)">
<g id="Group">
<path id="Vector" d="M13 4C13.9405 4 14.9052 4.02475 15.8402 4.06525L16.9446 4.11925L18.0017 4.18338L18.9917 4.252L19.8959 4.324C20.8772 4.40081 21.8005 4.82907 22.5035 5.53342C23.2065 6.23777 23.6441 7.17311 23.7393 8.17487L23.7833 8.653L23.8658 9.67675C23.9428 10.7376 24 11.8941 24 13C24 14.1059 23.9428 15.2624 23.8658 16.3233L23.7833 17.347C23.769 17.5113 23.7547 17.6699 23.7393 17.8251C23.644 18.8271 23.2063 19.7625 22.5031 20.4669C21.7999 21.1713 20.8763 21.5994 19.8948 21.676L18.9928 21.7469L18.0028 21.8166L16.9446 21.8807L15.8402 21.9347C14.894 21.9768 13.9471 21.9986 13 22C12.0529 21.9986 11.106 21.9768 10.1598 21.9347L9.0554 21.8807L7.9983 21.8166L7.0083 21.7469L6.1041 21.676C5.12285 21.5992 4.19951 21.1709 3.49652 20.4666C2.79353 19.7622 2.35593 18.8269 2.2607 17.8251L2.2167 17.347L2.1342 16.3233C2.05009 15.2175 2.00533 14.109 2 13C2 11.8941 2.0572 10.7376 2.1342 9.67675L2.2167 8.653C2.231 8.48875 2.2453 8.33012 2.2607 8.17487C2.35589 7.17329 2.79334 6.23809 3.4961 5.53376C4.19886 4.82943 5.12194 4.40107 6.103 4.324L7.0061 4.252L7.9961 4.18338L9.0543 4.11925L10.1587 4.06525C11.1053 4.02321 12.0526 4.00146 13 4ZM13 6.25C12.0925 6.25 11.1586 6.27475 10.25 6.313L9.1742 6.36588L8.1413 6.42775L7.1711 6.49525L6.2823 6.56613C5.81516 6.60002 5.37485 6.80198 5.0394 7.13619C4.70396 7.47041 4.49505 7.9153 4.4497 8.392C4.321 9.75212 4.2 11.4453 4.2 13C4.2 14.5548 4.321 16.2479 4.4497 17.608C4.5432 18.589 5.3044 19.3517 6.2823 19.4339L7.1711 19.5036L8.1413 19.5711L9.1742 19.6341L10.25 19.687C11.1586 19.7253 12.0925 19.75 13 19.75C13.9075 19.75 14.8414 19.7253 15.75 19.687L16.8258 19.6341L17.8587 19.5722L18.8289 19.5047L19.7177 19.4339C20.1848 19.4 20.6252 19.198 20.9606 18.8638C21.296 18.5296 21.505 18.0847 21.5503 17.608C21.679 16.2479 21.8 14.5548 21.8 13C21.8 11.4453 21.679 9.75212 21.5503 8.392C21.505 7.9153 21.296 7.47041 20.9606 7.13619C20.6252 6.80198 20.1848 6.60002 19.7177 6.56613L18.8289 6.49637L17.8587 6.42887L16.8258 6.36588L15.75 6.313C14.8339 6.27269 13.917 6.25168 13 6.25ZM10.8 10.2719C10.7999 10.1619 10.8261 10.0536 10.8763 9.95637C10.9265 9.85913 10.9991 9.7759 11.0879 9.71391C11.1767 9.65193 11.279 9.61307 11.3858 9.60071C11.4926 9.58835 11.6008 9.60287 11.7009 9.643L11.79 9.688L16.41 12.415C16.502 12.4693 16.5798 12.5455 16.6369 12.6371C16.6939 12.7287 16.7285 12.8331 16.7377 12.9413C16.7469 13.0496 16.7304 13.1584 16.6896 13.2588C16.6488 13.3591 16.585 13.4478 16.5035 13.5175L16.41 13.585L11.79 16.3131C11.6969 16.3683 11.592 16.3993 11.4845 16.4035C11.377 16.4077 11.2701 16.385 11.1732 16.3373C11.0762 16.2896 10.9921 16.2184 10.9283 16.1299C10.8644 16.0413 10.8226 15.9382 10.8066 15.8294L10.8 15.7281V10.2719Z" fill="#9ACA3C"/>
</g>
</g>
<defs>
<clipPath id="clip0_3176_5420">
<rect width="24" height="24" fill="white"/>
</clipPath>
</defs>
</svg>
