<?xml version="1.0" encoding="utf-8"?>
<!-- Generator: Adobe Illustrator 25.4.1, SVG Export Plug-In . SVG Version: 6.00 Build 0)  -->
<svg version="1.1" id="Capa_1" xmlns="http://www.w3.org/2000/svg" xmlns:xlink="http://www.w3.org/1999/xlink" x="0px" y="0px"
	 viewBox="0 0 125 125" style="enable-background:new 0 0 125 125;" xml:space="preserve">
<style type="text/css">
	.st0{fill:#E57C2E;}
	.st1{fill:#FFFFFF;}
	.st2{fill:#789CAB;}
	.st3{fill:#4C5F68;}
	.st4{fill:#A2C617;}
	.st5{fill:none;stroke:#FFFFFF;stroke-width:2.5;stroke-miterlimit:10;}
</style>
<g>
	<g>
		<g>
			<g>
				<circle class="st4" cx="63.49" cy="60.69" r="52"/>
			</g>
		</g>
	</g>
	<g>
		<path class="st1" d="M88.34,67.73c0.76-0.65,1.48-1.38,2.32-1.95c3.87-2.64,9.05-1.83,11.55,1.84c1.81,2.66,1.95,5.6,1.06,8.62
			c-0.78,2.64-2.27,4.9-4,7.01c-2.9,3.55-6.34,6.53-10.05,9.2c-0.49,0.35-0.98,0.52-1.52,0.14c-4.58-3.28-8.78-6.96-11.97-11.67
			c-1.38-2.04-2.47-4.23-2.72-6.72c-0.31-3.19,0.4-6.06,3-8.18c2.9-2.37,7.16-2.38,10.35-0.03C87.08,66.52,87.71,67.17,88.34,67.73z
			 M88.36,90.58c3.43-2.54,6.62-5.25,9.26-8.54c1.02-1.27,1.94-2.65,2.75-4.07c1.09-1.93,1.61-4.01,1.3-6.27
			c-0.47-3.43-3.19-5.71-6.6-5.4c-2.45,0.23-4.3,1.49-5.6,3.56c-0.77,1.22-1.44,1.22-2.21-0.02c-0.82-1.32-1.93-2.33-3.36-2.97
			c-3.99-1.76-7.99,0.33-8.78,4.61c-0.39,2.1,0.06,4.07,0.97,5.97c0.85,1.77,1.97,3.36,3.23,4.85
			C81.95,85.45,85.03,88.11,88.36,90.58z"/>
		<g>
			<path class="st1" d="M63.43,91.06c-17.78,0-32.25-14.47-32.25-32.25s14.47-32.25,32.25-32.25s32.25,14.47,32.25,32.25l-2.25,1
				c0-16.4-13.6-30.75-30-30.75S33.68,42.41,33.68,58.81s13.35,29.75,29.75,29.75c3.6,0,7.12-0.63,10.45-1.89l1.55,2.14
				C71.81,90.17,67.33,91.06,63.43,91.06z"/>
			<path class="st1" d="M44.93,35.81c2.88-0.15,5.77-0.28,8.65-0.3c0.66,0,1.32,0,1.99,0.02c0.16,0.01,0.83,0.13,0.4-0.13
				c-0.42-0.26,0,0.69,0.15,0.95c0.31,0.56,0.81,0.96,1.36,1.27c0.39,0.22,1.18,0.38,1.15,0.87c-0.07,1.29-3.9,0.97-4.68,1.06
				c-2,0.23-3.74,0.89-5.26,2.23c-1.38,1.22-2.51,3.14-4.34,3.73c-0.95,0.31-1.75-0.13-2.66-0.37c-0.82-0.22-1.64-0.28-2.46-0.01
				c-1.84,0.59-2.62,2.59-1.56,4.24c0.25,0.39,0.6,0.82,0.95,1.12c0.34,0.29,0.02,0.14,0.18,0.11c0.04-0.2-0.02-0.24-0.19-0.13
				c-0.16,0.05-0.33,0.09-0.49,0.11c-0.98,0.13-1.88-0.2-2.68-0.75c-1.59-1.1-3.09,1.5-1.51,2.59c1.68,1.16,3.9,1.51,5.83,0.82
				c2.38-0.85,2.51-3.11,0.99-4.88c-0.16-0.18-0.34-0.34-0.49-0.53c0.06,0.07-0.38,0.18-0.08,0.13c0.47-0.07,0.91,0.12,1.35,0.26
				c1.08,0.34,2.12,0.54,3.25,0.28c2.27-0.52,3.76-2.32,5.32-3.9c0.81-0.83,1.64-1.51,2.78-1.83c1.19-0.33,2.4-0.31,3.61-0.38
				c1.95-0.11,3.96-0.65,4.85-2.58c0.85-1.86,0-3.56-1.7-4.48c-0.23-0.12-0.73-0.27-0.89-0.49c-0.09-0.12,0.16,0.31,0.05-0.15
				C58.7,34.46,58.7,34.23,58.6,34c-0.41-1.03-1.46-1.36-2.47-1.44c-3.69-0.31-7.51,0.07-11.2,0.25
				C43,32.91,42.99,35.91,44.93,35.81L44.93,35.81z"/>
			<path class="st1" d="M43.93,53.81c-2.97-0.18-3.4,3.05-3.53,5.26c-0.07,1.28-0.69,2.38-0.86,3.64c-0.19,1.39,0.27,2.67,1.03,3.83
				c1.33,2.01,3.31,3.68,4.23,5.95c0.88,2.16-0.01,6.07,2.52,7.28c1.05,0.5,2.3,0.18,3.14-0.59c1.04-0.96,1.06-2.15,1.54-3.38
				c0.65-1.63,2.92-2.21,3.99-3.55c0.77-0.96,0.9-1.96,1-3.15c0.11-1.34,1.04-1.79,1.88-2.75c1.49-1.69,2.08-4.46,0.44-6.28
				c-0.89-0.99-2.13-1.35-3.38-1.64c-0.59-0.14-1.2-0.24-1.73-0.54c-0.49-0.27-0.89-0.69-1.35-1.02c-1.27-0.91-2.79-1.39-4.24-1.93
				C47.03,54.35,45.65,53.84,43.93,53.81c-1.93-0.03-1.93,2.97,0,3c2.06,0.04,4.29,1.02,6.14,1.9c0.88,0.42,1.56,1.05,2.36,1.59
				c0.73,0.49,1.57,0.75,2.42,0.95c0.67,0.16,1.64,0.22,2.16,0.72c0.56,0.54,0.29,1.46-0.08,2.03c-0.42,0.65-1.11,1.11-1.62,1.68
				c-0.68,0.77-1.11,1.59-1.24,2.62c-0.09,0.73,0.07,1.51-0.42,2.1c-0.45,0.55-1.14,0.91-1.72,1.3c-1.47,1-2.48,2.07-2.95,3.82
				c-0.1,0.37-0.38,0.93-0.39,1.3c-0.01,0.24-0.34,0-0.01,0.18c0.35,0.2,0.02-0.4-0.01-0.54c-0.27-1.09-0.27-2.24-0.46-3.34
				c-0.34-1.96-1.39-3.6-2.59-5.14c-1.13-1.44-3.44-3.38-2.87-5.39c0.32-1.13,0.7-2.15,0.77-3.34c0.02-0.43-0.09-2.5,0.54-2.46
				C45.85,56.93,45.85,53.93,43.93,53.81L43.93,53.81z"/>
			<path class="st1" d="M79.32,30.87c-1.47-0.4-3.12,0.15-4.44,0.81c-1.74,0.86-2.34,2.04-2.64,3.9c-0.18,1.07-0.37,1.97-1.01,2.86
				c-0.54,0.76-1.2,1.43-1.67,2.23c-0.49,0.83-0.79,1.76-0.8,2.73c0,0.94,0.44,1.96,0.13,2.87c-0.51,1.51-2.15,2.42-2.71,3.97
				c-0.67,1.85,0.09,3.75,1.58,4.95c1.75,1.4,3.96,1.42,6.09,1.59c1.15,0.09,4.59,0.77,3.37,2.65c-1.05,1.63,1.55,3.13,2.59,1.51
				c0.96-1.48,0.73-3.36-0.29-4.75c-1.07-1.46-2.81-2.06-4.53-2.29c-1.73-0.23-4.33,0.15-5.64-1.3c-1.16-1.28,0.49-2.53,1.27-3.51
				c1.24-1.56,1.43-2.92,1.21-4.86c-0.22-1.97,1.04-2.91,2.08-4.43c0.54-0.79,0.89-1.67,1.08-2.61c0.12-0.61,0.07-1.75,0.41-2.28
				c0.45-0.71,2.36-1.37,3.12-1.16C80.39,34.27,81.19,31.38,79.32,30.87L79.32,30.87z"/>
		</g>
	</g>
</g>
</svg>
