<?xml version="1.0" encoding="utf-8"?>
<!-- Generator: Adobe Illustrator 25.4.1, SVG Export Plug-In . SVG Version: 6.00 Build 0)  -->
<svg version="1.1" id="Capa_1" xmlns="http://www.w3.org/2000/svg" xmlns:xlink="http://www.w3.org/1999/xlink" x="0px" y="0px"
	 viewBox="0 0 125 125" style="enable-background:new 0 0 125 125;" xml:space="preserve">
<style type="text/css">
	.st0{fill:#E57C2E;}
	.st1{fill:#FFFFFF;}
	.st2{fill:#789CAB;}
	.st3{fill:#4C5F68;}
	.st4{fill:#A2C617;}
	.st5{fill:none;stroke:#FFFFFF;stroke-width:2.5;stroke-miterlimit:10;}
</style>
<g>
	<g>
		<g>
			<g>
				<circle class="st3" cx="62.87" cy="62.5" r="52"/>
			</g>
		</g>
	</g>
	<g>
		<path class="st1" d="M76.55,79.77c-0.17,0.02-0.35,0.02-0.53,0l-4.93-0.34c-1.77-0.12-3.18-1.61-3.2-3.38l-0.03-1.96
			c-0.02-1.05-0.62-2-1.58-2.48l-0.05-0.03c-0.95-0.47-2.07-0.38-2.92,0.24l-1.58,1.16c-1.43,1.05-3.47,0.83-4.63-0.51l-3.25-3.73
			c-1.17-1.34-1.11-3.38,0.13-4.66l1.37-1.41c0.73-0.75,0.98-1.85,0.64-2.87l-0.02-0.05c-0.34-1.02-1.2-1.75-2.24-1.91l-1.94-0.3
			c-1.76-0.27-3.03-1.87-2.91-3.64L49.2,49c0.12-1.77,1.61-3.18,3.38-3.2l1.96-0.03c1.06-0.02,2-0.62,2.48-1.58l0.02-0.04
			c0.48-0.96,0.39-2.08-0.24-2.93l-1.16-1.58c-1.05-1.43-0.83-3.47,0.51-4.63l3.73-3.25c1.34-1.17,3.38-1.11,4.66,0.13l1.41,1.37
			c0.75,0.73,1.85,0.98,2.87,0.64l0.05-0.02c1.01-0.34,1.74-1.2,1.9-2.24l0.3-1.94c0.27-1.75,1.87-3.03,3.64-2.91l4.93,0.34
			c1.77,0.12,3.18,1.61,3.2,3.38l0.03,1.97c0.02,1.05,0.62,2,1.58,2.48l0.05,0.02c0.96,0.48,2.08,0.39,2.93-0.24l1.58-1.16
			c1.43-1.05,3.47-0.83,4.63,0.51l3.25,3.73c1.17,1.34,1.11,3.38-0.13,4.66l-1.37,1.41c-0.73,0.75-0.98,1.85-0.64,2.87l0.02,0.05
			c0.34,1.02,1.2,1.75,2.24,1.91l1.94,0.3c1.75,0.27,3.03,1.87,2.91,3.64l-0.34,4.93c-0.12,1.77-1.61,3.18-3.38,3.2l-1.96,0.03
			c-1.05,0.02-2,0.62-2.48,1.58l-0.02,0.04c-0.48,0.96-0.39,2.08,0.24,2.93l1.16,1.58c1.05,1.43,0.83,3.47-0.51,4.63l-3.73,3.25
			c-1.34,1.17-3.38,1.11-4.66-0.13l-1.41-1.37c-0.75-0.73-1.85-0.98-2.87-0.64l-0.05,0.02c-1.01,0.34-1.74,1.2-1.9,2.24l-0.3,1.94
			C79.41,78.44,78.1,79.64,76.55,79.77z M64.47,68.52c1.01-0.09,2.05,0.1,3,0.57l0.04,0.02c1.9,0.94,3.1,2.83,3.13,4.93l0.03,1.96
			c0,0.34,0.27,0.62,0.61,0.65L76.21,77c0.34,0.02,0.64-0.22,0.69-0.56l0.3-1.94c0.32-2.08,1.76-3.79,3.77-4.46l0.04-0.01
			c2.01-0.68,4.19-0.19,5.69,1.28l1.41,1.37c0.24,0.24,0.63,0.25,0.89,0.02l3.73-3.25c0.26-0.22,0.3-0.61,0.1-0.88l-1.16-1.58
			c-1.24-1.69-1.43-3.92-0.49-5.81l0.02-0.04c0.94-1.9,2.83-3.1,4.93-3.13l1.96-0.03c0.34,0,0.62-0.27,0.65-0.61l0.34-4.93
			c0.02-0.34-0.22-0.64-0.56-0.69l-1.94-0.3c-2.08-0.32-3.79-1.76-4.46-3.77l-0.01-0.04c-0.68-2.01-0.19-4.19,1.28-5.69l1.37-1.41
			c0.24-0.24,0.25-0.63,0.02-0.89l-3.25-3.73c-0.22-0.26-0.61-0.3-0.88-0.1l-1.58,1.16c-1.69,1.24-3.92,1.43-5.81,0.49l-0.04-0.02
			c-1.9-0.94-3.1-2.83-3.13-4.93l-0.03-1.97c0-0.34-0.27-0.62-0.61-0.65l-4.93-0.34c-0.34-0.02-0.64,0.22-0.69,0.56l-0.3,1.94
			c-0.32,2.08-1.76,3.79-3.77,4.46l-0.04,0.01c-2.01,0.67-4.19,0.18-5.69-1.28l-1.41-1.37c-0.24-0.24-0.63-0.25-0.89-0.02
			l-3.73,3.25c-0.26,0.22-0.3,0.61-0.1,0.88l1.16,1.58c1.24,1.69,1.43,3.92,0.49,5.81l-0.02,0.04c-0.94,1.9-2.83,3.1-4.93,3.13
			l-1.97,0.03c-0.34,0.01-0.62,0.27-0.65,0.61l-0.34,4.93c-0.02,0.34,0.22,0.64,0.56,0.69l1.94,0.3c2.08,0.32,3.79,1.76,4.46,3.77
			l0.02,0.05c0.67,2,0.18,4.19-1.28,5.69l-1.37,1.41c-0.24,0.24-0.25,0.63-0.02,0.89l3.25,3.73c0.22,0.26,0.61,0.3,0.88,0.1
			l1.58-1.16C62.49,68.97,63.47,68.61,64.47,68.52z M100.14,57.46L100.14,57.46L100.14,57.46z"/>
		<path class="st1" d="M76.58,66.9c-0.71,0.06-1.43,0.07-2.16,0.02c-3.64-0.25-6.97-1.91-9.37-4.66c-2.4-2.75-3.58-6.28-3.33-9.92
			c0.52-7.52,7.06-13.22,14.58-12.71c3.64,0.25,6.97,1.91,9.37,4.66c2.4,2.75,3.58,6.28,3.33,9.92c-0.25,3.64-1.91,6.97-4.66,9.37
			C82.14,65.51,79.44,66.65,76.58,66.9z M74.41,42.42c-5.25,0.46-9.54,4.69-9.91,10.11c-0.2,2.9,0.74,5.71,2.65,7.9
			c1.91,2.19,4.56,3.51,7.47,3.71c2.9,0.2,5.71-0.74,7.9-2.65c2.19-1.91,3.51-4.56,3.71-7.47c0.2-2.9-0.74-5.71-2.65-7.9
			c-1.91-2.19-4.56-3.51-7.47-3.71C75.54,42.37,74.97,42.37,74.41,42.42z"/>
	</g>
	<circle class="st3" cx="56.37" cy="69" r="25.5"/>
	<g>
		<path class="st1" d="M54.46,95.69c-4.37,0-8.79-1.15-12.8-3.57c-11.72-7.08-15.49-22.38-8.41-34.1
			c3.43-5.68,8.87-9.68,15.31-11.27c6.44-1.59,13.11-0.57,18.79,2.86l0,0c5.68,3.43,9.68,8.87,11.27,15.31
			c1.59,6.44,0.57,13.11-2.86,18.79C71.09,91.42,62.87,95.69,54.46,95.69z M54.54,48.57c-1.79,0-3.59,0.22-5.38,0.66
			c-5.78,1.43-10.66,5.02-13.73,10.11c-6.35,10.52-2.97,24.24,7.55,30.59c3.59,2.17,7.56,3.21,11.49,3.21
			c7.55,0,14.93-3.83,19.11-10.75c3.08-5.09,3.99-11.08,2.56-16.86c-1.43-5.78-5.02-10.66-10.11-13.73l0,0
			C62.5,49.66,58.55,48.57,54.54,48.57z"/>
		<path class="st1" d="M50.78,84.16L37.81,71.19l6.28-6.28l6.69,6.69l12.72-12.72l6.28,6.28L50.78,84.16z M41.42,71.19l9.36,9.36
			l15.39-15.39l-2.67-2.67L50.78,75.21l-6.69-6.69L41.42,71.19z"/>
	</g>
</g>
</svg>
