<?xml version="1.0" encoding="utf-8"?>
<!-- Generator: Adobe Illustrator 25.4.1, SVG Export Plug-In . SVG Version: 6.00 Build 0)  -->
<svg version="1.1" id="Capa_1" xmlns="http://www.w3.org/2000/svg" xmlns:xlink="http://www.w3.org/1999/xlink" x="0px" y="0px"
	 viewBox="0 0 125 125" style="enable-background:new 0 0 125 125;" xml:space="preserve">
<style type="text/css">
	.st0{fill:#E57C2E;}
	.st1{fill:#FFFFFF;}
	.st2{fill:#789CAB;}
	.st3{fill:#4C5F68;}
	.st4{fill:#A2C617;}
	.st5{fill:none;stroke:#FFFFFF;stroke-width:2.5;stroke-miterlimit:10;}
</style>
<g>
	<g>
		<g>
			<circle class="st2" cx="61.92" cy="62.5" r="52"/>
		</g>
		<g>
			<rect x="74.78" y="88.11" class="st1" width="2.24" height="3.84"/>
			<rect x="46.84" y="88.11" class="st1" width="2.24" height="3.84"/>
			<path class="st1" d="M91.9,96.56c0-0.02,0.01-0.04,0-0.06l-1.43-11.93c-0.66-4.19-3.72-7.66-7.8-8.84l-4.89-1.41l-4.15-1.2
				c0,0,0,0,0,0l-1.96-0.57c0,0-0.01,0-0.01-0.01l-0.6-3.41c0,0,0-0.01,0-0.01c3.81-2.73,6.3-7.18,6.3-12.21l0-1.35
				c0,0,0.01-0.01,0.01-0.01c-0.25-0.7-0.25-5.7,0.12-8.67c0-0.01-0.01-0.01-0.01-0.01L78.24,44c0.01-0.03,0-0.07,0.01-0.1
				c0.01-0.05,0.03-0.1,0.03-0.15c0-9.03-7.35-16.38-16.38-16.38c-9.03,0-16.38,7.35-16.38,16.38c0,0.05,0.02,0.1,0.03,0.15
				c0.01,0.03,0,0.07,0.01,0.1l0.74,2.88c0,0-0.01,0.01-0.01,0.01c0.85,1.96,0.13,8.65,0.13,8.66l0,1.36
				c0,5.01,2.47,9.44,6.25,12.17c0,0,0,0.01,0,0.01l-0.51,3.45c0,0,0,0.01-0.01,0.01l-1.95,0.56c0,0,0,0,0,0l-3.22,0.93l-5.82,1.68
				c-4.08,1.18-7.14,4.65-7.8,8.87l-1.42,11.9c0,0.02,0.01,0.04,0,0.06c0,0.02-0.01,0.04-0.01,0.06c0,0.05,0.02,0.09,0.03,0.14
				c0.01,0.07,0.02,0.14,0.04,0.2c0.02,0.06,0.05,0.12,0.09,0.17c0.03,0.06,0.06,0.11,0.11,0.16c0.04,0.05,0.09,0.09,0.15,0.13
				c0.05,0.04,0.1,0.08,0.16,0.11c0.06,0.03,0.13,0.05,0.19,0.06c0.05,0.01,0.09,0.04,0.14,0.04c0.04,0,0.08,0.01,0.12,0.01
				c0,0,0,0,0,0h9.22h38.76h9.99c0,0,0,0,0,0c0.04,0,0.08,0,0.12-0.01c0.05-0.01,0.09-0.03,0.14-0.04c0.07-0.02,0.13-0.03,0.19-0.06
				c0.06-0.03,0.11-0.07,0.16-0.11c0.05-0.04,0.1-0.08,0.15-0.13c0.04-0.05,0.07-0.1,0.11-0.16c0.03-0.06,0.07-0.11,0.09-0.17
				c0.02-0.06,0.03-0.13,0.04-0.2c0.01-0.05,0.03-0.09,0.03-0.14C91.92,96.6,91.91,96.58,91.9,96.56z M77.66,76.4v7.5
				c0,0.01,0,0.01-0.01,0.01h-3.26c-0.01,0-0.01,0-0.01-0.01v-8.44c0-0.01,0.01-0.01,0.01-0.01l2.2,0.64L77.66,76.4
				C77.66,76.4,77.66,76.4,77.66,76.4z M47.91,45c0-0.01,0-0.01,0.01-0.01c4.68,0.75,9.36,1.15,14.03,1.15
				c4.66,0,9.31-0.4,13.91-1.15c0.01,0,0.01,0.01,0.01,0.01l-1.55,5.99c-0.28,1.07-0.79,1.61-1.18,1.77
				c-0.23,0.09-0.44,0.07-0.67-0.08c-7.02-4.32-14.14-4.32-21.16,0c-0.23,0.14-0.45,0.17-0.67,0.08c-0.39-0.16-0.91-0.7-1.18-1.77
				L47.91,45z M61.89,29.4c7.62,0,13.87,5.97,14.32,13.48c0,0.01,0,0.01-0.01,0.01c-9.43,1.61-19.05,1.61-28.62,0
				c-0.01,0-0.01-0.01-0.01-0.01C48.02,35.37,54.27,29.4,61.89,29.4z M48.44,56.91l0.01-3.35c0-0.01,0.01-0.01,0.02-0.01
				c0.4,0.5,0.87,0.88,1.41,1.1c0.83,0.33,1.72,0.25,2.5-0.23c6.4-3.94,12.62-3.94,19.02,0c0.47,0.29,0.97,0.43,1.48,0.43
				c0.34,0,0.69-0.07,1.02-0.2c0.54-0.22,1.01-0.6,1.41-1.1c0.01-0.01,0.02,0,0.02,0.01l0.01,3.35c0,7.16-5.83,12.99-12.99,12.99
				h-0.91C54.27,69.9,48.44,64.07,48.44,56.91z M69.68,72.99L69.68,72.99c-2.4,3.93-12.4,3.93-15.51,0l-0.01-0.01c0,0,0-0.01,0-0.01
				l0.4-2.7c0-0.01,0.01-0.01,0.01-0.01c2.06,1.07,4.39,1.68,6.87,1.68h0.91c2.47,0,4.79-0.61,6.84-1.66c0.01,0,0.01,0,0.01,0.01
				L69.68,72.99C69.68,72.98,69.68,72.98,69.68,72.99z M52.78,74.49C52.79,74.49,52.79,74.49,52.78,74.49c0.01,0,2.85,3.43,9.5,3.43
				c6.36,0,8.77-3.42,8.77-3.42c0,0,0.01,0,0.01,0l1.28,0.37c0,0,0.01,0.01,0.01,0.01v9.03c0,0.01,0,0.01-0.01,0.01H51.5
				c-0.01,0-0.01,0-0.01-0.01v-9.03c0,0,0-0.01,0.01-0.01L52.78,74.49z M46.17,76.4C46.17,76.4,46.18,76.4,46.17,76.4l1.67-0.49
				l1.6-0.46c0.01,0,0.01,0,0.01,0.01v8.44c0,0.01,0,0.01-0.01,0.01h-3.26c-0.01,0-0.01,0-0.01-0.01V76.4z M35.36,84.88
				c0.54-3.41,3.03-6.24,6.35-7.2l2.41-0.7c0.01,0,0.01,0,0.01,0.01v6.9c0,0.01,0,0.01-0.01,0.01h-1.97c-0.57,0-1.03,0.46-1.03,1.03
				v10.65c0,0.01,0,0.01-0.01,0.01h-7.03c-0.01,0-0.01-0.01-0.01-0.01L35.36,84.88z M43.17,85.96
				C43.17,85.95,43.17,85.95,43.17,85.96l1.98-0.01h5.31h22.89h5.31h1.21c0.01,0,0.01,0,0.01,0.01v9.64c0,0.01,0,0.01-0.01,0.01
				h-36.7c-0.01,0-0.01,0-0.01-0.01V85.96z M81.93,95.59V84.94c0-0.57-0.46-1.03-1.03-1.03h-1.2c-0.01,0-0.01,0-0.01-0.01V77
				c0-0.01,0.01-0.01,0.01-0.01l2.41,0.7c3.32,0.96,5.81,3.78,6.34,7.16l1.28,10.75c0,0.01,0,0.01-0.01,0.01L81.93,95.59
				C81.94,95.6,81.93,95.6,81.93,95.59z"/>
		</g>
	</g>
	<g>
		<path class="st1" d="M64.91,65.45c0.44-0.2,0.64-0.72,0.44-1.16c-0.2-0.44-0.72-0.64-1.16-0.44c-1.44,0.64-3.09,0.64-4.53,0
			c-0.44-0.2-0.96,0-1.16,0.44c-0.2,0.44,0,0.96,0.44,1.16c0.95,0.42,1.95,0.64,2.98,0.64C62.96,66.08,63.97,65.87,64.91,65.45z"/>
		<path class="st1" d="M56,55.47c-0.48,0-0.88,0.39-0.88,0.88v2.21c0,0.48,0.39,0.88,0.88,0.88s0.88-0.39,0.88-0.88v-2.21
			C56.88,55.86,56.49,55.47,56,55.47z"/>
		<path class="st1" d="M67.83,59.42c0.48,0,0.88-0.39,0.88-0.88v-2.21c0-0.48-0.39-0.88-0.88-0.88s-0.88,0.39-0.88,0.88v2.21
			C66.95,59.03,67.35,59.42,67.83,59.42z"/>
	</g>
</g>
</svg>
