<?xml version="1.0" encoding="utf-8"?>
<!-- Generator: Adobe Illustrator 25.4.1, SVG Export Plug-In . SVG Version: 6.00 Build 0)  -->
<svg version="1.1" id="Capa_1" xmlns="http://www.w3.org/2000/svg" xmlns:xlink="http://www.w3.org/1999/xlink" x="0px" y="0px"
	 viewBox="0 0 125 125" style="enable-background:new 0 0 125 125;" xml:space="preserve">
<style type="text/css">
	.st0{fill:#E57C2E;}
	.st1{fill:#FFFFFF;}
	.st2{fill:#789CAB;}
	.st3{fill:#4C5F68;}
	.st4{fill:#A2C617;}
	.st5{fill:none;stroke:#FFFFFF;stroke-width:2.5;stroke-miterlimit:10;}
</style>
<g>
	<g>
		<g>
			<circle class="st4" cx="62.5" cy="62.5" r="52"/>
		</g>
	</g>
	<g>
		<rect x="57.9" y="60.01" class="st1" width="29.13" height="1.51"/>
		<g>
			<rect x="57.9" y="67.33" class="st1" width="4.44" height="1.51"/>
			<rect x="66.18" y="67.33" class="st1" width="4.44" height="1.51"/>
			<rect x="74.39" y="67.33" class="st1" width="4.44" height="1.51"/>
			<rect x="82.59" y="67.33" class="st1" width="4.44" height="1.51"/>
		</g>
		<g>
			<rect x="57.9" y="82.03" class="st1" width="4.44" height="1.51"/>
			<rect x="66.18" y="82.03" class="st1" width="4.44" height="1.51"/>
			<rect x="74.39" y="82.03" class="st1" width="4.44" height="1.51"/>
		</g>
		<g>
			<rect x="57.9" y="74.86" class="st1" width="4.44" height="1.51"/>
			<rect x="74.39" y="74.86" class="st1" width="4.44" height="1.51"/>
			<rect x="82.59" y="74.86" class="st1" width="4.44" height="1.51"/>
		</g>
		<g>
			<path class="st1" d="M89.9,51.37h-2.41v-1.7c0-0.5-0.4-0.9-0.9-0.9s-0.9,0.4-0.9,0.9v1.7h-5.3v-1.7c0-0.5-0.4-0.9-0.9-0.9
				c-0.5,0-0.9,0.4-0.9,0.9v1.7h-5.3v-1.7c0-0.5-0.4-0.9-0.9-0.9c-0.5,0-0.9,0.4-0.9,0.9v1.7h-5.3v-1.7c0-0.5-0.4-0.9-0.9-0.9
				c-0.5,0-0.9,0.4-0.9,0.9v1.7h-5.3v-1.7c0-0.5-0.4-0.9-0.9-0.9c-0.5,0-0.9,0.4-0.9,0.9v1.7h-2.41c-2.31,0-4.18,1.88-4.18,4.18
				v32.43c0,2.31,1.88,4.18,4.18,4.18H89.9c2.31,0,4.18-1.88,4.18-4.18V55.55C94.08,53.25,92.21,51.37,89.9,51.37z M92.28,87.98
				c0,1.31-1.07,2.38-2.38,2.38H54.87c-1.31,0-2.38-1.07-2.38-2.38V55.55c0-1.31,1.07-2.38,2.38-2.38h2.41v1.7
				c0,0.5,0.4,0.9,0.9,0.9c0.5,0,0.9-0.4,0.9-0.9v-1.7h5.3v1.7c0,0.5,0.4,0.9,0.9,0.9c0.5,0,0.9-0.4,0.9-0.9v-1.7h5.3v1.7
				c0,0.5,0.4,0.9,0.9,0.9c0.5,0,0.9-0.4,0.9-0.9v-1.7h5.3v1.7c0,0.5,0.4,0.9,0.9,0.9c0.5,0,0.9-0.4,0.9-0.9v-1.7h5.3v1.7
				c0,0.5,0.4,0.9,0.9,0.9s0.9-0.4,0.9-0.9v-1.7h2.41c1.31,0,2.38,1.07,2.38,2.38V87.98z"/>
			<path class="st1" d="M70.92,72.86c-0.35-0.35-0.92-0.35-1.27,0l-1.39,1.39l-1.39-1.39c-0.35-0.35-0.92-0.35-1.27,0
				c-0.35,0.35-0.35,0.92,0,1.27l1.39,1.39L65.6,76.9c-0.35,0.35-0.35,0.92,0,1.27c0.18,0.18,0.41,0.26,0.64,0.26
				s0.46-0.09,0.64-0.26l1.39-1.39l1.39,1.39c0.18,0.18,0.41,0.26,0.64,0.26c0.23,0,0.46-0.09,0.64-0.26c0.35-0.35,0.35-0.92,0-1.27
				l-1.39-1.39l1.39-1.39C71.27,73.78,71.27,73.21,70.92,72.86z"/>
		</g>
		<g>
			<path class="st1" d="M46.77,52.33c0-0.21,0-0.73,0-1.38H33c-0.39,0-0.7-0.31-0.7-0.7v-1.98c0-0.39,0.31-0.7,0.7-0.7h17.48
				c0-0.43,0-0.96,0-1.38H33c-0.39,0-0.7-0.31-0.7-0.7v-9.25c0-1.12,0.9-2.02,2.02-2.02h24.09c1.12,0,2.02,0.9,2.02,2.02v9.67
				c1.24,0-0.33,0,1.38,0v-9.67c0-1.88-1.52-3.4-3.4-3.4H34.32c-1.88,0-3.4,1.52-3.4,3.4v17.3c0,1.88,1.52,3.4,3.4,3.4h12.44
				c0-0.61,0-1.13,0-1.38H34.32c-1.12,0-2.02-0.9-2.02-2.02v-0.5c0-0.39,0.31-0.7,0.7-0.7H46.77z"/>
			<rect x="36.21" y="41.1" class="st1" width="4.99" height="1.57"/>
		</g>
	</g>
</g>
</svg>
