<svg enable-background="new 0 0 125 125" viewBox="0 0 125 125" xmlns="http://www.w3.org/2000/svg"><circle cx="62.13" cy="62.7" fill="#e57c2e" r="52"/><g fill="#fff"><path d="m79.29 59.93c-1.06 0-2.12-.12-3.19-.35l-1.12-.25.5-2.24 1.12.25c4.06.91 8.24-.3 11.17-3.23 2.75-2.75 3.98-6.64 3.38-10.43l-5.04 5.04c-.35.35-.87.49-1.35.35l-6.31-1.76c-.46-.13-.83-.5-.96-.96l-1.76-6.31c-.13-.48 0-1 .35-1.35l5.04-5.04c-3.79-.6-7.68.63-10.43 3.38-.39.39-.76.81-1.09 1.25l-.69.91-1.83-1.39.69-.91c.39-.52.83-1.02 1.29-1.48 3.69-3.69 9.1-5.09 14.13-3.64.49.14.87.54 1 1.03.13.5-.02 1.03-.38 1.4l-5.74 5.74 1.48 5.29 5.3 1.48 5.74-5.74c.36-.36.9-.51 1.4-.38s.89.51 1.03 1c1.44 5.02.05 10.44-3.64 14.13-2.7 2.74-6.33 4.21-10.09 4.21z"/><path d="m37.69 94.17c-1.8 0-3.6-.69-4.97-2.06-1.33-1.33-2.06-3.09-2.06-4.97s.73-3.64 2.06-4.97l7.78-7.78 1.62 1.62-7.78 7.78c-.89.89-1.39 2.08-1.39 3.35 0 1.26.49 2.45 1.39 3.35.89.89 2.08 1.39 3.35 1.39s2.45-.49 3.35-1.39l.81-.81 1.62 1.62-.81.81c-1.37 1.37-3.17 2.06-4.97 2.06z"/><path d="m67.27 91.38h-18.13c-3.27 0-5.93-2.66-5.93-5.93v-38.76c0-3.27 2.66-5.93 5.93-5.93h18.13c3.27 0 5.93 2.66 5.93 5.93v38.77c0 3.26-2.66 5.92-5.93 5.92zm-18.13-48.33c-2 0-3.63 1.63-3.63 3.63v38.77c0 2 1.63 3.63 3.63 3.63h18.13c2 0 3.63-1.63 3.63-3.63v-38.76c0-2-1.63-3.63-3.63-3.63h-18.13z"/><path d="m72.05 82.91h-27.24c-.63 0-1.15-.51-1.15-1.15 0-.63.51-1.15 1.15-1.15h27.24c.63 0 1.15.51 1.15 1.15s-.51 1.15-1.15 1.15z"/><path d="m72.05 50.91h-27.24c-.63 0-1.15-.51-1.15-1.15 0-.63.51-1.15 1.15-1.15h27.24c.63 0 1.15.51 1.15 1.15s-.51 1.15-1.15 1.15z"/></g></svg>