<?xml version="1.0" encoding="utf-8"?>
<!-- Generator: Adobe Illustrator 25.4.1, SVG Export Plug-In . SVG Version: 6.00 Build 0)  -->
<svg version="1.1" id="Capa_1" xmlns="http://www.w3.org/2000/svg" xmlns:xlink="http://www.w3.org/1999/xlink" x="0px" y="0px"
	 viewBox="0 0 125 125" style="enable-background:new 0 0 125 125;" xml:space="preserve">
<style type="text/css">
	.st0{fill:#E57C2E;}
	.st1{fill:#FFFFFF;}
	.st2{fill:#789CAB;}
	.st3{fill:#4C5F68;}
	.st4{fill:#A2C617;}
	.st5{fill:none;stroke:#FFFFFF;stroke-width:2.5;stroke-miterlimit:10;}
</style>
<g>
	<g>
		<g>
			<g>
				<circle class="st2" cx="63.02" cy="61.94" r="52"/>
			</g>
		</g>
	</g>
	<path class="st1" d="M56.34,76.28c-0.08,0.75,0.26,4.1,0.87,4.43c2.05,1.12,4.22,1.74,6.57,1.73c3.65-0.03,7.3,0.02,10.95-0.03
		c1.05-0.01,2.12-0.18,3.15-0.42c1.03-0.24,1.62-1.01,1.86-2.04c0.25-1.1-0.17-1.77-1.28-1.99c-0.65-0.13-1.02-0.59-0.97-1.19
		c0.05-0.57,0.49-0.97,1.12-1c0.05,0,0.11,0,0.17,0c1.57-0.04,2.54-0.9,2.76-2.44c0.18-1.24-0.39-1.93-1.63-2.01
		c-0.18-0.01-0.37-0.04-0.53-0.1c-0.45-0.18-0.72-0.68-0.65-1.16c0.08-0.49,0.46-0.87,0.96-0.92c0.27-0.03,0.55,0,0.82-0.04
		c1.66-0.23,2.57-1.64,2.13-3.25c-0.17-0.61-0.59-0.9-1.19-0.98c-0.2-0.03-0.41-0.02-0.6-0.06c-0.56-0.11-0.94-0.61-0.9-1.15
		c0.04-0.56,0.46-0.97,1.04-1.02c0.29-0.02,0.59-0.03,0.88-0.07c1.57-0.25,2.44-1.67,1.96-3.2c-0.23-0.73-0.62-1.03-1.42-1.03
		c-3.54-0.01-7.08,0-10.62,0c-0.18,0-0.37,0.01-0.55,0c-1.02-0.05-1.47-0.87-0.98-1.78c0.84-1.54,1.72-3.07,2.51-4.64
		c1.79-3.59,0.93-6.84-1.42-9.82c-0.41-0.52-1-0.91-1.57-1.26c-0.37-0.23-0.86-0.35-1.3-0.37c-1.34-0.08-1.86,0.5-1.66,1.8
		c0.11,0.69,0.24,1.37,0.34,2.06c0.37,2.51-0.29,4.76-1.96,6.64c-2.03,2.27-4.14,4.46-6.23,6.67c-0.71,0.75-1.45,1.46-2.2,2.16
		c-0.28,0.26-0.37,0.54-0.37,0.91c0.01,2.62,0.01,5.25,0.01,7.87c0,0.15,0,8.29,0,8.44c-0.03,0.64-2.15,0.66-2.19,0.03
		c-0.03-0.48-0.01-8.95-0.01-9.43c0-3.21,0-6.42,0-9.63c0-0.18-0.01-0.36-0.02-0.56c-4.01,0-7.98,0-12.02,0c0,1,0.04,8.96-0.02,9.93
		c-0.02,0.35-2.16,0.64-2.17,0.19c-0.01-1.43-0.02-9.86,0-11.29c0.01-0.62,0.46-1.03,1.12-1.05c0.57-0.02,1.14,0,1.71,0
		c3.91,0,7.82,0,11.72,0c1.65,0,1.77,0.11,1.91,1.79c0.13-0.11,0.25-0.18,0.34-0.28c2.15-2.26,4.31-4.51,6.45-6.78
		c1.72-1.82,2.18-3.97,1.61-6.37c-0.09-0.39-0.15-0.79-0.2-1.19c-0.31-2.23,0.67-3.6,2.89-4.02c1.67-0.32,3.14,0.19,4.4,1.24
		c2.7,2.24,3.87,5.22,3.99,8.66c0.05,1.34-0.18,2.63-0.77,3.84c-0.56,1.15-1.14,2.3-1.72,3.44c-0.09,0.18-0.18,0.35-0.32,0.61
		c0.51,0,0.94,0,1.37,0c2.51,0,5.03,0.09,7.54-0.03c3.31-0.15,4.55,2.61,4.04,5.08c-0.24,1.17-0.84,2.1-1.84,2.82
		c0.75,1.07,0.84,2.26,0.65,3.48c-0.19,1.23-0.77,2.24-1.83,3c0.78,1.16,0.93,2.41,0.6,3.74c-0.32,1.3-1.03,2.34-2.15,3.06
		c1.01,2.54,0.38,4.93-1.64,6.24c-1.01,0.66-2.15,0.93-3.33,1.03c-0.75,0.06-1.5,0.09-2.25,0.09c-3.43,0.01-6.86-0.02-10.29,0.01
		c-2.53,0.03-4.91-0.53-7.16-1.67c-0.11-0.06-0.22-0.1-0.41-0.19c0,0.61,0.01,1.15,0,1.7c-0.01,0.78-0.41,1.19-1.19,1.19
		c-4.68,0.01-9.36,0.01-14.04,0c-0.81,0-1.2-0.41-1.2-1.24c0-5.61,0-12.23,0-17.84c0-0.77,2.19-0.75,2.19,0.01
		c0,5.05,0,11.09,0,16.14c0,0.22,0,0.43,0,0.71c4.04,0,8,0,12.04,0c0-0.21,0-0.4,0-0.59c0-1.19-0.01-5.39,0-6.58"/>
</g>
</svg>
