<?xml version="1.0" encoding="utf-8"?>
<!-- Generator: Adobe Illustrator 25.4.1, SVG Export Plug-In . SVG Version: 6.00 Build 0)  -->
<svg version="1.1" id="Capa_1" xmlns="http://www.w3.org/2000/svg" xmlns:xlink="http://www.w3.org/1999/xlink" x="0px" y="0px"
	 viewBox="0 0 125 125" style="enable-background:new 0 0 125 125;" xml:space="preserve">
<style type="text/css">
	.st0{fill:#E57C2E;}
	.st1{fill:#FFFFFF;}
	.st2{fill:#789CAB;}
	.st3{fill:#4C5F68;}
	.st4{fill:#A2C617;}
	.st5{fill:none;stroke:#FFFFFF;stroke-width:2.5;stroke-miterlimit:10;}
</style>
<g>
	<g>
		<g>
			<g>
				<g>
					<circle class="st0" cx="62.31" cy="62.29" r="52"/>
				</g>
			</g>
		</g>
	</g>
	<g>
		<path class="st1" d="M62.31,95.41c-17.05,0-26.25-5.28-26.25-10.25c0-4.17,4.51-7.34,13.94-9l2,2c-5,0-13.88,3-13.44,7
			s9.75,7.75,23.75,7.75S85,89.16,86.06,85.16c0.81-3.04-5.06-6-13.26-6.9l2.2-2.1c9.61,1.64,13.56,4.77,13.56,9
			C88.56,90.13,79.36,95.41,62.31,95.41z"/>
		<g>
			<path class="st1" d="M62.06,84.49l-0.83-0.74c-6.67-5.96-18.03-17.97-19.29-31.38c-0.59-6.35,1.48-12.56,5.68-17.04
				c3.89-4.15,9.19-6.34,14.9-6.16c9.89,0.3,17.39,6.19,19.57,15.38c2.72,11.43-2.79,23.75-16.37,36.62
				c-0.91,0.86-1.86,1.73-2.84,2.59L62.06,84.49z M61.91,31.66c-4.78,0-9.18,1.9-12.45,5.38c-3.72,3.96-5.55,9.46-5.02,15.1
				c1.13,12.03,11.18,23.07,17.64,29c0.66-0.59,1.31-1.19,1.93-1.78C76.9,67.14,82.16,55.62,79.67,45.13
				c-1.91-8.04-8.51-13.2-17.21-13.46C62.27,31.66,62.09,31.66,61.91,31.66z"/>
			<path class="st1" d="M62.31,59.62c-5.81,0-10.53-4.72-10.53-10.53c0-5.81,4.72-10.53,10.53-10.53s10.53,4.72,10.53,10.53
				C72.84,54.9,68.12,59.62,62.31,59.62z M62.31,41.06c-4.43,0-8.03,3.6-8.03,8.03s3.6,8.03,8.03,8.03s8.03-3.6,8.03-8.03
				S66.74,41.06,62.31,41.06z"/>
		</g>
	</g>
</g>
</svg>
