<?xml version="1.0" encoding="utf-8"?>
<!-- Generator: Adobe Illustrator 25.4.1, SVG Export Plug-In . SVG Version: 6.00 Build 0)  -->
<svg version="1.1" id="Capa_1" xmlns="http://www.w3.org/2000/svg" xmlns:xlink="http://www.w3.org/1999/xlink" x="0px" y="0px"
	 viewBox="0 0 125 125" style="enable-background:new 0 0 125 125;" xml:space="preserve">
<style type="text/css">
	.st0{fill:#E57C2E;}
	.st1{fill:#FFFFFF;}
	.st2{fill:#789CAB;}
	.st3{fill:#4C5F68;}
	.st4{fill:#A2C617;}
	.st5{fill:none;stroke:#FFFFFF;stroke-width:2.5;stroke-miterlimit:10;}
</style>
<g>
	<g>
		<circle class="st3" cx="62.34" cy="63.2" r="52"/>
	</g>
	<g>
		<path class="st1" d="M70.69,83.14c-1.19,0.72-3.2,1.44-5.51,1.44c-3.28,0-6.23-1.29-8.14-3.71c-1.15-1.33-1.94-3.13-2.27-5.33
			h-2.3v-2.23h2.02c0-0.18,0-0.36,0-0.54c0-0.47,0.04-0.94,0.07-1.33h-2.09v-2.23h2.41c0.43-2.23,1.4-4.07,2.7-5.47
			c1.94-2.12,4.57-3.35,7.77-3.35c2.16,0,3.96,0.54,5.15,1.12l-0.9,3.31c-0.94-0.47-2.41-0.94-4.03-0.94c-1.8,0-3.38,0.65-4.57,1.98
			c-0.76,0.79-1.3,1.98-1.58,3.35h9.43v2.23h-9.86c-0.07,0.4-0.07,0.83-0.07,1.3c0,0.22,0,0.36,0,0.58h9.93v2.23h-9.54
			c0.25,1.51,0.79,2.7,1.55,3.49c1.22,1.33,2.95,1.94,4.82,1.94c1.76,0,3.42-0.61,4.25-1.04L70.69,83.14z"/>
	</g>
	<g>
		<g id="XMLID_4434_">
			<path id="XMLID_4441_" class="st1" d="M32.72,82.25c0,4.72,1.11,8.09,3.41,10.3C39.09,95.4,43.69,96,49.17,96
				c1.9,0,3.9-0.07,5.97-0.15c2.32-0.08,4.72-0.17,7.2-0.17c1.93,0,3.81,0.04,5.64,0.07c8.69,0.17,16.19,0.32,20.44-3.85
				c2.38-2.33,3.54-5.81,3.54-10.63c0-11.5-7.15-26.76-18.69-31.34c-0.13-0.05-0.28-0.08-0.42-0.08h-21c-0.15,0-0.29,0.03-0.42,0.08
				C40.23,54.37,32.72,70.23,32.72,82.25z M52.06,52.15h20.55c9.42,3.88,17.05,16.89,17.05,29.13c0,4.17-0.93,7.11-2.85,8.99
				c-3.56,3.49-10.62,3.35-18.79,3.19c-1.84-0.04-3.73-0.07-5.68-0.07c-2.52,0-4.94,0.09-7.28,0.17c-7.54,0.27-14.05,0.5-17.34-2.67
				c-1.82-1.76-2.7-4.58-2.7-8.65C35.02,68.4,43.79,55.58,52.06,52.15z"/>
			<path id="XMLID_4438_" class="st1" d="M53.22,47.77h17.99c0.32,0,0.62-0.13,0.84-0.36c3.35-3.57,5.34-10.87,5.34-15.85
				c0-0.63-0.51-1.15-1.15-1.15H48.19c-0.63,0-1.15,0.51-1.15,1.15c0,4.99,2,12.28,5.35,15.86C52.6,47.64,52.91,47.77,53.22,47.77z
				 M75.06,32.7c-0.26,4.21-1.87,9.8-4.37,12.78H53.74c-2.49-2.97-4.11-8.57-4.37-12.78H75.06z"/>
		</g>
	</g>
</g>
</svg>
